<svg xmlns="http://www.w3.org/2000/svg" xmlns:xlink="http://www.w3.org/1999/xlink" width="590" zoomAndPan="magnify" viewBox="0 0 442.5 517.499968" height="690" preserveAspectRatio="xMidYMid meet" version="1.2"><defs><clipPath id="de5fc67e45"><path d="M 0.121094 13.914062 L 437.625 13.914062 L 437.625 516.597656 L 0.121094 516.597656 Z M 0.121094 13.914062 "/></clipPath><clipPath id="4498b45317"><path d="M 58.527344 13.914062 L 379.214844 13.914062 C 394.707031 13.914062 409.5625 20.066406 420.515625 31.023438 C 431.472656 41.976562 437.625 56.832031 437.625 72.324219 L 437.625 458.160156 C 437.625 473.652344 431.472656 488.507812 420.515625 499.460938 C 409.5625 510.414062 394.707031 516.570312 379.214844 516.570312 L 58.527344 516.570312 C 43.035156 516.570312 28.179688 510.414062 17.226562 499.460938 C 6.273438 488.507812 0.121094 473.652344 0.121094 458.160156 L 0.121094 72.324219 C 0.121094 56.832031 6.273438 41.976562 17.226562 31.023438 C 28.179688 20.066406 43.035156 13.914062 58.527344 13.914062 Z M 58.527344 13.914062 "/></clipPath><clipPath id="35457fd388"><path d="M 393.621094 208.683594 L 405.816406 208.683594 L 405.816406 220.882812 L 393.621094 220.882812 Z M 393.621094 208.683594 "/></clipPath><clipPath id="b47004c7d5"><path d="M 399.71875 208.683594 C 396.351562 208.683594 393.621094 211.414062 393.621094 214.78125 C 393.621094 218.152344 396.351562 220.882812 399.71875 220.882812 C 403.085938 220.882812 405.816406 218.152344 405.816406 214.78125 C 405.816406 211.414062 403.085938 208.683594 399.71875 208.683594 Z M 399.71875 208.683594 "/></clipPath><clipPath id="31d76e84a1"><path d="M 393.621094 370.941406 L 405.816406 370.941406 L 405.816406 383.140625 L 393.621094 383.140625 Z M 393.621094 370.941406 "/></clipPath><clipPath id="0e705d1e03"><path d="M 399.71875 370.941406 C 396.351562 370.941406 393.621094 373.671875 393.621094 377.039062 C 393.621094 380.410156 396.351562 383.140625 399.71875 383.140625 C 403.085938 383.140625 405.816406 380.410156 405.816406 377.039062 C 405.816406 373.671875 403.085938 370.941406 399.71875 370.941406 Z M 399.71875 370.941406 "/></clipPath></defs><g id="367253f1a2"><g clip-rule="nonzero" clip-path="url(#de5fc67e45)"><g clip-rule="nonzero" clip-path="url(#4498b45317)"><path style="fill:none;stroke-width:12;stroke-linecap:butt;stroke-linejoin:miter;stroke:#285256;stroke-opacity:1;stroke-miterlimit:4;" d="M 77.99822 -0.00056056 L 506.24798 -0.00056056 C 526.936425 -0.00056056 546.774588 8.21535 561.401516 22.847495 C 576.033661 37.474423 584.249572 57.312586 584.249572 78.001031 L 584.249572 593.25076 C 584.249572 613.939205 576.033661 633.777368 561.401516 648.404296 C 546.774588 663.031225 526.936425 671.252352 506.24798 671.252352 L 77.99822 671.252352 C 57.309776 671.252352 37.471613 663.031225 22.844684 648.404296 C 8.217756 633.777368 0.0018453 613.939205 0.0018453 593.25076 L 0.0018453 78.001031 C 0.0018453 57.312586 8.217756 37.474423 22.844684 22.847495 C 37.471613 8.21535 57.309776 -0.00056056 77.99822 -0.00056056 Z M 77.99822 -0.00056056 " transform="matrix(0.748833,0,0,0.748833,0.119712,13.914482)"/></g></g><g style="fill:#1b1b1b;fill-opacity:1;"><g transform="translate(42.940996, 226.525253)"><path style="stroke:none" d="M 0.921875 6.84375 C 1.734375 5.96875 2.414062 5.003906 2.96875 3.953125 C 3.519531 2.910156 3.796875 1.941406 3.796875 1.046875 C 3.796875 0.429688 3.691406 -0.101562 3.484375 -0.5625 C 3.285156 -1.03125 2.910156 -1.410156 2.359375 -1.703125 C 2.359375 -2.429688 2.640625 -3.097656 3.203125 -3.703125 C 3.765625 -4.316406 4.425781 -4.625 5.1875 -4.625 C 6.03125 -4.625 6.734375 -4.335938 7.296875 -3.765625 C 7.867188 -3.203125 8.15625 -2.515625 8.15625 -1.703125 C 8.15625 -0.535156 7.921875 0.660156 7.453125 1.890625 C 6.984375 3.128906 6.328125 4.300781 5.484375 5.40625 C 4.648438 6.507812 3.648438 7.453125 2.484375 8.234375 Z M 0.921875 6.84375 "/></g></g><g style="fill:#1b1b1b;fill-opacity:1;"><g transform="translate(53.620879, 226.525253)"><path style="stroke:none" d="M 14.5625 -21.703125 C 17.238281 -21.703125 19.222656 -21.082031 20.515625 -19.84375 C 21.804688 -18.613281 22.453125 -16.578125 22.453125 -13.734375 L 22.453125 0 L 19.1875 0 L 19.1875 -12.734375 C 19.1875 -14.796875 18.859375 -16.316406 18.203125 -17.296875 C 17.546875 -18.285156 16.1875 -18.78125 14.125 -18.78125 L 8.625 -18.78125 L 8.625 0 L 1.78125 0 L 1.78125 -2.875 L 5.359375 -2.875 L 5.359375 -18.78125 L 2 -18.78125 L 2 -21.703125 Z M 14.5625 -21.703125 "/></g></g><g style="fill:#1b1b1b;fill-opacity:1;"><g transform="translate(79.121818, 226.525253)"><path style="stroke:none" d="M 14.390625 -22.015625 C 16.484375 -22.015625 18.035156 -21.59375 19.046875 -20.75 C 20.066406 -19.90625 20.742188 -18.707031 21.078125 -17.15625 C 21.410156 -15.601562 21.578125 -13.734375 21.578125 -11.546875 L 21.578125 0 L 10.59375 0 L 10.9375 -2.921875 L 18.3125 -2.921875 L 18.3125 -11.6875 C 18.3125 -14.445312 17.96875 -16.367188 17.28125 -17.453125 C 16.601562 -18.546875 15.445312 -19.09375 13.8125 -19.09375 C 12.914062 -19.09375 12 -18.878906 11.0625 -18.453125 C 10.132812 -18.035156 9.179688 -17.492188 8.203125 -16.828125 L 5.96875 0 L 2.65625 0 L 5.0625 -16.78125 L 3.09375 -21.140625 L 5.96875 -22.359375 L 7.375 -19.484375 C 8.332031 -20.128906 9.410156 -20.710938 10.609375 -21.234375 C 11.816406 -21.753906 13.078125 -22.015625 14.390625 -22.015625 Z M 14.390625 -22.015625 "/></g></g><g style="fill:#1b1b1b;fill-opacity:1;"><g transform="translate(103.707349, 226.525253)"><path style="stroke:none" d="M 11.546875 -21.703125 L 11.203125 -18.78125 L 7.328125 -18.78125 L 9.546875 0 L 6.328125 0 L 4.140625 -18.78125 L 1.171875 -18.78125 L 1.171875 -21.703125 Z M 11.546875 -21.703125 "/></g></g><g style="fill:#1b1b1b;fill-opacity:1;"><g transform="translate(116.523205, 226.525253)"><path style="stroke:none" d="M 1.703125 0.34375 L 1.703125 -3.015625 C 4.203125 -3.441406 6.773438 -4.734375 9.421875 -6.890625 L 9.109375 -13.390625 C 9.054688 -14.835938 8.894531 -15.957031 8.625 -16.75 C 8.363281 -17.550781 7.945312 -18.101562 7.375 -18.40625 C 6.8125 -18.71875 6.023438 -18.875 5.015625 -18.875 C 4.253906 -18.875 3.367188 -18.800781 2.359375 -18.65625 L 2.359375 -21.578125 C 2.929688 -21.691406 3.507812 -21.765625 4.09375 -21.796875 C 4.675781 -21.828125 5.210938 -21.84375 5.703125 -21.84375 C 7.367188 -21.84375 8.664062 -21.625 9.59375 -21.1875 C 10.519531 -20.75 11.1875 -19.96875 11.59375 -18.84375 C 12 -17.726562 12.25 -16.15625 12.34375 -14.125 L 12.734375 -5.578125 L 13.78125 0 L 10.5 0 L 9.8125 -3.875 C 8.46875 -2.738281 7.101562 -1.820312 5.71875 -1.125 C 4.34375 -0.4375 3.003906 0.0507812 1.703125 0.34375 Z M 1.703125 0.34375 "/></g></g><g style="fill:#1b1b1b;fill-opacity:1;"><g transform="translate(132.434051, 226.525253)"><path style="stroke:none" d="M 8.671875 -21.703125 L 8.671875 0 L 5.40625 0 L 5.40625 -18.78125 L 1 -18.78125 L 1 -21.703125 Z M 8.671875 -21.703125 "/></g></g><g style="fill:#1b1b1b;fill-opacity:1;"><g transform="translate(144.334487, 226.525253)"><path style="stroke:none" d="M 14.390625 -22.015625 C 16.484375 -22.015625 18.035156 -21.59375 19.046875 -20.75 C 20.066406 -19.90625 20.742188 -18.707031 21.078125 -17.15625 C 21.410156 -15.601562 21.578125 -13.734375 21.578125 -11.546875 L 21.578125 0 L 10.59375 0 L 10.9375 -2.921875 L 18.3125 -2.921875 L 18.3125 -11.6875 C 18.3125 -14.445312 17.96875 -16.367188 17.28125 -17.453125 C 16.601562 -18.546875 15.445312 -19.09375 13.8125 -19.09375 C 12.914062 -19.09375 12 -18.878906 11.0625 -18.453125 C 10.132812 -18.035156 9.179688 -17.492188 8.203125 -16.828125 L 5.96875 0 L 2.65625 0 L 5.0625 -16.78125 L 3.09375 -21.140625 L 5.96875 -22.359375 L 7.375 -19.484375 C 8.332031 -20.128906 9.410156 -20.710938 10.609375 -21.234375 C 11.816406 -21.753906 13.078125 -22.015625 14.390625 -22.015625 Z M 14.390625 -22.015625 "/></g></g><g style="fill:#1b1b1b;fill-opacity:1;"><g transform="translate(168.920018, 226.525253)"><path style="stroke:none" d=""/></g></g><g style="fill:#1b1b1b;fill-opacity:1;"><g transform="translate(178.684482, 226.525253)"><path style="stroke:none" d="M 17.21875 0 L 17.21875 -12.734375 C 17.21875 -14.796875 16.890625 -16.316406 16.234375 -17.296875 C 15.578125 -18.285156 14.21875 -18.78125 12.15625 -18.78125 L 2.875 -18.78125 L 2.875 -21.703125 L 12.59375 -21.703125 C 15.269531 -21.703125 17.253906 -21.082031 18.546875 -19.84375 C 19.835938 -18.613281 20.484375 -16.578125 20.484375 -13.734375 L 20.484375 0 Z M 3.3125 0 L 3.3125 -11.734375 L 6.578125 -11.734375 L 6.578125 0 Z M 3.3125 0 "/></g></g><g style="fill:#1b1b1b;fill-opacity:1;"><g transform="translate(202.223819, 226.525253)"><path style="stroke:none" d="M 1.703125 0.34375 L 1.703125 -3.015625 C 4.203125 -3.441406 6.773438 -4.734375 9.421875 -6.890625 L 9.109375 -13.390625 C 9.054688 -14.835938 8.894531 -15.957031 8.625 -16.75 C 8.363281 -17.550781 7.945312 -18.101562 7.375 -18.40625 C 6.8125 -18.71875 6.023438 -18.875 5.015625 -18.875 C 4.253906 -18.875 3.367188 -18.800781 2.359375 -18.65625 L 2.359375 -21.578125 C 2.929688 -21.691406 3.507812 -21.765625 4.09375 -21.796875 C 4.675781 -21.828125 5.210938 -21.84375 5.703125 -21.84375 C 7.367188 -21.84375 8.664062 -21.625 9.59375 -21.1875 C 10.519531 -20.75 11.1875 -19.96875 11.59375 -18.84375 C 12 -17.726562 12.25 -16.15625 12.34375 -14.125 L 12.734375 -5.578125 L 13.78125 0 L 10.5 0 L 9.8125 -3.875 C 8.46875 -2.738281 7.101562 -1.820312 5.71875 -1.125 C 4.34375 -0.4375 3.003906 0.0507812 1.703125 0.34375 Z M 1.703125 0.34375 "/></g></g><g style="fill:#1b1b1b;fill-opacity:1;"><g transform="translate(218.134666, 226.525253)"><path style="stroke:none" d="M 18.828125 0.34375 L 7.984375 -13.03125 C 7.253906 -11.175781 6.710938 -9.207031 6.359375 -7.125 C 6.015625 -5.050781 5.882812 -2.675781 5.96875 0 L 2.53125 0 C 2.53125 -2.96875 2.832031 -5.695312 3.4375 -8.1875 C 4.050781 -10.6875 4.953125 -13 6.140625 -15.125 L 1.78125 -19.921875 L 4.3125 -22.109375 L 14.078125 -10.0625 C 15.421875 -11.695312 16.359375 -13.035156 16.890625 -14.078125 C 17.429688 -15.128906 17.703125 -15.929688 17.703125 -16.484375 C 17.703125 -17.117188 17.484375 -17.609375 17.046875 -17.953125 C 16.609375 -18.304688 15.796875 -18.800781 14.609375 -19.4375 L 15.90625 -22.234375 C 17.882812 -21.421875 19.238281 -20.613281 19.96875 -19.8125 C 20.695312 -19.007812 21.0625 -18.234375 21.0625 -17.484375 C 21.0625 -16.203125 20.660156 -14.832031 19.859375 -13.375 C 19.054688 -11.925781 17.679688 -10.203125 15.734375 -8.203125 L 21.140625 -2.171875 Z M 18.828125 0.34375 "/></g></g><g style="fill:#1b1b1b;fill-opacity:1;"><g transform="translate(241.194489, 226.525253)"><path style="stroke:none" d="M 18.609375 -21.703125 L 18 -18.78125 L 14.859375 -18.78125 L 14.859375 0 L 11.59375 0 L 11.59375 -18.78125 L 0.953125 -18.78125 L 0.953125 -21.703125 Z M 18.609375 -21.703125 "/></g></g><g style="fill:#1b1b1b;fill-opacity:1;"><g transform="translate(260.592644, 226.525253)"><path style="stroke:none" d=""/></g></g><g style="fill:#1b1b1b;fill-opacity:1;"><g transform="translate(270.357108, 226.525253)"><path style="stroke:none" d="M 14.5625 -21.703125 C 17.238281 -21.703125 19.222656 -21.082031 20.515625 -19.84375 C 21.804688 -18.613281 22.453125 -16.578125 22.453125 -13.734375 L 22.453125 0 L 19.1875 0 L 19.1875 -12.734375 C 19.1875 -14.796875 18.859375 -16.316406 18.203125 -17.296875 C 17.546875 -18.285156 16.1875 -18.78125 14.125 -18.78125 L 8.625 -18.78125 L 8.625 0 L 1.78125 0 L 1.78125 -2.875 L 5.359375 -2.875 L 5.359375 -18.78125 L 2 -18.78125 L 2 -21.703125 Z M 14.5625 -21.703125 "/></g></g><g style="fill:#1b1b1b;fill-opacity:1;"><g transform="translate(295.858047, 226.525253)"><path style="stroke:none" d="M 24.40625 -21.703125 C 24.4375 -21.390625 24.457031 -20.90625 24.46875 -20.25 C 24.488281 -19.59375 24.503906 -18.941406 24.515625 -18.296875 C 24.535156 -17.660156 24.546875 -17.210938 24.546875 -16.953125 C 24.546875 -13.492188 23.816406 -10.457031 22.359375 -7.84375 C 20.910156 -5.226562 18.832031 -3.207031 16.125 -1.78125 C 13.425781 -0.363281 10.1875 0.285156 6.40625 0.171875 L 4.96875 0 L 2.3125 -21.703125 L 5.625 -21.703125 L 6.671875 -12.03125 C 8.648438 -12.175781 10.007812 -12.859375 10.75 -14.078125 C 11.488281 -15.296875 11.859375 -16.910156 11.859375 -18.921875 C 11.859375 -19.734375 11.816406 -20.660156 11.734375 -21.703125 L 14.953125 -21.703125 C 15.015625 -21.210938 15.054688 -20.726562 15.078125 -20.25 C 15.109375 -19.769531 15.125 -19.328125 15.125 -18.921875 C 15.125 -16.066406 14.476562 -13.851562 13.1875 -12.28125 C 11.894531 -10.71875 9.8125 -9.804688 6.9375 -9.546875 L 7.671875 -2.703125 C 10.640625 -2.734375 13.125 -3.375 15.125 -4.625 C 17.132812 -5.875 18.644531 -7.648438 19.65625 -9.953125 C 20.675781 -12.265625 21.1875 -14.992188 21.1875 -18.140625 C 21.1875 -19.265625 21.113281 -20.453125 20.96875 -21.703125 Z M 24.40625 -21.703125 "/></g></g><g style="fill:#1b1b1b;fill-opacity:1;"><g transform="translate(322.317993, 226.525253)"><path style="stroke:none" d="M 8.671875 -21.703125 L 8.671875 0 L 5.40625 0 L 5.40625 -18.78125 L 1 -18.78125 L 1 -21.703125 Z M 8.671875 -21.703125 "/></g></g><g style="fill:#1b1b1b;fill-opacity:1;"><g transform="translate(334.21844, 226.525253)"><path style="stroke:none" d="M 12.984375 -21.703125 C 15.660156 -21.703125 17.644531 -21.082031 18.9375 -19.84375 C 20.226562 -18.613281 20.875 -16.578125 20.875 -13.734375 L 20.875 0 L 17.609375 0 L 17.609375 -12.734375 C 17.609375 -14.796875 17.28125 -16.316406 16.625 -17.296875 C 15.976562 -18.285156 14.625 -18.78125 12.5625 -18.78125 L 6.5 -18.78125 L 6.5 0 L 3.21875 0 L 3.21875 -23.109375 L 6.5 -23.546875 L 6.5 -21.703125 Z M 12.984375 -21.703125 "/></g></g><g style="fill:#1b1b1b;fill-opacity:1;"><g transform="translate(358.150107, 226.525253)"><path style="stroke:none" d="M 14.5625 -21.703125 C 17.238281 -21.703125 19.222656 -21.082031 20.515625 -19.84375 C 21.804688 -18.613281 22.453125 -16.578125 22.453125 -13.734375 L 22.453125 0 L 19.1875 0 L 19.1875 -12.734375 C 19.1875 -14.796875 18.859375 -16.316406 18.203125 -17.296875 C 17.546875 -18.285156 16.1875 -18.78125 14.125 -18.78125 L 8.625 -18.78125 L 8.625 0 L 1.78125 0 L 1.78125 -2.875 L 5.359375 -2.875 L 5.359375 -18.78125 L 2 -18.78125 L 2 -21.703125 Z M 14.5625 -21.703125 "/></g></g><g style="fill:#1b1b1b;fill-opacity:1;"><g transform="translate(63.168139, 266.97954)"><path style="stroke:none" d="M 21.40625 -21.703125 L 21.703125 -21.359375 L 16.171875 0 L 12.859375 0 L 17.703125 -18.78125 L 2.359375 -18.78125 L 2.359375 -21.703125 Z M 3.4375 7.28125 L 3.4375 -11.859375 L 6.71875 -11.859375 L 6.71875 7.28125 Z M 3.4375 7.28125 "/></g></g><g style="fill:#1b1b1b;fill-opacity:1;"><g transform="translate(86.053602, 266.97954)"><path style="stroke:none" d="M 11.46875 -21.703125 C 13.707031 -21.703125 15.4375 -21.382812 16.65625 -20.75 C 17.875 -20.113281 18.722656 -19.082031 19.203125 -17.65625 C 19.679688 -16.226562 19.921875 -14.351562 19.921875 -12.03125 C 19.921875 -10.289062 19.832031 -8.328125 19.65625 -6.140625 C 19.488281 -3.960938 19.269531 -1.914062 19 0 L 1.96875 0 L 1.96875 -2.921875 L 16.265625 -2.921875 C 16.410156 -4.285156 16.507812 -5.722656 16.5625 -7.234375 C 16.625 -8.742188 16.65625 -10.171875 16.65625 -11.515625 C 16.65625 -13.253906 16.53125 -14.65625 16.28125 -15.71875 C 16.03125 -16.78125 15.515625 -17.554688 14.734375 -18.046875 C 13.953125 -18.535156 12.734375 -18.78125 11.078125 -18.78125 L 6.1875 -18.78125 C 5.78125 -17.625 5.519531 -16.832031 5.40625 -16.40625 C 5.289062 -15.988281 5.234375 -15.578125 5.234375 -15.171875 C 5.234375 -14.410156 5.519531 -13.710938 6.09375 -13.078125 C 6.675781 -12.441406 7.710938 -11.859375 9.203125 -11.328125 L 8.40625 -8.546875 C 6.195312 -9.210938 4.613281 -10.078125 3.65625 -11.140625 C 2.695312 -12.203125 2.21875 -13.457031 2.21875 -14.90625 C 2.21875 -15.894531 2.425781 -17 2.84375 -18.21875 C 3.269531 -19.4375 3.703125 -20.597656 4.140625 -21.703125 Z M 11.46875 -21.703125 "/></g></g><g style="fill:#1b1b1b;fill-opacity:1;"><g transform="translate(108.764695, 266.97954)"><path style="stroke:none" d="M 8.671875 -21.703125 L 8.671875 0 L 5.40625 0 L 5.40625 -18.78125 L 1 -18.78125 L 1 -21.703125 Z M 8.671875 -21.703125 "/></g></g><g style="fill:#1b1b1b;fill-opacity:1;"><g transform="translate(120.665131, 266.97954)"><path style="stroke:none" d="M 18.609375 -21.703125 L 18 -18.78125 L 14.859375 -18.78125 L 14.859375 0 L 11.59375 0 L 11.59375 -18.78125 L 0.953125 -18.78125 L 0.953125 -21.703125 Z M 18.609375 -21.703125 "/></g></g><g style="fill:#1b1b1b;fill-opacity:1;"><g transform="translate(140.063286, 266.97954)"><path style="stroke:none" d=""/></g></g><g style="fill:#1b1b1b;fill-opacity:1;"><g transform="translate(149.827749, 266.97954)"><path style="stroke:none" d="M 0.921875 6.84375 C 1.734375 5.96875 2.414062 5.003906 2.96875 3.953125 C 3.519531 2.910156 3.796875 1.941406 3.796875 1.046875 C 3.796875 0.429688 3.691406 -0.101562 3.484375 -0.5625 C 3.285156 -1.03125 2.910156 -1.410156 2.359375 -1.703125 C 2.359375 -2.429688 2.640625 -3.097656 3.203125 -3.703125 C 3.765625 -4.316406 4.425781 -4.625 5.1875 -4.625 C 6.03125 -4.625 6.734375 -4.335938 7.296875 -3.765625 C 7.867188 -3.203125 8.15625 -2.515625 8.15625 -1.703125 C 8.15625 -0.535156 7.921875 0.660156 7.453125 1.890625 C 6.984375 3.128906 6.328125 4.300781 5.484375 5.40625 C 4.648438 6.507812 3.648438 7.453125 2.484375 8.234375 Z M 0.921875 6.84375 "/></g></g><g style="fill:#1b1b1b;fill-opacity:1;"><g transform="translate(160.507633, 266.97954)"><path style="stroke:none" d="M 18.609375 -21.703125 L 18 -18.78125 L 14.859375 -18.78125 L 14.859375 0 L 11.59375 0 L 11.59375 -18.78125 L 0.953125 -18.78125 L 0.953125 -21.703125 Z M 18.609375 -21.703125 "/></g></g><g style="fill:#1b1b1b;fill-opacity:1;"><g transform="translate(179.905788, 266.97954)"><path style="stroke:none" d="M 5.625 -8.71875 L 5.625 -18.75 L 1 -18.75 L 1 -21.671875 L 8.890625 -21.671875 L 8.890625 -8.71875 Z M 5.625 -8.71875 "/></g></g><g style="fill:#1b1b1b;fill-opacity:1;"><g transform="translate(192.024182, 266.97954)"><path style="stroke:none" d="M 14.5625 -21.703125 C 17.238281 -21.703125 19.222656 -21.082031 20.515625 -19.84375 C 21.804688 -18.613281 22.453125 -16.578125 22.453125 -13.734375 L 22.453125 0 L 19.1875 0 L 19.1875 -12.734375 C 19.1875 -14.796875 18.859375 -16.316406 18.203125 -17.296875 C 17.546875 -18.285156 16.1875 -18.78125 14.125 -18.78125 L 8.625 -18.78125 L 8.625 0 L 1.78125 0 L 1.78125 -2.875 L 5.359375 -2.875 L 5.359375 -18.78125 L 2 -18.78125 L 2 -21.703125 Z M 14.5625 -21.703125 "/></g></g><g style="fill:#1b1b1b;fill-opacity:1;"><g transform="translate(217.525121, 266.97954)"><path style="stroke:none" d="M 19.921875 -21.75 C 19.953125 -21.113281 19.972656 -20.488281 19.984375 -19.875 C 20.003906 -19.269531 20.015625 -18.675781 20.015625 -18.09375 C 20.015625 -14.863281 19.726562 -12.144531 19.15625 -9.9375 C 18.59375 -7.726562 17.617188 -5.894531 16.234375 -4.4375 C 14.859375 -2.988281 12.96875 -1.820312 10.5625 -0.9375 C 8.164062 -0.0507812 5.140625 0.664062 1.484375 1.21875 L 1.140625 -1.609375 C 2.410156 -1.785156 3.582031 -1.972656 4.65625 -2.171875 C 5.738281 -2.378906 6.726562 -2.613281 7.625 -2.875 L 2.609375 -21.1875 L 5.890625 -22.015625 L 10.5 -3.875 C 12.132812 -4.601562 13.40625 -5.507812 14.3125 -6.59375 C 15.226562 -7.6875 15.875 -9.066406 16.25 -10.734375 C 16.632812 -12.410156 16.828125 -14.472656 16.828125 -16.921875 C 16.828125 -17.640625 16.8125 -18.40625 16.78125 -19.21875 C 16.75 -20.039062 16.707031 -20.882812 16.65625 -21.75 Z M 19.921875 -21.75 "/></g></g><g style="fill:#1b1b1b;fill-opacity:1;"><g transform="translate(239.495165, 266.97954)"><path style="stroke:none" d="M 17.21875 0 L 17.21875 -12.734375 C 17.21875 -14.796875 16.890625 -16.316406 16.234375 -17.296875 C 15.578125 -18.285156 14.21875 -18.78125 12.15625 -18.78125 L 2.875 -18.78125 L 2.875 -21.703125 L 12.59375 -21.703125 C 15.269531 -21.703125 17.253906 -21.082031 18.546875 -19.84375 C 19.835938 -18.613281 20.484375 -16.578125 20.484375 -13.734375 L 20.484375 0 Z M 3.3125 0 L 3.3125 -11.734375 L 6.578125 -11.734375 L 6.578125 0 Z M 3.3125 0 "/></g></g><g style="fill:#1b1b1b;fill-opacity:1;"><g transform="translate(263.034502, 266.97954)"><path style="stroke:none" d="M 14.390625 -22.015625 C 16.484375 -22.015625 18.035156 -21.59375 19.046875 -20.75 C 20.066406 -19.90625 20.742188 -18.707031 21.078125 -17.15625 C 21.410156 -15.601562 21.578125 -13.734375 21.578125 -11.546875 L 21.578125 0 L 10.59375 0 L 10.9375 -2.921875 L 18.3125 -2.921875 L 18.3125 -11.6875 C 18.3125 -14.445312 17.96875 -16.367188 17.28125 -17.453125 C 16.601562 -18.546875 15.445312 -19.09375 13.8125 -19.09375 C 12.914062 -19.09375 12 -18.878906 11.0625 -18.453125 C 10.132812 -18.035156 9.179688 -17.492188 8.203125 -16.828125 L 5.96875 0 L 2.65625 0 L 5.0625 -16.78125 L 3.09375 -21.140625 L 5.96875 -22.359375 L 7.375 -19.484375 C 8.332031 -20.128906 9.410156 -20.710938 10.609375 -21.234375 C 11.816406 -21.753906 13.078125 -22.015625 14.390625 -22.015625 Z M 14.390625 -22.015625 "/></g></g><g style="fill:#1b1b1b;fill-opacity:1;"><g transform="translate(287.620033, 266.97954)"><path style="stroke:none" d=""/></g></g><g style="fill:#1b1b1b;fill-opacity:1;"><g transform="translate(297.384496, 266.97954)"><path style="stroke:none" d="M 18.609375 -21.703125 L 18 -18.78125 L 14.859375 -18.78125 L 14.859375 0 L 11.59375 0 L 11.59375 -18.78125 L 0.953125 -18.78125 L 0.953125 -21.703125 Z M 18.609375 -21.703125 "/></g></g><g style="fill:#1b1b1b;fill-opacity:1;"><g transform="translate(316.782652, 266.97954)"><path style="stroke:none" d="M 12.984375 -21.703125 C 15.660156 -21.703125 17.644531 -21.082031 18.9375 -19.84375 C 20.226562 -18.613281 20.875 -16.578125 20.875 -13.734375 L 20.875 0 L 17.609375 0 L 17.609375 -12.734375 C 17.609375 -14.796875 17.28125 -16.316406 16.625 -17.296875 C 15.976562 -18.285156 14.625 -18.78125 12.5625 -18.78125 L 6.5 -18.78125 L 6.5 0 L 3.21875 0 L 3.21875 -23.109375 L 6.5 -23.546875 L 6.5 -21.703125 Z M 12.984375 -21.703125 "/></g></g><g style="fill:#1b1b1b;fill-opacity:1;"><g transform="translate(340.714319, 266.97954)"><path style="stroke:none" d="M 11.46875 -21.703125 C 13.707031 -21.703125 15.4375 -21.382812 16.65625 -20.75 C 17.875 -20.113281 18.722656 -19.082031 19.203125 -17.65625 C 19.679688 -16.226562 19.921875 -14.351562 19.921875 -12.03125 C 19.921875 -10.289062 19.832031 -8.328125 19.65625 -6.140625 C 19.488281 -3.960938 19.269531 -1.914062 19 0 L 1.96875 0 L 1.96875 -2.921875 L 16.265625 -2.921875 C 16.410156 -4.285156 16.507812 -5.722656 16.5625 -7.234375 C 16.625 -8.742188 16.65625 -10.171875 16.65625 -11.515625 C 16.65625 -13.253906 16.53125 -14.65625 16.28125 -15.71875 C 16.03125 -16.78125 15.515625 -17.554688 14.734375 -18.046875 C 13.953125 -18.535156 12.734375 -18.78125 11.078125 -18.78125 L 6.1875 -18.78125 C 5.78125 -17.625 5.519531 -16.832031 5.40625 -16.40625 C 5.289062 -15.988281 5.234375 -15.578125 5.234375 -15.171875 C 5.234375 -14.410156 5.519531 -13.710938 6.09375 -13.078125 C 6.675781 -12.441406 7.710938 -11.859375 9.203125 -11.328125 L 8.40625 -8.546875 C 6.195312 -9.210938 4.613281 -10.078125 3.65625 -11.140625 C 2.695312 -12.203125 2.21875 -13.457031 2.21875 -14.90625 C 2.21875 -15.894531 2.425781 -17 2.84375 -18.21875 C 3.269531 -19.4375 3.703125 -20.597656 4.140625 -21.703125 Z M 11.46875 -21.703125 "/></g></g><g style="fill:#1b1b1b;fill-opacity:1;"><g transform="translate(43.069757, 307.433828)"><path style="stroke:none" d="M 5.140625 0.34375 C 4.390625 0.34375 3.738281 0.0664062 3.1875 -0.484375 C 2.632812 -1.035156 2.359375 -1.671875 2.359375 -2.390625 C 2.359375 -3.148438 2.632812 -3.8125 3.1875 -4.375 C 3.738281 -4.945312 4.390625 -5.234375 5.140625 -5.234375 C 5.898438 -5.234375 6.554688 -4.945312 7.109375 -4.375 C 7.660156 -3.8125 7.9375 -3.148438 7.9375 -2.390625 C 7.9375 -1.671875 7.660156 -1.035156 7.109375 -0.484375 C 6.554688 0.0664062 5.898438 0.34375 5.140625 0.34375 Z M 5.140625 0.34375 "/></g></g><g style="fill:#1b1b1b;fill-opacity:1;"><g transform="translate(53.357322, 307.433828)"><path style="stroke:none" d="M 14.5625 -21.703125 C 17.238281 -21.703125 19.222656 -21.082031 20.515625 -19.84375 C 21.804688 -18.613281 22.453125 -16.578125 22.453125 -13.734375 L 22.453125 0 L 19.1875 0 L 19.1875 -12.734375 C 19.1875 -14.796875 18.859375 -16.316406 18.203125 -17.296875 C 17.546875 -18.285156 16.1875 -18.78125 14.125 -18.78125 L 8.625 -18.78125 L 8.625 0 L 1.78125 0 L 1.78125 -2.875 L 5.359375 -2.875 L 5.359375 -18.78125 L 2 -18.78125 L 2 -21.703125 Z M 14.5625 -21.703125 "/></g></g><g style="fill:#1b1b1b;fill-opacity:1;"><g transform="translate(78.858261, 307.433828)"><path style="stroke:none" d="M 8.671875 -21.703125 L 8.671875 0 L 5.40625 0 L 5.40625 -18.78125 L 1 -18.78125 L 1 -21.703125 Z M 8.671875 -21.703125 "/></g></g><g style="fill:#1b1b1b;fill-opacity:1;"><g transform="translate(90.758697, 307.433828)"><path style="stroke:none" d="M 12.515625 0 L 12.515625 -12.734375 C 12.515625 -14.796875 12.1875 -16.316406 11.53125 -17.296875 C 10.875 -18.285156 9.515625 -18.78125 7.453125 -18.78125 L 0.953125 -18.78125 L 0.953125 -21.703125 L 7.890625 -21.703125 C 10.566406 -21.703125 12.550781 -21.082031 13.84375 -19.84375 C 15.132812 -18.613281 15.78125 -16.578125 15.78125 -13.734375 L 15.78125 0 Z M 12.515625 0 "/></g></g><g style="fill:#1b1b1b;fill-opacity:1;"><g transform="translate(109.590163, 307.433828)"><path style="stroke:none" d="M 5.625 -8.71875 L 5.625 -18.75 L 1 -18.75 L 1 -21.671875 L 8.890625 -21.671875 L 8.890625 -8.71875 Z M 5.625 -8.71875 "/></g></g><g style="fill:#1b1b1b;fill-opacity:1;"><g transform="translate(121.708557, 307.433828)"><path style="stroke:none" d="M 17.21875 0 L 17.21875 -12.734375 C 17.21875 -14.796875 16.890625 -16.316406 16.234375 -17.296875 C 15.578125 -18.285156 14.21875 -18.78125 12.15625 -18.78125 L 2.875 -18.78125 L 2.875 -21.703125 L 12.59375 -21.703125 C 15.269531 -21.703125 17.253906 -21.082031 18.546875 -19.84375 C 19.835938 -18.613281 20.484375 -16.578125 20.484375 -13.734375 L 20.484375 0 Z M 3.3125 0 L 3.3125 -11.734375 L 6.578125 -11.734375 L 6.578125 0 Z M 3.3125 0 "/></g></g><g style="fill:#1b1b1b;fill-opacity:1;"><g transform="translate(145.247894, 307.433828)"><path style="stroke:none" d="M 14.390625 -22.015625 C 16.484375 -22.015625 18.035156 -21.59375 19.046875 -20.75 C 20.066406 -19.90625 20.742188 -18.707031 21.078125 -17.15625 C 21.410156 -15.601562 21.578125 -13.734375 21.578125 -11.546875 L 21.578125 0 L 10.59375 0 L 10.9375 -2.921875 L 18.3125 -2.921875 L 18.3125 -11.6875 C 18.3125 -14.445312 17.96875 -16.367188 17.28125 -17.453125 C 16.601562 -18.546875 15.445312 -19.09375 13.8125 -19.09375 C 12.914062 -19.09375 12 -18.878906 11.0625 -18.453125 C 10.132812 -18.035156 9.179688 -17.492188 8.203125 -16.828125 L 5.96875 0 L 2.65625 0 L 5.0625 -16.78125 L 3.09375 -21.140625 L 5.96875 -22.359375 L 7.375 -19.484375 C 8.332031 -20.128906 9.410156 -20.710938 10.609375 -21.234375 C 11.816406 -21.753906 13.078125 -22.015625 14.390625 -22.015625 Z M 14.390625 -22.015625 "/></g></g><g style="fill:#1b1b1b;fill-opacity:1;"><g transform="translate(169.833425, 307.433828)"><path style="stroke:none" d=""/></g></g><g style="fill:#1b1b1b;fill-opacity:1;"><g transform="translate(179.597889, 307.433828)"><path style="stroke:none" d="M 14.5625 -21.703125 C 17.238281 -21.703125 19.222656 -21.082031 20.515625 -19.84375 C 21.804688 -18.613281 22.453125 -16.578125 22.453125 -13.734375 L 22.453125 0 L 19.1875 0 L 19.1875 -12.734375 C 19.1875 -14.796875 18.859375 -16.316406 18.203125 -17.296875 C 17.546875 -18.285156 16.1875 -18.78125 14.125 -18.78125 L 8.625 -18.78125 L 8.625 0 L 1.78125 0 L 1.78125 -2.875 L 5.359375 -2.875 L 5.359375 -18.78125 L 2 -18.78125 L 2 -21.703125 Z M 14.5625 -21.703125 "/></g></g><g style="fill:#1b1b1b;fill-opacity:1;"><g transform="translate(205.098828, 307.433828)"><path style="stroke:none" d="M 8.671875 -21.703125 L 8.671875 0 L 5.40625 0 L 5.40625 -18.78125 L 1 -18.78125 L 1 -21.703125 Z M 8.671875 -21.703125 "/></g></g><g style="fill:#1b1b1b;fill-opacity:1;"><g transform="translate(216.999264, 307.433828)"><path style="stroke:none" d="M 14.390625 -22.015625 C 16.484375 -22.015625 18.035156 -21.59375 19.046875 -20.75 C 20.066406 -19.90625 20.742188 -18.707031 21.078125 -17.15625 C 21.410156 -15.601562 21.578125 -13.734375 21.578125 -11.546875 L 21.578125 0 L 10.59375 0 L 10.9375 -2.921875 L 18.3125 -2.921875 L 18.3125 -11.6875 C 18.3125 -14.445312 17.96875 -16.367188 17.28125 -17.453125 C 16.601562 -18.546875 15.445312 -19.09375 13.8125 -19.09375 C 12.914062 -19.09375 12 -18.878906 11.0625 -18.453125 C 10.132812 -18.035156 9.179688 -17.492188 8.203125 -16.828125 L 5.96875 0 L 2.65625 0 L 5.0625 -16.78125 L 3.09375 -21.140625 L 5.96875 -22.359375 L 7.375 -19.484375 C 8.332031 -20.128906 9.410156 -20.710938 10.609375 -21.234375 C 11.816406 -21.753906 13.078125 -22.015625 14.390625 -22.015625 Z M 14.390625 -22.015625 "/></g></g><g style="fill:#1b1b1b;fill-opacity:1;"><g transform="translate(241.584794, 307.433828)"><path style="stroke:none" d="M 5.625 -8.71875 L 5.625 -18.75 L 1 -18.75 L 1 -21.671875 L 8.890625 -21.671875 L 8.890625 -8.71875 Z M 5.625 -8.71875 "/></g></g><g style="fill:#1b1b1b;fill-opacity:1;"><g transform="translate(253.703188, 307.433828)"><path style="stroke:none" d="M 24.40625 -21.703125 C 24.4375 -21.390625 24.457031 -20.90625 24.46875 -20.25 C 24.488281 -19.59375 24.503906 -18.941406 24.515625 -18.296875 C 24.535156 -17.660156 24.546875 -17.210938 24.546875 -16.953125 C 24.546875 -13.492188 23.816406 -10.457031 22.359375 -7.84375 C 20.910156 -5.226562 18.832031 -3.207031 16.125 -1.78125 C 13.425781 -0.363281 10.1875 0.285156 6.40625 0.171875 L 4.96875 0 L 2.3125 -21.703125 L 5.625 -21.703125 L 6.671875 -12.03125 C 8.648438 -12.175781 10.007812 -12.859375 10.75 -14.078125 C 11.488281 -15.296875 11.859375 -16.910156 11.859375 -18.921875 C 11.859375 -19.734375 11.816406 -20.660156 11.734375 -21.703125 L 14.953125 -21.703125 C 15.015625 -21.210938 15.054688 -20.726562 15.078125 -20.25 C 15.109375 -19.769531 15.125 -19.328125 15.125 -18.921875 C 15.125 -16.066406 14.476562 -13.851562 13.1875 -12.28125 C 11.894531 -10.71875 9.8125 -9.804688 6.9375 -9.546875 L 7.671875 -2.703125 C 10.640625 -2.734375 13.125 -3.375 15.125 -4.625 C 17.132812 -5.875 18.644531 -7.648438 19.65625 -9.953125 C 20.675781 -12.265625 21.1875 -14.992188 21.1875 -18.140625 C 21.1875 -19.265625 21.113281 -20.453125 20.96875 -21.703125 Z M 24.40625 -21.703125 "/></g></g><g style="fill:#1b1b1b;fill-opacity:1;"><g transform="translate(280.163157, 307.433828)"><path style="stroke:none" d="M 5.453125 -21.703125 C 7.109375 -21.703125 8.378906 -21.484375 9.265625 -21.046875 C 10.148438 -20.617188 10.773438 -19.863281 11.140625 -18.78125 C 11.503906 -17.707031 11.671875 -16.1875 11.640625 -14.21875 L 11.515625 0 L 1.609375 0 L 1.609375 -2.875 L 8.328125 -2.875 L 8.40625 -13.46875 C 8.4375 -15.53125 8.195312 -16.925781 7.6875 -17.65625 C 7.1875 -18.382812 6.207031 -18.75 4.75 -18.75 L 2.359375 -18.75 L 2.359375 -21.703125 Z M 5.453125 -21.703125 "/></g></g><g style="fill:#1b1b1b;fill-opacity:1;"><g transform="translate(294.853428, 307.433828)"><path style="stroke:none" d=""/></g></g><g style="fill:#1b1b1b;fill-opacity:1;"><g transform="translate(304.617891, 307.433828)"><path style="stroke:none" d="M 17.609375 -17.703125 C 17.609375 -16.359375 17.25 -15.003906 16.53125 -13.640625 C 15.820312 -12.273438 14.878906 -10.890625 13.703125 -9.484375 C 12.523438 -8.078125 11.242188 -6.601562 9.859375 -5.0625 C 10.347656 -3.3125 10.816406 -1.457031 11.265625 0.5 C 11.710938 2.457031 12.128906 4.53125 12.515625 6.71875 L 9.28125 6.71875 C 8.644531 3.34375 7.984375 0.34375 7.296875 -2.28125 C 6.617188 -4.914062 5.914062 -7.304688 5.1875 -9.453125 C 4.457031 -11.609375 3.710938 -13.625 2.953125 -15.5 C 2.203125 -17.375 1.453125 -19.226562 0.703125 -21.0625 L 3.84375 -22.140625 C 4.59375 -20.253906 5.425781 -18.125 6.34375 -15.75 C 7.257812 -13.382812 8.164062 -10.707031 9.0625 -7.71875 C 10.78125 -9.78125 12.097656 -11.515625 13.015625 -12.921875 C 13.929688 -14.335938 14.390625 -15.535156 14.390625 -16.515625 C 14.390625 -17.160156 14.132812 -17.6875 13.625 -18.09375 C 13.113281 -18.5 12.265625 -18.992188 11.078125 -19.578125 L 12.203125 -22.28125 C 14.179688 -21.550781 15.578125 -20.789062 16.390625 -20 C 17.203125 -19.21875 17.609375 -18.453125 17.609375 -17.703125 Z M 17.609375 -17.703125 "/></g></g><g style="fill:#1b1b1b;fill-opacity:1;"><g transform="translate(323.972448, 307.433828)"><path style="stroke:none" d="M 18.828125 0.34375 L 7.984375 -13.03125 C 7.253906 -11.175781 6.710938 -9.207031 6.359375 -7.125 C 6.015625 -5.050781 5.882812 -2.675781 5.96875 0 L 2.53125 0 C 2.53125 -2.96875 2.832031 -5.695312 3.4375 -8.1875 C 4.050781 -10.6875 4.953125 -13 6.140625 -15.125 L 1.78125 -19.921875 L 4.3125 -22.109375 L 14.078125 -10.0625 C 15.421875 -11.695312 16.359375 -13.035156 16.890625 -14.078125 C 17.429688 -15.128906 17.703125 -15.929688 17.703125 -16.484375 C 17.703125 -17.117188 17.484375 -17.609375 17.046875 -17.953125 C 16.609375 -18.304688 15.796875 -18.800781 14.609375 -19.4375 L 15.90625 -22.234375 C 17.882812 -21.421875 19.238281 -20.613281 19.96875 -19.8125 C 20.695312 -19.007812 21.0625 -18.234375 21.0625 -17.484375 C 21.0625 -16.203125 20.660156 -14.832031 19.859375 -13.375 C 19.054688 -11.925781 17.679688 -10.203125 15.734375 -8.203125 L 21.140625 -2.171875 Z M 18.828125 0.34375 "/></g></g><g style="fill:#1b1b1b;fill-opacity:1;"><g transform="translate(347.032282, 307.433828)"><path style="stroke:none" d="M 8.671875 -21.703125 L 8.671875 0 L 5.40625 0 L 5.40625 -18.78125 L 1 -18.78125 L 1 -21.703125 Z M 8.671875 -21.703125 "/></g></g><g style="fill:#1b1b1b;fill-opacity:1;"><g transform="translate(358.93273, 307.433828)"><path style="stroke:none" d="M 14.390625 -22.015625 C 16.484375 -22.015625 18.035156 -21.59375 19.046875 -20.75 C 20.066406 -19.90625 20.742188 -18.707031 21.078125 -17.15625 C 21.410156 -15.601562 21.578125 -13.734375 21.578125 -11.546875 L 21.578125 0 L 10.59375 0 L 10.9375 -2.921875 L 18.3125 -2.921875 L 18.3125 -11.6875 C 18.3125 -14.445312 17.96875 -16.367188 17.28125 -17.453125 C 16.601562 -18.546875 15.445312 -19.09375 13.8125 -19.09375 C 12.914062 -19.09375 12 -18.878906 11.0625 -18.453125 C 10.132812 -18.035156 9.179688 -17.492188 8.203125 -16.828125 L 5.96875 0 L 2.65625 0 L 5.0625 -16.78125 L 3.09375 -21.140625 L 5.96875 -22.359375 L 7.375 -19.484375 C 8.332031 -20.128906 9.410156 -20.710938 10.609375 -21.234375 C 11.816406 -21.753906 13.078125 -22.015625 14.390625 -22.015625 Z M 14.390625 -22.015625 "/></g></g><g style="fill:#1b1b1b;fill-opacity:1;"><g transform="translate(42.613241, 387.593249)"><path style="stroke:none" d="M 0.921875 6.84375 C 1.734375 5.96875 2.414062 5.003906 2.96875 3.953125 C 3.519531 2.910156 3.796875 1.941406 3.796875 1.046875 C 3.796875 0.429688 3.691406 -0.101562 3.484375 -0.5625 C 3.285156 -1.03125 2.910156 -1.410156 2.359375 -1.703125 C 2.359375 -2.429688 2.640625 -3.097656 3.203125 -3.703125 C 3.765625 -4.316406 4.425781 -4.625 5.1875 -4.625 C 6.03125 -4.625 6.734375 -4.335938 7.296875 -3.765625 C 7.867188 -3.203125 8.15625 -2.515625 8.15625 -1.703125 C 8.15625 -0.535156 7.921875 0.660156 7.453125 1.890625 C 6.984375 3.128906 6.328125 4.300781 5.484375 5.40625 C 4.648438 6.507812 3.648438 7.453125 2.484375 8.234375 Z M 0.921875 6.84375 "/></g></g><g style="fill:#1b1b1b;fill-opacity:1;"><g transform="translate(53.293125, 387.593249)"><path style="stroke:none" d="M 17.21875 0 L 17.21875 -12.734375 C 17.21875 -14.796875 16.890625 -16.316406 16.234375 -17.296875 C 15.578125 -18.285156 14.21875 -18.78125 12.15625 -18.78125 L 2.875 -18.78125 L 2.875 -21.703125 L 12.59375 -21.703125 C 15.269531 -21.703125 17.253906 -21.082031 18.546875 -19.84375 C 19.835938 -18.613281 20.484375 -16.578125 20.484375 -13.734375 L 20.484375 0 Z M 3.3125 0 L 3.3125 -11.734375 L 6.578125 -11.734375 L 6.578125 0 Z M 3.3125 0 "/></g></g><g style="fill:#1b1b1b;fill-opacity:1;"><g transform="translate(76.832462, 387.593249)"><path style="stroke:none" d="M 18.609375 -21.703125 L 18 -18.78125 L 14.859375 -18.78125 L 14.859375 0 L 11.59375 0 L 11.59375 -18.78125 L 0.953125 -18.78125 L 0.953125 -21.703125 Z M 18.609375 -21.703125 "/></g></g><g style="fill:#1b1b1b;fill-opacity:1;"><g transform="translate(96.230618, 387.593249)"><path style="stroke:none" d="M 12.515625 0 L 12.515625 -12.734375 C 12.515625 -14.796875 12.1875 -16.316406 11.53125 -17.296875 C 10.875 -18.285156 9.515625 -18.78125 7.453125 -18.78125 L 0.953125 -18.78125 L 0.953125 -21.703125 L 7.890625 -21.703125 C 10.566406 -21.703125 12.550781 -21.082031 13.84375 -19.84375 C 15.132812 -18.613281 15.78125 -16.578125 15.78125 -13.734375 L 15.78125 0 Z M 12.515625 0 "/></g></g><g style="fill:#1b1b1b;fill-opacity:1;"><g transform="translate(115.062083, 387.593249)"><path style="stroke:none" d="M 12.984375 -21.703125 C 15.660156 -21.703125 17.644531 -21.082031 18.9375 -19.84375 C 20.226562 -18.613281 20.875 -16.578125 20.875 -13.734375 L 20.875 0 L 17.609375 0 L 17.609375 -12.734375 C 17.609375 -14.796875 17.28125 -16.316406 16.625 -17.296875 C 15.976562 -18.285156 14.625 -18.78125 12.5625 -18.78125 L 6.5 -18.78125 L 6.5 0 L 3.21875 0 L 3.21875 -23.109375 L 6.5 -23.546875 L 6.5 -21.703125 Z M 12.984375 -21.703125 "/></g></g><g style="fill:#1b1b1b;fill-opacity:1;"><g transform="translate(138.993739, 387.593249)"><path style="stroke:none" d=""/></g></g><g style="fill:#1b1b1b;fill-opacity:1;"><g transform="translate(148.758203, 387.593249)"><path style="stroke:none" d="M 5.625 -8.71875 L 5.625 -18.75 L 1 -18.75 L 1 -21.671875 L 8.890625 -21.671875 L 8.890625 -8.71875 Z M 5.625 -8.71875 "/></g></g><g style="fill:#1b1b1b;fill-opacity:1;"><g transform="translate(160.876597, 387.593249)"><path style="stroke:none" d="M 11.46875 -21.703125 C 13.707031 -21.703125 15.4375 -21.382812 16.65625 -20.75 C 17.875 -20.113281 18.722656 -19.082031 19.203125 -17.65625 C 19.679688 -16.226562 19.921875 -14.351562 19.921875 -12.03125 C 19.921875 -10.289062 19.832031 -8.328125 19.65625 -6.140625 C 19.488281 -3.960938 19.269531 -1.914062 19 0 L 1.96875 0 L 1.96875 -2.921875 L 16.265625 -2.921875 C 16.410156 -4.285156 16.507812 -5.722656 16.5625 -7.234375 C 16.625 -8.742188 16.65625 -10.171875 16.65625 -11.515625 C 16.65625 -13.253906 16.53125 -14.65625 16.28125 -15.71875 C 16.03125 -16.78125 15.515625 -17.554688 14.734375 -18.046875 C 13.953125 -18.535156 12.734375 -18.78125 11.078125 -18.78125 L 6.1875 -18.78125 C 5.78125 -17.625 5.519531 -16.832031 5.40625 -16.40625 C 5.289062 -15.988281 5.234375 -15.578125 5.234375 -15.171875 C 5.234375 -14.410156 5.519531 -13.710938 6.09375 -13.078125 C 6.675781 -12.441406 7.710938 -11.859375 9.203125 -11.328125 L 8.40625 -8.546875 C 6.195312 -9.210938 4.613281 -10.078125 3.65625 -11.140625 C 2.695312 -12.203125 2.21875 -13.457031 2.21875 -14.90625 C 2.21875 -15.894531 2.425781 -17 2.84375 -18.21875 C 3.269531 -19.4375 3.703125 -20.597656 4.140625 -21.703125 Z M 11.46875 -21.703125 "/></g></g><g style="fill:#1b1b1b;fill-opacity:1;"><g transform="translate(183.587689, 387.593249)"><path style="stroke:none" d="M 21.40625 -21.703125 L 21.703125 -21.359375 L 16.171875 0 L 12.859375 0 L 17.703125 -18.78125 L 2.359375 -18.78125 L 2.359375 -21.703125 Z M 3.4375 7.28125 L 3.4375 -11.859375 L 6.71875 -11.859375 L 6.71875 7.28125 Z M 3.4375 7.28125 "/></g></g><g style="fill:#1b1b1b;fill-opacity:1;"><g transform="translate(206.473152, 387.593249)"><path style="stroke:none" d="M 14.5625 -21.703125 C 17.238281 -21.703125 19.222656 -21.082031 20.515625 -19.84375 C 21.804688 -18.613281 22.453125 -16.578125 22.453125 -13.734375 L 22.453125 0 L 19.1875 0 L 19.1875 -12.734375 C 19.1875 -14.796875 18.859375 -16.316406 18.203125 -17.296875 C 17.546875 -18.285156 16.1875 -18.78125 14.125 -18.78125 L 8.625 -18.78125 L 8.625 0 L 1.78125 0 L 1.78125 -2.875 L 5.359375 -2.875 L 5.359375 -18.78125 L 2 -18.78125 L 2 -21.703125 Z M 14.5625 -21.703125 "/></g></g><g style="fill:#1b1b1b;fill-opacity:1;"><g transform="translate(231.974091, 387.593249)"><path style="stroke:none" d="M 17.21875 0 L 17.21875 -12.734375 C 17.21875 -14.796875 16.890625 -16.316406 16.234375 -17.296875 C 15.578125 -18.285156 14.21875 -18.78125 12.15625 -18.78125 L 2.875 -18.78125 L 2.875 -21.703125 L 12.59375 -21.703125 C 15.269531 -21.703125 17.253906 -21.082031 18.546875 -19.84375 C 19.835938 -18.613281 20.484375 -16.578125 20.484375 -13.734375 L 20.484375 0 Z M 3.3125 0 L 3.3125 -11.734375 L 6.578125 -11.734375 L 6.578125 0 Z M 3.3125 0 "/></g></g><g style="fill:#1b1b1b;fill-opacity:1;"><g transform="translate(255.513429, 387.593249)"><path style="stroke:none" d=""/></g></g><g style="fill:#1b1b1b;fill-opacity:1;"><g transform="translate(265.277892, 387.593249)"><path style="stroke:none" d="M 13.5625 -21.703125 C 16.226562 -21.703125 18.207031 -21.082031 19.5 -19.84375 C 20.800781 -18.613281 21.453125 -16.578125 21.453125 -13.734375 L 21.453125 0 L 3.21875 0 L 3.21875 -23.109375 L 6.5 -23.546875 L 6.5 -21.703125 Z M 6.5 -2.875 L 18.171875 -2.875 L 18.171875 -12.734375 C 18.171875 -14.796875 17.84375 -16.316406 17.1875 -17.296875 C 16.539062 -18.285156 15.1875 -18.78125 13.125 -18.78125 L 6.5 -18.78125 Z M 6.5 -2.875 "/></g></g><g style="fill:#1b1b1b;fill-opacity:1;"><g transform="translate(289.776226, 387.593249)"><path style="stroke:none" d="M 1.703125 0.34375 L 1.703125 -3.015625 C 4.203125 -3.441406 6.773438 -4.734375 9.421875 -6.890625 L 9.109375 -13.390625 C 9.054688 -14.835938 8.894531 -15.957031 8.625 -16.75 C 8.363281 -17.550781 7.945312 -18.101562 7.375 -18.40625 C 6.8125 -18.71875 6.023438 -18.875 5.015625 -18.875 C 4.253906 -18.875 3.367188 -18.800781 2.359375 -18.65625 L 2.359375 -21.578125 C 2.929688 -21.691406 3.507812 -21.765625 4.09375 -21.796875 C 4.675781 -21.828125 5.210938 -21.84375 5.703125 -21.84375 C 7.367188 -21.84375 8.664062 -21.625 9.59375 -21.1875 C 10.519531 -20.75 11.1875 -19.96875 11.59375 -18.84375 C 12 -17.726562 12.25 -16.15625 12.34375 -14.125 L 12.734375 -5.578125 L 13.78125 0 L 10.5 0 L 9.8125 -3.875 C 8.46875 -2.738281 7.101562 -1.820312 5.71875 -1.125 C 4.34375 -0.4375 3.003906 0.0507812 1.703125 0.34375 Z M 1.703125 0.34375 "/></g></g><g style="fill:#1b1b1b;fill-opacity:1;"><g transform="translate(305.687095, 387.593249)"><path style="stroke:none" d=""/></g></g><g style="fill:#1b1b1b;fill-opacity:1;"><g transform="translate(315.451559, 387.593249)"><path style="stroke:none" d="M 17.390625 -21.703125 L 17.609375 -21.453125 L 9.859375 0 L 6.5 0 L 13.390625 -18.78125 L 1.3125 -18.78125 L 1.34375 -28.375 L 4.625 -28.859375 L 4.578125 -21.703125 Z M 17.390625 -21.703125 "/></g></g><g style="fill:#1b1b1b;fill-opacity:1;"><g transform="translate(333.97788, 387.593249)"><path style="stroke:none" d="M 17.390625 -21.703125 L 17.609375 -21.453125 L 9.859375 0 L 6.5 0 L 13.390625 -18.78125 L 1.3125 -18.78125 L 1.34375 -28.375 L 4.625 -28.859375 L 4.578125 -21.703125 Z M 17.390625 -21.703125 "/></g></g><g style="fill:#1b1b1b;fill-opacity:1;"><g transform="translate(352.504202, 387.593249)"><path style="stroke:none" d="M 8.671875 -21.703125 L 8.671875 0 L 5.40625 0 L 5.40625 -18.78125 L 1 -18.78125 L 1 -21.703125 Z M 8.671875 -21.703125 "/></g></g><g style="fill:#1b1b1b;fill-opacity:1;"><g transform="translate(364.404627, 387.593249)"><path style="stroke:none" d="M 1.65625 0 L 1.65625 -2.921875 L 13.203125 -2.921875 C 13.328125 -4.253906 13.410156 -5.660156 13.453125 -7.140625 C 13.492188 -8.628906 13.515625 -10.015625 13.515625 -11.296875 C 13.515625 -13.242188 13.382812 -14.757812 13.125 -15.84375 C 12.863281 -16.9375 12.332031 -17.695312 11.53125 -18.125 C 10.726562 -18.5625 9.53125 -18.78125 7.9375 -18.78125 L 2.265625 -18.78125 L 2.265625 -21.703125 L 8.328125 -21.703125 C 10.566406 -21.703125 12.296875 -21.375 13.515625 -20.71875 C 14.734375 -20.070312 15.582031 -19.019531 16.0625 -17.5625 C 16.539062 -16.113281 16.78125 -14.195312 16.78125 -11.8125 C 16.78125 -10.09375 16.695312 -8.164062 16.53125 -6.03125 C 16.375 -3.894531 16.179688 -1.882812 15.953125 0 Z M 1.65625 0 "/></g></g><g style="fill:#1b1b1b;fill-opacity:1;"><g transform="translate(37.170173, 428.047536)"><path style="stroke:none" d="M 19.921875 -21.75 C 19.953125 -21.113281 19.972656 -20.488281 19.984375 -19.875 C 20.003906 -19.269531 20.015625 -18.675781 20.015625 -18.09375 C 20.015625 -14.863281 19.726562 -12.144531 19.15625 -9.9375 C 18.59375 -7.726562 17.617188 -5.894531 16.234375 -4.4375 C 14.859375 -2.988281 12.96875 -1.820312 10.5625 -0.9375 C 8.164062 -0.0507812 5.140625 0.664062 1.484375 1.21875 L 1.140625 -1.609375 C 2.410156 -1.785156 3.582031 -1.972656 4.65625 -2.171875 C 5.738281 -2.378906 6.726562 -2.613281 7.625 -2.875 L 2.609375 -21.1875 L 5.890625 -22.015625 L 10.5 -3.875 C 12.132812 -4.601562 13.40625 -5.507812 14.3125 -6.59375 C 15.226562 -7.6875 15.875 -9.066406 16.25 -10.734375 C 16.632812 -12.410156 16.828125 -14.472656 16.828125 -16.921875 C 16.828125 -17.640625 16.8125 -18.40625 16.78125 -19.21875 C 16.75 -20.039062 16.707031 -20.882812 16.65625 -21.75 Z M 19.921875 -21.75 "/></g></g><g style="fill:#1b1b1b;fill-opacity:1;"><g transform="translate(59.140216, 428.047536)"><path style="stroke:none" d="M 12.515625 0 L 12.515625 -12.734375 C 12.515625 -14.796875 12.1875 -16.316406 11.53125 -17.296875 C 10.875 -18.285156 9.515625 -18.78125 7.453125 -18.78125 L 0.953125 -18.78125 L 0.953125 -21.703125 L 7.890625 -21.703125 C 10.566406 -21.703125 12.550781 -21.082031 13.84375 -19.84375 C 15.132812 -18.613281 15.78125 -16.578125 15.78125 -13.734375 L 15.78125 0 Z M 12.515625 0 "/></g></g><g style="fill:#1b1b1b;fill-opacity:1;"><g transform="translate(77.971682, 428.047536)"><path style="stroke:none" d=""/></g></g><g style="fill:#1b1b1b;fill-opacity:1;"><g transform="translate(87.736145, 428.047536)"><path style="stroke:none" d="M 8.671875 -21.703125 L 8.671875 0 L 5.40625 0 L 5.40625 -18.78125 L 1 -18.78125 L 1 -21.703125 Z M 8.671875 -21.703125 "/></g></g><g style="fill:#1b1b1b;fill-opacity:1;"><g transform="translate(99.636581, 428.047536)"><path style="stroke:none" d="M 17.21875 0 L 17.21875 -12.734375 C 17.21875 -14.796875 16.890625 -16.316406 16.234375 -17.296875 C 15.578125 -18.285156 14.21875 -18.78125 12.15625 -18.78125 L 2.875 -18.78125 L 2.875 -21.703125 L 12.59375 -21.703125 C 15.269531 -21.703125 17.253906 -21.082031 18.546875 -19.84375 C 19.835938 -18.613281 20.484375 -16.578125 20.484375 -13.734375 L 20.484375 0 Z M 3.3125 0 L 3.3125 -11.734375 L 6.578125 -11.734375 L 6.578125 0 Z M 3.3125 0 "/></g></g><g style="fill:#1b1b1b;fill-opacity:1;"><g transform="translate(123.175919, 428.047536)"><path style="stroke:none" d="M 24.40625 -21.703125 C 24.4375 -21.390625 24.457031 -20.90625 24.46875 -20.25 C 24.488281 -19.59375 24.503906 -18.941406 24.515625 -18.296875 C 24.535156 -17.660156 24.546875 -17.210938 24.546875 -16.953125 C 24.546875 -13.492188 23.816406 -10.457031 22.359375 -7.84375 C 20.910156 -5.226562 18.832031 -3.207031 16.125 -1.78125 C 13.425781 -0.363281 10.1875 0.285156 6.40625 0.171875 L 4.96875 0 L 2.3125 -21.703125 L 5.625 -21.703125 L 6.671875 -12.03125 C 8.648438 -12.175781 10.007812 -12.859375 10.75 -14.078125 C 11.488281 -15.296875 11.859375 -16.910156 11.859375 -18.921875 C 11.859375 -19.734375 11.816406 -20.660156 11.734375 -21.703125 L 14.953125 -21.703125 C 15.015625 -21.210938 15.054688 -20.726562 15.078125 -20.25 C 15.109375 -19.769531 15.125 -19.328125 15.125 -18.921875 C 15.125 -16.066406 14.476562 -13.851562 13.1875 -12.28125 C 11.894531 -10.71875 9.8125 -9.804688 6.9375 -9.546875 L 7.671875 -2.703125 C 10.640625 -2.734375 13.125 -3.375 15.125 -4.625 C 17.132812 -5.875 18.644531 -7.648438 19.65625 -9.953125 C 20.675781 -12.265625 21.1875 -14.992188 21.1875 -18.140625 C 21.1875 -19.265625 21.113281 -20.453125 20.96875 -21.703125 Z M 24.40625 -21.703125 "/></g></g><g style="fill:#1b1b1b;fill-opacity:1;"><g transform="translate(149.635876, 428.047536)"><path style="stroke:none" d="M 14.390625 -22.015625 C 16.484375 -22.015625 18.035156 -21.59375 19.046875 -20.75 C 20.066406 -19.90625 20.742188 -18.707031 21.078125 -17.15625 C 21.410156 -15.601562 21.578125 -13.734375 21.578125 -11.546875 L 21.578125 0 L 10.59375 0 L 10.9375 -2.921875 L 18.3125 -2.921875 L 18.3125 -11.6875 C 18.3125 -14.445312 17.96875 -16.367188 17.28125 -17.453125 C 16.601562 -18.546875 15.445312 -19.09375 13.8125 -19.09375 C 12.914062 -19.09375 12 -18.878906 11.0625 -18.453125 C 10.132812 -18.035156 9.179688 -17.492188 8.203125 -16.828125 L 5.96875 0 L 2.65625 0 L 5.0625 -16.78125 L 3.09375 -21.140625 L 5.96875 -22.359375 L 7.375 -19.484375 C 8.332031 -20.128906 9.410156 -20.710938 10.609375 -21.234375 C 11.816406 -21.753906 13.078125 -22.015625 14.390625 -22.015625 Z M 14.390625 -22.015625 "/></g></g><g style="fill:#1b1b1b;fill-opacity:1;"><g transform="translate(174.221407, 428.047536)"><path style="stroke:none" d="M 1.875 -18.578125 C 2.601562 -19.359375 3.210938 -20.210938 3.703125 -21.140625 C 4.203125 -22.066406 4.453125 -22.941406 4.453125 -23.765625 C 4.453125 -24.335938 4.363281 -24.828125 4.1875 -25.234375 C 4.007812 -25.640625 3.675781 -25.976562 3.1875 -26.25 C 3.1875 -26.914062 3.4375 -27.515625 3.9375 -28.046875 C 4.445312 -28.585938 5.035156 -28.859375 5.703125 -28.859375 C 6.460938 -28.859375 7.097656 -28.601562 7.609375 -28.09375 C 8.117188 -27.582031 8.375 -26.96875 8.375 -26.25 C 8.375 -24.675781 7.914062 -23.050781 7 -21.375 C 6.082031 -19.707031 4.835938 -18.351562 3.265625 -17.3125 Z M 9.15625 -18.578125 C 9.882812 -19.359375 10.492188 -20.210938 10.984375 -21.140625 C 11.484375 -22.066406 11.734375 -22.941406 11.734375 -23.765625 C 11.734375 -24.335938 11.644531 -24.828125 11.46875 -25.234375 C 11.289062 -25.640625 10.957031 -25.976562 10.46875 -26.25 C 10.46875 -26.914062 10.71875 -27.515625 11.21875 -28.046875 C 11.726562 -28.585938 12.316406 -28.859375 12.984375 -28.859375 C 13.742188 -28.859375 14.378906 -28.601562 14.890625 -28.09375 C 15.398438 -27.582031 15.65625 -26.96875 15.65625 -26.25 C 15.65625 -24.675781 15.195312 -23.050781 14.28125 -21.375 C 13.363281 -19.707031 12.117188 -18.351562 10.546875 -17.3125 Z M 9.15625 -18.578125 "/></g></g><g style="fill:#1b1b1b;fill-opacity:1;"><g transform="translate(191.614362, 428.047536)"><path style="stroke:none" d=""/></g></g><g style="fill:#1b1b1b;fill-opacity:1;"><g transform="translate(201.378826, 428.047536)"><path style="stroke:none" d="M 17.390625 -21.703125 L 17.609375 -21.453125 L 9.859375 0 L 6.5 0 L 13.390625 -18.78125 L 1.3125 -18.78125 L 1.34375 -28.375 L 4.625 -28.859375 L 4.578125 -21.703125 Z M 17.390625 -21.703125 "/></g></g><g style="fill:#1b1b1b;fill-opacity:1;"><g transform="translate(219.905147, 428.047536)"><path style="stroke:none" d="M 24.40625 -21.703125 C 24.4375 -21.390625 24.457031 -20.90625 24.46875 -20.25 C 24.488281 -19.59375 24.503906 -18.941406 24.515625 -18.296875 C 24.535156 -17.660156 24.546875 -17.210938 24.546875 -16.953125 C 24.546875 -13.492188 23.816406 -10.457031 22.359375 -7.84375 C 20.910156 -5.226562 18.832031 -3.207031 16.125 -1.78125 C 13.425781 -0.363281 10.1875 0.285156 6.40625 0.171875 L 4.96875 0 L 2.3125 -21.703125 L 5.625 -21.703125 L 6.671875 -12.03125 C 8.648438 -12.175781 10.007812 -12.859375 10.75 -14.078125 C 11.488281 -15.296875 11.859375 -16.910156 11.859375 -18.921875 C 11.859375 -19.734375 11.816406 -20.660156 11.734375 -21.703125 L 14.953125 -21.703125 C 15.015625 -21.210938 15.054688 -20.726562 15.078125 -20.25 C 15.109375 -19.769531 15.125 -19.328125 15.125 -18.921875 C 15.125 -16.066406 14.476562 -13.851562 13.1875 -12.28125 C 11.894531 -10.71875 9.8125 -9.804688 6.9375 -9.546875 L 7.671875 -2.703125 C 10.640625 -2.734375 13.125 -3.375 15.125 -4.625 C 17.132812 -5.875 18.644531 -7.648438 19.65625 -9.953125 C 20.675781 -12.265625 21.1875 -14.992188 21.1875 -18.140625 C 21.1875 -19.265625 21.113281 -20.453125 20.96875 -21.703125 Z M 24.40625 -21.703125 "/></g></g><g style="fill:#1b1b1b;fill-opacity:1;"><g transform="translate(246.365105, 428.047536)"><path style="stroke:none" d=""/></g></g><g style="fill:#1b1b1b;fill-opacity:1;"><g transform="translate(256.129569, 428.047536)"><path style="stroke:none" d="M 14.5625 -21.703125 C 17.238281 -21.703125 19.222656 -21.082031 20.515625 -19.84375 C 21.804688 -18.613281 22.453125 -16.578125 22.453125 -13.734375 L 22.453125 0 L 19.1875 0 L 19.1875 -12.734375 C 19.1875 -14.796875 18.859375 -16.316406 18.203125 -17.296875 C 17.546875 -18.285156 16.1875 -18.78125 14.125 -18.78125 L 8.625 -18.78125 L 8.625 0 L 1.78125 0 L 1.78125 -2.875 L 5.359375 -2.875 L 5.359375 -18.78125 L 2 -18.78125 L 2 -21.703125 Z M 14.5625 -21.703125 "/></g></g><g style="fill:#1b1b1b;fill-opacity:1;"><g transform="translate(281.630508, 428.047536)"><path style="stroke:none" d="M 8.671875 -21.703125 L 8.671875 0 L 5.40625 0 L 5.40625 -18.78125 L 1 -18.78125 L 1 -21.703125 Z M 8.671875 -21.703125 "/></g></g><g style="fill:#1b1b1b;fill-opacity:1;"><g transform="translate(293.530955, 428.047536)"><path style="stroke:none" d="M 16.734375 -2.921875 L 19.875 -2.921875 L 19.875 0 L 1.75 0 L 1.75 -2.921875 L 13.46875 -2.921875 L 13.46875 -12.734375 C 13.46875 -14.796875 13.140625 -16.316406 12.484375 -17.296875 C 11.835938 -18.285156 10.476562 -18.78125 8.40625 -18.78125 L 2.21875 -18.78125 L 2.21875 -21.703125 L 8.84375 -21.703125 C 11.519531 -21.703125 13.503906 -21.082031 14.796875 -19.84375 C 16.085938 -18.613281 16.734375 -16.578125 16.734375 -13.734375 Z M 16.734375 -2.921875 "/></g></g><g style="fill:#1b1b1b;fill-opacity:1;"><g transform="translate(314.454806, 428.047536)"><path style="stroke:none" d="M 24.40625 -21.703125 C 24.4375 -21.390625 24.457031 -20.90625 24.46875 -20.25 C 24.488281 -19.59375 24.503906 -18.941406 24.515625 -18.296875 C 24.535156 -17.660156 24.546875 -17.210938 24.546875 -16.953125 C 24.546875 -13.492188 23.816406 -10.457031 22.359375 -7.84375 C 20.910156 -5.226562 18.832031 -3.207031 16.125 -1.78125 C 13.425781 -0.363281 10.1875 0.285156 6.40625 0.171875 L 4.96875 0 L 2.3125 -21.703125 L 5.625 -21.703125 L 6.671875 -12.03125 C 8.648438 -12.175781 10.007812 -12.859375 10.75 -14.078125 C 11.488281 -15.296875 11.859375 -16.910156 11.859375 -18.921875 C 11.859375 -19.734375 11.816406 -20.660156 11.734375 -21.703125 L 14.953125 -21.703125 C 15.015625 -21.210938 15.054688 -20.726562 15.078125 -20.25 C 15.109375 -19.769531 15.125 -19.328125 15.125 -18.921875 C 15.125 -16.066406 14.476562 -13.851562 13.1875 -12.28125 C 11.894531 -10.71875 9.8125 -9.804688 6.9375 -9.546875 L 7.671875 -2.703125 C 10.640625 -2.734375 13.125 -3.375 15.125 -4.625 C 17.132812 -5.875 18.644531 -7.648438 19.65625 -9.953125 C 20.675781 -12.265625 21.1875 -14.992188 21.1875 -18.140625 C 21.1875 -19.265625 21.113281 -20.453125 20.96875 -21.703125 Z M 24.40625 -21.703125 "/></g></g><g style="fill:#1b1b1b;fill-opacity:1;"><g transform="translate(340.914752, 428.047536)"><path style="stroke:none" d="M 12.984375 -21.703125 C 15.660156 -21.703125 17.644531 -21.082031 18.9375 -19.84375 C 20.226562 -18.613281 20.875 -16.578125 20.875 -13.734375 L 20.875 0 L 17.609375 0 L 17.609375 -12.734375 C 17.609375 -14.796875 17.28125 -16.316406 16.625 -17.296875 C 15.976562 -18.285156 14.625 -18.78125 12.5625 -18.78125 L 6.5 -18.78125 L 6.5 0 L 3.21875 0 L 3.21875 -23.109375 L 6.5 -23.546875 L 6.5 -21.703125 Z M 12.984375 -21.703125 "/></g></g><g style="fill:#1b1b1b;fill-opacity:1;"><g transform="translate(364.846397, 428.047536)"><path style="stroke:none" d="M 14.390625 -22.015625 C 16.484375 -22.015625 18.035156 -21.59375 19.046875 -20.75 C 20.066406 -19.90625 20.742188 -18.707031 21.078125 -17.15625 C 21.410156 -15.601562 21.578125 -13.734375 21.578125 -11.546875 L 21.578125 0 L 10.59375 0 L 10.9375 -2.921875 L 18.3125 -2.921875 L 18.3125 -11.6875 C 18.3125 -14.445312 17.96875 -16.367188 17.28125 -17.453125 C 16.601562 -18.546875 15.445312 -19.09375 13.8125 -19.09375 C 12.914062 -19.09375 12 -18.878906 11.0625 -18.453125 C 10.132812 -18.035156 9.179688 -17.492188 8.203125 -16.828125 L 5.96875 0 L 2.65625 0 L 5.0625 -16.78125 L 3.09375 -21.140625 L 5.96875 -22.359375 L 7.375 -19.484375 C 8.332031 -20.128906 9.410156 -20.710938 10.609375 -21.234375 C 11.816406 -21.753906 13.078125 -22.015625 14.390625 -22.015625 Z M 14.390625 -22.015625 "/></g></g><g style="fill:#1b1b1b;fill-opacity:1;"><g transform="translate(111.968464, 468.501823)"><path style="stroke:none" d="M 1.875 -18.578125 C 2.601562 -19.359375 3.210938 -20.210938 3.703125 -21.140625 C 4.203125 -22.066406 4.453125 -22.941406 4.453125 -23.765625 C 4.453125 -24.335938 4.363281 -24.828125 4.1875 -25.234375 C 4.007812 -25.640625 3.675781 -25.976562 3.1875 -26.25 C 3.1875 -26.914062 3.4375 -27.515625 3.9375 -28.046875 C 4.445312 -28.585938 5.035156 -28.859375 5.703125 -28.859375 C 6.460938 -28.859375 7.097656 -28.601562 7.609375 -28.09375 C 8.117188 -27.582031 8.375 -26.96875 8.375 -26.25 C 8.375 -24.675781 7.914062 -23.050781 7 -21.375 C 6.082031 -19.707031 4.835938 -18.351562 3.265625 -17.3125 Z M 9.15625 -18.578125 C 9.882812 -19.359375 10.492188 -20.210938 10.984375 -21.140625 C 11.484375 -22.066406 11.734375 -22.941406 11.734375 -23.765625 C 11.734375 -24.335938 11.644531 -24.828125 11.46875 -25.234375 C 11.289062 -25.640625 10.957031 -25.976562 10.46875 -26.25 C 10.46875 -26.914062 10.71875 -27.515625 11.21875 -28.046875 C 11.726562 -28.585938 12.316406 -28.859375 12.984375 -28.859375 C 13.742188 -28.859375 14.378906 -28.601562 14.890625 -28.09375 C 15.398438 -27.582031 15.65625 -26.96875 15.65625 -26.25 C 15.65625 -24.675781 15.195312 -23.050781 14.28125 -21.375 C 13.363281 -19.707031 12.117188 -18.351562 10.546875 -17.3125 Z M 9.15625 -18.578125 "/></g></g><g style="fill:#1b1b1b;fill-opacity:1;"><g transform="translate(129.36142, 468.501823)"><path style="stroke:none" d="M 14.5625 -21.703125 C 17.238281 -21.703125 19.222656 -21.082031 20.515625 -19.84375 C 21.804688 -18.613281 22.453125 -16.578125 22.453125 -13.734375 L 22.453125 0 L 19.1875 0 L 19.1875 -12.734375 C 19.1875 -14.796875 18.859375 -16.316406 18.203125 -17.296875 C 17.546875 -18.285156 16.1875 -18.78125 14.125 -18.78125 L 8.625 -18.78125 L 8.625 0 L 1.78125 0 L 1.78125 -2.875 L 5.359375 -2.875 L 5.359375 -18.78125 L 2 -18.78125 L 2 -21.703125 Z M 14.5625 -21.703125 "/></g></g><g style="fill:#1b1b1b;fill-opacity:1;"><g transform="translate(154.862359, 468.501823)"><path style="stroke:none" d="M 8.671875 -21.703125 L 8.671875 0 L 5.40625 0 L 5.40625 -18.78125 L 1 -18.78125 L 1 -21.703125 Z M 8.671875 -21.703125 "/></g></g><g style="fill:#1b1b1b;fill-opacity:1;"><g transform="translate(166.762795, 468.501823)"><path style="stroke:none" d="M 12.515625 0 L 12.515625 -12.734375 C 12.515625 -14.796875 12.1875 -16.316406 11.53125 -17.296875 C 10.875 -18.285156 9.515625 -18.78125 7.453125 -18.78125 L 0.953125 -18.78125 L 0.953125 -21.703125 L 7.890625 -21.703125 C 10.566406 -21.703125 12.550781 -21.082031 13.84375 -19.84375 C 15.132812 -18.613281 15.78125 -16.578125 15.78125 -13.734375 L 15.78125 0 Z M 12.515625 0 "/></g></g><g style="fill:#1b1b1b;fill-opacity:1;"><g transform="translate(185.59426, 468.501823)"><path style="stroke:none" d="M 21.40625 -21.703125 L 21.703125 -21.359375 L 16.171875 0 L 12.859375 0 L 17.703125 -18.78125 L 2.359375 -18.78125 L 2.359375 -21.703125 Z M 3.4375 7.28125 L 3.4375 -11.859375 L 6.71875 -11.859375 L 6.71875 7.28125 Z M 3.4375 7.28125 "/></g></g><g style="fill:#1b1b1b;fill-opacity:1;"><g transform="translate(208.479723, 468.501823)"><path style="stroke:none" d="M 17.390625 -21.703125 L 17.609375 -21.453125 L 9.859375 0 L 6.5 0 L 13.390625 -18.78125 L 1.3125 -18.78125 L 1.34375 -28.375 L 4.625 -28.859375 L 4.578125 -21.703125 Z M 17.390625 -21.703125 "/></g></g><g style="fill:#1b1b1b;fill-opacity:1;"><g transform="translate(227.006045, 468.501823)"><path style="stroke:none" d=""/></g></g><g style="fill:#1b1b1b;fill-opacity:1;"><g transform="translate(236.770509, 468.501823)"><path style="stroke:none" d="M 18.609375 -21.703125 L 18 -18.78125 L 14.859375 -18.78125 L 14.859375 0 L 11.59375 0 L 11.59375 -18.78125 L 0.953125 -18.78125 L 0.953125 -21.703125 Z M 18.609375 -21.703125 "/></g></g><g style="fill:#1b1b1b;fill-opacity:1;"><g transform="translate(256.168664, 468.501823)"><path style="stroke:none" d="M 14.390625 -22.015625 C 16.484375 -22.015625 18.035156 -21.59375 19.046875 -20.75 C 20.066406 -19.90625 20.742188 -18.707031 21.078125 -17.15625 C 21.410156 -15.601562 21.578125 -13.734375 21.578125 -11.546875 L 21.578125 0 L 10.59375 0 L 10.9375 -2.921875 L 18.3125 -2.921875 L 18.3125 -11.6875 C 18.3125 -14.445312 17.96875 -16.367188 17.28125 -17.453125 C 16.601562 -18.546875 15.445312 -19.09375 13.8125 -19.09375 C 12.914062 -19.09375 12 -18.878906 11.0625 -18.453125 C 10.132812 -18.035156 9.179688 -17.492188 8.203125 -16.828125 L 5.96875 0 L 2.65625 0 L 5.0625 -16.78125 L 3.09375 -21.140625 L 5.96875 -22.359375 L 7.375 -19.484375 C 8.332031 -20.128906 9.410156 -20.710938 10.609375 -21.234375 C 11.816406 -21.753906 13.078125 -22.015625 14.390625 -22.015625 Z M 14.390625 -22.015625 "/></g></g><g style="fill:#1b1b1b;fill-opacity:1;"><g transform="translate(280.754194, 468.501823)"><path style="stroke:none" d="M 8.671875 -21.703125 L 8.671875 0 L 5.40625 0 L 5.40625 -18.78125 L 1 -18.78125 L 1 -21.703125 Z M 8.671875 -21.703125 "/></g></g><g style="fill:#1b1b1b;fill-opacity:1;"><g transform="translate(292.65463, 468.501823)"><path style="stroke:none" d="M 19.921875 -21.75 C 19.953125 -21.113281 19.972656 -20.488281 19.984375 -19.875 C 20.003906 -19.269531 20.015625 -18.675781 20.015625 -18.09375 C 20.015625 -14.863281 19.726562 -12.144531 19.15625 -9.9375 C 18.59375 -7.726562 17.617188 -5.894531 16.234375 -4.4375 C 14.859375 -2.988281 12.96875 -1.820312 10.5625 -0.9375 C 8.164062 -0.0507812 5.140625 0.664062 1.484375 1.21875 L 1.140625 -1.609375 C 2.410156 -1.785156 3.582031 -1.972656 4.65625 -2.171875 C 5.738281 -2.378906 6.726562 -2.613281 7.625 -2.875 L 2.609375 -21.1875 L 5.890625 -22.015625 L 10.5 -3.875 C 12.132812 -4.601562 13.40625 -5.507812 14.3125 -6.59375 C 15.226562 -7.6875 15.875 -9.066406 16.25 -10.734375 C 16.632812 -12.410156 16.828125 -14.472656 16.828125 -16.921875 C 16.828125 -17.640625 16.8125 -18.40625 16.78125 -19.21875 C 16.75 -20.039062 16.707031 -20.882812 16.65625 -21.75 Z M 19.921875 -21.75 "/></g></g><g clip-rule="nonzero" clip-path="url(#35457fd388)"><g clip-rule="nonzero" clip-path="url(#b47004c7d5)"><path style=" stroke:none;fill-rule:nonzero;fill:#000000;fill-opacity:1;" d="M 393.621094 208.683594 L 405.816406 208.683594 L 405.816406 220.882812 L 393.621094 220.882812 Z M 393.621094 208.683594 "/></g></g><g clip-rule="nonzero" clip-path="url(#31d76e84a1)"><g clip-rule="nonzero" clip-path="url(#0e705d1e03)"><path style=" stroke:none;fill-rule:nonzero;fill:#000000;fill-opacity:1;" d="M 393.621094 370.941406 L 405.816406 370.941406 L 405.816406 383.140625 L 393.621094 383.140625 Z M 393.621094 370.941406 "/></g></g><g style="fill:#078074;fill-opacity:1;"><g transform="translate(29.931337, 99.18016)"><path style="stroke:none" d="M 54.5 -45.703125 C 54.613281 -43.597656 54.710938 -41.488281 54.796875 -39.375 C 54.890625 -37.269531 54.816406 -35.101562 54.578125 -32.875 C 54.578125 -30.707031 54.253906 -28.550781 53.609375 -26.40625 C 52.960938 -24.269531 52.050781 -22.265625 50.875 -20.390625 C 49.707031 -18.515625 48.300781 -16.816406 46.65625 -15.296875 C 45.019531 -13.773438 43.238281 -12.515625 41.3125 -11.515625 C 41.132812 -11.398438 41.070312 -11.238281 41.125 -11.03125 C 41.1875 -10.820312 41.191406 -10.660156 41.140625 -10.546875 C 43.015625 -6.679688 44.898438 -2.800781 46.796875 1.09375 C 48.703125 4.988281 50.242188 9.078125 51.421875 13.359375 C 48.484375 13.941406 45.488281 14.421875 42.4375 14.796875 C 39.394531 15.179688 36.5 15.523438 33.75 15.828125 C 31 9.847656 27.96875 4.164062 24.65625 -1.21875 C 21.34375 -6.613281 18.015625 -11.921875 14.671875 -17.140625 C 11.335938 -22.359375 8.128906 -27.546875 5.046875 -32.703125 C 1.972656 -37.859375 -0.703125 -43.1875 -2.984375 -48.6875 C 0.703125 -49.332031 4.523438 -49.671875 8.484375 -49.703125 C 12.441406 -49.734375 16.351562 -49.660156 20.21875 -49.484375 C 21.332031 -47.253906 22.398438 -45.171875 23.421875 -43.234375 C 24.453125 -41.304688 25.492188 -39.390625 26.546875 -37.484375 C 27.597656 -35.578125 28.648438 -33.640625 29.703125 -31.671875 C 30.765625 -29.710938 31.878906 -27.625 33.046875 -25.40625 C 33.285156 -26.164062 33.460938 -26.804688 33.578125 -27.328125 C 33.691406 -27.859375 33.789062 -28.34375 33.875 -28.78125 C 33.96875 -29.21875 34.03125 -29.703125 34.0625 -30.234375 C 34.09375 -30.765625 34.109375 -31.410156 34.109375 -32.171875 C 34.160156 -34.984375 34.15625 -37.722656 34.09375 -40.390625 C 34.039062 -43.054688 33.984375 -45.765625 33.921875 -48.515625 C 37.148438 -48.160156 40.519531 -47.734375 44.03125 -47.234375 C 47.550781 -46.742188 51.039062 -46.234375 54.5 -45.703125 Z M 54.5 -45.703125 "/></g></g><g style="fill:#078074;fill-opacity:1;"><g transform="translate(82.581396, 99.18016)"><path style="stroke:none" d="M 32.78125 1.9375 C 33.195312 -1.9375 33.519531 -5.804688 33.75 -9.671875 C 33.988281 -13.535156 34.164062 -17.429688 34.28125 -21.359375 C 34.457031 -21.941406 34.441406 -22.484375 34.234375 -22.984375 C 34.023438 -23.484375 33.726562 -23.90625 33.34375 -24.25 C 32.96875 -24.601562 32.53125 -24.851562 32.03125 -25 C 31.539062 -25.144531 31.03125 -25.160156 30.5 -25.046875 C 29.269531 -25.109375 28.023438 -25.179688 26.765625 -25.265625 C 25.503906 -25.359375 24.285156 -25.40625 23.109375 -25.40625 C 23.234375 -20.769531 23.335938 -16.164062 23.421875 -11.59375 C 23.515625 -7.03125 23.617188 -2.460938 23.734375 2.109375 C 20.921875 1.992188 18.132812 1.847656 15.375 1.671875 C 12.625 1.492188 9.898438 1.171875 7.203125 0.703125 C 5.148438 -7.203125 3.742188 -15.242188 2.984375 -23.421875 C 2.222656 -31.597656 2.429688 -39.875 3.609375 -48.25 C 8.992188 -48.894531 14.46875 -49.082031 20.03125 -48.8125 C 25.601562 -48.550781 31.316406 -48.128906 37.171875 -47.546875 C 39.816406 -47.253906 42.382812 -46.566406 44.875 -45.484375 C 47.363281 -44.398438 49.484375 -42.890625 51.234375 -40.953125 C 52.585938 -39.253906 53.4375 -37.320312 53.78125 -35.15625 C 54.132812 -32.988281 54.195312 -30.789062 53.96875 -28.5625 C 53.613281 -23.582031 52.953125 -18.660156 51.984375 -13.796875 C 51.015625 -8.929688 49.769531 -4.15625 48.25 0.53125 C 45.613281 0.9375 43.003906 1.253906 40.421875 1.484375 C 37.847656 1.722656 35.300781 1.875 32.78125 1.9375 Z M 32.78125 1.9375 "/></g></g><g style="fill:#078074;fill-opacity:1;"><g transform="translate(135.846727, 99.18016)"><path style="stroke:none" d="M 16.34375 1.578125 C 16.050781 -1.753906 15.847656 -4.828125 15.734375 -7.640625 C 15.617188 -10.453125 15.472656 -13.5 15.296875 -16.78125 C 16.171875 -16.84375 17.101562 -16.875 18.09375 -16.875 C 19.09375 -16.875 20.046875 -16.960938 20.953125 -17.140625 C 21.867188 -17.316406 22.691406 -17.648438 23.421875 -18.140625 C 24.148438 -18.640625 24.664062 -19.421875 24.96875 -20.484375 C 25.082031 -21.296875 24.992188 -22.128906 24.703125 -22.984375 C 24.410156 -23.835938 23.765625 -24.320312 22.765625 -24.4375 C 19.242188 -24.550781 15.828125 -24.664062 12.515625 -24.78125 C 9.210938 -24.90625 5.945312 -25.113281 2.71875 -25.40625 C 2.425781 -28.863281 2.160156 -31.921875 1.921875 -34.578125 C 1.691406 -37.242188 1.519531 -39.851562 1.40625 -42.40625 C 1.289062 -44.957031 1.257812 -47.578125 1.3125 -50.265625 C 1.375 -52.960938 1.550781 -56.097656 1.84375 -59.671875 C 5.238281 -60.609375 8.664062 -61.035156 12.125 -60.953125 C 15.582031 -60.867188 19.070312 -60.738281 22.59375 -60.5625 C 22.59375 -58.800781 22.601562 -57.46875 22.625 -56.5625 C 22.65625 -55.65625 22.671875 -54.816406 22.671875 -54.046875 C 22.671875 -53.285156 22.671875 -52.46875 22.671875 -51.59375 C 22.671875 -50.71875 22.671875 -49.425781 22.671875 -47.71875 C 24.898438 -47.550781 27.15625 -47.390625 29.4375 -47.234375 C 31.726562 -47.085938 34.046875 -46.898438 36.390625 -46.671875 C 37.972656 -46.671875 39.4375 -46.300781 40.78125 -45.5625 C 42.125 -44.832031 43.25 -43.878906 44.15625 -42.703125 C 45.070312 -41.535156 45.71875 -40.203125 46.09375 -38.703125 C 46.476562 -37.210938 46.523438 -35.679688 46.234375 -34.109375 C 45.992188 -31.703125 45.742188 -29.3125 45.484375 -26.9375 C 45.222656 -24.5625 44.945312 -22.175781 44.65625 -19.78125 C 44.125 -16.375 42.945312 -13.28125 41.125 -10.5 C 39.3125 -7.71875 37.113281 -5.390625 34.53125 -3.515625 C 31.957031 -1.640625 29.085938 -0.25 25.921875 0.65625 C 22.765625 1.5625 19.570312 1.867188 16.34375 1.578125 Z M 16.34375 1.578125 "/></g></g><g style="fill:#078074;fill-opacity:1;"><g transform="translate(181.465036, 99.18016)"><path style="stroke:none" d="M 3.609375 -47.109375 C 6.765625 -48.285156 10 -48.695312 13.3125 -48.34375 C 16.625 -47.988281 19.773438 -47.195312 22.765625 -45.96875 C 23.117188 -38.113281 23.160156 -30.304688 22.890625 -22.546875 C 22.628906 -14.785156 22 -7.066406 21 0.609375 C 18.363281 1.492188 15.671875 1.960938 12.921875 2.015625 C 10.171875 2.078125 7.535156 1.640625 5.015625 0.703125 C 4.191406 -7.203125 3.632812 -15.109375 3.34375 -23.015625 C 3.050781 -30.929688 3.140625 -38.960938 3.609375 -47.109375 Z M 3.609375 -47.109375 "/></g></g><g style="fill:#078074;fill-opacity:1;"><g transform="translate(204.581763, 99.18016)"><path style="stroke:none" d=""/></g></g><g style="fill:#078074;fill-opacity:1;"><g transform="translate(220.754647, 99.18016)"><path style="stroke:none" d="M 4.65625 -20.65625 C 6.007812 -20.59375 7.253906 -20.53125 8.390625 -20.46875 C 9.535156 -20.414062 10.675781 -20.359375 11.8125 -20.296875 C 12.957031 -20.242188 14.113281 -20.203125 15.28125 -20.171875 C 16.457031 -20.140625 17.75 -20.125 19.15625 -20.125 C 19.914062 -20.125 20.5625 -19.84375 21.09375 -19.28125 C 21.625 -18.726562 21.859375 -18.070312 21.796875 -17.3125 C 21.734375 -14.144531 21.757812 -10.9375 21.875 -7.6875 C 22 -4.4375 22.03125 -1.203125 21.96875 2.015625 C 20.625 2.015625 19.101562 1.984375 17.40625 1.921875 C 15.707031 1.867188 13.976562 1.796875 12.21875 1.703125 C 10.457031 1.617188 8.753906 1.503906 7.109375 1.359375 C 5.472656 1.210938 4.007812 1.050781 2.71875 0.875 C 2.71875 -2.164062 2.757812 -4.640625 2.84375 -6.546875 C 2.9375 -8.453125 3.070312 -10.132812 3.25 -11.59375 C 3.425781 -13.0625 3.628906 -14.453125 3.859375 -15.765625 C 4.097656 -17.085938 4.363281 -18.71875 4.65625 -20.65625 Z M 28.734375 1.9375 C 29.035156 -1.40625 29.242188 -4.742188 29.359375 -8.078125 C 29.472656 -11.421875 29.585938 -14.765625 29.703125 -18.109375 C 29.765625 -19.160156 29.707031 -20.226562 29.53125 -21.3125 C 29.351562 -22.394531 28.941406 -23.347656 28.296875 -24.171875 C 27.484375 -24.640625 26.648438 -24.914062 25.796875 -25 C 24.941406 -25.09375 24.109375 -25.164062 23.296875 -25.21875 C 19.773438 -25.34375 16.316406 -25.414062 12.921875 -25.4375 C 9.523438 -25.46875 6.210938 -25.546875 2.984375 -25.671875 C 2.640625 -29.359375 2.523438 -33.078125 2.640625 -36.828125 C 2.753906 -40.578125 3.046875 -44.296875 3.515625 -47.984375 C 8.085938 -48.691406 12.757812 -48.957031 17.53125 -48.78125 C 22.3125 -48.601562 27.191406 -48.3125 32.171875 -47.90625 C 34.742188 -47.726562 37.171875 -47.023438 39.453125 -45.796875 C 41.742188 -44.566406 43.691406 -42.984375 45.296875 -41.046875 C 46.910156 -39.109375 48.097656 -36.878906 48.859375 -34.359375 C 49.628906 -31.847656 49.804688 -29.242188 49.390625 -26.546875 C 48.984375 -21.910156 48.351562 -17.335938 47.5 -12.828125 C 46.65625 -8.316406 45.554688 -3.863281 44.203125 0.53125 C 41.566406 1 38.972656 1.347656 36.421875 1.578125 C 33.878906 1.816406 31.316406 1.9375 28.734375 1.9375 Z M 28.734375 1.9375 "/></g></g><g style="fill:#078074;fill-opacity:1;"><g transform="translate(269.976725, 99.18016)"><path style="stroke:none" d="M 16.703125 1.9375 C 16.523438 -0.226562 16.390625 -2.351562 16.296875 -4.4375 C 16.210938 -6.519531 16.113281 -8.613281 16 -10.71875 C 15.9375 -12.125 15.921875 -13.515625 15.953125 -14.890625 C 15.984375 -16.273438 16.234375 -17.640625 16.703125 -18.984375 C 17.222656 -19.921875 17.878906 -20.769531 18.671875 -21.53125 C 19.460938 -22.289062 20.210938 -23.082031 20.921875 -23.90625 L 20.921875 -24.078125 L 20.828125 -24.78125 L 20.21875 -25.3125 C 17.050781 -25.425781 13.988281 -25.484375 11.03125 -25.484375 C 8.070312 -25.484375 5.128906 -25.515625 2.203125 -25.578125 C 1.960938 -29.265625 1.867188 -32.9375 1.921875 -36.59375 C 1.984375 -40.257812 2.25 -44 2.71875 -47.8125 C 5.945312 -48.34375 9.203125 -48.617188 12.484375 -48.640625 C 15.765625 -48.671875 19.085938 -48.554688 22.453125 -48.296875 C 25.828125 -48.035156 29.238281 -47.65625 32.6875 -47.15625 C 36.144531 -46.65625 39.664062 -46.113281 43.25 -45.53125 C 43.539062 -42.601562 43.671875 -39.65625 43.640625 -36.6875 C 43.609375 -33.726562 43.503906 -30.757812 43.328125 -27.78125 L 42.796875 -27.59375 C 41.097656 -27.070312 39.722656 -26.253906 38.671875 -25.140625 C 37.617188 -24.023438 36.785156 -22.75 36.171875 -21.3125 C 35.554688 -19.875 35.097656 -18.363281 34.796875 -16.78125 C 34.503906 -15.207031 34.332031 -13.71875 34.28125 -12.3125 C 34.039062 -9.96875 33.816406 -7.632812 33.609375 -5.3125 C 33.410156 -3 33.078125 -0.703125 32.609375 1.578125 C 29.910156 1.753906 27.242188 1.898438 24.609375 2.015625 C 21.972656 2.140625 19.335938 2.113281 16.703125 1.9375 Z M 16.703125 1.9375 "/></g></g><g style="fill:#078074;fill-opacity:1;"><g transform="translate(312.25497, 99.18016)"><path style="stroke:none" d="M 22.859375 2.015625 C 22.972656 -1.316406 23.070312 -4.65625 23.15625 -8 C 23.25 -11.34375 23.265625 -14.679688 23.203125 -18.015625 C 23.203125 -19.191406 23.082031 -20.347656 22.84375 -21.484375 C 22.613281 -22.628906 22.085938 -23.671875 21.265625 -24.609375 C 20.617188 -25.078125 19.867188 -25.328125 19.015625 -25.359375 C 18.171875 -25.390625 17.367188 -25.429688 16.609375 -25.484375 C 14.210938 -25.546875 11.851562 -25.5625 9.53125 -25.53125 C 7.21875 -25.5 4.945312 -25.546875 2.71875 -25.671875 C 2.601562 -29.359375 2.5625 -33.015625 2.59375 -36.640625 C 2.625 -40.273438 2.875 -44 3.34375 -47.8125 C 6.738281 -48.457031 10.164062 -48.765625 13.625 -48.734375 C 17.082031 -48.703125 20.566406 -48.570312 24.078125 -48.34375 C 26.773438 -48.050781 29.320312 -47.242188 31.71875 -45.921875 C 34.125 -44.609375 36.191406 -42.925781 37.921875 -40.875 C 39.648438 -38.820312 40.953125 -36.488281 41.828125 -33.875 C 42.710938 -31.269531 43.007812 -28.535156 42.71875 -25.671875 C 42.300781 -21.210938 41.769531 -16.800781 41.125 -12.4375 C 40.488281 -8.070312 39.582031 -3.75 38.40625 0.53125 C 35.769531 1.050781 33.160156 1.414062 30.578125 1.625 C 28.003906 1.832031 25.429688 1.960938 22.859375 2.015625 Z M 22.859375 2.015625 "/></g></g><g style="fill:#078074;fill-opacity:1;"><g transform="translate(355.500064, 99.18016)"><path style="stroke:none" d="M 32.78125 1.9375 C 33.195312 -1.9375 33.519531 -5.804688 33.75 -9.671875 C 33.988281 -13.535156 34.164062 -17.429688 34.28125 -21.359375 C 34.457031 -21.941406 34.441406 -22.484375 34.234375 -22.984375 C 34.023438 -23.484375 33.726562 -23.90625 33.34375 -24.25 C 32.96875 -24.601562 32.53125 -24.851562 32.03125 -25 C 31.539062 -25.144531 31.03125 -25.160156 30.5 -25.046875 C 29.269531 -25.109375 28.023438 -25.179688 26.765625 -25.265625 C 25.503906 -25.359375 24.285156 -25.40625 23.109375 -25.40625 C 23.234375 -20.769531 23.335938 -16.164062 23.421875 -11.59375 C 23.515625 -7.03125 23.617188 -2.460938 23.734375 2.109375 C 20.921875 1.992188 18.132812 1.847656 15.375 1.671875 C 12.625 1.492188 9.898438 1.171875 7.203125 0.703125 C 5.148438 -7.203125 3.742188 -15.242188 2.984375 -23.421875 C 2.222656 -31.597656 2.429688 -39.875 3.609375 -48.25 C 8.992188 -48.894531 14.46875 -49.082031 20.03125 -48.8125 C 25.601562 -48.550781 31.316406 -48.128906 37.171875 -47.546875 C 39.816406 -47.253906 42.382812 -46.566406 44.875 -45.484375 C 47.363281 -44.398438 49.484375 -42.890625 51.234375 -40.953125 C 52.585938 -39.253906 53.4375 -37.320312 53.78125 -35.15625 C 54.132812 -32.988281 54.195312 -30.789062 53.96875 -28.5625 C 53.613281 -23.582031 52.953125 -18.660156 51.984375 -13.796875 C 51.015625 -8.929688 49.769531 -4.15625 48.25 0.53125 C 45.613281 0.9375 43.003906 1.253906 40.421875 1.484375 C 37.847656 1.722656 35.300781 1.875 32.78125 1.9375 Z M 32.78125 1.9375 "/></g></g><g style="fill:#078074;fill-opacity:1;"><g transform="translate(131.62892, 173.346353)"><path style="stroke:none" d="M 3.875 -47.109375 C 7.09375 -47.867188 10.3125 -48.039062 13.53125 -47.625 C 16.757812 -47.21875 19.984375 -46.664062 23.203125 -45.96875 C 23.554688 -40.925781 23.613281 -35.882812 23.375 -30.84375 C 23.144531 -25.8125 22.5625 -20.773438 21.625 -15.734375 C 15.757812 -14.554688 10.132812 -14.734375 4.75 -16.265625 C 3.925781 -21.242188 3.425781 -26.3125 3.25 -31.46875 C 3.070312 -36.625 3.28125 -41.835938 3.875 -47.109375 Z M 3.875 -47.109375 "/></g></g><g style="fill:#078074;fill-opacity:1;"><g transform="translate(155.185142, 173.346353)"><path style="stroke:none" d="M 27.859375 -47.8125 C 30.671875 -47.695312 33.523438 -47.535156 36.421875 -47.328125 C 39.328125 -47.117188 42.273438 -46.867188 45.265625 -46.578125 C 45.554688 -41.242188 45.597656 -36 45.390625 -30.84375 C 45.191406 -25.6875 44.945312 -20.472656 44.65625 -15.203125 L 46.40625 -15.296875 C 47.226562 -15.296875 47.859375 -15.5 48.296875 -15.90625 C 48.734375 -16.320312 49.054688 -16.835938 49.265625 -17.453125 C 49.472656 -18.066406 49.601562 -18.722656 49.65625 -19.421875 C 49.71875 -20.128906 49.773438 -20.742188 49.828125 -21.265625 C 50.296875 -25.429688 50.632812 -29.59375 50.84375 -33.75 C 51.050781 -37.90625 51.097656 -42.066406 50.984375 -46.234375 C 54.140625 -45.878906 57.3125 -45.554688 60.5 -45.265625 C 63.695312 -44.972656 66.9375 -44.617188 70.21875 -44.203125 C 70.519531 -39.929688 70.40625 -35.640625 69.875 -31.328125 C 69.34375 -27.023438 68.671875 -22.765625 67.859375 -18.546875 C 67.390625 -16.140625 66.640625 -13.78125 65.609375 -11.46875 C 64.585938 -9.15625 63.285156 -7.046875 61.703125 -5.140625 C 60.117188 -3.234375 58.253906 -1.679688 56.109375 -0.484375 C 53.972656 0.710938 51.5625 1.398438 48.875 1.578125 C 44.125 1.867188 39.460938 2 34.890625 1.96875 C 30.316406 1.945312 25.835938 1.878906 21.453125 1.765625 C 19.046875 1.816406 16.785156 1.375 14.671875 0.4375 C 12.566406 -0.5 10.722656 -1.785156 9.140625 -3.421875 C 7.554688 -5.066406 6.265625 -6.957031 5.265625 -9.09375 C 4.273438 -11.238281 3.691406 -13.453125 3.515625 -15.734375 C 2.515625 -20.953125 1.820312 -26.222656 1.4375 -31.546875 C 1.0625 -36.878906 1.316406 -42.242188 2.203125 -47.640625 C 5.484375 -48.046875 8.765625 -48.25 12.046875 -48.25 C 15.328125 -48.25 18.695312 -48.191406 22.15625 -48.078125 C 22.15625 -43.617188 22.238281 -39.207031 22.40625 -34.84375 C 22.582031 -30.476562 22.816406 -26.097656 23.109375 -21.703125 C 23.054688 -21.003906 23.085938 -20.273438 23.203125 -19.515625 C 23.316406 -18.753906 23.550781 -18.050781 23.90625 -17.40625 C 24.257812 -16.757812 24.710938 -16.257812 25.265625 -15.90625 C 25.828125 -15.550781 26.515625 -15.4375 27.328125 -15.5625 L 28.296875 -15.5625 C 28.179688 -20.894531 28.078125 -26.253906 27.984375 -31.640625 C 27.898438 -37.035156 27.859375 -42.425781 27.859375 -47.8125 Z M 27.859375 -47.8125 "/></g></g><g style="fill:#078074;fill-opacity:1;"><g transform="translate(223.744527, 173.346353)"><path style="stroke:none" d="M 23.375 -18.984375 C 19.914062 -19.097656 16.546875 -19.210938 13.265625 -19.328125 C 9.984375 -19.453125 6.734375 -19.570312 3.515625 -19.6875 C 3.046875 -24.4375 2.765625 -29.15625 2.671875 -33.84375 C 2.585938 -38.53125 2.898438 -43.304688 3.609375 -48.171875 C 8.585938 -48.804688 13.566406 -49.035156 18.546875 -48.859375 C 23.523438 -48.691406 28.648438 -48.34375 33.921875 -47.8125 C 36.972656 -47.457031 39.710938 -46.429688 42.140625 -44.734375 C 44.578125 -43.035156 46.554688 -40.941406 48.078125 -38.453125 C 49.597656 -35.960938 50.632812 -33.191406 51.1875 -30.140625 C 51.75 -27.097656 51.707031 -24.082031 51.0625 -21.09375 C 50.769531 -18.457031 50.109375 -15.804688 49.078125 -13.140625 C 48.054688 -10.472656 46.710938 -8.054688 45.046875 -5.890625 C 43.378906 -3.722656 41.398438 -1.921875 39.109375 -0.484375 C 36.828125 0.953125 34.28125 1.757812 31.46875 1.9375 C 29.351562 2.050781 27.164062 2.109375 24.90625 2.109375 C 22.65625 2.109375 20.398438 2.050781 18.140625 1.9375 C 15.890625 1.820312 13.691406 1.660156 11.546875 1.453125 C 9.410156 1.242188 7.378906 0.992188 5.453125 0.703125 C 5.160156 -2.285156 4.925781 -5.300781 4.75 -8.34375 C 4.570312 -11.394531 4.28125 -14.414062 3.875 -17.40625 C 7.625 -17.050781 11.429688 -16.828125 15.296875 -16.734375 C 19.160156 -16.648438 23.113281 -16.550781 27.15625 -16.4375 C 27.738281 -16.4375 28.351562 -16.4375 29 -16.4375 C 29.644531 -16.4375 30.257812 -16.582031 30.84375 -16.875 C 31.4375 -17.164062 31.742188 -17.617188 31.765625 -18.234375 C 31.796875 -18.847656 31.875 -19.421875 32 -19.953125 C 31.9375 -20.242188 31.976562 -20.566406 32.125 -20.921875 C 32.269531 -21.273438 32.285156 -21.625 32.171875 -21.96875 C 32.222656 -22.5625 32.160156 -23.148438 31.984375 -23.734375 C 31.816406 -24.316406 31.5 -24.84375 31.03125 -25.3125 C 30.5 -25.488281 29.953125 -25.5625 29.390625 -25.53125 C 28.835938 -25.5 28.269531 -25.515625 27.6875 -25.578125 C 27.039062 -25.515625 26.347656 -25.5 25.609375 -25.53125 C 24.878906 -25.5625 24.195312 -25.609375 23.5625 -25.671875 L 23.296875 -25.578125 C 23.234375 -24.460938 23.226562 -23.378906 23.28125 -22.328125 C 23.34375 -21.273438 23.375 -20.160156 23.375 -18.984375 Z M 23.375 -18.984375 "/></g></g><g style="fill:#078074;fill-opacity:1;"><g transform="translate(274.548748, 173.346353)"><path style="stroke:none" d="M 4.21875 -25.40625 C 4.101562 -28.976562 4.070312 -32.640625 4.125 -36.390625 C 4.1875 -40.140625 4.394531 -43.859375 4.75 -47.546875 C 7.445312 -48.191406 10.171875 -48.5 12.921875 -48.46875 C 15.671875 -48.4375 18.453125 -48.273438 21.265625 -47.984375 C 22.796875 -47.691406 24.1875 -47.09375 25.4375 -46.1875 C 26.695312 -45.28125 27.765625 -44.195312 28.640625 -42.9375 C 29.523438 -41.675781 30.203125 -40.269531 30.671875 -38.71875 C 31.140625 -37.164062 31.375 -35.597656 31.375 -34.015625 C 31.195312 -28.148438 30.84375 -22.332031 30.3125 -16.5625 C 29.789062 -10.789062 29.03125 -5.066406 28.03125 0.609375 C 24.113281 1.546875 20.203125 2.015625 16.296875 2.015625 C 12.398438 2.015625 8.609375 1.460938 4.921875 0.359375 C 4.453125 -2.578125 4.023438 -5.507812 3.640625 -8.4375 C 3.265625 -11.363281 3.019531 -14.320312 2.90625 -17.3125 C 4.25 -17.132812 5.59375 -16.988281 6.9375 -16.875 C 8.289062 -16.757812 9.640625 -16.671875 10.984375 -16.609375 L 11.421875 -17.046875 C 11.421875 -17.640625 11.40625 -18.179688 11.375 -18.671875 C 11.351562 -19.171875 11.367188 -19.6875 11.421875 -20.21875 C 11.597656 -21.976562 11.128906 -23.5 10.015625 -24.78125 C 9.546875 -25.070312 9.03125 -25.234375 8.46875 -25.265625 C 7.914062 -25.296875 7.378906 -25.3125 6.859375 -25.3125 C 6.390625 -25.425781 5.945312 -25.4375 5.53125 -25.34375 C 5.125 -25.257812 4.6875 -25.28125 4.21875 -25.40625 Z M 4.21875 -25.40625 "/></g></g></g></svg>