<svg xmlns="http://www.w3.org/2000/svg" xmlns:xlink="http://www.w3.org/1999/xlink" width="614" zoomAndPan="magnify" viewBox="0 0 460.5 509.249984" height="679" preserveAspectRatio="xMidYMid meet" version="1.2"><defs><clipPath id="9b68b6fa7f"><path d="M 11.15625 5.375 L 448.511719 5.375 L 448.511719 507.886719 L 11.15625 507.886719 Z M 11.15625 5.375 "/></clipPath><clipPath id="4c0396e65c"><path d="M 69.542969 5.375 L 390.121094 5.375 C 405.605469 5.375 420.457031 11.527344 431.40625 22.476562 C 442.359375 33.425781 448.507812 48.277344 448.507812 63.765625 L 448.507812 449.46875 C 448.507812 464.957031 442.359375 479.808594 431.40625 490.757812 C 420.457031 501.707031 405.605469 507.859375 390.121094 507.859375 L 69.542969 507.859375 C 54.058594 507.859375 39.207031 501.707031 28.257812 490.757812 C 17.304688 479.808594 11.15625 464.957031 11.15625 449.46875 L 11.15625 63.765625 C 11.15625 48.277344 17.304688 33.425781 28.257812 22.476562 C 39.207031 11.527344 54.058594 5.375 69.542969 5.375 Z M 69.542969 5.375 "/></clipPath><clipPath id="22871eb304"><path d="M 417.058594 198.355469 L 429.25 198.355469 L 429.25 210.550781 L 417.058594 210.550781 Z M 417.058594 198.355469 "/></clipPath><clipPath id="527166d54d"><path d="M 423.15625 198.355469 C 419.789062 198.355469 417.058594 201.085938 417.058594 204.453125 C 417.058594 207.820312 419.789062 210.550781 423.15625 210.550781 C 426.523438 210.550781 429.25 207.820312 429.25 204.453125 C 429.25 201.085938 426.523438 198.355469 423.15625 198.355469 Z M 423.15625 198.355469 "/></clipPath><clipPath id="8f26209f83"><path d="M 417.058594 360.558594 L 429.25 360.558594 L 429.25 372.753906 L 417.058594 372.753906 Z M 417.058594 360.558594 "/></clipPath><clipPath id="422db63ff0"><path d="M 423.15625 360.558594 C 419.789062 360.558594 417.058594 363.289062 417.058594 366.65625 C 417.058594 370.023438 419.789062 372.753906 423.15625 372.753906 C 426.523438 372.753906 429.25 370.023438 429.25 366.65625 C 429.25 363.289062 426.523438 360.558594 423.15625 360.558594 Z M 423.15625 360.558594 "/></clipPath></defs><g id="3d67472319"><g clip-rule="nonzero" clip-path="url(#9b68b6fa7f)"><g clip-rule="nonzero" clip-path="url(#4c0396e65c)"><path style="fill:none;stroke-width:12;stroke-linecap:butt;stroke-linejoin:miter;stroke:#285256;stroke-opacity:1;stroke-miterlimit:4;" d="M 77.999254 -0.00135529 L 506.249559 -0.00135529 C 526.934652 -0.00135529 546.774391 8.217369 561.40111 22.844088 C 576.033048 37.470807 584.246554 57.310546 584.246554 78.000857 L 584.246554 593.249616 C 584.246554 613.939927 576.033048 633.774447 561.40111 648.406385 C 546.774391 663.033104 526.934652 671.251828 506.249559 671.251828 L 77.999254 671.251828 C 57.314161 671.251828 37.474423 663.033104 22.847703 648.406385 C 8.215766 633.774447 0.00226001 613.939927 0.00226001 593.249616 L 0.00226001 78.000857 C 0.00226001 57.310546 8.215766 37.470807 22.847703 22.844088 C 37.474423 8.217369 57.314161 -0.00135529 77.999254 -0.00135529 Z M 77.999254 -0.00135529 " transform="matrix(0.748577,0,0,0.748577,11.154558,5.376015)"/></g></g><g clip-rule="nonzero" clip-path="url(#22871eb304)"><g clip-rule="nonzero" clip-path="url(#527166d54d)"><path style=" stroke:none;fill-rule:nonzero;fill:#000000;fill-opacity:1;" d="M 417.058594 198.355469 L 429.25 198.355469 L 429.25 210.550781 L 417.058594 210.550781 Z M 417.058594 198.355469 "/></g></g><g clip-rule="nonzero" clip-path="url(#8f26209f83)"><g clip-rule="nonzero" clip-path="url(#422db63ff0)"><path style=" stroke:none;fill-rule:nonzero;fill:#000000;fill-opacity:1;" d="M 417.058594 360.558594 L 429.25 360.558594 L 429.25 372.75 L 417.058594 372.75 Z M 417.058594 360.558594 "/></g></g><g style="fill:#078074;fill-opacity:1;"><g transform="translate(132.1643, 99.103932)"><path style="stroke:none" d="M 21.96875 16 C 22.144531 10.132812 22.242188 4.304688 22.265625 -1.484375 C 22.296875 -7.285156 22.3125 -13.144531 22.3125 -19.0625 C 22.3125 -20.0625 22.207031 -21.054688 22 -22.046875 C 21.800781 -23.046875 21.320312 -23.898438 20.5625 -24.609375 C 19.863281 -25.078125 19.085938 -25.394531 18.234375 -25.5625 C 17.378906 -25.738281 16.515625 -25.828125 15.640625 -25.828125 C 13.535156 -25.953125 11.425781 -25.953125 9.3125 -25.828125 C 7.207031 -25.710938 5.097656 -25.628906 2.984375 -25.578125 C 2.804688 -29.265625 2.75 -32.9375 2.8125 -36.59375 C 2.875 -40.257812 3.050781 -43.96875 3.34375 -47.71875 C 6.5 -48.539062 9.671875 -48.976562 12.859375 -49.03125 C 16.054688 -49.09375 19.328125 -48.976562 22.671875 -48.6875 C 25.367188 -48.394531 27.859375 -47.554688 30.140625 -46.171875 C 32.421875 -44.796875 34.394531 -43.039062 36.0625 -40.90625 C 37.738281 -38.769531 39 -36.367188 39.84375 -33.703125 C 40.695312 -31.035156 41.007812 -28.296875 40.78125 -25.484375 C 40.476562 -18.742188 39.960938 -12.078125 39.234375 -5.484375 C 38.503906 1.097656 37.492188 7.671875 36.203125 14.234375 C 33.804688 14.878906 31.4375 15.300781 29.09375 15.5 C 26.75 15.707031 24.375 15.875 21.96875 16 Z M 21.96875 16 "/></g></g><g style="fill:#078074;fill-opacity:1;"><g transform="translate(173.813, 99.103932)"><path style="stroke:none" d="M 3.609375 -47.09375 C 6.765625 -48.269531 10 -48.679688 13.3125 -48.328125 C 16.625 -47.972656 19.773438 -47.179688 22.765625 -45.953125 C 23.109375 -38.109375 23.148438 -30.300781 22.890625 -22.53125 C 22.628906 -14.769531 22 -7.054688 21 0.609375 C 18.363281 1.492188 15.664062 1.960938 12.90625 2.015625 C 10.15625 2.078125 7.523438 1.640625 5.015625 0.703125 C 4.191406 -7.203125 3.632812 -15.109375 3.34375 -23.015625 C 3.050781 -30.929688 3.140625 -38.957031 3.609375 -47.09375 Z M 3.609375 -47.09375 "/></g></g><g style="fill:#078074;fill-opacity:1;"><g transform="translate(196.921813, 99.103932)"><path style="stroke:none" d="M 16.703125 1.9375 C 16.523438 -0.226562 16.390625 -2.351562 16.296875 -4.4375 C 16.210938 -6.519531 16.113281 -8.613281 16 -10.71875 C 15.9375 -12.125 15.921875 -13.515625 15.953125 -14.890625 C 15.984375 -16.265625 16.234375 -17.628906 16.703125 -18.984375 C 17.222656 -19.921875 17.878906 -20.769531 18.671875 -21.53125 C 19.460938 -22.289062 20.210938 -23.082031 20.921875 -23.90625 L 20.921875 -24.078125 L 20.828125 -24.78125 L 20.21875 -25.3125 C 17.050781 -25.425781 13.988281 -25.484375 11.03125 -25.484375 C 8.070312 -25.484375 5.128906 -25.515625 2.203125 -25.578125 C 1.960938 -29.265625 1.867188 -32.9375 1.921875 -36.59375 C 1.984375 -40.257812 2.25 -43.992188 2.71875 -47.796875 C 5.945312 -48.328125 9.203125 -48.609375 12.484375 -48.640625 C 15.765625 -48.671875 19.085938 -48.550781 22.453125 -48.28125 C 25.816406 -48.019531 29.226562 -47.640625 32.6875 -47.140625 C 36.144531 -46.640625 39.660156 -46.097656 43.234375 -45.515625 C 43.523438 -42.585938 43.65625 -39.644531 43.625 -36.6875 C 43.601562 -33.726562 43.503906 -30.753906 43.328125 -27.765625 L 42.796875 -27.59375 C 41.097656 -27.0625 39.71875 -26.238281 38.65625 -25.125 C 37.601562 -24.019531 36.769531 -22.75 36.15625 -21.3125 C 35.539062 -19.875 35.085938 -18.363281 34.796875 -16.78125 C 34.503906 -15.195312 34.328125 -13.703125 34.265625 -12.296875 C 34.035156 -9.953125 33.816406 -7.625 33.609375 -5.3125 C 33.398438 -3 33.066406 -0.703125 32.609375 1.578125 C 29.910156 1.753906 27.242188 1.898438 24.609375 2.015625 C 21.972656 2.140625 19.335938 2.113281 16.703125 1.9375 Z M 16.703125 1.9375 "/></g></g><g style="fill:#078074;fill-opacity:1;"><g transform="translate(239.185574, 99.103932)"><path style="stroke:none" d="M 4.390625 -47.890625 C 7.960938 -48.472656 11.625 -48.75 15.375 -48.71875 C 19.125 -48.695312 22.929688 -48.453125 26.796875 -47.984375 C 29.785156 -47.628906 32.394531 -46.585938 34.625 -44.859375 C 36.851562 -43.128906 38.65625 -40.988281 40.03125 -38.4375 C 41.40625 -35.894531 42.328125 -33.113281 42.796875 -30.09375 C 43.265625 -27.082031 43.234375 -24.140625 42.703125 -21.265625 C 42.410156 -18.742188 41.851562 -16.148438 41.03125 -13.484375 C 40.21875 -10.816406 39.09375 -8.367188 37.65625 -6.140625 C 36.21875 -3.921875 34.457031 -2.0625 32.375 -0.5625 C 30.300781 0.925781 27.882812 1.757812 25.125 1.9375 C 21.96875 2.050781 18.894531 2.003906 15.90625 1.796875 C 12.914062 1.597656 9.988281 1.203125 7.125 0.609375 C 6.59375 -2.367188 6.09375 -5.351562 5.625 -8.34375 C 5.15625 -11.332031 4.773438 -14.320312 4.484375 -17.3125 C 6.648438 -17.019531 8.832031 -16.84375 11.03125 -16.78125 C 13.226562 -16.726562 15.4375 -16.640625 17.65625 -16.515625 C 18.476562 -16.398438 19.300781 -16.429688 20.125 -16.609375 C 20.945312 -16.785156 21.765625 -17.019531 22.578125 -17.3125 C 22.992188 -17.78125 23.273438 -18.289062 23.421875 -18.84375 C 23.566406 -19.40625 23.609375 -19.976562 23.546875 -20.5625 C 23.609375 -21.320312 23.492188 -22.023438 23.203125 -22.671875 C 22.910156 -23.316406 22.5 -23.859375 21.96875 -24.296875 C 21.4375 -24.734375 20.832031 -25.054688 20.15625 -25.265625 C 19.488281 -25.472656 18.804688 -25.515625 18.109375 -25.390625 C 15.640625 -25.335938 13.21875 -25.367188 10.84375 -25.484375 C 8.476562 -25.597656 6.125 -25.597656 3.78125 -25.484375 C 3.601562 -29.234375 3.53125 -32.9375 3.5625 -36.59375 C 3.59375 -40.257812 3.867188 -44.023438 4.390625 -47.890625 Z M 4.390625 -47.890625 "/></g></g><g style="fill:#078074;fill-opacity:1;"><g transform="translate(282.240135, 99.103932)"><path style="stroke:none" d="M 16.703125 1.9375 C 16.523438 -0.226562 16.390625 -2.351562 16.296875 -4.4375 C 16.210938 -6.519531 16.113281 -8.613281 16 -10.71875 C 15.9375 -12.125 15.921875 -13.515625 15.953125 -14.890625 C 15.984375 -16.265625 16.234375 -17.628906 16.703125 -18.984375 C 17.222656 -19.921875 17.878906 -20.769531 18.671875 -21.53125 C 19.460938 -22.289062 20.210938 -23.082031 20.921875 -23.90625 L 20.921875 -24.078125 L 20.828125 -24.78125 L 20.21875 -25.3125 C 17.050781 -25.425781 13.988281 -25.484375 11.03125 -25.484375 C 8.070312 -25.484375 5.128906 -25.515625 2.203125 -25.578125 C 1.960938 -29.265625 1.867188 -32.9375 1.921875 -36.59375 C 1.984375 -40.257812 2.25 -43.992188 2.71875 -47.796875 C 5.945312 -48.328125 9.203125 -48.609375 12.484375 -48.640625 C 15.765625 -48.671875 19.085938 -48.550781 22.453125 -48.28125 C 25.816406 -48.019531 29.226562 -47.640625 32.6875 -47.140625 C 36.144531 -46.640625 39.660156 -46.097656 43.234375 -45.515625 C 43.523438 -42.585938 43.65625 -39.644531 43.625 -36.6875 C 43.601562 -33.726562 43.503906 -30.753906 43.328125 -27.765625 L 42.796875 -27.59375 C 41.097656 -27.0625 39.71875 -26.238281 38.65625 -25.125 C 37.601562 -24.019531 36.769531 -22.75 36.15625 -21.3125 C 35.539062 -19.875 35.085938 -18.363281 34.796875 -16.78125 C 34.503906 -15.195312 34.328125 -13.703125 34.265625 -12.296875 C 34.035156 -9.953125 33.816406 -7.625 33.609375 -5.3125 C 33.398438 -3 33.066406 -0.703125 32.609375 1.578125 C 29.910156 1.753906 27.242188 1.898438 24.609375 2.015625 C 21.972656 2.140625 19.335938 2.113281 16.703125 1.9375 Z M 16.703125 1.9375 "/></g></g><g style="fill:#1b1b1b;fill-opacity:1;"><g transform="translate(83.770129, 217.913976)"><path style="stroke:none" d="M 14.5625 -21.703125 C 17.226562 -21.703125 19.207031 -21.082031 20.5 -19.84375 C 21.789062 -18.613281 22.4375 -16.578125 22.4375 -13.734375 L 22.4375 0 L 19.171875 0 L 19.171875 -12.71875 C 19.171875 -14.78125 18.84375 -16.304688 18.1875 -17.296875 C 17.539062 -18.285156 16.1875 -18.78125 14.125 -18.78125 L 8.625 -18.78125 L 8.625 0 L 1.78125 0 L 1.78125 -2.875 L 5.359375 -2.875 L 5.359375 -18.78125 L 2 -18.78125 L 2 -21.703125 Z M 14.5625 -21.703125 "/></g></g><g style="fill:#1b1b1b;fill-opacity:1;"><g transform="translate(109.262338, 217.913976)"><path style="stroke:none" d="M 8.671875 -21.703125 L 8.671875 0 L 5.40625 0 L 5.40625 -18.78125 L 1 -18.78125 L 1 -21.703125 Z M 8.671875 -21.703125 "/></g></g><g style="fill:#1b1b1b;fill-opacity:1;"><g transform="translate(121.1587, 217.913976)"><path style="stroke:none" d="M 11.46875 -21.703125 C 13.695312 -21.703125 15.421875 -21.378906 16.640625 -20.734375 C 17.867188 -20.097656 18.722656 -19.066406 19.203125 -17.640625 C 19.679688 -16.222656 19.921875 -14.351562 19.921875 -12.03125 C 19.921875 -10.28125 19.832031 -8.316406 19.65625 -6.140625 C 19.476562 -3.960938 19.257812 -1.914062 19 0 L 1.96875 0 L 1.96875 -2.921875 L 16.25 -2.921875 C 16.394531 -4.285156 16.492188 -5.722656 16.546875 -7.234375 C 16.609375 -8.742188 16.640625 -10.164062 16.640625 -11.5 C 16.640625 -13.25 16.515625 -14.648438 16.265625 -15.703125 C 16.023438 -16.765625 15.507812 -17.539062 14.71875 -18.03125 C 13.9375 -18.53125 12.71875 -18.78125 11.0625 -18.78125 L 6.1875 -18.78125 C 5.78125 -17.613281 5.519531 -16.820312 5.40625 -16.40625 C 5.289062 -15.988281 5.234375 -15.578125 5.234375 -15.171875 C 5.234375 -14.410156 5.519531 -13.707031 6.09375 -13.0625 C 6.675781 -12.425781 7.707031 -11.847656 9.1875 -11.328125 L 8.40625 -8.546875 C 6.195312 -9.210938 4.613281 -10.070312 3.65625 -11.125 C 2.695312 -12.1875 2.21875 -13.445312 2.21875 -14.90625 C 2.21875 -15.894531 2.425781 -17 2.84375 -18.21875 C 3.269531 -19.4375 3.703125 -20.597656 4.140625 -21.703125 Z M 11.46875 -21.703125 "/></g></g><g style="fill:#1b1b1b;fill-opacity:1;"><g transform="translate(143.862018, 217.913976)"><path style="stroke:none" d="M 5.625 -8.71875 L 5.625 -18.734375 L 1 -18.734375 L 1 -21.65625 L 8.890625 -21.65625 L 8.890625 -8.71875 Z M 5.625 -8.71875 "/></g></g><g style="fill:#1b1b1b;fill-opacity:1;"><g transform="translate(155.976263, 217.913976)"><path style="stroke:none" d="M 5.625 -8.71875 L 5.625 -18.734375 L 1 -18.734375 L 1 -21.65625 L 8.890625 -21.65625 L 8.890625 -8.71875 Z M 5.625 -8.71875 "/></g></g><g style="fill:#1b1b1b;fill-opacity:1;"><g transform="translate(168.090509, 217.913976)"><path style="stroke:none" d="M 19.921875 -21.75 C 19.941406 -21.101562 19.957031 -20.472656 19.96875 -19.859375 C 19.988281 -19.253906 20 -18.660156 20 -18.078125 C 20 -14.859375 19.710938 -12.144531 19.140625 -9.9375 C 18.578125 -7.726562 17.601562 -5.894531 16.21875 -4.4375 C 14.84375 -2.988281 12.957031 -1.820312 10.5625 -0.9375 C 8.164062 -0.0507812 5.140625 0.664062 1.484375 1.21875 L 1.140625 -1.609375 C 2.410156 -1.785156 3.582031 -1.972656 4.65625 -2.171875 C 5.738281 -2.378906 6.726562 -2.613281 7.625 -2.875 L 2.609375 -21.171875 L 5.890625 -22 L 10.5 -3.875 C 12.125 -4.601562 13.394531 -5.507812 14.3125 -6.59375 C 15.226562 -7.6875 15.875 -9.066406 16.25 -10.734375 C 16.632812 -12.410156 16.828125 -14.46875 16.828125 -16.90625 C 16.828125 -17.632812 16.8125 -18.40625 16.78125 -19.21875 C 16.75 -20.03125 16.703125 -20.875 16.640625 -21.75 Z M 19.921875 -21.75 "/></g></g><g style="fill:#1b1b1b;fill-opacity:1;"><g transform="translate(190.053031, 217.913976)"><path style="stroke:none" d=""/></g></g><g style="fill:#1b1b1b;fill-opacity:1;"><g transform="translate(199.814152, 217.913976)"><path style="stroke:none" d="M 0.921875 6.84375 C 1.734375 5.96875 2.414062 5.003906 2.96875 3.953125 C 3.519531 2.910156 3.796875 1.941406 3.796875 1.046875 C 3.796875 0.429688 3.691406 -0.101562 3.484375 -0.5625 C 3.285156 -1.03125 2.910156 -1.410156 2.359375 -1.703125 C 2.359375 -2.421875 2.640625 -3.085938 3.203125 -3.703125 C 3.765625 -4.316406 4.425781 -4.625 5.1875 -4.625 C 6.03125 -4.625 6.734375 -4.335938 7.296875 -3.765625 C 7.867188 -3.203125 8.15625 -2.515625 8.15625 -1.703125 C 8.15625 -0.535156 7.921875 0.660156 7.453125 1.890625 C 6.984375 3.128906 6.328125 4.300781 5.484375 5.40625 C 4.648438 6.507812 3.648438 7.453125 2.484375 8.234375 Z M 0.921875 6.84375 "/></g></g><g style="fill:#1b1b1b;fill-opacity:1;"><g transform="translate(210.490379, 217.913976)"><path style="stroke:none" d="M 21.390625 -21.703125 L 21.703125 -21.359375 L 16.171875 0 L 12.859375 0 L 17.6875 -18.78125 L 2.359375 -18.78125 L 2.359375 -21.703125 Z M 3.4375 7.28125 L 3.4375 -11.859375 L 6.71875 -11.859375 L 6.71875 7.28125 Z M 3.4375 7.28125 "/></g></g><g style="fill:#1b1b1b;fill-opacity:1;"><g transform="translate(233.368008, 217.913976)"><path style="stroke:none" d="M 8.671875 -21.703125 L 8.671875 0 L 5.40625 0 L 5.40625 -18.78125 L 1 -18.78125 L 1 -21.703125 Z M 8.671875 -21.703125 "/></g></g><g style="fill:#1b1b1b;fill-opacity:1;"><g transform="translate(245.26437, 217.913976)"><path style="stroke:none" d="M 14.375 -22 C 16.46875 -22 18.019531 -21.578125 19.03125 -20.734375 C 20.050781 -19.898438 20.726562 -18.703125 21.0625 -17.140625 C 21.40625 -15.585938 21.578125 -13.722656 21.578125 -11.546875 L 21.578125 0 L 10.59375 0 L 10.9375 -2.921875 L 18.296875 -2.921875 L 18.296875 -11.671875 C 18.296875 -14.429688 17.953125 -16.359375 17.265625 -17.453125 C 16.585938 -18.546875 15.4375 -19.09375 13.8125 -19.09375 C 12.914062 -19.09375 12 -18.878906 11.0625 -18.453125 C 10.132812 -18.035156 9.175781 -17.492188 8.1875 -16.828125 L 5.96875 0 L 2.65625 0 L 5.0625 -16.78125 L 3.09375 -21.140625 L 5.96875 -22.359375 L 7.359375 -19.484375 C 8.316406 -20.117188 9.398438 -20.695312 10.609375 -21.21875 C 11.816406 -21.738281 13.070312 -22 14.375 -22 Z M 14.375 -22 "/></g></g><g style="fill:#1b1b1b;fill-opacity:1;"><g transform="translate(269.841484, 217.913976)"><path style="stroke:none" d="M 19.921875 -21.75 C 19.941406 -21.101562 19.957031 -20.472656 19.96875 -19.859375 C 19.988281 -19.253906 20 -18.660156 20 -18.078125 C 20 -14.859375 19.710938 -12.144531 19.140625 -9.9375 C 18.578125 -7.726562 17.601562 -5.894531 16.21875 -4.4375 C 14.84375 -2.988281 12.957031 -1.820312 10.5625 -0.9375 C 8.164062 -0.0507812 5.140625 0.664062 1.484375 1.21875 L 1.140625 -1.609375 C 2.410156 -1.785156 3.582031 -1.972656 4.65625 -2.171875 C 5.738281 -2.378906 6.726562 -2.613281 7.625 -2.875 L 2.609375 -21.171875 L 5.890625 -22 L 10.5 -3.875 C 12.125 -4.601562 13.394531 -5.507812 14.3125 -6.59375 C 15.226562 -7.6875 15.875 -9.066406 16.25 -10.734375 C 16.632812 -12.410156 16.828125 -14.46875 16.828125 -16.90625 C 16.828125 -17.632812 16.8125 -18.40625 16.78125 -19.21875 C 16.75 -20.03125 16.703125 -20.875 16.640625 -21.75 Z M 19.921875 -21.75 "/></g></g><g style="fill:#1b1b1b;fill-opacity:1;"><g transform="translate(291.804018, 217.913976)"><path style="stroke:none" d=""/></g></g><g style="fill:#1b1b1b;fill-opacity:1;"><g transform="translate(301.565139, 217.913976)"><path style="stroke:none" d="M 16.734375 -2.921875 L 19.875 -2.921875 L 19.875 0 L 1.75 0 L 1.75 -2.921875 L 13.46875 -2.921875 L 13.46875 -12.71875 C 13.46875 -14.78125 13.140625 -16.304688 12.484375 -17.296875 C 11.828125 -18.285156 10.46875 -18.78125 8.40625 -18.78125 L 2.21875 -18.78125 L 2.21875 -21.703125 L 8.84375 -21.703125 C 11.519531 -21.703125 13.503906 -21.082031 14.796875 -19.84375 C 16.085938 -18.613281 16.734375 -16.578125 16.734375 -13.734375 Z M 16.734375 -2.921875 "/></g></g><g style="fill:#1b1b1b;fill-opacity:1;"><g transform="translate(322.481827, 217.913976)"><path style="stroke:none" d="M 19.21875 -17.46875 C 19.21875 -16.601562 19.019531 -15.738281 18.625 -14.875 C 18.238281 -14.019531 17.613281 -13.066406 16.75 -12.015625 C 15.894531 -10.972656 14.769531 -9.726562 13.375 -8.28125 C 14.164062 -7.257812 15.023438 -6.253906 15.953125 -5.265625 C 16.878906 -4.285156 17.78125 -3.285156 18.65625 -2.265625 L 17.953125 0 L 2.265625 0 L 2.265625 -3.046875 L 10.671875 -3.046875 C 11.335938 -3.015625 12.003906 -2.984375 12.671875 -2.953125 C 13.347656 -2.929688 14.003906 -2.90625 14.640625 -2.875 C 13.597656 -4.09375 12.53125 -5.304688 11.4375 -6.515625 C 10.351562 -7.722656 9.414062 -8.953125 8.625 -10.203125 L 2.046875 -20.78125 L 4.84375 -22.09375 L 12.078125 -10.15625 C 13.523438 -11.78125 14.53125 -13.097656 15.09375 -14.109375 C 15.664062 -15.128906 15.953125 -15.914062 15.953125 -16.46875 C 15.953125 -16.96875 15.734375 -17.457031 15.296875 -17.9375 C 14.859375 -18.414062 14.046875 -18.972656 12.859375 -19.609375 L 14.15625 -22.265625 C 16.101562 -21.453125 17.429688 -20.640625 18.140625 -19.828125 C 18.859375 -19.015625 19.21875 -18.226562 19.21875 -17.46875 Z M 19.21875 -17.46875 "/></g></g><g style="fill:#1b1b1b;fill-opacity:1;"><g transform="translate(343.485659, 217.913976)"><path style="stroke:none" d="M 19.921875 -21.75 C 19.941406 -21.101562 19.957031 -20.472656 19.96875 -19.859375 C 19.988281 -19.253906 20 -18.660156 20 -18.078125 C 20 -14.859375 19.710938 -12.144531 19.140625 -9.9375 C 18.578125 -7.726562 17.601562 -5.894531 16.21875 -4.4375 C 14.84375 -2.988281 12.957031 -1.820312 10.5625 -0.9375 C 8.164062 -0.0507812 5.140625 0.664062 1.484375 1.21875 L 1.140625 -1.609375 C 2.410156 -1.785156 3.582031 -1.972656 4.65625 -2.171875 C 5.738281 -2.378906 6.726562 -2.613281 7.625 -2.875 L 2.609375 -21.171875 L 5.890625 -22 L 10.5 -3.875 C 12.125 -4.601562 13.394531 -5.507812 14.3125 -6.59375 C 15.226562 -7.6875 15.875 -9.066406 16.25 -10.734375 C 16.632812 -12.410156 16.828125 -14.46875 16.828125 -16.90625 C 16.828125 -17.632812 16.8125 -18.40625 16.78125 -19.21875 C 16.75 -20.03125 16.703125 -20.875 16.640625 -21.75 Z M 19.921875 -21.75 "/></g></g><g style="fill:#1b1b1b;fill-opacity:1;"><g transform="translate(39.69052, 258.354414)"><path style="stroke:none" d="M 0.921875 6.84375 C 1.734375 5.96875 2.414062 5.003906 2.96875 3.953125 C 3.519531 2.910156 3.796875 1.941406 3.796875 1.046875 C 3.796875 0.429688 3.691406 -0.101562 3.484375 -0.5625 C 3.285156 -1.03125 2.910156 -1.410156 2.359375 -1.703125 C 2.359375 -2.421875 2.640625 -3.085938 3.203125 -3.703125 C 3.765625 -4.316406 4.425781 -4.625 5.1875 -4.625 C 6.03125 -4.625 6.734375 -4.335938 7.296875 -3.765625 C 7.867188 -3.203125 8.15625 -2.515625 8.15625 -1.703125 C 8.15625 -0.535156 7.921875 0.660156 7.453125 1.890625 C 6.984375 3.128906 6.328125 4.300781 5.484375 5.40625 C 4.648438 6.507812 3.648438 7.453125 2.484375 8.234375 Z M 0.921875 6.84375 "/></g></g><g style="fill:#1b1b1b;fill-opacity:1;"><g transform="translate(50.366747, 258.354414)"><path style="stroke:none" d="M 17.21875 0 L 17.21875 -12.71875 C 17.21875 -14.78125 16.890625 -16.304688 16.234375 -17.296875 C 15.578125 -18.285156 14.21875 -18.78125 12.15625 -18.78125 L 2.875 -18.78125 L 2.875 -21.703125 L 12.59375 -21.703125 C 15.269531 -21.703125 17.253906 -21.082031 18.546875 -19.84375 C 19.835938 -18.613281 20.484375 -16.578125 20.484375 -13.734375 L 20.484375 0 Z M 3.3125 0 L 3.3125 -11.71875 L 6.578125 -11.71875 L 6.578125 0 Z M 3.3125 0 "/></g></g><g style="fill:#1b1b1b;fill-opacity:1;"><g transform="translate(73.898026, 258.354414)"><path style="stroke:none" d="M 5.625 -8.71875 L 5.625 -18.734375 L 1 -18.734375 L 1 -21.65625 L 8.890625 -21.65625 L 8.890625 -8.71875 Z M 5.625 -8.71875 "/></g></g><g style="fill:#1b1b1b;fill-opacity:1;"><g transform="translate(86.012272, 258.354414)"><path style="stroke:none" d="M 19.21875 -17.46875 C 19.21875 -16.601562 19.019531 -15.738281 18.625 -14.875 C 18.238281 -14.019531 17.613281 -13.066406 16.75 -12.015625 C 15.894531 -10.972656 14.769531 -9.726562 13.375 -8.28125 C 14.164062 -7.257812 15.023438 -6.253906 15.953125 -5.265625 C 16.878906 -4.285156 17.78125 -3.285156 18.65625 -2.265625 L 17.953125 0 L 2.265625 0 L 2.265625 -3.046875 L 10.671875 -3.046875 C 11.335938 -3.015625 12.003906 -2.984375 12.671875 -2.953125 C 13.347656 -2.929688 14.003906 -2.90625 14.640625 -2.875 C 13.597656 -4.09375 12.53125 -5.304688 11.4375 -6.515625 C 10.351562 -7.722656 9.414062 -8.953125 8.625 -10.203125 L 2.046875 -20.78125 L 4.84375 -22.09375 L 12.078125 -10.15625 C 13.523438 -11.78125 14.53125 -13.097656 15.09375 -14.109375 C 15.664062 -15.128906 15.953125 -15.914062 15.953125 -16.46875 C 15.953125 -16.96875 15.734375 -17.457031 15.296875 -17.9375 C 14.859375 -18.414062 14.046875 -18.972656 12.859375 -19.609375 L 14.15625 -22.265625 C 16.101562 -21.453125 17.429688 -20.640625 18.140625 -19.828125 C 18.859375 -19.015625 19.21875 -18.226562 19.21875 -17.46875 Z M 19.21875 -17.46875 "/></g></g><g style="fill:#1b1b1b;fill-opacity:1;"><g transform="translate(107.016115, 258.354414)"><path style="stroke:none" d="M 16.734375 -2.921875 L 19.875 -2.921875 L 19.875 0 L 1.75 0 L 1.75 -2.921875 L 13.46875 -2.921875 L 13.46875 -12.71875 C 13.46875 -14.78125 13.140625 -16.304688 12.484375 -17.296875 C 11.828125 -18.285156 10.46875 -18.78125 8.40625 -18.78125 L 2.21875 -18.78125 L 2.21875 -21.703125 L 8.84375 -21.703125 C 11.519531 -21.703125 13.503906 -21.082031 14.796875 -19.84375 C 16.085938 -18.613281 16.734375 -16.578125 16.734375 -13.734375 Z M 16.734375 -2.921875 "/></g></g><g style="fill:#1b1b1b;fill-opacity:1;"><g transform="translate(127.932803, 258.354414)"><path style="stroke:none" d="M 5.625 -8.71875 L 5.625 -18.734375 L 1 -18.734375 L 1 -21.65625 L 8.890625 -21.65625 L 8.890625 -8.71875 Z M 5.625 -8.71875 "/></g></g><g style="fill:#1b1b1b;fill-opacity:1;"><g transform="translate(140.047049, 258.354414)"><path style="stroke:none" d="M 13.46875 -22.09375 C 15.84375 -22.09375 17.75 -21.492188 19.1875 -20.296875 C 20.632812 -19.109375 21.359375 -17.132812 21.359375 -14.375 C 21.359375 -11.09375 20.171875 -8.148438 17.796875 -5.546875 C 15.429688 -2.953125 12.082031 -1 7.75 0.3125 L 4.796875 0 L 2 -21.703125 L 5.40625 -21.75 L 7.625 -3 C 10.9375 -3.988281 13.5 -5.441406 15.3125 -7.359375 C 17.132812 -9.273438 18.046875 -11.457031 18.046875 -13.90625 C 18.046875 -15.96875 17.601562 -17.375 16.71875 -18.125 C 15.832031 -18.882812 14.703125 -19.265625 13.328125 -19.265625 C 12.804688 -19.265625 12.257812 -19.238281 11.6875 -19.1875 C 11.125 -19.144531 10.425781 -19.007812 9.59375 -18.78125 L 9.59375 -21.609375 C 10.863281 -21.929688 12.15625 -22.09375 13.46875 -22.09375 Z M 13.46875 -22.09375 "/></g></g><g style="fill:#1b1b1b;fill-opacity:1;"><g transform="translate(163.316861, 258.354414)"><path style="stroke:none" d="M 8.671875 -21.703125 L 8.671875 0 L 5.40625 0 L 5.40625 -18.78125 L 1 -18.78125 L 1 -21.703125 Z M 8.671875 -21.703125 "/></g></g><g style="fill:#1b1b1b;fill-opacity:1;"><g transform="translate(175.213223, 258.354414)"><path style="stroke:none" d="M 14.375 -22 C 16.46875 -22 18.019531 -21.578125 19.03125 -20.734375 C 20.050781 -19.898438 20.726562 -18.703125 21.0625 -17.140625 C 21.40625 -15.585938 21.578125 -13.722656 21.578125 -11.546875 L 21.578125 0 L 10.59375 0 L 10.9375 -2.921875 L 18.296875 -2.921875 L 18.296875 -11.671875 C 18.296875 -14.429688 17.953125 -16.359375 17.265625 -17.453125 C 16.585938 -18.546875 15.4375 -19.09375 13.8125 -19.09375 C 12.914062 -19.09375 12 -18.878906 11.0625 -18.453125 C 10.132812 -18.035156 9.175781 -17.492188 8.1875 -16.828125 L 5.96875 0 L 2.65625 0 L 5.0625 -16.78125 L 3.09375 -21.140625 L 5.96875 -22.359375 L 7.359375 -19.484375 C 8.316406 -20.117188 9.398438 -20.695312 10.609375 -21.21875 C 11.816406 -21.738281 13.070312 -22 14.375 -22 Z M 14.375 -22 "/></g></g><g style="fill:#1b1b1b;fill-opacity:1;"><g transform="translate(199.790337, 258.354414)"><path style="stroke:none" d=""/></g></g><g style="fill:#1b1b1b;fill-opacity:1;"><g transform="translate(209.551458, 258.354414)"><path style="stroke:none" d="M 12.5 0 L 12.5 -12.71875 C 12.5 -14.78125 12.171875 -16.304688 11.515625 -17.296875 C 10.867188 -18.285156 9.515625 -18.78125 7.453125 -18.78125 L 0.953125 -18.78125 L 0.953125 -21.703125 L 7.890625 -21.703125 C 10.554688 -21.703125 12.535156 -21.082031 13.828125 -19.84375 C 15.128906 -18.613281 15.78125 -16.578125 15.78125 -13.734375 L 15.78125 0 Z M 12.5 0 "/></g></g><g style="fill:#1b1b1b;fill-opacity:1;"><g transform="translate(228.376477, 258.354414)"><path style="stroke:none" d="M 12.765625 -21.484375 C 15.898438 -21.484375 18.144531 -20.882812 19.5 -19.6875 C 20.851562 -18.5 21.53125 -16.523438 21.53125 -13.765625 C 21.53125 -10.515625 20.332031 -7.644531 17.9375 -5.15625 C 15.539062 -2.675781 12.085938 -0.851562 7.578125 0.3125 L 4.625 0 L 1.921875 -22.828125 L 5.265625 -23.4375 L 5.484375 -21.484375 Z M 7.453125 -2.921875 C 10.941406 -3.765625 13.609375 -5.09375 15.453125 -6.90625 C 17.296875 -8.71875 18.21875 -10.847656 18.21875 -13.296875 C 18.21875 -15.210938 17.78125 -16.582031 16.90625 -17.40625 C 16.03125 -18.238281 14.609375 -18.65625 12.640625 -18.65625 L 5.796875 -18.65625 Z M 7.453125 -2.921875 "/></g></g><g style="fill:#1b1b1b;fill-opacity:1;"><g transform="translate(251.820601, 258.354414)"><path style="stroke:none" d="M 8.671875 -21.703125 L 8.671875 0 L 5.40625 0 L 5.40625 -18.78125 L 1 -18.78125 L 1 -21.703125 Z M 8.671875 -21.703125 "/></g></g><g style="fill:#1b1b1b;fill-opacity:1;"><g transform="translate(263.716951, 258.354414)"><path style="stroke:none" d="M 12.984375 -21.703125 C 15.660156 -21.703125 17.644531 -21.082031 18.9375 -19.84375 C 20.226562 -18.613281 20.875 -16.578125 20.875 -13.734375 L 20.875 0 L 17.609375 0 L 17.609375 -12.71875 C 17.609375 -14.78125 17.28125 -16.304688 16.625 -17.296875 C 15.96875 -18.285156 14.609375 -18.78125 12.546875 -18.78125 L 6.5 -18.78125 L 6.5 0 L 3.21875 0 L 3.21875 -23.09375 L 6.5 -23.53125 L 6.5 -21.703125 Z M 12.984375 -21.703125 "/></g></g><g style="fill:#1b1b1b;fill-opacity:1;"><g transform="translate(287.640426, 258.354414)"><path style="stroke:none" d=""/></g></g><g style="fill:#1b1b1b;fill-opacity:1;"><g transform="translate(297.401547, 258.354414)"><path style="stroke:none" d="M 0.921875 6.84375 C 1.734375 5.96875 2.414062 5.003906 2.96875 3.953125 C 3.519531 2.910156 3.796875 1.941406 3.796875 1.046875 C 3.796875 0.429688 3.691406 -0.101562 3.484375 -0.5625 C 3.285156 -1.03125 2.910156 -1.410156 2.359375 -1.703125 C 2.359375 -2.421875 2.640625 -3.085938 3.203125 -3.703125 C 3.765625 -4.316406 4.425781 -4.625 5.1875 -4.625 C 6.03125 -4.625 6.734375 -4.335938 7.296875 -3.765625 C 7.867188 -3.203125 8.15625 -2.515625 8.15625 -1.703125 C 8.15625 -0.535156 7.921875 0.660156 7.453125 1.890625 C 6.984375 3.128906 6.328125 4.300781 5.484375 5.40625 C 4.648438 6.507812 3.648438 7.453125 2.484375 8.234375 Z M 0.921875 6.84375 "/></g></g><g style="fill:#1b1b1b;fill-opacity:1;"><g transform="translate(308.077763, 258.354414)"><path style="stroke:none" d="M 14.5625 -21.703125 C 17.226562 -21.703125 19.207031 -21.082031 20.5 -19.84375 C 21.789062 -18.613281 22.4375 -16.578125 22.4375 -13.734375 L 22.4375 0 L 19.171875 0 L 19.171875 -12.71875 C 19.171875 -14.78125 18.84375 -16.304688 18.1875 -17.296875 C 17.539062 -18.285156 16.1875 -18.78125 14.125 -18.78125 L 8.625 -18.78125 L 8.625 0 L 1.78125 0 L 1.78125 -2.875 L 5.359375 -2.875 L 5.359375 -18.78125 L 2 -18.78125 L 2 -21.703125 Z M 14.5625 -21.703125 "/></g></g><g style="fill:#1b1b1b;fill-opacity:1;"><g transform="translate(333.569972, 258.354414)"><path style="stroke:none" d="M 5.625 -8.71875 L 5.625 -18.734375 L 1 -18.734375 L 1 -21.65625 L 8.890625 -21.65625 L 8.890625 -8.71875 Z M 5.625 -8.71875 "/></g></g><g style="fill:#1b1b1b;fill-opacity:1;"><g transform="translate(345.68424, 258.354414)"><path style="stroke:none" d="M 24.40625 -21.703125 C 24.4375 -21.378906 24.457031 -20.890625 24.46875 -20.234375 C 24.476562 -19.585938 24.488281 -18.941406 24.5 -18.296875 C 24.519531 -17.660156 24.53125 -17.210938 24.53125 -16.953125 C 24.53125 -13.492188 23.800781 -10.457031 22.34375 -7.84375 C 20.894531 -5.226562 18.820312 -3.207031 16.125 -1.78125 C 13.425781 -0.363281 10.1875 0.285156 6.40625 0.171875 L 4.96875 0 L 2.3125 -21.703125 L 5.625 -21.703125 L 6.671875 -12.03125 C 8.640625 -12.175781 9.992188 -12.859375 10.734375 -14.078125 C 11.484375 -15.296875 11.859375 -16.90625 11.859375 -18.90625 C 11.859375 -19.726562 11.8125 -20.660156 11.71875 -21.703125 L 14.953125 -21.703125 C 15.003906 -21.210938 15.046875 -20.722656 15.078125 -20.234375 C 15.109375 -19.753906 15.125 -19.3125 15.125 -18.90625 C 15.125 -16.0625 14.476562 -13.851562 13.1875 -12.28125 C 11.894531 -10.71875 9.804688 -9.804688 6.921875 -9.546875 L 7.671875 -2.703125 C 10.628906 -2.734375 13.109375 -3.375 15.109375 -4.625 C 17.117188 -5.875 18.628906 -7.648438 19.640625 -9.953125 C 20.660156 -12.265625 21.171875 -14.988281 21.171875 -18.125 C 21.171875 -19.257812 21.101562 -20.453125 20.96875 -21.703125 Z M 24.40625 -21.703125 "/></g></g><g style="fill:#1b1b1b;fill-opacity:1;"><g transform="translate(372.135128, 258.354414)"><path style="stroke:none" d="M 11.46875 -21.703125 C 13.695312 -21.703125 15.421875 -21.378906 16.640625 -20.734375 C 17.867188 -20.097656 18.722656 -19.066406 19.203125 -17.640625 C 19.679688 -16.222656 19.921875 -14.351562 19.921875 -12.03125 C 19.921875 -10.28125 19.832031 -8.316406 19.65625 -6.140625 C 19.476562 -3.960938 19.257812 -1.914062 19 0 L 1.96875 0 L 1.96875 -2.921875 L 16.25 -2.921875 C 16.394531 -4.285156 16.492188 -5.722656 16.546875 -7.234375 C 16.609375 -8.742188 16.640625 -10.164062 16.640625 -11.5 C 16.640625 -13.25 16.515625 -14.648438 16.265625 -15.703125 C 16.023438 -16.765625 15.507812 -17.539062 14.71875 -18.03125 C 13.9375 -18.53125 12.71875 -18.78125 11.0625 -18.78125 L 6.1875 -18.78125 C 5.78125 -17.613281 5.519531 -16.820312 5.40625 -16.40625 C 5.289062 -15.988281 5.234375 -15.578125 5.234375 -15.171875 C 5.234375 -14.410156 5.519531 -13.707031 6.09375 -13.0625 C 6.675781 -12.425781 7.707031 -11.847656 9.1875 -11.328125 L 8.40625 -8.546875 C 6.195312 -9.210938 4.613281 -10.070312 3.65625 -11.125 C 2.695312 -12.1875 2.21875 -13.445312 2.21875 -14.90625 C 2.21875 -15.894531 2.425781 -17 2.84375 -18.21875 C 3.269531 -19.4375 3.703125 -20.597656 4.140625 -21.703125 Z M 11.46875 -21.703125 "/></g></g><g style="fill:#1b1b1b;fill-opacity:1;"><g transform="translate(394.838446, 258.354414)"><path style="stroke:none" d="M 5.453125 -21.703125 C 7.109375 -21.703125 8.378906 -21.484375 9.265625 -21.046875 C 10.148438 -20.609375 10.769531 -19.851562 11.125 -18.78125 C 11.488281 -17.707031 11.660156 -16.179688 11.640625 -14.203125 L 11.5 0 L 1.609375 0 L 1.609375 -2.875 L 8.328125 -2.875 L 8.40625 -13.46875 C 8.4375 -15.53125 8.195312 -16.921875 7.6875 -17.640625 C 7.175781 -18.367188 6.195312 -18.734375 4.75 -18.734375 L 2.359375 -18.734375 L 2.359375 -21.703125 Z M 5.453125 -21.703125 "/></g></g><g style="fill:#1b1b1b;fill-opacity:1;"><g transform="translate(152.305907, 298.794852)"><path style="stroke:none" d="M 14.5625 -21.703125 C 17.226562 -21.703125 19.207031 -21.082031 20.5 -19.84375 C 21.789062 -18.613281 22.4375 -16.578125 22.4375 -13.734375 L 22.4375 0 L 19.171875 0 L 19.171875 -12.71875 C 19.171875 -14.78125 18.84375 -16.304688 18.1875 -17.296875 C 17.539062 -18.285156 16.1875 -18.78125 14.125 -18.78125 L 8.625 -18.78125 L 8.625 0 L 1.78125 0 L 1.78125 -2.875 L 5.359375 -2.875 L 5.359375 -18.78125 L 2 -18.78125 L 2 -21.703125 Z M 14.5625 -21.703125 "/></g></g><g style="fill:#1b1b1b;fill-opacity:1;"><g transform="translate(177.798116, 298.794852)"><path style="stroke:none" d="M 8.671875 -21.703125 L 8.671875 0 L 5.40625 0 L 5.40625 -18.78125 L 1 -18.78125 L 1 -21.703125 Z M 8.671875 -21.703125 "/></g></g><g style="fill:#1b1b1b;fill-opacity:1;"><g transform="translate(189.694478, 298.794852)"><path style="stroke:none" d="M 12.5 0 L 12.5 -12.71875 C 12.5 -14.78125 12.171875 -16.304688 11.515625 -17.296875 C 10.867188 -18.285156 9.515625 -18.78125 7.453125 -18.78125 L 0.953125 -18.78125 L 0.953125 -21.703125 L 7.890625 -21.703125 C 10.554688 -21.703125 12.535156 -21.082031 13.828125 -19.84375 C 15.128906 -18.613281 15.78125 -16.578125 15.78125 -13.734375 L 15.78125 0 Z M 12.5 0 "/></g></g><g style="fill:#1b1b1b;fill-opacity:1;"><g transform="translate(208.519496, 298.794852)"><path style="stroke:none" d="M 1.703125 0.34375 L 1.703125 -3 C 4.203125 -3.4375 6.769531 -4.734375 9.40625 -6.890625 L 9.109375 -13.375 C 9.046875 -14.832031 8.882812 -15.957031 8.625 -16.75 C 8.363281 -17.550781 7.945312 -18.101562 7.375 -18.40625 C 6.8125 -18.71875 6.023438 -18.875 5.015625 -18.875 C 4.253906 -18.875 3.367188 -18.800781 2.359375 -18.65625 L 2.359375 -21.578125 C 2.929688 -21.691406 3.507812 -21.757812 4.09375 -21.78125 C 4.675781 -21.8125 5.210938 -21.828125 5.703125 -21.828125 C 7.359375 -21.828125 8.648438 -21.609375 9.578125 -21.171875 C 10.515625 -20.742188 11.1875 -19.96875 11.59375 -18.84375 C 12 -17.726562 12.242188 -16.15625 12.328125 -14.125 L 12.71875 -5.578125 L 13.765625 0 L 10.5 0 L 9.8125 -3.875 C 8.46875 -2.738281 7.101562 -1.820312 5.71875 -1.125 C 4.34375 -0.4375 3.003906 0.0507812 1.703125 0.34375 Z M 1.703125 0.34375 "/></g></g><g style="fill:#1b1b1b;fill-opacity:1;"><g transform="translate(224.424896, 298.794852)"><path style="stroke:none" d="M 14.5625 -21.703125 C 17.226562 -21.703125 19.207031 -21.082031 20.5 -19.84375 C 21.789062 -18.613281 22.4375 -16.578125 22.4375 -13.734375 L 22.4375 0 L 19.171875 0 L 19.171875 -12.71875 C 19.171875 -14.78125 18.84375 -16.304688 18.1875 -17.296875 C 17.539062 -18.285156 16.1875 -18.78125 14.125 -18.78125 L 8.625 -18.78125 L 8.625 0 L 1.78125 0 L 1.78125 -2.875 L 5.359375 -2.875 L 5.359375 -18.78125 L 2 -18.78125 L 2 -21.703125 Z M 14.5625 -21.703125 "/></g></g><g style="fill:#1b1b1b;fill-opacity:1;"><g transform="translate(249.917105, 298.794852)"><path style="stroke:none" d="M 12.765625 -21.484375 C 15.898438 -21.484375 18.144531 -20.882812 19.5 -19.6875 C 20.851562 -18.5 21.53125 -16.523438 21.53125 -13.765625 C 21.53125 -10.515625 20.332031 -7.644531 17.9375 -5.15625 C 15.539062 -2.675781 12.085938 -0.851562 7.578125 0.3125 L 4.625 0 L 1.921875 -22.828125 L 5.265625 -23.4375 L 5.484375 -21.484375 Z M 7.453125 -2.921875 C 10.941406 -3.765625 13.609375 -5.09375 15.453125 -6.90625 C 17.296875 -8.71875 18.21875 -10.847656 18.21875 -13.296875 C 18.21875 -15.210938 17.78125 -16.582031 16.90625 -17.40625 C 16.03125 -18.238281 14.609375 -18.65625 12.640625 -18.65625 L 5.796875 -18.65625 Z M 7.453125 -2.921875 "/></g></g><g style="fill:#1b1b1b;fill-opacity:1;"><g transform="translate(273.361229, 298.794852)"><path style="stroke:none" d="M 17.21875 0 L 17.21875 -12.71875 C 17.21875 -14.78125 16.890625 -16.304688 16.234375 -17.296875 C 15.578125 -18.285156 14.21875 -18.78125 12.15625 -18.78125 L 2.875 -18.78125 L 2.875 -21.703125 L 12.59375 -21.703125 C 15.269531 -21.703125 17.253906 -21.082031 18.546875 -19.84375 C 19.835938 -18.613281 20.484375 -16.578125 20.484375 -13.734375 L 20.484375 0 Z M 3.3125 0 L 3.3125 -11.71875 L 6.578125 -11.71875 L 6.578125 0 Z M 3.3125 0 "/></g></g><g style="fill:#1b1b1b;fill-opacity:1;"><g transform="translate(40.357506, 379.675729)"><path style="stroke:none" d="M 14.5625 -21.703125 C 17.226562 -21.703125 19.207031 -21.082031 20.5 -19.84375 C 21.789062 -18.613281 22.4375 -16.578125 22.4375 -13.734375 L 22.4375 0 L 19.171875 0 L 19.171875 -12.71875 C 19.171875 -14.78125 18.84375 -16.304688 18.1875 -17.296875 C 17.539062 -18.285156 16.1875 -18.78125 14.125 -18.78125 L 8.625 -18.78125 L 8.625 0 L 1.78125 0 L 1.78125 -2.875 L 5.359375 -2.875 L 5.359375 -18.78125 L 2 -18.78125 L 2 -21.703125 Z M 14.5625 -21.703125 "/></g></g><g style="fill:#1b1b1b;fill-opacity:1;"><g transform="translate(65.849715, 379.675729)"><path style="stroke:none" d="M 24.40625 -21.703125 C 24.4375 -21.378906 24.457031 -20.890625 24.46875 -20.234375 C 24.476562 -19.585938 24.488281 -18.941406 24.5 -18.296875 C 24.519531 -17.660156 24.53125 -17.210938 24.53125 -16.953125 C 24.53125 -13.492188 23.800781 -10.457031 22.34375 -7.84375 C 20.894531 -5.226562 18.820312 -3.207031 16.125 -1.78125 C 13.425781 -0.363281 10.1875 0.285156 6.40625 0.171875 L 4.96875 0 L 2.3125 -21.703125 L 5.625 -21.703125 L 6.671875 -12.03125 C 8.640625 -12.175781 9.992188 -12.859375 10.734375 -14.078125 C 11.484375 -15.296875 11.859375 -16.90625 11.859375 -18.90625 C 11.859375 -19.726562 11.8125 -20.660156 11.71875 -21.703125 L 14.953125 -21.703125 C 15.003906 -21.210938 15.046875 -20.722656 15.078125 -20.234375 C 15.109375 -19.753906 15.125 -19.3125 15.125 -18.90625 C 15.125 -16.0625 14.476562 -13.851562 13.1875 -12.28125 C 11.894531 -10.71875 9.804688 -9.804688 6.921875 -9.546875 L 7.671875 -2.703125 C 10.628906 -2.734375 13.109375 -3.375 15.109375 -4.625 C 17.117188 -5.875 18.628906 -7.648438 19.640625 -9.953125 C 20.660156 -12.265625 21.171875 -14.988281 21.171875 -18.125 C 21.171875 -19.257812 21.101562 -20.453125 20.96875 -21.703125 Z M 24.40625 -21.703125 "/></g></g><g style="fill:#1b1b1b;fill-opacity:1;"><g transform="translate(92.300614, 379.675729)"><path style="stroke:none" d="M 8.671875 -21.703125 L 8.671875 0 L 5.40625 0 L 5.40625 -18.78125 L 1 -18.78125 L 1 -21.703125 Z M 8.671875 -21.703125 "/></g></g><g style="fill:#1b1b1b;fill-opacity:1;"><g transform="translate(104.196976, 379.675729)"><path style="stroke:none" d="M 12.984375 -21.703125 C 15.660156 -21.703125 17.644531 -21.082031 18.9375 -19.84375 C 20.226562 -18.613281 20.875 -16.578125 20.875 -13.734375 L 20.875 0 L 17.609375 0 L 17.609375 -12.71875 C 17.609375 -14.78125 17.28125 -16.304688 16.625 -17.296875 C 15.96875 -18.285156 14.609375 -18.78125 12.546875 -18.78125 L 6.5 -18.78125 L 6.5 0 L 3.21875 0 L 3.21875 -23.09375 L 6.5 -23.53125 L 6.5 -21.703125 Z M 12.984375 -21.703125 "/></g></g><g style="fill:#1b1b1b;fill-opacity:1;"><g transform="translate(128.120439, 379.675729)"><path style="stroke:none" d="M 14.5625 -21.703125 C 17.226562 -21.703125 19.207031 -21.082031 20.5 -19.84375 C 21.789062 -18.613281 22.4375 -16.578125 22.4375 -13.734375 L 22.4375 0 L 19.171875 0 L 19.171875 -12.71875 C 19.171875 -14.78125 18.84375 -16.304688 18.1875 -17.296875 C 17.539062 -18.285156 16.1875 -18.78125 14.125 -18.78125 L 8.625 -18.78125 L 8.625 0 L 1.78125 0 L 1.78125 -2.875 L 5.359375 -2.875 L 5.359375 -18.78125 L 2 -18.78125 L 2 -21.703125 Z M 14.5625 -21.703125 "/></g></g><g style="fill:#1b1b1b;fill-opacity:1;"><g transform="translate(153.612649, 379.675729)"><path style="stroke:none" d="M 16.734375 -2.921875 L 19.875 -2.921875 L 19.875 0 L 1.75 0 L 1.75 -2.921875 L 13.46875 -2.921875 L 13.46875 -12.71875 C 13.46875 -14.78125 13.140625 -16.304688 12.484375 -17.296875 C 11.828125 -18.285156 10.46875 -18.78125 8.40625 -18.78125 L 2.21875 -18.78125 L 2.21875 -21.703125 L 8.84375 -21.703125 C 11.519531 -21.703125 13.503906 -21.082031 14.796875 -19.84375 C 16.085938 -18.613281 16.734375 -16.578125 16.734375 -13.734375 Z M 16.734375 -2.921875 "/></g></g><g style="fill:#1b1b1b;fill-opacity:1;"><g transform="translate(174.529337, 379.675729)"><path style="stroke:none" d=""/></g></g><g style="fill:#1b1b1b;fill-opacity:1;"><g transform="translate(184.290458, 379.675729)"><path style="stroke:none" d="M 17.21875 0 L 17.21875 -12.71875 C 17.21875 -14.78125 16.890625 -16.304688 16.234375 -17.296875 C 15.578125 -18.285156 14.21875 -18.78125 12.15625 -18.78125 L 2.875 -18.78125 L 2.875 -21.703125 L 12.59375 -21.703125 C 15.269531 -21.703125 17.253906 -21.082031 18.546875 -19.84375 C 19.835938 -18.613281 20.484375 -16.578125 20.484375 -13.734375 L 20.484375 0 Z M 3.3125 0 L 3.3125 -11.71875 L 6.578125 -11.71875 L 6.578125 0 Z M 3.3125 0 "/></g></g><g style="fill:#1b1b1b;fill-opacity:1;"><g transform="translate(207.821737, 379.675729)"><path style="stroke:none" d="M 8.671875 -21.703125 L 8.671875 0 L 5.40625 0 L 5.40625 -18.78125 L 1 -18.78125 L 1 -21.703125 Z M 8.671875 -21.703125 "/></g></g><g style="fill:#1b1b1b;fill-opacity:1;"><g transform="translate(219.718099, 379.675729)"><path style="stroke:none" d="M 8.671875 -21.703125 L 8.671875 0 L 5.40625 0 L 5.40625 -18.78125 L 1 -18.78125 L 1 -21.703125 Z M 8.671875 -21.703125 "/></g></g><g style="fill:#1b1b1b;fill-opacity:1;"><g transform="translate(231.614461, 379.675729)"><path style="stroke:none" d="M 17.390625 -21.703125 L 17.609375 -21.4375 L 9.84375 0 L 6.5 0 L 13.375 -18.78125 L 1.3125 -18.78125 L 1.34375 -28.375 L 4.625 -28.84375 L 4.578125 -21.703125 Z M 17.390625 -21.703125 "/></g></g><g style="fill:#1b1b1b;fill-opacity:1;"><g transform="translate(250.13444, 379.675729)"><path style="stroke:none" d="M 14.375 -22 C 16.46875 -22 18.019531 -21.578125 19.03125 -20.734375 C 20.050781 -19.898438 20.726562 -18.703125 21.0625 -17.140625 C 21.40625 -15.585938 21.578125 -13.722656 21.578125 -11.546875 L 21.578125 0 L 10.59375 0 L 10.9375 -2.921875 L 18.296875 -2.921875 L 18.296875 -11.671875 C 18.296875 -14.429688 17.953125 -16.359375 17.265625 -17.453125 C 16.585938 -18.546875 15.4375 -19.09375 13.8125 -19.09375 C 12.914062 -19.09375 12 -18.878906 11.0625 -18.453125 C 10.132812 -18.035156 9.175781 -17.492188 8.1875 -16.828125 L 5.96875 0 L 2.65625 0 L 5.0625 -16.78125 L 3.09375 -21.140625 L 5.96875 -22.359375 L 7.359375 -19.484375 C 8.316406 -20.117188 9.398438 -20.695312 10.609375 -21.21875 C 11.816406 -21.738281 13.070312 -22 14.375 -22 Z M 14.375 -22 "/></g></g><g style="fill:#1b1b1b;fill-opacity:1;"><g transform="translate(274.711554, 379.675729)"><path style="stroke:none" d=""/></g></g><g style="fill:#1b1b1b;fill-opacity:1;"><g transform="translate(284.472675, 379.675729)"><path style="stroke:none" d="M 13.546875 -21.703125 C 16.222656 -21.703125 18.207031 -21.082031 19.5 -19.84375 C 20.789062 -18.613281 21.4375 -16.578125 21.4375 -13.734375 L 21.4375 0 L 3.21875 0 L 3.21875 -23.09375 L 6.5 -23.53125 L 6.5 -21.703125 Z M 6.5 -2.875 L 18.171875 -2.875 L 18.171875 -12.71875 C 18.171875 -14.78125 17.84375 -16.304688 17.1875 -17.296875 C 16.539062 -18.285156 15.179688 -18.78125 13.109375 -18.78125 L 6.5 -18.78125 Z M 6.5 -2.875 "/></g></g><g style="fill:#1b1b1b;fill-opacity:1;"><g transform="translate(308.962644, 379.675729)"><path style="stroke:none" d="M 5.625 -8.71875 L 5.625 -18.734375 L 1 -18.734375 L 1 -21.65625 L 8.890625 -21.65625 L 8.890625 -8.71875 Z M 5.625 -8.71875 "/></g></g><g style="fill:#1b1b1b;fill-opacity:1;"><g transform="translate(321.076867, 379.675729)"><path style="stroke:none" d="M 14.375 -22 C 16.46875 -22 18.019531 -21.578125 19.03125 -20.734375 C 20.050781 -19.898438 20.726562 -18.703125 21.0625 -17.140625 C 21.40625 -15.585938 21.578125 -13.722656 21.578125 -11.546875 L 21.578125 0 L 10.59375 0 L 10.9375 -2.921875 L 18.296875 -2.921875 L 18.296875 -11.671875 C 18.296875 -14.429688 17.953125 -16.359375 17.265625 -17.453125 C 16.585938 -18.546875 15.4375 -19.09375 13.8125 -19.09375 C 12.914062 -19.09375 12 -18.878906 11.0625 -18.453125 C 10.132812 -18.035156 9.175781 -17.492188 8.1875 -16.828125 L 5.96875 0 L 2.65625 0 L 5.0625 -16.78125 L 3.09375 -21.140625 L 5.96875 -22.359375 L 7.359375 -19.484375 C 8.316406 -20.117188 9.398438 -20.695312 10.609375 -21.21875 C 11.816406 -21.738281 13.070312 -22 14.375 -22 Z M 14.375 -22 "/></g></g><g style="fill:#1b1b1b;fill-opacity:1;"><g transform="translate(345.653981, 379.675729)"><path style="stroke:none" d="M 19.921875 -21.75 C 19.941406 -21.101562 19.957031 -20.472656 19.96875 -19.859375 C 19.988281 -19.253906 20 -18.660156 20 -18.078125 C 20 -14.859375 19.710938 -12.144531 19.140625 -9.9375 C 18.578125 -7.726562 17.601562 -5.894531 16.21875 -4.4375 C 14.84375 -2.988281 12.957031 -1.820312 10.5625 -0.9375 C 8.164062 -0.0507812 5.140625 0.664062 1.484375 1.21875 L 1.140625 -1.609375 C 2.410156 -1.785156 3.582031 -1.972656 4.65625 -2.171875 C 5.738281 -2.378906 6.726562 -2.613281 7.625 -2.875 L 2.609375 -21.171875 L 5.890625 -22 L 10.5 -3.875 C 12.125 -4.601562 13.394531 -5.507812 14.3125 -6.59375 C 15.226562 -7.6875 15.875 -9.066406 16.25 -10.734375 C 16.632812 -12.410156 16.828125 -14.46875 16.828125 -16.90625 C 16.828125 -17.632812 16.8125 -18.40625 16.78125 -19.21875 C 16.75 -20.03125 16.703125 -20.875 16.640625 -21.75 Z M 19.921875 -21.75 "/></g></g><g style="fill:#1b1b1b;fill-opacity:1;"><g transform="translate(367.616515, 379.675729)"><path style="stroke:none" d="M 11.46875 -21.703125 C 13.695312 -21.703125 15.421875 -21.378906 16.640625 -20.734375 C 17.867188 -20.097656 18.722656 -19.066406 19.203125 -17.640625 C 19.679688 -16.222656 19.921875 -14.351562 19.921875 -12.03125 C 19.921875 -10.28125 19.832031 -8.316406 19.65625 -6.140625 C 19.476562 -3.960938 19.257812 -1.914062 19 0 L 1.96875 0 L 1.96875 -2.921875 L 16.25 -2.921875 C 16.394531 -4.285156 16.492188 -5.722656 16.546875 -7.234375 C 16.609375 -8.742188 16.640625 -10.164062 16.640625 -11.5 C 16.640625 -13.25 16.515625 -14.648438 16.265625 -15.703125 C 16.023438 -16.765625 15.507812 -17.539062 14.71875 -18.03125 C 13.9375 -18.53125 12.71875 -18.78125 11.0625 -18.78125 L 6.1875 -18.78125 C 5.78125 -17.613281 5.519531 -16.820312 5.40625 -16.40625 C 5.289062 -15.988281 5.234375 -15.578125 5.234375 -15.171875 C 5.234375 -14.410156 5.519531 -13.707031 6.09375 -13.0625 C 6.675781 -12.425781 7.707031 -11.847656 9.1875 -11.328125 L 8.40625 -8.546875 C 6.195312 -9.210938 4.613281 -10.070312 3.65625 -11.125 C 2.695312 -12.1875 2.21875 -13.445312 2.21875 -14.90625 C 2.21875 -15.894531 2.425781 -17 2.84375 -18.21875 C 3.269531 -19.4375 3.703125 -20.597656 4.140625 -21.703125 Z M 11.46875 -21.703125 "/></g></g><g style="fill:#1b1b1b;fill-opacity:1;"><g transform="translate(390.319832, 379.675729)"><path style="stroke:none" d="M 17.390625 -21.703125 L 17.609375 -21.4375 L 9.84375 0 L 6.5 0 L 13.375 -18.78125 L 1.3125 -18.78125 L 1.34375 -28.375 L 4.625 -28.84375 L 4.578125 -21.703125 Z M 17.390625 -21.703125 "/></g></g><g style="fill:#1b1b1b;fill-opacity:1;"><g transform="translate(70.687835, 420.116167)"><path style="stroke:none" d="M 12.5 6.84375 L 12.5 -12.71875 C 12.5 -14.78125 12.171875 -16.304688 11.515625 -17.296875 C 10.867188 -18.285156 9.515625 -18.78125 7.453125 -18.78125 L 0.953125 -18.78125 L 0.953125 -21.703125 L 7.890625 -21.703125 C 10.554688 -21.703125 12.535156 -21.082031 13.828125 -19.84375 C 15.128906 -18.613281 15.78125 -16.578125 15.78125 -13.734375 L 15.78125 6.84375 Z M 12.5 6.84375 "/></g></g><g style="fill:#1b1b1b;fill-opacity:1;"><g transform="translate(89.512853, 420.116167)"><path style="stroke:none" d="M 12.5 0 L 12.5 -12.71875 C 12.5 -14.78125 12.171875 -16.304688 11.515625 -17.296875 C 10.867188 -18.285156 9.515625 -18.78125 7.453125 -18.78125 L 0.953125 -18.78125 L 0.953125 -21.703125 L 7.890625 -21.703125 C 10.554688 -21.703125 12.535156 -21.082031 13.828125 -19.84375 C 15.128906 -18.613281 15.78125 -16.578125 15.78125 -13.734375 L 15.78125 0 Z M 12.5 0 "/></g></g><g style="fill:#1b1b1b;fill-opacity:1;"><g transform="translate(108.337872, 420.116167)"><path style="stroke:none" d="M 19.921875 -21.75 C 19.941406 -21.101562 19.957031 -20.472656 19.96875 -19.859375 C 19.988281 -19.253906 20 -18.660156 20 -18.078125 C 20 -14.859375 19.710938 -12.144531 19.140625 -9.9375 C 18.578125 -7.726562 17.601562 -5.894531 16.21875 -4.4375 C 14.84375 -2.988281 12.957031 -1.820312 10.5625 -0.9375 C 8.164062 -0.0507812 5.140625 0.664062 1.484375 1.21875 L 1.140625 -1.609375 C 2.410156 -1.785156 3.582031 -1.972656 4.65625 -2.171875 C 5.738281 -2.378906 6.726562 -2.613281 7.625 -2.875 L 2.609375 -21.171875 L 5.890625 -22 L 10.5 -3.875 C 12.125 -4.601562 13.394531 -5.507812 14.3125 -6.59375 C 15.226562 -7.6875 15.875 -9.066406 16.25 -10.734375 C 16.632812 -12.410156 16.828125 -14.46875 16.828125 -16.90625 C 16.828125 -17.632812 16.8125 -18.40625 16.78125 -19.21875 C 16.75 -20.03125 16.703125 -20.875 16.640625 -21.75 Z M 19.921875 -21.75 "/></g></g><g style="fill:#1b1b1b;fill-opacity:1;"><g transform="translate(130.300394, 420.116167)"><path style="stroke:none" d=""/></g></g><g style="fill:#1b1b1b;fill-opacity:1;"><g transform="translate(140.061515, 420.116167)"><path style="stroke:none" d="M 12.5 0 L 12.5 -12.71875 C 12.5 -14.78125 12.171875 -16.304688 11.515625 -17.296875 C 10.867188 -18.285156 9.515625 -18.78125 7.453125 -18.78125 L 0.953125 -18.78125 L 0.953125 -21.703125 L 7.890625 -21.703125 C 10.554688 -21.703125 12.535156 -21.082031 13.828125 -19.84375 C 15.128906 -18.613281 15.78125 -16.578125 15.78125 -13.734375 L 15.78125 0 Z M 12.5 0 "/></g></g><g style="fill:#1b1b1b;fill-opacity:1;"><g transform="translate(158.886534, 420.116167)"><path style="stroke:none" d="M 12.765625 -21.484375 C 15.898438 -21.484375 18.144531 -20.882812 19.5 -19.6875 C 20.851562 -18.5 21.53125 -16.523438 21.53125 -13.765625 C 21.53125 -10.515625 20.332031 -7.644531 17.9375 -5.15625 C 15.539062 -2.675781 12.085938 -0.851562 7.578125 0.3125 L 4.625 0 L 1.921875 -22.828125 L 5.265625 -23.4375 L 5.484375 -21.484375 Z M 7.453125 -2.921875 C 10.941406 -3.765625 13.609375 -5.09375 15.453125 -6.90625 C 17.296875 -8.71875 18.21875 -10.847656 18.21875 -13.296875 C 18.21875 -15.210938 17.78125 -16.582031 16.90625 -17.40625 C 16.03125 -18.238281 14.609375 -18.65625 12.640625 -18.65625 L 5.796875 -18.65625 Z M 7.453125 -2.921875 "/></g></g><g style="fill:#1b1b1b;fill-opacity:1;"><g transform="translate(182.330658, 420.116167)"><path style="stroke:none" d="M 8.671875 -21.703125 L 8.671875 0 L 5.40625 0 L 5.40625 -18.78125 L 1 -18.78125 L 1 -21.703125 Z M 8.671875 -21.703125 "/></g></g><g style="fill:#1b1b1b;fill-opacity:1;"><g transform="translate(194.22702, 420.116167)"><path style="stroke:none" d="M 12.984375 -21.703125 C 15.660156 -21.703125 17.644531 -21.082031 18.9375 -19.84375 C 20.226562 -18.613281 20.875 -16.578125 20.875 -13.734375 L 20.875 0 L 17.609375 0 L 17.609375 -12.71875 C 17.609375 -14.78125 17.28125 -16.304688 16.625 -17.296875 C 15.96875 -18.285156 14.609375 -18.78125 12.546875 -18.78125 L 6.5 -18.78125 L 6.5 0 L 3.21875 0 L 3.21875 -23.09375 L 6.5 -23.53125 L 6.5 -21.703125 Z M 12.984375 -21.703125 "/></g></g><g style="fill:#1b1b1b;fill-opacity:1;"><g transform="translate(218.150483, 420.116167)"><path style="stroke:none" d=""/></g></g><g style="fill:#1b1b1b;fill-opacity:1;"><g transform="translate(227.911604, 420.116167)"><path style="stroke:none" d="M 8.671875 -21.703125 L 8.671875 0 L 5.40625 0 L 5.40625 -18.78125 L 1 -18.78125 L 1 -21.703125 Z M 8.671875 -21.703125 "/></g></g><g style="fill:#1b1b1b;fill-opacity:1;"><g transform="translate(239.807966, 420.116167)"><path style="stroke:none" d="M 18.828125 0.34375 L 7.96875 -13.03125 C 7.25 -11.164062 6.710938 -9.195312 6.359375 -7.125 C 6.015625 -5.050781 5.882812 -2.675781 5.96875 0 L 2.53125 0 C 2.53125 -2.957031 2.832031 -5.6875 3.4375 -8.1875 C 4.050781 -10.6875 4.953125 -13 6.140625 -15.125 L 1.78125 -19.921875 L 4.3125 -22.09375 L 14.078125 -10.0625 C 15.410156 -11.6875 16.34375 -13.019531 16.875 -14.0625 C 17.414062 -15.113281 17.6875 -15.914062 17.6875 -16.46875 C 17.6875 -17.113281 17.46875 -17.609375 17.03125 -17.953125 C 16.601562 -18.304688 15.789062 -18.800781 14.59375 -19.4375 L 15.90625 -22.21875 C 17.882812 -21.40625 19.234375 -20.597656 19.953125 -19.796875 C 20.679688 -19.003906 21.046875 -18.226562 21.046875 -17.46875 C 21.046875 -16.195312 20.644531 -14.832031 19.84375 -13.375 C 19.050781 -11.925781 17.679688 -10.195312 15.734375 -8.1875 L 21.140625 -2.171875 Z M 18.828125 0.34375 "/></g></g><g style="fill:#1b1b1b;fill-opacity:1;"><g transform="translate(262.859906, 420.116167)"><path style="stroke:none" d=""/></g></g><g style="fill:#1b1b1b;fill-opacity:1;"><g transform="translate(272.621027, 420.116167)"><path style="stroke:none" d="M 14.5625 -21.703125 C 17.226562 -21.703125 19.207031 -21.082031 20.5 -19.84375 C 21.789062 -18.613281 22.4375 -16.578125 22.4375 -13.734375 L 22.4375 0 L 19.171875 0 L 19.171875 -12.71875 C 19.171875 -14.78125 18.84375 -16.304688 18.1875 -17.296875 C 17.539062 -18.285156 16.1875 -18.78125 14.125 -18.78125 L 8.625 -18.78125 L 8.625 0 L 1.78125 0 L 1.78125 -2.875 L 5.359375 -2.875 L 5.359375 -18.78125 L 2 -18.78125 L 2 -21.703125 Z M 14.5625 -21.703125 "/></g></g><g style="fill:#1b1b1b;fill-opacity:1;"><g transform="translate(298.113236, 420.116167)"><path style="stroke:none" d="M 8.671875 -21.703125 L 8.671875 0 L 5.40625 0 L 5.40625 -18.78125 L 1 -18.78125 L 1 -21.703125 Z M 8.671875 -21.703125 "/></g></g><g style="fill:#1b1b1b;fill-opacity:1;"><g transform="translate(310.009587, 420.116167)"><path style="stroke:none" d="M 5.453125 -21.703125 C 7.109375 -21.703125 8.378906 -21.484375 9.265625 -21.046875 C 10.148438 -20.609375 10.769531 -19.851562 11.125 -18.78125 C 11.488281 -17.707031 11.660156 -16.179688 11.640625 -14.203125 L 11.5 0 L 1.609375 0 L 1.609375 -2.875 L 8.328125 -2.875 L 8.40625 -13.46875 C 8.4375 -15.53125 8.195312 -16.921875 7.6875 -17.640625 C 7.175781 -18.367188 6.195312 -18.734375 4.75 -18.734375 L 2.359375 -18.734375 L 2.359375 -21.703125 Z M 5.453125 -21.703125 "/></g></g><g style="fill:#1b1b1b;fill-opacity:1;"><g transform="translate(324.694829, 420.116167)"><path style="stroke:none" d="M 21.390625 -21.703125 L 21.703125 -21.359375 L 16.171875 0 L 12.859375 0 L 17.6875 -18.78125 L 2.359375 -18.78125 L 2.359375 -21.703125 Z M 3.4375 7.28125 L 3.4375 -11.859375 L 6.71875 -11.859375 L 6.71875 7.28125 Z M 3.4375 7.28125 "/></g></g><g style="fill:#1b1b1b;fill-opacity:1;"><g transform="translate(347.572481, 420.116167)"><path style="stroke:none" d="M 5.625 -8.71875 L 5.625 -18.734375 L 1 -18.734375 L 1 -21.65625 L 8.890625 -21.65625 L 8.890625 -8.71875 Z M 5.625 -8.71875 "/></g></g><g style="fill:#1b1b1b;fill-opacity:1;"><g transform="translate(359.686703, 420.116167)"><path style="stroke:none" d="M 12.5 0 L 12.5 -12.71875 C 12.5 -14.78125 12.171875 -16.304688 11.515625 -17.296875 C 10.867188 -18.285156 9.515625 -18.78125 7.453125 -18.78125 L 0.953125 -18.78125 L 0.953125 -21.703125 L 7.890625 -21.703125 C 10.554688 -21.703125 12.535156 -21.082031 13.828125 -19.84375 C 15.128906 -18.613281 15.78125 -16.578125 15.78125 -13.734375 L 15.78125 0 Z M 12.5 0 "/></g></g></g></svg>