<svg xmlns="http://www.w3.org/2000/svg" xmlns:xlink="http://www.w3.org/1999/xlink" width="594" zoomAndPan="magnify" viewBox="0 0 445.5 493.499999" height="658" preserveAspectRatio="xMidYMid meet" version="1.2"><defs><clipPath id="21d11fccb7"><path d="M 3.566406 10.527344 L 441.074219 10.527344 L 441.074219 492.234375 L 3.566406 492.234375 Z M 3.566406 10.527344 "/></clipPath><clipPath id="e33eb0b6d5"><path d="M 61.976562 10.527344 L 382.664062 10.527344 C 398.15625 10.527344 413.011719 16.679688 423.964844 27.632812 C 434.917969 38.585938 441.074219 53.441406 441.074219 68.933594 L 441.074219 433.691406 C 441.074219 449.179688 434.917969 464.039062 423.964844 474.992188 C 413.011719 485.945312 398.15625 492.097656 382.664062 492.097656 L 61.976562 492.097656 C 46.484375 492.097656 31.628906 485.945312 20.675781 474.992188 C 9.71875 464.039062 3.566406 449.179688 3.566406 433.691406 L 3.566406 68.933594 C 3.566406 53.441406 9.71875 38.585938 20.675781 27.632812 C 31.628906 16.679688 46.484375 10.527344 61.976562 10.527344 Z M 61.976562 10.527344 "/></clipPath><clipPath id="5241a704e7"><path d="M 404.695312 223.734375 L 416.894531 223.734375 L 416.894531 235.933594 L 404.695312 235.933594 Z M 404.695312 223.734375 "/></clipPath><clipPath id="9743513dca"><path d="M 410.792969 223.734375 C 407.425781 223.734375 404.695312 226.464844 404.695312 229.832031 C 404.695312 233.203125 407.425781 235.933594 410.792969 235.933594 C 414.164062 235.933594 416.894531 233.203125 416.894531 229.832031 C 416.894531 226.464844 414.164062 223.734375 410.792969 223.734375 Z M 410.792969 223.734375 "/></clipPath><clipPath id="064fe4c21f"><path d="M 406.4375 342.984375 L 418.632812 342.984375 L 418.632812 355.179688 L 406.4375 355.179688 Z M 406.4375 342.984375 "/></clipPath><clipPath id="72b89428e8"><path d="M 412.535156 342.984375 C 409.167969 342.984375 406.4375 345.714844 406.4375 349.082031 C 406.4375 352.449219 409.167969 355.179688 412.535156 355.179688 C 415.902344 355.179688 418.632812 352.449219 418.632812 349.082031 C 418.632812 345.714844 415.902344 342.984375 412.535156 342.984375 Z M 412.535156 342.984375 "/></clipPath></defs><g id="4436e914fa"><g clip-rule="nonzero" clip-path="url(#21d11fccb7)"><g clip-rule="nonzero" clip-path="url(#e33eb0b6d5)"><path style="fill:none;stroke-width:12;stroke-linecap:butt;stroke-linejoin:miter;stroke:#285256;stroke-opacity:1;stroke-miterlimit:4;" d="M 78.00096 0.0025544 L 506.247438 0.0025544 C 526.935724 0.0025544 546.773735 8.218402 561.400551 22.845218 C 576.027367 37.472035 584.248431 57.310046 584.248431 77.998332 L 584.248431 565.096358 C 584.248431 585.779428 576.027367 605.622655 561.400551 620.249471 C 546.773735 634.876288 526.935724 643.092135 506.247438 643.092135 L 78.00096 643.092135 C 57.312674 643.092135 37.474663 634.876288 22.847847 620.249471 C 8.215814 605.622655 -0.0000334605 585.779428 -0.0000334605 565.096358 L -0.0000334605 77.998332 C -0.0000334605 57.310046 8.215814 37.472035 22.847847 22.845218 C 37.474663 8.218402 57.312674 0.0025544 78.00096 0.0025544 Z M 78.00096 0.0025544 " transform="matrix(0.748839,0,0,0.748839,3.566431,10.525431)"/></g></g><g style="fill:#1b1b1b;fill-opacity:1;"><g transform="translate(66.609365, 241.577105)"><path style="stroke:none" d="M 0.921875 6.84375 C 1.734375 5.96875 2.414062 5.003906 2.96875 3.953125 C 3.519531 2.910156 3.796875 1.941406 3.796875 1.046875 C 3.796875 0.429688 3.691406 -0.101562 3.484375 -0.5625 C 3.285156 -1.03125 2.910156 -1.410156 2.359375 -1.703125 C 2.359375 -2.429688 2.640625 -3.097656 3.203125 -3.703125 C 3.765625 -4.316406 4.425781 -4.625 5.1875 -4.625 C 6.03125 -4.625 6.734375 -4.335938 7.296875 -3.765625 C 7.867188 -3.203125 8.15625 -2.515625 8.15625 -1.703125 C 8.15625 -0.535156 7.921875 0.660156 7.453125 1.890625 C 6.984375 3.128906 6.328125 4.300781 5.484375 5.40625 C 4.648438 6.507812 3.648438 7.453125 2.484375 8.234375 Z M 0.921875 6.84375 "/></g></g><g style="fill:#1b1b1b;fill-opacity:1;"><g transform="translate(77.28933, 241.577105)"><path style="stroke:none" d="M 18.609375 -21.703125 L 18 -18.78125 L 14.859375 -18.78125 L 14.859375 0 L 11.59375 0 L 11.59375 -18.78125 L 0.953125 -18.78125 L 0.953125 -21.703125 Z M 18.609375 -21.703125 "/></g></g><g style="fill:#1b1b1b;fill-opacity:1;"><g transform="translate(96.687633, 241.577105)"><path style="stroke:none" d="M 19.921875 -21.75 C 19.953125 -21.113281 19.972656 -20.488281 19.984375 -19.875 C 20.003906 -19.269531 20.015625 -18.675781 20.015625 -18.09375 C 20.015625 -14.863281 19.726562 -12.144531 19.15625 -9.9375 C 18.59375 -7.726562 17.617188 -5.894531 16.234375 -4.4375 C 14.859375 -2.988281 12.96875 -1.820312 10.5625 -0.9375 C 8.164062 -0.0507812 5.140625 0.664062 1.484375 1.21875 L 1.140625 -1.609375 C 2.410156 -1.785156 3.582031 -1.972656 4.65625 -2.171875 C 5.738281 -2.378906 6.726562 -2.613281 7.625 -2.875 L 2.609375 -21.1875 L 5.890625 -22.015625 L 10.5 -3.875 C 12.132812 -4.601562 13.40625 -5.507812 14.3125 -6.59375 C 15.226562 -7.6875 15.875 -9.066406 16.25 -10.734375 C 16.632812 -12.410156 16.828125 -14.472656 16.828125 -16.921875 C 16.828125 -17.640625 16.8125 -18.40625 16.78125 -19.21875 C 16.75 -20.039062 16.707031 -20.882812 16.65625 -21.75 Z M 19.921875 -21.75 "/></g></g><g style="fill:#1b1b1b;fill-opacity:1;"><g transform="translate(118.657843, 241.577105)"><path style="stroke:none" d="M 12.515625 0 L 12.515625 -12.734375 C 12.515625 -14.796875 12.1875 -16.316406 11.53125 -17.296875 C 10.875 -18.285156 9.515625 -18.78125 7.453125 -18.78125 L 0.953125 -18.78125 L 0.953125 -21.703125 L 7.890625 -21.703125 C 10.566406 -21.703125 12.550781 -21.082031 13.84375 -19.84375 C 15.132812 -18.613281 15.78125 -16.578125 15.78125 -13.734375 L 15.78125 0 Z M 12.515625 0 "/></g></g><g style="fill:#1b1b1b;fill-opacity:1;"><g transform="translate(137.489451, 241.577105)"><path style="stroke:none" d=""/></g></g><g style="fill:#1b1b1b;fill-opacity:1;"><g transform="translate(147.253989, 241.577105)"><path style="stroke:none" d="M 0.921875 6.84375 C 1.734375 5.96875 2.414062 5.003906 2.96875 3.953125 C 3.519531 2.910156 3.796875 1.941406 3.796875 1.046875 C 3.796875 0.429688 3.691406 -0.101562 3.484375 -0.5625 C 3.285156 -1.03125 2.910156 -1.410156 2.359375 -1.703125 C 2.359375 -2.429688 2.640625 -3.097656 3.203125 -3.703125 C 3.765625 -4.316406 4.425781 -4.625 5.1875 -4.625 C 6.03125 -4.625 6.734375 -4.335938 7.296875 -3.765625 C 7.867188 -3.203125 8.15625 -2.515625 8.15625 -1.703125 C 8.15625 -0.535156 7.921875 0.660156 7.453125 1.890625 C 6.984375 3.128906 6.328125 4.300781 5.484375 5.40625 C 4.648438 6.507812 3.648438 7.453125 2.484375 8.234375 Z M 0.921875 6.84375 "/></g></g><g style="fill:#1b1b1b;fill-opacity:1;"><g transform="translate(157.933954, 241.577105)"><path style="stroke:none" d="M 5.40625 6.84375 L 5.40625 -18.75 L 1 -18.75 L 1 -21.671875 L 8.671875 -21.671875 L 8.671875 6.84375 Z M 5.40625 6.84375 "/></g></g><g style="fill:#1b1b1b;fill-opacity:1;"><g transform="translate(169.834481, 241.577105)"><path style="stroke:none" d="M 13.46875 -22.109375 C 15.851562 -22.109375 17.765625 -21.507812 19.203125 -20.3125 C 20.640625 -19.125 21.359375 -17.148438 21.359375 -14.390625 C 21.359375 -11.097656 20.171875 -8.148438 17.796875 -5.546875 C 15.429688 -2.953125 12.085938 -1 7.765625 0.3125 L 4.796875 0 L 2 -21.703125 L 5.40625 -21.75 L 7.625 -3.015625 C 10.9375 -3.992188 13.5 -5.441406 15.3125 -7.359375 C 17.132812 -9.285156 18.046875 -11.46875 18.046875 -13.90625 C 18.046875 -15.96875 17.601562 -17.375 16.71875 -18.125 C 15.832031 -18.882812 14.707031 -19.265625 13.34375 -19.265625 C 12.820312 -19.265625 12.273438 -19.242188 11.703125 -19.203125 C 11.140625 -19.160156 10.4375 -19.019531 9.59375 -18.78125 L 9.59375 -21.625 C 10.875 -21.945312 12.164062 -22.109375 13.46875 -22.109375 Z M 13.46875 -22.109375 "/></g></g><g style="fill:#1b1b1b;fill-opacity:1;"><g transform="translate(193.112439, 241.577105)"><path style="stroke:none" d="M 16.734375 -2.921875 L 19.875 -2.921875 L 19.875 0 L 1.75 0 L 1.75 -2.921875 L 13.46875 -2.921875 L 13.46875 -12.734375 C 13.46875 -14.796875 13.140625 -16.316406 12.484375 -17.296875 C 11.835938 -18.285156 10.476562 -18.78125 8.40625 -18.78125 L 2.21875 -18.78125 L 2.21875 -21.703125 L 8.84375 -21.703125 C 11.519531 -21.703125 13.503906 -21.082031 14.796875 -19.84375 C 16.085938 -18.613281 16.734375 -16.578125 16.734375 -13.734375 Z M 16.734375 -2.921875 "/></g></g><g style="fill:#1b1b1b;fill-opacity:1;"><g transform="translate(214.036449, 241.577105)"><path style="stroke:none" d="M 9.890625 -29.375 L 12.90625 -29.375 L 4.359375 4.046875 L 1.390625 4.046875 Z M 9.890625 -29.375 "/></g></g><g style="fill:#1b1b1b;fill-opacity:1;"><g transform="translate(228.334522, 241.577105)"><path style="stroke:none" d="M 24.40625 -21.703125 C 24.4375 -21.390625 24.457031 -20.90625 24.46875 -20.25 C 24.488281 -19.59375 24.503906 -18.941406 24.515625 -18.296875 C 24.535156 -17.660156 24.546875 -17.210938 24.546875 -16.953125 C 24.546875 -13.492188 23.816406 -10.457031 22.359375 -7.84375 C 20.910156 -5.226562 18.832031 -3.207031 16.125 -1.78125 C 13.425781 -0.363281 10.1875 0.285156 6.40625 0.171875 L 4.96875 0 L 2.3125 -21.703125 L 5.625 -21.703125 L 6.671875 -12.03125 C 8.648438 -12.175781 10.007812 -12.859375 10.75 -14.078125 C 11.488281 -15.296875 11.859375 -16.910156 11.859375 -18.921875 C 11.859375 -19.734375 11.816406 -20.660156 11.734375 -21.703125 L 14.953125 -21.703125 C 15.015625 -21.210938 15.054688 -20.726562 15.078125 -20.25 C 15.109375 -19.769531 15.125 -19.328125 15.125 -18.921875 C 15.125 -16.066406 14.476562 -13.851562 13.1875 -12.28125 C 11.894531 -10.71875 9.8125 -9.804688 6.9375 -9.546875 L 7.671875 -2.703125 C 10.640625 -2.734375 13.125 -3.375 15.125 -4.625 C 17.132812 -5.875 18.644531 -7.648438 19.65625 -9.953125 C 20.675781 -12.265625 21.1875 -14.992188 21.1875 -18.140625 C 21.1875 -19.265625 21.113281 -20.453125 20.96875 -21.703125 Z M 24.40625 -21.703125 "/></g></g><g style="fill:#1b1b1b;fill-opacity:1;"><g transform="translate(254.794681, 241.577105)"><path style="stroke:none" d="M 18.828125 0.34375 L 7.984375 -13.03125 C 7.253906 -11.175781 6.710938 -9.207031 6.359375 -7.125 C 6.015625 -5.050781 5.882812 -2.675781 5.96875 0 L 2.53125 0 C 2.53125 -2.96875 2.832031 -5.695312 3.4375 -8.1875 C 4.050781 -10.6875 4.953125 -13 6.140625 -15.125 L 1.78125 -19.921875 L 4.3125 -22.109375 L 14.078125 -10.0625 C 15.421875 -11.695312 16.359375 -13.035156 16.890625 -14.078125 C 17.429688 -15.128906 17.703125 -15.929688 17.703125 -16.484375 C 17.703125 -17.117188 17.484375 -17.609375 17.046875 -17.953125 C 16.609375 -18.304688 15.796875 -18.800781 14.609375 -19.4375 L 15.90625 -22.234375 C 17.882812 -21.421875 19.238281 -20.613281 19.96875 -19.8125 C 20.695312 -19.007812 21.0625 -18.234375 21.0625 -17.484375 C 21.0625 -16.203125 20.660156 -14.832031 19.859375 -13.375 C 19.054688 -11.925781 17.679688 -10.203125 15.734375 -8.203125 L 21.140625 -2.171875 Z M 18.828125 0.34375 "/></g></g><g style="fill:#1b1b1b;fill-opacity:1;"><g transform="translate(277.85469, 241.577105)"><path style="stroke:none" d="M 12.515625 0 L 12.515625 -12.734375 C 12.515625 -14.796875 12.1875 -16.316406 11.53125 -17.296875 C 10.875 -18.285156 9.515625 -18.78125 7.453125 -18.78125 L 0.953125 -18.78125 L 0.953125 -21.703125 L 7.890625 -21.703125 C 10.566406 -21.703125 12.550781 -21.082031 13.84375 -19.84375 C 15.132812 -18.613281 15.78125 -16.578125 15.78125 -13.734375 L 15.78125 0 Z M 12.515625 0 "/></g></g><g style="fill:#1b1b1b;fill-opacity:1;"><g transform="translate(296.686277, 241.577105)"><path style="stroke:none" d=""/></g></g><g style="fill:#1b1b1b;fill-opacity:1;"><g transform="translate(306.450815, 241.577105)"><path style="stroke:none" d="M 5.625 -8.71875 L 5.625 -18.75 L 1 -18.75 L 1 -21.671875 L 8.890625 -21.671875 L 8.890625 -8.71875 Z M 5.625 -8.71875 "/></g></g><g style="fill:#1b1b1b;fill-opacity:1;"><g transform="translate(318.569324, 241.577105)"><path style="stroke:none" d="M 16.734375 -2.921875 L 19.875 -2.921875 L 19.875 0 L 1.75 0 L 1.75 -2.921875 L 13.46875 -2.921875 L 13.46875 -12.734375 C 13.46875 -14.796875 13.140625 -16.316406 12.484375 -17.296875 C 11.835938 -18.285156 10.476562 -18.78125 8.40625 -18.78125 L 2.21875 -18.78125 L 2.21875 -21.703125 L 8.84375 -21.703125 C 11.519531 -21.703125 13.503906 -21.082031 14.796875 -19.84375 C 16.085938 -18.613281 16.734375 -16.578125 16.734375 -13.734375 Z M 16.734375 -2.921875 "/></g></g><g style="fill:#1b1b1b;fill-opacity:1;"><g transform="translate(339.493334, 241.577105)"><path style="stroke:none" d="M 18.828125 0.34375 L 7.984375 -13.03125 C 7.253906 -11.175781 6.710938 -9.207031 6.359375 -7.125 C 6.015625 -5.050781 5.882812 -2.675781 5.96875 0 L 2.53125 0 C 2.53125 -2.96875 2.832031 -5.695312 3.4375 -8.1875 C 4.050781 -10.6875 4.953125 -13 6.140625 -15.125 L 1.78125 -19.921875 L 4.3125 -22.109375 L 14.078125 -10.0625 C 15.421875 -11.695312 16.359375 -13.035156 16.890625 -14.078125 C 17.429688 -15.128906 17.703125 -15.929688 17.703125 -16.484375 C 17.703125 -17.117188 17.484375 -17.609375 17.046875 -17.953125 C 16.609375 -18.304688 15.796875 -18.800781 14.609375 -19.4375 L 15.90625 -22.234375 C 17.882812 -21.421875 19.238281 -20.613281 19.96875 -19.8125 C 20.695312 -19.007812 21.0625 -18.234375 21.0625 -17.484375 C 21.0625 -16.203125 20.660156 -14.832031 19.859375 -13.375 C 19.054688 -11.925781 17.679688 -10.203125 15.734375 -8.203125 L 21.140625 -2.171875 Z M 18.828125 0.34375 "/></g></g><g style="fill:#1b1b1b;fill-opacity:1;"><g transform="translate(362.55332, 241.577105)"><path style="stroke:none" d="M 1.65625 0 L 1.65625 -2.921875 L 13.203125 -2.921875 C 13.328125 -4.253906 13.410156 -5.660156 13.453125 -7.140625 C 13.492188 -8.628906 13.515625 -10.015625 13.515625 -11.296875 C 13.515625 -13.242188 13.382812 -14.757812 13.125 -15.84375 C 12.863281 -16.9375 12.332031 -17.695312 11.53125 -18.125 C 10.726562 -18.5625 9.53125 -18.78125 7.9375 -18.78125 L 2.265625 -18.78125 L 2.265625 -21.703125 L 8.328125 -21.703125 C 10.566406 -21.703125 12.296875 -21.375 13.515625 -20.71875 C 14.734375 -20.070312 15.582031 -19.019531 16.0625 -17.5625 C 16.539062 -16.113281 16.78125 -14.195312 16.78125 -11.8125 C 16.78125 -10.09375 16.695312 -8.164062 16.53125 -6.03125 C 16.375 -3.894531 16.179688 -1.882812 15.953125 0 Z M 1.65625 0 "/></g></g><g style="fill:#1b1b1b;fill-opacity:1;"><g transform="translate(111.617443, 282.0317)"><path style="stroke:none" d="M 5.140625 0.34375 C 4.390625 0.34375 3.738281 0.0664062 3.1875 -0.484375 C 2.632812 -1.035156 2.359375 -1.671875 2.359375 -2.390625 C 2.359375 -3.148438 2.632812 -3.8125 3.1875 -4.375 C 3.738281 -4.945312 4.390625 -5.234375 5.140625 -5.234375 C 5.898438 -5.234375 6.554688 -4.945312 7.109375 -4.375 C 7.660156 -3.8125 7.9375 -3.148438 7.9375 -2.390625 C 7.9375 -1.671875 7.660156 -1.035156 7.109375 -0.484375 C 6.554688 0.0664062 5.898438 0.34375 5.140625 0.34375 Z M 5.140625 0.34375 "/></g></g><g style="fill:#1b1b1b;fill-opacity:1;"><g transform="translate(121.905087, 282.0317)"><path style="stroke:none" d="M 17.21875 0 L 17.21875 -12.734375 C 17.21875 -14.796875 16.890625 -16.316406 16.234375 -17.296875 C 15.578125 -18.285156 14.21875 -18.78125 12.15625 -18.78125 L 2.875 -18.78125 L 2.875 -21.703125 L 12.59375 -21.703125 C 15.269531 -21.703125 17.253906 -21.082031 18.546875 -19.84375 C 19.835938 -18.613281 20.484375 -16.578125 20.484375 -13.734375 L 20.484375 0 Z M 3.3125 0 L 3.3125 -11.734375 L 6.578125 -11.734375 L 6.578125 0 Z M 3.3125 0 "/></g></g><g style="fill:#1b1b1b;fill-opacity:1;"><g transform="translate(145.444603, 282.0317)"><path style="stroke:none" d="M 19.921875 -21.75 C 19.953125 -21.113281 19.972656 -20.488281 19.984375 -19.875 C 20.003906 -19.269531 20.015625 -18.675781 20.015625 -18.09375 C 20.015625 -14.863281 19.726562 -12.144531 19.15625 -9.9375 C 18.59375 -7.726562 17.617188 -5.894531 16.234375 -4.4375 C 14.859375 -2.988281 12.96875 -1.820312 10.5625 -0.9375 C 8.164062 -0.0507812 5.140625 0.664062 1.484375 1.21875 L 1.140625 -1.609375 C 2.410156 -1.785156 3.582031 -1.972656 4.65625 -2.171875 C 5.738281 -2.378906 6.726562 -2.613281 7.625 -2.875 L 2.609375 -21.1875 L 5.890625 -22.015625 L 10.5 -3.875 C 12.132812 -4.601562 13.40625 -5.507812 14.3125 -6.59375 C 15.226562 -7.6875 15.875 -9.066406 16.25 -10.734375 C 16.632812 -12.410156 16.828125 -14.472656 16.828125 -16.921875 C 16.828125 -17.640625 16.8125 -18.40625 16.78125 -19.21875 C 16.75 -20.039062 16.707031 -20.882812 16.65625 -21.75 Z M 19.921875 -21.75 "/></g></g><g style="fill:#1b1b1b;fill-opacity:1;"><g transform="translate(167.414814, 282.0317)"><path style="stroke:none" d="M 11.546875 -21.703125 L 11.203125 -18.78125 L 7.328125 -18.78125 L 9.546875 0 L 6.328125 0 L 4.140625 -18.78125 L 1.171875 -18.78125 L 1.171875 -21.703125 Z M 11.546875 -21.703125 "/></g></g><g style="fill:#1b1b1b;fill-opacity:1;"><g transform="translate(180.230767, 282.0317)"><path style="stroke:none" d="M 17.21875 0 L 17.21875 -12.734375 C 17.21875 -14.796875 16.890625 -16.316406 16.234375 -17.296875 C 15.578125 -18.285156 14.21875 -18.78125 12.15625 -18.78125 L 2.875 -18.78125 L 2.875 -21.703125 L 12.59375 -21.703125 C 15.269531 -21.703125 17.253906 -21.082031 18.546875 -19.84375 C 19.835938 -18.613281 20.484375 -16.578125 20.484375 -13.734375 L 20.484375 0 Z M 3.3125 0 L 3.3125 -11.734375 L 6.578125 -11.734375 L 6.578125 0 Z M 3.3125 0 "/></g></g><g style="fill:#1b1b1b;fill-opacity:1;"><g transform="translate(203.770284, 282.0317)"><path style="stroke:none" d=""/></g></g><g style="fill:#1b1b1b;fill-opacity:1;"><g transform="translate(213.534822, 282.0317)"><path style="stroke:none" d="M 0.921875 6.84375 C 1.734375 5.96875 2.414062 5.003906 2.96875 3.953125 C 3.519531 2.910156 3.796875 1.941406 3.796875 1.046875 C 3.796875 0.429688 3.691406 -0.101562 3.484375 -0.5625 C 3.285156 -1.03125 2.910156 -1.410156 2.359375 -1.703125 C 2.359375 -2.429688 2.640625 -3.097656 3.203125 -3.703125 C 3.765625 -4.316406 4.425781 -4.625 5.1875 -4.625 C 6.03125 -4.625 6.734375 -4.335938 7.296875 -3.765625 C 7.867188 -3.203125 8.15625 -2.515625 8.15625 -1.703125 C 8.15625 -0.535156 7.921875 0.660156 7.453125 1.890625 C 6.984375 3.128906 6.328125 4.300781 5.484375 5.40625 C 4.648438 6.507812 3.648438 7.453125 2.484375 8.234375 Z M 0.921875 6.84375 "/></g></g><g style="fill:#1b1b1b;fill-opacity:1;"><g transform="translate(224.214786, 282.0317)"><path style="stroke:none" d="M 14.5625 -21.703125 C 17.238281 -21.703125 19.222656 -21.082031 20.515625 -19.84375 C 21.804688 -18.613281 22.453125 -16.578125 22.453125 -13.734375 L 22.453125 0 L 19.1875 0 L 19.1875 -12.734375 C 19.1875 -14.796875 18.859375 -16.316406 18.203125 -17.296875 C 17.546875 -18.285156 16.1875 -18.78125 14.125 -18.78125 L 8.625 -18.78125 L 8.625 0 L 1.78125 0 L 1.78125 -2.875 L 5.359375 -2.875 L 5.359375 -18.78125 L 2 -18.78125 L 2 -21.703125 Z M 14.5625 -21.703125 "/></g></g><g style="fill:#1b1b1b;fill-opacity:1;"><g transform="translate(249.715919, 282.0317)"><path style="stroke:none" d="M 8.671875 -21.703125 L 8.671875 0 L 5.40625 0 L 5.40625 -18.78125 L 1 -18.78125 L 1 -21.703125 Z M 8.671875 -21.703125 "/></g></g><g style="fill:#1b1b1b;fill-opacity:1;"><g transform="translate(261.616446, 282.0317)"><path style="stroke:none" d="M 17.390625 -21.703125 L 17.609375 -21.453125 L 9.859375 0 L 6.5 0 L 13.390625 -18.78125 L 1.3125 -18.78125 L 1.34375 -28.375 L 4.625 -28.859375 L 4.578125 -21.703125 Z M 17.390625 -21.703125 "/></g></g><g style="fill:#1b1b1b;fill-opacity:1;"><g transform="translate(280.142908, 282.0317)"><path style="stroke:none" d="M 5.625 -8.71875 L 5.625 -18.75 L 1 -18.75 L 1 -21.671875 L 8.890625 -21.671875 L 8.890625 -8.71875 Z M 5.625 -8.71875 "/></g></g><g style="fill:#1b1b1b;fill-opacity:1;"><g transform="translate(292.261394, 282.0317)"><path style="stroke:none" d="M 12.984375 -21.703125 C 15.660156 -21.703125 17.644531 -21.082031 18.9375 -19.84375 C 20.226562 -18.613281 20.875 -16.578125 20.875 -13.734375 L 20.875 0 L 17.609375 0 L 17.609375 -12.734375 C 17.609375 -14.796875 17.28125 -16.316406 16.625 -17.296875 C 15.976562 -18.285156 14.625 -18.78125 12.5625 -18.78125 L 6.5 -18.78125 L 6.5 0 L 3.21875 0 L 3.21875 -23.109375 L 6.5 -23.546875 L 6.5 -21.703125 Z M 12.984375 -21.703125 "/></g></g><g style="fill:#1b1b1b;fill-opacity:1;"><g transform="translate(316.193221, 282.0317)"><path style="stroke:none" d="M 16.734375 -2.921875 L 19.875 -2.921875 L 19.875 0 L 1.75 0 L 1.75 -2.921875 L 13.46875 -2.921875 L 13.46875 -12.734375 C 13.46875 -14.796875 13.140625 -16.316406 12.484375 -17.296875 C 11.835938 -18.285156 10.476562 -18.78125 8.40625 -18.78125 L 2.21875 -18.78125 L 2.21875 -21.703125 L 8.84375 -21.703125 C 11.519531 -21.703125 13.503906 -21.082031 14.796875 -19.84375 C 16.085938 -18.613281 16.734375 -16.578125 16.734375 -13.734375 Z M 16.734375 -2.921875 "/></g></g><g style="fill:#1b1b1b;fill-opacity:1;"><g transform="translate(46.651297, 362.19173)"><path style="stroke:none" d="M 21.40625 -21.703125 L 21.703125 -21.359375 L 16.171875 0 L 12.859375 0 L 17.703125 -18.78125 L 2.359375 -18.78125 L 2.359375 -21.703125 Z M 3.4375 7.28125 L 3.4375 -11.859375 L 6.71875 -11.859375 L 6.71875 7.28125 Z M 3.4375 7.28125 "/></g></g><g style="fill:#1b1b1b;fill-opacity:1;"><g transform="translate(69.536934, 362.19173)"><path style="stroke:none" d="M 8.671875 -21.703125 L 8.671875 0 L 5.40625 0 L 5.40625 -18.78125 L 1 -18.78125 L 1 -21.703125 Z M 8.671875 -21.703125 "/></g></g><g style="fill:#1b1b1b;fill-opacity:1;"><g transform="translate(81.43746, 362.19173)"><path style="stroke:none" d="M 14.5625 -21.703125 C 17.238281 -21.703125 19.222656 -21.082031 20.515625 -19.84375 C 21.804688 -18.613281 22.453125 -16.578125 22.453125 -13.734375 L 22.453125 0 L 19.1875 0 L 19.1875 -12.734375 C 19.1875 -14.796875 18.859375 -16.316406 18.203125 -17.296875 C 17.546875 -18.285156 16.1875 -18.78125 14.125 -18.78125 L 8.625 -18.78125 L 8.625 0 L 1.78125 0 L 1.78125 -2.875 L 5.359375 -2.875 L 5.359375 -18.78125 L 2 -18.78125 L 2 -21.703125 Z M 14.5625 -21.703125 "/></g></g><g style="fill:#1b1b1b;fill-opacity:1;"><g transform="translate(106.938593, 362.19173)"><path style="stroke:none" d="M 5.625 -8.71875 L 5.625 -18.75 L 1 -18.75 L 1 -21.671875 L 8.890625 -21.671875 L 8.890625 -8.71875 Z M 5.625 -8.71875 "/></g></g><g style="fill:#1b1b1b;fill-opacity:1;"><g transform="translate(119.057079, 362.19173)"><path style="stroke:none" d="M 5.453125 -21.703125 C 7.109375 -21.703125 8.378906 -21.484375 9.265625 -21.046875 C 10.148438 -20.617188 10.773438 -19.863281 11.140625 -18.78125 C 11.503906 -17.707031 11.671875 -16.1875 11.640625 -14.21875 L 11.515625 0 L 1.609375 0 L 1.609375 -2.875 L 8.328125 -2.875 L 8.40625 -13.46875 C 8.4375 -15.53125 8.195312 -16.925781 7.6875 -17.65625 C 7.1875 -18.382812 6.207031 -18.75 4.75 -18.75 L 2.359375 -18.75 L 2.359375 -21.703125 Z M 5.453125 -21.703125 "/></g></g><g style="fill:#1b1b1b;fill-opacity:1;"><g transform="translate(133.747474, 362.19173)"><path style="stroke:none" d=""/></g></g><g style="fill:#1b1b1b;fill-opacity:1;"><g transform="translate(143.512012, 362.19173)"><path style="stroke:none" d="M 8.671875 -21.703125 L 8.671875 0 L 5.40625 0 L 5.40625 -18.78125 L 1 -18.78125 L 1 -21.703125 Z M 8.671875 -21.703125 "/></g></g><g style="fill:#1b1b1b;fill-opacity:1;"><g transform="translate(155.412538, 362.19173)"><path style="stroke:none" d="M 18.828125 0.34375 L 7.984375 -13.03125 C 7.253906 -11.175781 6.710938 -9.207031 6.359375 -7.125 C 6.015625 -5.050781 5.882812 -2.675781 5.96875 0 L 2.53125 0 C 2.53125 -2.96875 2.832031 -5.695312 3.4375 -8.1875 C 4.050781 -10.6875 4.953125 -13 6.140625 -15.125 L 1.78125 -19.921875 L 4.3125 -22.109375 L 14.078125 -10.0625 C 15.421875 -11.695312 16.359375 -13.035156 16.890625 -14.078125 C 17.429688 -15.128906 17.703125 -15.929688 17.703125 -16.484375 C 17.703125 -17.117188 17.484375 -17.609375 17.046875 -17.953125 C 16.609375 -18.304688 15.796875 -18.800781 14.609375 -19.4375 L 15.90625 -22.234375 C 17.882812 -21.421875 19.238281 -20.613281 19.96875 -19.8125 C 20.695312 -19.007812 21.0625 -18.234375 21.0625 -17.484375 C 21.0625 -16.203125 20.660156 -14.832031 19.859375 -13.375 C 19.054688 -11.925781 17.679688 -10.203125 15.734375 -8.203125 L 21.140625 -2.171875 Z M 18.828125 0.34375 "/></g></g><g style="fill:#1b1b1b;fill-opacity:1;"><g transform="translate(178.472537, 362.19173)"><path style="stroke:none" d=""/></g></g><g style="fill:#1b1b1b;fill-opacity:1;"><g transform="translate(188.237075, 362.19173)"><path style="stroke:none" d="M 17.390625 -21.703125 L 17.609375 -21.453125 L 9.859375 0 L 6.5 0 L 13.390625 -18.78125 L 1.3125 -18.78125 L 1.34375 -28.375 L 4.625 -28.859375 L 4.578125 -21.703125 Z M 17.390625 -21.703125 "/></g></g><g style="fill:#1b1b1b;fill-opacity:1;"><g transform="translate(206.763537, 362.19173)"><path style="stroke:none" d="M 8.671875 -21.703125 L 8.671875 0 L 5.40625 0 L 5.40625 -18.78125 L 1 -18.78125 L 1 -21.703125 Z M 8.671875 -21.703125 "/></g></g><g style="fill:#1b1b1b;fill-opacity:1;"><g transform="translate(218.664064, 362.19173)"><path style="stroke:none" d="M 16.734375 -2.921875 L 19.875 -2.921875 L 19.875 0 L 1.75 0 L 1.75 -2.921875 L 13.46875 -2.921875 L 13.46875 -12.734375 C 13.46875 -14.796875 13.140625 -16.316406 12.484375 -17.296875 C 11.835938 -18.285156 10.476562 -18.78125 8.40625 -18.78125 L 2.21875 -18.78125 L 2.21875 -21.703125 L 8.84375 -21.703125 C 11.519531 -21.703125 13.503906 -21.082031 14.796875 -19.84375 C 16.085938 -18.613281 16.734375 -16.578125 16.734375 -13.734375 Z M 16.734375 -2.921875 "/></g></g><g style="fill:#1b1b1b;fill-opacity:1;"><g transform="translate(239.588085, 362.19173)"><path style="stroke:none" d="M 17.390625 -21.703125 L 17.609375 -21.453125 L 9.859375 0 L 6.5 0 L 13.390625 -18.78125 L 1.3125 -18.78125 L 1.34375 -28.375 L 4.625 -28.859375 L 4.578125 -21.703125 Z M 17.390625 -21.703125 "/></g></g><g style="fill:#1b1b1b;fill-opacity:1;"><g transform="translate(258.114548, 362.19173)"><path style="stroke:none" d="M 16.734375 -2.921875 L 19.875 -2.921875 L 19.875 0 L 1.75 0 L 1.75 -2.921875 L 13.46875 -2.921875 L 13.46875 -12.734375 C 13.46875 -14.796875 13.140625 -16.316406 12.484375 -17.296875 C 11.835938 -18.285156 10.476562 -18.78125 8.40625 -18.78125 L 2.21875 -18.78125 L 2.21875 -21.703125 L 8.84375 -21.703125 C 11.519531 -21.703125 13.503906 -21.082031 14.796875 -19.84375 C 16.085938 -18.613281 16.734375 -16.578125 16.734375 -13.734375 Z M 16.734375 -2.921875 "/></g></g><g style="fill:#1b1b1b;fill-opacity:1;"><g transform="translate(279.038558, 362.19173)"><path style="stroke:none" d=""/></g></g><g style="fill:#1b1b1b;fill-opacity:1;"><g transform="translate(288.803096, 362.19173)"><path style="stroke:none" d="M 14.5625 -21.703125 C 17.238281 -21.703125 19.222656 -21.082031 20.515625 -19.84375 C 21.804688 -18.613281 22.453125 -16.578125 22.453125 -13.734375 L 22.453125 0 L 19.1875 0 L 19.1875 -12.734375 C 19.1875 -14.796875 18.859375 -16.316406 18.203125 -17.296875 C 17.546875 -18.285156 16.1875 -18.78125 14.125 -18.78125 L 8.625 -18.78125 L 8.625 0 L 1.78125 0 L 1.78125 -2.875 L 5.359375 -2.875 L 5.359375 -18.78125 L 2 -18.78125 L 2 -21.703125 Z M 14.5625 -21.703125 "/></g></g><g style="fill:#1b1b1b;fill-opacity:1;"><g transform="translate(314.304229, 362.19173)"><path style="stroke:none" d="M 24.40625 -21.703125 C 24.4375 -21.390625 24.457031 -20.90625 24.46875 -20.25 C 24.488281 -19.59375 24.503906 -18.941406 24.515625 -18.296875 C 24.535156 -17.660156 24.546875 -17.210938 24.546875 -16.953125 C 24.546875 -13.492188 23.816406 -10.457031 22.359375 -7.84375 C 20.910156 -5.226562 18.832031 -3.207031 16.125 -1.78125 C 13.425781 -0.363281 10.1875 0.285156 6.40625 0.171875 L 4.96875 0 L 2.3125 -21.703125 L 5.625 -21.703125 L 6.671875 -12.03125 C 8.648438 -12.175781 10.007812 -12.859375 10.75 -14.078125 C 11.488281 -15.296875 11.859375 -16.910156 11.859375 -18.921875 C 11.859375 -19.734375 11.816406 -20.660156 11.734375 -21.703125 L 14.953125 -21.703125 C 15.015625 -21.210938 15.054688 -20.726562 15.078125 -20.25 C 15.109375 -19.769531 15.125 -19.328125 15.125 -18.921875 C 15.125 -16.066406 14.476562 -13.851562 13.1875 -12.28125 C 11.894531 -10.71875 9.8125 -9.804688 6.9375 -9.546875 L 7.671875 -2.703125 C 10.640625 -2.734375 13.125 -3.375 15.125 -4.625 C 17.132812 -5.875 18.644531 -7.648438 19.65625 -9.953125 C 20.675781 -12.265625 21.1875 -14.992188 21.1875 -18.140625 C 21.1875 -19.265625 21.113281 -20.453125 20.96875 -21.703125 Z M 24.40625 -21.703125 "/></g></g><g style="fill:#1b1b1b;fill-opacity:1;"><g transform="translate(340.764376, 362.19173)"><path style="stroke:none" d="M 8.671875 -21.703125 L 8.671875 0 L 5.40625 0 L 5.40625 -18.78125 L 1 -18.78125 L 1 -21.703125 Z M 8.671875 -21.703125 "/></g></g><g style="fill:#1b1b1b;fill-opacity:1;"><g transform="translate(352.664891, 362.19173)"><path style="stroke:none" d="M 12.984375 -21.703125 C 15.660156 -21.703125 17.644531 -21.082031 18.9375 -19.84375 C 20.226562 -18.613281 20.875 -16.578125 20.875 -13.734375 L 20.875 0 L 17.609375 0 L 17.609375 -12.734375 C 17.609375 -14.796875 17.28125 -16.316406 16.625 -17.296875 C 15.976562 -18.285156 14.625 -18.78125 12.5625 -18.78125 L 6.5 -18.78125 L 6.5 0 L 3.21875 0 L 3.21875 -23.109375 L 6.5 -23.546875 L 6.5 -21.703125 Z M 12.984375 -21.703125 "/></g></g><g style="fill:#1b1b1b;fill-opacity:1;"><g transform="translate(376.59674, 362.19173)"><path style="stroke:none" d="M 14.5625 -21.703125 C 17.238281 -21.703125 19.222656 -21.082031 20.515625 -19.84375 C 21.804688 -18.613281 22.453125 -16.578125 22.453125 -13.734375 L 22.453125 0 L 19.1875 0 L 19.1875 -12.734375 C 19.1875 -14.796875 18.859375 -16.316406 18.203125 -17.296875 C 17.546875 -18.285156 16.1875 -18.78125 14.125 -18.78125 L 8.625 -18.78125 L 8.625 0 L 1.78125 0 L 1.78125 -2.875 L 5.359375 -2.875 L 5.359375 -18.78125 L 2 -18.78125 L 2 -21.703125 Z M 14.5625 -21.703125 "/></g></g><g style="fill:#1b1b1b;fill-opacity:1;"><g transform="translate(141.220935, 402.646325)"><path style="stroke:none" d="M 14.5625 -21.703125 C 17.238281 -21.703125 19.222656 -21.082031 20.515625 -19.84375 C 21.804688 -18.613281 22.453125 -16.578125 22.453125 -13.734375 L 22.453125 0 L 19.1875 0 L 19.1875 -12.734375 C 19.1875 -14.796875 18.859375 -16.316406 18.203125 -17.296875 C 17.546875 -18.285156 16.1875 -18.78125 14.125 -18.78125 L 8.625 -18.78125 L 8.625 0 L 1.78125 0 L 1.78125 -2.875 L 5.359375 -2.875 L 5.359375 -18.78125 L 2 -18.78125 L 2 -21.703125 Z M 14.5625 -21.703125 "/></g></g><g style="fill:#1b1b1b;fill-opacity:1;"><g transform="translate(166.722068, 402.646325)"><path style="stroke:none" d="M 8.671875 -21.703125 L 8.671875 0 L 5.40625 0 L 5.40625 -18.78125 L 1 -18.78125 L 1 -21.703125 Z M 8.671875 -21.703125 "/></g></g><g style="fill:#1b1b1b;fill-opacity:1;"><g transform="translate(178.622595, 402.646325)"><path style="stroke:none" d="M 18.828125 0.34375 L 7.984375 -13.03125 C 7.253906 -11.175781 6.710938 -9.207031 6.359375 -7.125 C 6.015625 -5.050781 5.882812 -2.675781 5.96875 0 L 2.53125 0 C 2.53125 -2.96875 2.832031 -5.695312 3.4375 -8.1875 C 4.050781 -10.6875 4.953125 -13 6.140625 -15.125 L 1.78125 -19.921875 L 4.3125 -22.109375 L 14.078125 -10.0625 C 15.421875 -11.695312 16.359375 -13.035156 16.890625 -14.078125 C 17.429688 -15.128906 17.703125 -15.929688 17.703125 -16.484375 C 17.703125 -17.117188 17.484375 -17.609375 17.046875 -17.953125 C 16.609375 -18.304688 15.796875 -18.800781 14.609375 -19.4375 L 15.90625 -22.234375 C 17.882812 -21.421875 19.238281 -20.613281 19.96875 -19.8125 C 20.695312 -19.007812 21.0625 -18.234375 21.0625 -17.484375 C 21.0625 -16.203125 20.660156 -14.832031 19.859375 -13.375 C 19.054688 -11.925781 17.679688 -10.203125 15.734375 -8.203125 L 21.140625 -2.171875 Z M 18.828125 0.34375 "/></g></g><g style="fill:#1b1b1b;fill-opacity:1;"><g transform="translate(201.682593, 402.646325)"><path style="stroke:none" d="M 5.625 -8.71875 L 5.625 -18.75 L 1 -18.75 L 1 -21.671875 L 8.890625 -21.671875 L 8.890625 -8.71875 Z M 5.625 -8.71875 "/></g></g><g style="fill:#1b1b1b;fill-opacity:1;"><g transform="translate(213.801079, 402.646325)"><path style="stroke:none" d="M 19.21875 -17.484375 C 19.21875 -16.609375 19.019531 -15.738281 18.625 -14.875 C 18.238281 -14.019531 17.613281 -13.070312 16.75 -12.03125 C 15.894531 -10.988281 14.773438 -9.738281 13.390625 -8.28125 C 14.171875 -7.257812 15.023438 -6.253906 15.953125 -5.265625 C 16.878906 -4.285156 17.78125 -3.285156 18.65625 -2.265625 L 17.953125 0 L 2.265625 0 L 2.265625 -3.046875 L 10.6875 -3.046875 C 11.351562 -3.023438 12.019531 -3 12.6875 -2.96875 C 13.351562 -2.9375 14.003906 -2.90625 14.640625 -2.875 C 13.597656 -4.09375 12.53125 -5.304688 11.4375 -6.515625 C 10.351562 -7.722656 9.414062 -8.953125 8.625 -10.203125 L 2.046875 -20.796875 L 4.84375 -22.109375 L 12.078125 -10.15625 C 13.523438 -11.78125 14.53125 -13.101562 15.09375 -14.125 C 15.664062 -15.144531 15.953125 -15.929688 15.953125 -16.484375 C 15.953125 -16.972656 15.734375 -17.457031 15.296875 -17.9375 C 14.859375 -18.414062 14.046875 -18.972656 12.859375 -19.609375 L 14.171875 -22.28125 C 16.117188 -21.46875 17.445312 -20.648438 18.15625 -19.828125 C 18.863281 -19.015625 19.21875 -18.234375 19.21875 -17.484375 Z M 19.21875 -17.484375 "/></g></g><g style="fill:#1b1b1b;fill-opacity:1;"><g transform="translate(234.812275, 402.646325)"><path style="stroke:none" d="M 14.390625 -22.015625 C 16.484375 -22.015625 18.035156 -21.59375 19.046875 -20.75 C 20.066406 -19.90625 20.742188 -18.707031 21.078125 -17.15625 C 21.410156 -15.601562 21.578125 -13.734375 21.578125 -11.546875 L 21.578125 0 L 10.59375 0 L 10.9375 -2.921875 L 18.3125 -2.921875 L 18.3125 -11.6875 C 18.3125 -14.445312 17.96875 -16.367188 17.28125 -17.453125 C 16.601562 -18.546875 15.445312 -19.09375 13.8125 -19.09375 C 12.914062 -19.09375 12 -18.878906 11.0625 -18.453125 C 10.132812 -18.035156 9.179688 -17.492188 8.203125 -16.828125 L 5.96875 0 L 2.65625 0 L 5.0625 -16.78125 L 3.09375 -21.140625 L 5.96875 -22.359375 L 7.375 -19.484375 C 8.332031 -20.128906 9.410156 -20.710938 10.609375 -21.234375 C 11.816406 -21.753906 13.078125 -22.015625 14.390625 -22.015625 Z M 14.390625 -22.015625 "/></g></g><g style="fill:#1b1b1b;fill-opacity:1;"><g transform="translate(259.397992, 402.646325)"><path style="stroke:none" d="M 17.21875 0 L 17.21875 -12.734375 C 17.21875 -14.796875 16.890625 -16.316406 16.234375 -17.296875 C 15.578125 -18.285156 14.21875 -18.78125 12.15625 -18.78125 L 2.875 -18.78125 L 2.875 -21.703125 L 12.59375 -21.703125 C 15.269531 -21.703125 17.253906 -21.082031 18.546875 -19.84375 C 19.835938 -18.613281 20.484375 -16.578125 20.484375 -13.734375 L 20.484375 0 Z M 3.3125 0 L 3.3125 -11.734375 L 6.578125 -11.734375 L 6.578125 0 Z M 3.3125 0 "/></g></g><g style="fill:#1b1b1b;fill-opacity:1;"><g transform="translate(282.937509, 402.646325)"><path style="stroke:none" d="M 14.390625 -22.015625 C 16.484375 -22.015625 18.035156 -21.59375 19.046875 -20.75 C 20.066406 -19.90625 20.742188 -18.707031 21.078125 -17.15625 C 21.410156 -15.601562 21.578125 -13.734375 21.578125 -11.546875 L 21.578125 0 L 10.59375 0 L 10.9375 -2.921875 L 18.3125 -2.921875 L 18.3125 -11.6875 C 18.3125 -14.445312 17.96875 -16.367188 17.28125 -17.453125 C 16.601562 -18.546875 15.445312 -19.09375 13.8125 -19.09375 C 12.914062 -19.09375 12 -18.878906 11.0625 -18.453125 C 10.132812 -18.035156 9.179688 -17.492188 8.203125 -16.828125 L 5.96875 0 L 2.65625 0 L 5.0625 -16.78125 L 3.09375 -21.140625 L 5.96875 -22.359375 L 7.375 -19.484375 C 8.332031 -20.128906 9.410156 -20.710938 10.609375 -21.234375 C 11.816406 -21.753906 13.078125 -22.015625 14.390625 -22.015625 Z M 14.390625 -22.015625 "/></g></g><g clip-rule="nonzero" clip-path="url(#5241a704e7)"><g clip-rule="nonzero" clip-path="url(#9743513dca)"><path style=" stroke:none;fill-rule:nonzero;fill:#000000;fill-opacity:1;" d="M 404.695312 223.734375 L 416.894531 223.734375 L 416.894531 235.933594 L 404.695312 235.933594 Z M 404.695312 223.734375 "/></g></g><g clip-rule="nonzero" clip-path="url(#064fe4c21f)"><g clip-rule="nonzero" clip-path="url(#72b89428e8)"><path style=" stroke:none;fill-rule:nonzero;fill:#000000;fill-opacity:1;" d="M 406.4375 342.984375 L 418.632812 342.984375 L 418.632812 355.179688 L 406.4375 355.179688 Z M 406.4375 342.984375 "/></g></g><g style="fill:#078074;fill-opacity:1;"><g transform="translate(101.991311, 99.165539)"><path style="stroke:none" d="M 7.640625 -26.015625 C 7.054688 -25.898438 6.484375 -25.898438 5.921875 -26.015625 C 5.367188 -26.140625 4.769531 -26.171875 4.125 -26.109375 C 4.007812 -29.796875 3.976562 -33.484375 4.03125 -37.171875 C 4.09375 -40.867188 4.390625 -44.59375 4.921875 -48.34375 C 10.140625 -48.875 15.441406 -49.066406 20.828125 -48.921875 C 26.222656 -48.773438 31.765625 -48.410156 37.453125 -47.828125 C 39.910156 -47.703125 42.335938 -47.113281 44.734375 -46.0625 C 47.140625 -45.007812 49.234375 -43.601562 51.015625 -41.84375 C 52.804688 -40.082031 54.15625 -38.03125 55.0625 -35.6875 C 55.976562 -33.34375 56.203125 -30.820312 55.734375 -28.125 C 55.203125 -23.144531 54.484375 -18.265625 53.578125 -13.484375 C 52.671875 -8.710938 51.394531 -4.039062 49.75 0.53125 C 47.113281 0.882812 44.503906 1.175781 41.921875 1.40625 C 39.347656 1.644531 36.800781 1.820312 34.28125 1.9375 C 34.695312 -1.519531 35.050781 -5.003906 35.34375 -8.515625 C 35.632812 -12.035156 35.867188 -15.554688 36.046875 -19.078125 C 36.160156 -20.773438 35.953125 -22.328125 35.421875 -23.734375 C 35.078125 -24.378906 34.566406 -24.832031 33.890625 -25.09375 C 33.210938 -25.363281 32.523438 -25.46875 31.828125 -25.40625 C 31.003906 -25.34375 30.222656 -25.328125 29.484375 -25.359375 C 28.753906 -25.390625 27.976562 -25.4375 27.15625 -25.5 C 27.28125 -16.238281 27.28125 -7.035156 27.15625 2.109375 C 25.34375 2.109375 23.394531 2.0625 21.3125 1.96875 C 19.238281 1.882812 17.144531 1.785156 15.03125 1.671875 C 12.925781 1.554688 10.859375 1.378906 8.828125 1.140625 C 6.804688 0.910156 4.976562 0.648438 3.34375 0.359375 C 2.695312 -2.867188 2.359375 -5.859375 2.328125 -8.609375 C 2.296875 -11.367188 2.34375 -14.332031 2.46875 -17.5 C 3.457031 -17.4375 4.445312 -17.359375 5.4375 -17.265625 C 6.4375 -17.179688 7.4375 -17.140625 8.4375 -17.140625 C 8.257812 -18.609375 8.113281 -20.070312 8 -21.53125 C 7.882812 -23 7.765625 -24.492188 7.640625 -26.015625 Z M 7.640625 -26.015625 "/></g></g><g style="fill:#078074;fill-opacity:1;"><g transform="translate(156.927108, 99.165539)"><path style="stroke:none" d="M 3.609375 -47.125 C 6.765625 -48.289062 10 -48.695312 13.3125 -48.34375 C 16.625 -48 19.773438 -47.207031 22.765625 -45.96875 C 23.117188 -38.125 23.160156 -30.316406 22.890625 -22.546875 C 22.628906 -14.785156 22.003906 -7.066406 21.015625 0.609375 C 18.367188 1.492188 15.671875 1.960938 12.921875 2.015625 C 10.171875 2.078125 7.535156 1.640625 5.015625 0.703125 C 4.191406 -7.210938 3.632812 -15.125 3.34375 -23.03125 C 3.050781 -30.945312 3.140625 -38.976562 3.609375 -47.125 Z M 3.609375 -47.125 "/></g></g><g style="fill:#078074;fill-opacity:1;"><g transform="translate(180.044011, 99.165539)"><path style="stroke:none" d="M 3.25 -17.3125 C 6.007812 -17.019531 8.984375 -16.84375 12.171875 -16.78125 C 15.367188 -16.726562 18.375 -16.644531 21.1875 -16.53125 L 21.1875 -20.390625 C 21.238281 -21.210938 21.191406 -21.988281 21.046875 -22.71875 C 20.898438 -23.457031 20.535156 -24.117188 19.953125 -24.703125 C 18.722656 -25.234375 17.40625 -25.5 16 -25.5 C 13.882812 -25.5 11.785156 -25.5 9.703125 -25.5 C 7.628906 -25.5 5.597656 -25.523438 3.609375 -25.578125 C 3.367188 -29.328125 3.4375 -33.046875 3.8125 -36.734375 C 4.195312 -40.429688 4.597656 -44.1875 5.015625 -48 C 7.828125 -48.46875 10.519531 -48.742188 13.09375 -48.828125 C 15.675781 -48.921875 18.429688 -48.878906 21.359375 -48.703125 C 24.171875 -48.753906 26.804688 -48.164062 29.265625 -46.9375 C 31.734375 -45.707031 33.84375 -44.066406 35.59375 -42.015625 C 37.351562 -39.960938 38.65625 -37.585938 39.5 -34.890625 C 40.351562 -32.203125 40.546875 -29.421875 40.078125 -26.546875 C 40.023438 -24.847656 39.925781 -23.191406 39.78125 -21.578125 C 39.632812 -19.960938 39.441406 -18.335938 39.203125 -16.703125 C 40.085938 -16.585938 40.921875 -16.585938 41.703125 -16.703125 C 42.492188 -16.816406 43.300781 -16.90625 44.125 -16.96875 C 43.601562 -13.976562 43.078125 -11.046875 42.546875 -8.171875 C 42.015625 -5.304688 41.34375 -2.460938 40.53125 0.359375 C 34.664062 1.523438 28.757812 2.125 22.8125 2.15625 C 16.863281 2.1875 11.3125 1.703125 6.15625 0.703125 C 5.445312 -2.285156 4.875 -5.285156 4.4375 -8.296875 C 4 -11.316406 3.601562 -14.320312 3.25 -17.3125 Z M 3.25 -17.3125 "/></g></g><g style="fill:#078074;fill-opacity:1;"><g transform="translate(223.465236, 99.165539)"><path style="stroke:none" d="M 3.609375 -47.125 C 6.765625 -48.289062 10 -48.695312 13.3125 -48.34375 C 16.625 -48 19.773438 -47.207031 22.765625 -45.96875 C 23.117188 -38.125 23.160156 -30.316406 22.890625 -22.546875 C 22.628906 -14.785156 22.003906 -7.066406 21.015625 0.609375 C 18.367188 1.492188 15.671875 1.960938 12.921875 2.015625 C 10.171875 2.078125 7.535156 1.640625 5.015625 0.703125 C 4.191406 -7.210938 3.632812 -15.125 3.34375 -23.03125 C 3.050781 -30.945312 3.140625 -38.976562 3.609375 -47.125 Z M 3.609375 -47.125 "/></g></g><g style="fill:#078074;fill-opacity:1;"><g transform="translate(246.582139, 99.165539)"><path style="stroke:none" d="M 21.625 2.015625 C 21.382812 0.316406 21.132812 -1.363281 20.875 -3.03125 C 20.613281 -4.695312 20.335938 -6.382812 20.046875 -8.09375 C 19.804688 -7.5 19.613281 -6.921875 19.46875 -6.359375 C 19.320312 -5.804688 19.132812 -5.269531 18.90625 -4.75 C 18.601562 -3.863281 18.234375 -2.96875 17.796875 -2.0625 C 17.359375 -1.15625 16.816406 -0.335938 16.171875 0.390625 C 15.523438 1.128906 14.773438 1.6875 13.921875 2.0625 C 13.078125 2.445312 12.128906 2.550781 11.078125 2.375 C 10.367188 2.3125 9.660156 2.207031 8.953125 2.0625 C 8.253906 1.914062 7.554688 1.753906 6.859375 1.578125 C 6.328125 -1.234375 5.828125 -4.070312 5.359375 -6.9375 C 4.890625 -9.8125 4.507812 -12.6875 4.21875 -15.5625 C 6.269531 -15.96875 8.304688 -16.535156 10.328125 -17.265625 C 12.347656 -18.003906 14.414062 -18.722656 16.53125 -19.421875 C 17.175781 -19.597656 17.6875 -19.976562 18.0625 -20.5625 C 18.445312 -21.15625 18.648438 -21.785156 18.671875 -22.453125 C 18.703125 -23.128906 18.554688 -23.742188 18.234375 -24.296875 C 17.910156 -24.859375 17.398438 -25.195312 16.703125 -25.3125 C 14.765625 -25.4375 12.8125 -25.484375 10.84375 -25.453125 C 8.882812 -25.421875 6.96875 -25.4375 5.09375 -25.5 C 4.75 -32.757812 4.925781 -40.171875 5.625 -47.734375 C 8.4375 -48.378906 11.289062 -48.6875 14.1875 -48.65625 C 17.09375 -48.625 20.039062 -48.492188 23.03125 -48.265625 C 25.195312 -48.203125 27.203125 -47.65625 29.046875 -46.625 C 30.898438 -45.601562 32.484375 -44.269531 33.796875 -42.625 C 35.117188 -40.988281 36.101562 -39.113281 36.75 -37 C 37.394531 -34.894531 37.597656 -32.757812 37.359375 -30.59375 C 37.242188 -25.257812 36.878906 -20.015625 36.265625 -14.859375 C 35.648438 -9.703125 34.84375 -4.570312 33.84375 0.53125 C 31.789062 1.050781 29.738281 1.414062 27.6875 1.625 C 25.632812 1.832031 23.613281 1.960938 21.625 2.015625 Z M 21.625 2.015625 "/></g></g><g style="fill:#078074;fill-opacity:1;"><g transform="translate(284.729517, 99.165539)"><path style="stroke:none" d="M 7.640625 -26.015625 C 7.054688 -25.898438 6.484375 -25.898438 5.921875 -26.015625 C 5.367188 -26.140625 4.769531 -26.171875 4.125 -26.109375 C 4.007812 -29.796875 3.976562 -33.484375 4.03125 -37.171875 C 4.09375 -40.867188 4.390625 -44.59375 4.921875 -48.34375 C 10.140625 -48.875 15.441406 -49.066406 20.828125 -48.921875 C 26.222656 -48.773438 31.765625 -48.410156 37.453125 -47.828125 C 39.910156 -47.703125 42.335938 -47.113281 44.734375 -46.0625 C 47.140625 -45.007812 49.234375 -43.601562 51.015625 -41.84375 C 52.804688 -40.082031 54.15625 -38.03125 55.0625 -35.6875 C 55.976562 -33.34375 56.203125 -30.820312 55.734375 -28.125 C 55.203125 -23.144531 54.484375 -18.265625 53.578125 -13.484375 C 52.671875 -8.710938 51.394531 -4.039062 49.75 0.53125 C 47.113281 0.882812 44.503906 1.175781 41.921875 1.40625 C 39.347656 1.644531 36.800781 1.820312 34.28125 1.9375 C 34.695312 -1.519531 35.050781 -5.003906 35.34375 -8.515625 C 35.632812 -12.035156 35.867188 -15.554688 36.046875 -19.078125 C 36.160156 -20.773438 35.953125 -22.328125 35.421875 -23.734375 C 35.078125 -24.378906 34.566406 -24.832031 33.890625 -25.09375 C 33.210938 -25.363281 32.523438 -25.46875 31.828125 -25.40625 C 31.003906 -25.34375 30.222656 -25.328125 29.484375 -25.359375 C 28.753906 -25.390625 27.976562 -25.4375 27.15625 -25.5 C 27.28125 -16.238281 27.28125 -7.035156 27.15625 2.109375 C 25.34375 2.109375 23.394531 2.0625 21.3125 1.96875 C 19.238281 1.882812 17.144531 1.785156 15.03125 1.671875 C 12.925781 1.554688 10.859375 1.378906 8.828125 1.140625 C 6.804688 0.910156 4.976562 0.648438 3.34375 0.359375 C 2.695312 -2.867188 2.359375 -5.859375 2.328125 -8.609375 C 2.296875 -11.367188 2.34375 -14.332031 2.46875 -17.5 C 3.457031 -17.4375 4.445312 -17.359375 5.4375 -17.265625 C 6.4375 -17.179688 7.4375 -17.140625 8.4375 -17.140625 C 8.257812 -18.609375 8.113281 -20.070312 8 -21.53125 C 7.882812 -23 7.765625 -24.492188 7.640625 -26.015625 Z M 7.640625 -26.015625 "/></g></g><g style="fill:#078074;fill-opacity:1;"><g transform="translate(97.730468, 173.332296)"><path style="stroke:none" d="M 7.640625 -26.015625 C 7.054688 -25.898438 6.484375 -25.898438 5.921875 -26.015625 C 5.367188 -26.140625 4.769531 -26.171875 4.125 -26.109375 C 4.007812 -29.796875 3.976562 -33.484375 4.03125 -37.171875 C 4.09375 -40.867188 4.390625 -44.59375 4.921875 -48.34375 C 10.140625 -48.875 15.441406 -49.066406 20.828125 -48.921875 C 26.222656 -48.773438 31.765625 -48.410156 37.453125 -47.828125 C 39.910156 -47.703125 42.335938 -47.113281 44.734375 -46.0625 C 47.140625 -45.007812 49.234375 -43.601562 51.015625 -41.84375 C 52.804688 -40.082031 54.15625 -38.03125 55.0625 -35.6875 C 55.976562 -33.34375 56.203125 -30.820312 55.734375 -28.125 C 55.203125 -23.144531 54.484375 -18.265625 53.578125 -13.484375 C 52.671875 -8.710938 51.394531 -4.039062 49.75 0.53125 C 47.113281 0.882812 44.503906 1.175781 41.921875 1.40625 C 39.347656 1.644531 36.800781 1.820312 34.28125 1.9375 C 34.695312 -1.519531 35.050781 -5.003906 35.34375 -8.515625 C 35.632812 -12.035156 35.867188 -15.554688 36.046875 -19.078125 C 36.160156 -20.773438 35.953125 -22.328125 35.421875 -23.734375 C 35.078125 -24.378906 34.566406 -24.832031 33.890625 -25.09375 C 33.210938 -25.363281 32.523438 -25.46875 31.828125 -25.40625 C 31.003906 -25.34375 30.222656 -25.328125 29.484375 -25.359375 C 28.753906 -25.390625 27.976562 -25.4375 27.15625 -25.5 C 27.28125 -16.238281 27.28125 -7.035156 27.15625 2.109375 C 25.34375 2.109375 23.394531 2.0625 21.3125 1.96875 C 19.238281 1.882812 17.144531 1.785156 15.03125 1.671875 C 12.925781 1.554688 10.859375 1.378906 8.828125 1.140625 C 6.804688 0.910156 4.976562 0.648438 3.34375 0.359375 C 2.695312 -2.867188 2.359375 -5.859375 2.328125 -8.609375 C 2.296875 -11.367188 2.34375 -14.332031 2.46875 -17.5 C 3.457031 -17.4375 4.445312 -17.359375 5.4375 -17.265625 C 6.4375 -17.179688 7.4375 -17.140625 8.4375 -17.140625 C 8.257812 -18.609375 8.113281 -20.070312 8 -21.53125 C 7.882812 -23 7.765625 -24.492188 7.640625 -26.015625 Z M 7.640625 -26.015625 "/></g></g><g style="fill:#078074;fill-opacity:1;"><g transform="translate(152.666266, 173.332296)"><path style="stroke:none" d="M 3.609375 -47.125 C 6.765625 -48.289062 10 -48.695312 13.3125 -48.34375 C 16.625 -48 19.773438 -47.207031 22.765625 -45.96875 C 23.117188 -38.125 23.160156 -30.316406 22.890625 -22.546875 C 22.628906 -14.785156 22.003906 -7.066406 21.015625 0.609375 C 18.367188 1.492188 15.671875 1.960938 12.921875 2.015625 C 10.171875 2.078125 7.535156 1.640625 5.015625 0.703125 C 4.191406 -7.210938 3.632812 -15.125 3.34375 -23.03125 C 3.050781 -30.945312 3.140625 -38.976562 3.609375 -47.125 Z M 3.609375 -47.125 "/></g></g><g style="fill:#078074;fill-opacity:1;"><g transform="translate(175.783169, 173.332296)"><path style="stroke:none" d="M 3.875 -47.125 C 7.09375 -47.882812 10.3125 -48.054688 13.53125 -47.640625 C 16.757812 -47.234375 19.984375 -46.675781 23.203125 -45.96875 C 23.554688 -40.9375 23.613281 -35.898438 23.375 -30.859375 C 23.144531 -25.816406 22.5625 -20.773438 21.625 -15.734375 C 15.757812 -14.566406 10.132812 -14.742188 4.75 -16.265625 C 3.925781 -21.242188 3.425781 -26.3125 3.25 -31.46875 C 3.070312 -36.625 3.28125 -41.84375 3.875 -47.125 Z M 3.875 -47.125 "/></g></g><g style="fill:#078074;fill-opacity:1;"><g transform="translate(199.33957, 173.332296)"><path style="stroke:none" d="M 4.21875 -25.40625 C 4.101562 -28.976562 4.070312 -32.640625 4.125 -36.390625 C 4.1875 -40.140625 4.394531 -43.863281 4.75 -47.5625 C 7.445312 -48.207031 10.171875 -48.515625 12.921875 -48.484375 C 15.671875 -48.453125 18.453125 -48.289062 21.265625 -48 C 22.796875 -47.707031 24.191406 -47.101562 25.453125 -46.1875 C 26.710938 -45.28125 27.78125 -44.195312 28.65625 -42.9375 C 29.53125 -41.675781 30.203125 -40.269531 30.671875 -38.71875 C 31.140625 -37.164062 31.375 -35.597656 31.375 -34.015625 C 31.207031 -28.160156 30.859375 -22.34375 30.328125 -16.5625 C 29.796875 -10.789062 29.035156 -5.066406 28.046875 0.609375 C 24.117188 1.546875 20.203125 2.015625 16.296875 2.015625 C 12.398438 2.015625 8.609375 1.460938 4.921875 0.359375 C 4.453125 -2.578125 4.023438 -5.507812 3.640625 -8.4375 C 3.265625 -11.363281 3.019531 -14.320312 2.90625 -17.3125 C 4.25 -17.132812 5.59375 -16.988281 6.9375 -16.875 C 8.289062 -16.757812 9.640625 -16.671875 10.984375 -16.609375 L 11.421875 -17.046875 C 11.421875 -17.640625 11.40625 -18.179688 11.375 -18.671875 C 11.351562 -19.171875 11.367188 -19.6875 11.421875 -20.21875 C 11.597656 -21.976562 11.128906 -23.503906 10.015625 -24.796875 C 9.546875 -25.085938 9.03125 -25.242188 8.46875 -25.265625 C 7.914062 -25.296875 7.378906 -25.3125 6.859375 -25.3125 C 6.390625 -25.4375 5.945312 -25.453125 5.53125 -25.359375 C 5.125 -25.273438 4.6875 -25.289062 4.21875 -25.40625 Z M 4.21875 -25.40625 "/></g></g><g style="fill:#078074;fill-opacity:1;"><g transform="translate(231.861509, 173.332296)"><path style="stroke:none" d="M 23.390625 -18.984375 C 19.929688 -19.097656 16.554688 -19.210938 13.265625 -19.328125 C 9.984375 -19.453125 6.734375 -19.570312 3.515625 -19.6875 C 3.046875 -24.4375 2.765625 -29.15625 2.671875 -33.84375 C 2.585938 -38.53125 2.898438 -43.304688 3.609375 -48.171875 C 8.585938 -48.816406 13.566406 -49.050781 18.546875 -48.875 C 23.523438 -48.695312 28.65625 -48.347656 33.9375 -47.828125 C 36.976562 -47.472656 39.710938 -46.441406 42.140625 -44.734375 C 44.578125 -43.035156 46.554688 -40.941406 48.078125 -38.453125 C 49.609375 -35.960938 50.648438 -33.191406 51.203125 -30.140625 C 51.765625 -27.097656 51.722656 -24.082031 51.078125 -21.09375 C 50.785156 -18.457031 50.125 -15.804688 49.09375 -13.140625 C 48.070312 -10.472656 46.722656 -8.054688 45.046875 -5.890625 C 43.378906 -3.722656 41.398438 -1.921875 39.109375 -0.484375 C 36.828125 0.953125 34.28125 1.757812 31.46875 1.9375 C 29.363281 2.050781 27.179688 2.109375 24.921875 2.109375 C 22.660156 2.109375 20.398438 2.050781 18.140625 1.9375 C 15.890625 1.820312 13.691406 1.660156 11.546875 1.453125 C 9.410156 1.242188 7.378906 0.992188 5.453125 0.703125 C 5.160156 -2.285156 4.925781 -5.300781 4.75 -8.34375 C 4.570312 -11.394531 4.28125 -14.414062 3.875 -17.40625 C 7.625 -17.050781 11.429688 -16.828125 15.296875 -16.734375 C 19.160156 -16.648438 23.113281 -16.550781 27.15625 -16.4375 C 27.75 -16.4375 28.363281 -16.4375 29 -16.4375 C 29.644531 -16.4375 30.265625 -16.582031 30.859375 -16.875 C 31.441406 -17.164062 31.75 -17.617188 31.78125 -18.234375 C 31.8125 -18.847656 31.882812 -19.421875 32 -19.953125 C 31.9375 -20.242188 31.976562 -20.566406 32.125 -20.921875 C 32.269531 -21.273438 32.285156 -21.628906 32.171875 -21.984375 C 32.234375 -22.566406 32.175781 -23.148438 32 -23.734375 C 31.820312 -24.316406 31.5 -24.84375 31.03125 -25.3125 C 30.5 -25.488281 29.953125 -25.5625 29.390625 -25.53125 C 28.835938 -25.507812 28.269531 -25.523438 27.6875 -25.578125 C 27.039062 -25.523438 26.351562 -25.507812 25.625 -25.53125 C 24.894531 -25.5625 24.207031 -25.609375 23.5625 -25.671875 L 23.296875 -25.578125 C 23.234375 -24.460938 23.234375 -23.378906 23.296875 -22.328125 C 23.359375 -21.273438 23.390625 -20.160156 23.390625 -18.984375 Z M 23.390625 -18.984375 "/></g></g><g style="fill:#078074;fill-opacity:1;"><g transform="translate(282.666117, 173.332296)"><path style="stroke:none" d="M 3.609375 -47.125 C 6.765625 -48.289062 10 -48.695312 13.3125 -48.34375 C 16.625 -48 19.773438 -47.207031 22.765625 -45.96875 C 23.117188 -38.125 23.160156 -30.316406 22.890625 -22.546875 C 22.628906 -14.785156 22.003906 -7.066406 21.015625 0.609375 C 18.367188 1.492188 15.671875 1.960938 12.921875 2.015625 C 10.171875 2.078125 7.535156 1.640625 5.015625 0.703125 C 4.191406 -7.210938 3.632812 -15.125 3.34375 -23.03125 C 3.050781 -30.945312 3.140625 -38.976562 3.609375 -47.125 Z M 3.609375 -47.125 "/></g></g><g style="fill:#078074;fill-opacity:1;"><g transform="translate(305.78302, 173.332296)"><path style="stroke:none" d="M 21.625 2.015625 C 21.382812 0.316406 21.132812 -1.363281 20.875 -3.03125 C 20.613281 -4.695312 20.335938 -6.382812 20.046875 -8.09375 C 19.804688 -7.5 19.613281 -6.921875 19.46875 -6.359375 C 19.320312 -5.804688 19.132812 -5.269531 18.90625 -4.75 C 18.601562 -3.863281 18.234375 -2.96875 17.796875 -2.0625 C 17.359375 -1.15625 16.816406 -0.335938 16.171875 0.390625 C 15.523438 1.128906 14.773438 1.6875 13.921875 2.0625 C 13.078125 2.445312 12.128906 2.550781 11.078125 2.375 C 10.367188 2.3125 9.660156 2.207031 8.953125 2.0625 C 8.253906 1.914062 7.554688 1.753906 6.859375 1.578125 C 6.328125 -1.234375 5.828125 -4.070312 5.359375 -6.9375 C 4.890625 -9.8125 4.507812 -12.6875 4.21875 -15.5625 C 6.269531 -15.96875 8.304688 -16.535156 10.328125 -17.265625 C 12.347656 -18.003906 14.414062 -18.722656 16.53125 -19.421875 C 17.175781 -19.597656 17.6875 -19.976562 18.0625 -20.5625 C 18.445312 -21.15625 18.648438 -21.785156 18.671875 -22.453125 C 18.703125 -23.128906 18.554688 -23.742188 18.234375 -24.296875 C 17.910156 -24.859375 17.398438 -25.195312 16.703125 -25.3125 C 14.765625 -25.4375 12.8125 -25.484375 10.84375 -25.453125 C 8.882812 -25.421875 6.96875 -25.4375 5.09375 -25.5 C 4.75 -32.757812 4.925781 -40.171875 5.625 -47.734375 C 8.4375 -48.378906 11.289062 -48.6875 14.1875 -48.65625 C 17.09375 -48.625 20.039062 -48.492188 23.03125 -48.265625 C 25.195312 -48.203125 27.203125 -47.65625 29.046875 -46.625 C 30.898438 -45.601562 32.484375 -44.269531 33.796875 -42.625 C 35.117188 -40.988281 36.101562 -39.113281 36.75 -37 C 37.394531 -34.894531 37.597656 -32.757812 37.359375 -30.59375 C 37.242188 -25.257812 36.878906 -20.015625 36.265625 -14.859375 C 35.648438 -9.703125 34.84375 -4.570312 33.84375 0.53125 C 31.789062 1.050781 29.738281 1.414062 27.6875 1.625 C 25.632812 1.832031 23.613281 1.960938 21.625 2.015625 Z M 21.625 2.015625 "/></g></g></g></svg>