<svg xmlns="http://www.w3.org/2000/svg" xmlns:xlink="http://www.w3.org/1999/xlink" width="617" zoomAndPan="magnify" viewBox="0 0 462.75 493.49999" height="658" preserveAspectRatio="xMidYMid meet" version="1.2"><defs><clipPath id="d2b6ad9dba"><path d="M 12.351562 10.5 L 449.910156 10.5 L 449.910156 492.261719 L 12.351562 492.261719 Z M 12.351562 10.5 "/></clipPath><clipPath id="c53b5fe08c"><path d="M 70.765625 10.5 L 391.492188 10.5 C 406.984375 10.5 421.84375 16.652344 432.796875 27.609375 C 443.753906 38.5625 449.90625 53.421875 449.90625 68.914062 L 449.90625 433.710938 C 449.90625 449.203125 443.753906 464.0625 432.796875 475.015625 C 421.84375 485.972656 406.984375 492.125 391.492188 492.125 L 70.765625 492.125 C 55.273438 492.125 40.417969 485.972656 29.460938 475.015625 C 18.507812 464.0625 12.351562 449.203125 12.351562 433.710938 L 12.351562 68.914062 C 12.351562 53.421875 18.507812 38.5625 29.460938 27.609375 C 40.417969 16.652344 55.273438 10.5 70.765625 10.5 Z M 70.765625 10.5 "/></clipPath><clipPath id="e101a17663"><path d="M 420.929688 223.734375 L 433.128906 223.734375 L 433.128906 235.929688 L 420.929688 235.929688 Z M 420.929688 223.734375 "/></clipPath><clipPath id="eabfc767bc"><path d="M 427.027344 223.734375 C 423.660156 223.734375 420.929688 226.464844 420.929688 229.832031 C 420.929688 233.199219 423.660156 235.929688 427.027344 235.929688 C 430.398438 235.929688 433.128906 233.199219 433.128906 229.832031 C 433.128906 226.464844 430.398438 223.734375 427.027344 223.734375 Z M 427.027344 223.734375 "/></clipPath><clipPath id="2e410929f1"><path d="M 420.929688 342.632812 L 433.128906 342.632812 L 433.128906 354.832031 L 420.929688 354.832031 Z M 420.929688 342.632812 "/></clipPath><clipPath id="a4a3dbbe44"><path d="M 427.027344 342.632812 C 423.660156 342.632812 420.929688 345.363281 420.929688 348.734375 C 420.929688 352.101562 423.660156 354.832031 427.027344 354.832031 C 430.398438 354.832031 433.128906 352.101562 433.128906 348.734375 C 433.128906 345.363281 430.398438 342.632812 427.027344 342.632812 Z M 427.027344 342.632812 "/></clipPath></defs><g id="8982f3832f"><g clip-rule="nonzero" clip-path="url(#d2b6ad9dba)"><g clip-rule="nonzero" clip-path="url(#c53b5fe08c)"><path style="fill:none;stroke-width:12;stroke-linecap:butt;stroke-linejoin:miter;stroke:#285256;stroke-opacity:1;stroke-miterlimit:4;" d="M 77.99633 0.000453619 L 506.248278 0.000453619 C 526.934308 0.000453619 546.775372 8.215405 561.400594 22.845843 C 576.031032 37.471065 584.245983 57.312129 584.245983 77.998159 L 584.245983 565.09524 C 584.245983 585.781271 576.031032 605.622335 561.400594 620.247557 C 546.775372 634.877995 526.934308 643.092946 506.248278 643.092946 L 77.99633 643.092946 C 57.310299 643.092946 37.474451 634.877995 22.844013 620.247557 C 8.218791 605.622335 -0.00137626 585.781271 -0.00137626 565.09524 L -0.00137626 77.998159 C -0.00137626 57.312129 8.218791 37.471065 22.844013 22.845843 C 37.474451 8.215405 57.310299 0.000453619 77.99633 0.000453619 Z M 77.99633 0.000453619 " transform="matrix(0.74892,0,0,0.74892,12.352593,10.49966)"/></g></g><g clip-rule="nonzero" clip-path="url(#e101a17663)"><g clip-rule="nonzero" clip-path="url(#eabfc767bc)"><path style=" stroke:none;fill-rule:nonzero;fill:#000000;fill-opacity:1;" d="M 420.929688 223.734375 L 433.128906 223.734375 L 433.128906 235.929688 L 420.929688 235.929688 Z M 420.929688 223.734375 "/></g></g><g clip-rule="nonzero" clip-path="url(#2e410929f1)"><g clip-rule="nonzero" clip-path="url(#a4a3dbbe44)"><path style=" stroke:none;fill-rule:nonzero;fill:#000000;fill-opacity:1;" d="M 420.929688 342.632812 L 433.128906 342.632812 L 433.128906 354.832031 L 420.929688 354.832031 Z M 420.929688 342.632812 "/></g></g><g style="fill:#078074;fill-opacity:1;"><g transform="translate(43.893393, 99.149433)"><path style="stroke:none" d="M 7.640625 -26.015625 C 7.054688 -25.898438 6.484375 -25.898438 5.921875 -26.015625 C 5.367188 -26.140625 4.769531 -26.171875 4.125 -26.109375 C 4.007812 -29.796875 3.976562 -33.484375 4.03125 -37.171875 C 4.09375 -40.867188 4.390625 -44.59375 4.921875 -48.34375 C 10.140625 -48.875 15.441406 -49.066406 20.828125 -48.921875 C 26.222656 -48.773438 31.765625 -48.410156 37.453125 -47.828125 C 39.910156 -47.703125 42.335938 -47.113281 44.734375 -46.0625 C 47.140625 -45.007812 49.234375 -43.601562 51.015625 -41.84375 C 52.804688 -40.082031 54.15625 -38.03125 55.0625 -35.6875 C 55.976562 -33.34375 56.203125 -30.820312 55.734375 -28.125 C 55.203125 -23.144531 54.484375 -18.265625 53.578125 -13.484375 C 52.671875 -8.710938 51.394531 -4.039062 49.75 0.53125 C 47.113281 0.882812 44.503906 1.175781 41.921875 1.40625 C 39.347656 1.644531 36.800781 1.820312 34.28125 1.9375 C 34.695312 -1.519531 35.050781 -5.003906 35.34375 -8.515625 C 35.632812 -12.035156 35.867188 -15.554688 36.046875 -19.078125 C 36.160156 -20.773438 35.953125 -22.328125 35.421875 -23.734375 C 35.078125 -24.378906 34.566406 -24.832031 33.890625 -25.09375 C 33.210938 -25.363281 32.523438 -25.46875 31.828125 -25.40625 C 31.003906 -25.34375 30.222656 -25.328125 29.484375 -25.359375 C 28.753906 -25.390625 27.976562 -25.4375 27.15625 -25.5 C 27.28125 -16.238281 27.28125 -7.035156 27.15625 2.109375 C 25.34375 2.109375 23.394531 2.0625 21.3125 1.96875 C 19.238281 1.882812 17.144531 1.785156 15.03125 1.671875 C 12.925781 1.554688 10.859375 1.378906 8.828125 1.140625 C 6.804688 0.910156 4.976562 0.648438 3.34375 0.359375 C 2.695312 -2.867188 2.359375 -5.859375 2.328125 -8.609375 C 2.296875 -11.367188 2.34375 -14.332031 2.46875 -17.5 C 3.457031 -17.4375 4.445312 -17.359375 5.4375 -17.265625 C 6.4375 -17.179688 7.4375 -17.140625 8.4375 -17.140625 C 8.257812 -18.609375 8.113281 -20.070312 8 -21.53125 C 7.882812 -23 7.765625 -24.492188 7.640625 -26.015625 Z M 7.640625 -26.015625 "/></g></g><g style="fill:#078074;fill-opacity:1;"><g transform="translate(98.83518, 99.149433)"><path style="stroke:none" d="M 3.609375 -47.125 C 6.765625 -48.289062 10 -48.695312 13.3125 -48.34375 C 16.625 -48 19.773438 -47.207031 22.765625 -45.96875 C 23.117188 -38.125 23.160156 -30.316406 22.890625 -22.546875 C 22.628906 -14.785156 22.003906 -7.066406 21.015625 0.609375 C 18.367188 1.492188 15.671875 1.960938 12.921875 2.015625 C 10.171875 2.078125 7.535156 1.640625 5.015625 0.703125 C 4.191406 -7.210938 3.632812 -15.125 3.34375 -23.03125 C 3.050781 -30.945312 3.140625 -38.976562 3.609375 -47.125 Z M 3.609375 -47.125 "/></g></g><g style="fill:#078074;fill-opacity:1;"><g transform="translate(121.954603, 99.149433)"><path style="stroke:none" d="M 3.875 -47.125 C 7.09375 -47.882812 10.3125 -48.054688 13.53125 -47.640625 C 16.757812 -47.234375 19.984375 -46.675781 23.203125 -45.96875 C 23.554688 -40.9375 23.613281 -35.898438 23.375 -30.859375 C 23.144531 -25.816406 22.5625 -20.773438 21.625 -15.734375 C 15.757812 -14.566406 10.132812 -14.742188 4.75 -16.265625 C 3.925781 -21.242188 3.425781 -26.3125 3.25 -31.46875 C 3.070312 -36.625 3.28125 -41.84375 3.875 -47.125 Z M 3.875 -47.125 "/></g></g><g style="fill:#078074;fill-opacity:1;"><g transform="translate(145.513573, 99.149433)"><path style="stroke:none" d="M 3.609375 -47.125 C 6.765625 -48.289062 10 -48.695312 13.3125 -48.34375 C 16.625 -48 19.773438 -47.207031 22.765625 -45.96875 C 23.117188 -38.125 23.160156 -30.316406 22.890625 -22.546875 C 22.628906 -14.785156 22.003906 -7.066406 21.015625 0.609375 C 18.367188 1.492188 15.671875 1.960938 12.921875 2.015625 C 10.171875 2.078125 7.535156 1.640625 5.015625 0.703125 C 4.191406 -7.210938 3.632812 -15.125 3.34375 -23.03125 C 3.050781 -30.945312 3.140625 -38.976562 3.609375 -47.125 Z M 3.609375 -47.125 "/></g></g><g style="fill:#078074;fill-opacity:1;"><g transform="translate(168.632997, 99.149433)"><path style="stroke:none" d="M 4.828125 -17.140625 C 7.054688 -17.023438 9.296875 -16.90625 11.546875 -16.78125 C 13.804688 -16.664062 16.082031 -16.609375 18.375 -16.609375 C 15.382812 -20.304688 12.453125 -23.957031 9.578125 -27.5625 C 6.710938 -31.164062 3.957031 -34.84375 1.3125 -38.59375 C 1.3125 -40.175781 1.328125 -41.769531 1.359375 -43.375 C 1.390625 -44.988281 1.492188 -46.585938 1.671875 -48.171875 C 4.484375 -48.460938 7.296875 -48.664062 10.109375 -48.78125 C 12.921875 -48.90625 15.765625 -48.878906 18.640625 -48.703125 C 20.335938 -45.179688 22.148438 -41.734375 24.078125 -38.359375 C 26.015625 -34.992188 27.953125 -31.582031 29.890625 -28.125 C 30.003906 -31.46875 30.046875 -34.796875 30.015625 -38.109375 C 29.984375 -41.421875 29.910156 -44.71875 29.796875 -48 C 33.023438 -47.707031 36.28125 -47.351562 39.5625 -46.9375 C 42.84375 -46.53125 46.179688 -46.035156 49.578125 -45.453125 C 49.753906 -43.804688 49.859375 -42.101562 49.890625 -40.34375 C 49.921875 -38.59375 49.847656 -36.835938 49.671875 -35.078125 C 49.785156 -33.203125 49.535156 -31.425781 48.921875 -29.75 C 48.304688 -28.082031 47.46875 -26.5 46.40625 -25 C 45.351562 -23.507812 44.125 -22.132812 42.71875 -20.875 C 41.3125 -19.613281 39.90625 -18.457031 38.5 -17.40625 C 39.851562 -15.707031 41.082031 -13.929688 42.1875 -12.078125 C 43.300781 -10.234375 44.476562 -8.40625 45.71875 -6.59375 C 45.476562 -5.363281 45.195312 -4.132812 44.875 -2.90625 C 44.550781 -1.675781 44.210938 -0.472656 43.859375 0.703125 C 37.472656 1.703125 31.273438 2.203125 25.265625 2.203125 C 19.265625 2.203125 13.453125 1.820312 7.828125 1.0625 C 7.179688 -1.925781 6.609375 -4.945312 6.109375 -8 C 5.609375 -11.050781 5.179688 -14.097656 4.828125 -17.140625 Z M 4.828125 -17.140625 "/></g></g><g style="fill:#078074;fill-opacity:1;"><g transform="translate(217.157568, 99.149433)"><path style="stroke:none" d="M 22.859375 2.015625 C 22.972656 -1.316406 23.070312 -4.65625 23.15625 -8 C 23.25 -11.34375 23.265625 -14.679688 23.203125 -18.015625 C 23.203125 -19.191406 23.082031 -20.347656 22.84375 -21.484375 C 22.613281 -22.628906 22.085938 -23.671875 21.265625 -24.609375 C 20.628906 -25.078125 19.882812 -25.328125 19.03125 -25.359375 C 18.175781 -25.390625 17.367188 -25.4375 16.609375 -25.5 C 14.210938 -25.550781 11.851562 -25.5625 9.53125 -25.53125 C 7.21875 -25.507812 4.945312 -25.554688 2.71875 -25.671875 C 2.601562 -29.359375 2.5625 -33.019531 2.59375 -36.65625 C 2.625 -40.289062 2.875 -44.015625 3.34375 -47.828125 C 6.738281 -48.460938 10.164062 -48.765625 13.625 -48.734375 C 17.082031 -48.710938 20.570312 -48.582031 24.09375 -48.34375 C 26.78125 -48.050781 29.328125 -47.242188 31.734375 -45.921875 C 34.140625 -44.609375 36.207031 -42.925781 37.9375 -40.875 C 39.664062 -38.820312 40.96875 -36.488281 41.84375 -33.875 C 42.71875 -31.269531 43.007812 -28.535156 42.71875 -25.671875 C 42.3125 -21.210938 41.785156 -16.800781 41.140625 -12.4375 C 40.492188 -8.070312 39.585938 -3.75 38.421875 0.53125 C 35.773438 1.050781 33.160156 1.414062 30.578125 1.625 C 28.003906 1.832031 25.429688 1.960938 22.859375 2.015625 Z M 22.859375 2.015625 "/></g></g><g style="fill:#078074;fill-opacity:1;"><g transform="translate(260.407717, 99.149433)"><path style="stroke:none" d="M 23.390625 -18.984375 C 19.929688 -19.097656 16.554688 -19.210938 13.265625 -19.328125 C 9.984375 -19.453125 6.734375 -19.570312 3.515625 -19.6875 C 3.046875 -24.4375 2.765625 -29.15625 2.671875 -33.84375 C 2.585938 -38.53125 2.898438 -43.304688 3.609375 -48.171875 C 8.585938 -48.816406 13.566406 -49.050781 18.546875 -48.875 C 23.523438 -48.695312 28.65625 -48.347656 33.9375 -47.828125 C 36.976562 -47.472656 39.710938 -46.441406 42.140625 -44.734375 C 44.578125 -43.035156 46.554688 -40.941406 48.078125 -38.453125 C 49.609375 -35.960938 50.648438 -33.191406 51.203125 -30.140625 C 51.765625 -27.097656 51.722656 -24.082031 51.078125 -21.09375 C 50.785156 -18.457031 50.125 -15.804688 49.09375 -13.140625 C 48.070312 -10.472656 46.722656 -8.054688 45.046875 -5.890625 C 43.378906 -3.722656 41.398438 -1.921875 39.109375 -0.484375 C 36.828125 0.953125 34.28125 1.757812 31.46875 1.9375 C 29.363281 2.050781 27.179688 2.109375 24.921875 2.109375 C 22.660156 2.109375 20.398438 2.050781 18.140625 1.9375 C 15.890625 1.820312 13.691406 1.660156 11.546875 1.453125 C 9.410156 1.242188 7.378906 0.992188 5.453125 0.703125 C 5.160156 -2.285156 4.925781 -5.300781 4.75 -8.34375 C 4.570312 -11.394531 4.28125 -14.414062 3.875 -17.40625 C 7.625 -17.050781 11.429688 -16.828125 15.296875 -16.734375 C 19.160156 -16.648438 23.113281 -16.550781 27.15625 -16.4375 C 27.75 -16.4375 28.363281 -16.4375 29 -16.4375 C 29.644531 -16.4375 30.265625 -16.582031 30.859375 -16.875 C 31.441406 -17.164062 31.75 -17.617188 31.78125 -18.234375 C 31.8125 -18.847656 31.882812 -19.421875 32 -19.953125 C 31.9375 -20.242188 31.976562 -20.566406 32.125 -20.921875 C 32.269531 -21.273438 32.285156 -21.628906 32.171875 -21.984375 C 32.234375 -22.566406 32.175781 -23.148438 32 -23.734375 C 31.820312 -24.316406 31.5 -24.84375 31.03125 -25.3125 C 30.5 -25.488281 29.953125 -25.5625 29.390625 -25.53125 C 28.835938 -25.507812 28.269531 -25.523438 27.6875 -25.578125 C 27.039062 -25.523438 26.351562 -25.507812 25.625 -25.53125 C 24.894531 -25.5625 24.207031 -25.609375 23.5625 -25.671875 L 23.296875 -25.578125 C 23.234375 -24.460938 23.234375 -23.378906 23.296875 -22.328125 C 23.359375 -21.273438 23.390625 -20.160156 23.390625 -18.984375 Z M 23.390625 -18.984375 "/></g></g><g style="fill:#078074;fill-opacity:1;"><g transform="translate(311.217853, 99.149433)"><path style="stroke:none" d="M 7.640625 -26.015625 C 7.054688 -25.898438 6.484375 -25.898438 5.921875 -26.015625 C 5.367188 -26.140625 4.769531 -26.171875 4.125 -26.109375 C 4.007812 -29.796875 3.976562 -33.484375 4.03125 -37.171875 C 4.09375 -40.867188 4.390625 -44.59375 4.921875 -48.34375 C 10.140625 -48.875 15.441406 -49.066406 20.828125 -48.921875 C 26.222656 -48.773438 31.765625 -48.410156 37.453125 -47.828125 C 39.910156 -47.703125 42.335938 -47.113281 44.734375 -46.0625 C 47.140625 -45.007812 49.234375 -43.601562 51.015625 -41.84375 C 52.804688 -40.082031 54.15625 -38.03125 55.0625 -35.6875 C 55.976562 -33.34375 56.203125 -30.820312 55.734375 -28.125 C 55.203125 -23.144531 54.484375 -18.265625 53.578125 -13.484375 C 52.671875 -8.710938 51.394531 -4.039062 49.75 0.53125 C 47.113281 0.882812 44.503906 1.175781 41.921875 1.40625 C 39.347656 1.644531 36.800781 1.820312 34.28125 1.9375 C 34.695312 -1.519531 35.050781 -5.003906 35.34375 -8.515625 C 35.632812 -12.035156 35.867188 -15.554688 36.046875 -19.078125 C 36.160156 -20.773438 35.953125 -22.328125 35.421875 -23.734375 C 35.078125 -24.378906 34.566406 -24.832031 33.890625 -25.09375 C 33.210938 -25.363281 32.523438 -25.46875 31.828125 -25.40625 C 31.003906 -25.34375 30.222656 -25.328125 29.484375 -25.359375 C 28.753906 -25.390625 27.976562 -25.4375 27.15625 -25.5 C 27.28125 -16.238281 27.28125 -7.035156 27.15625 2.109375 C 25.34375 2.109375 23.394531 2.0625 21.3125 1.96875 C 19.238281 1.882812 17.144531 1.785156 15.03125 1.671875 C 12.925781 1.554688 10.859375 1.378906 8.828125 1.140625 C 6.804688 0.910156 4.976562 0.648438 3.34375 0.359375 C 2.695312 -2.867188 2.359375 -5.859375 2.328125 -8.609375 C 2.296875 -11.367188 2.34375 -14.332031 2.46875 -17.5 C 3.457031 -17.4375 4.445312 -17.359375 5.4375 -17.265625 C 6.4375 -17.179688 7.4375 -17.140625 8.4375 -17.140625 C 8.257812 -18.609375 8.113281 -20.070312 8 -21.53125 C 7.882812 -23 7.765625 -24.492188 7.640625 -26.015625 Z M 7.640625 -26.015625 "/></g></g><g style="fill:#078074;fill-opacity:1;"><g transform="translate(366.159651, 99.149433)"><path style="stroke:none" d="M 4.65625 -20.65625 C 6.007812 -20.59375 7.253906 -20.53125 8.390625 -20.46875 C 9.535156 -20.414062 10.675781 -20.359375 11.8125 -20.296875 C 12.957031 -20.242188 14.113281 -20.203125 15.28125 -20.171875 C 16.457031 -20.140625 17.75 -20.125 19.15625 -20.125 C 19.925781 -20.125 20.570312 -19.84375 21.09375 -19.28125 C 21.625 -18.726562 21.859375 -18.070312 21.796875 -17.3125 C 21.742188 -14.15625 21.773438 -10.945312 21.890625 -7.6875 C 22.003906 -4.4375 22.035156 -1.203125 21.984375 2.015625 C 20.628906 2.015625 19.101562 1.984375 17.40625 1.921875 C 15.707031 1.867188 13.976562 1.796875 12.21875 1.703125 C 10.457031 1.617188 8.753906 1.503906 7.109375 1.359375 C 5.472656 1.210938 4.007812 1.050781 2.71875 0.875 C 2.71875 -2.164062 2.757812 -4.640625 2.84375 -6.546875 C 2.9375 -8.453125 3.070312 -10.132812 3.25 -11.59375 C 3.425781 -13.0625 3.628906 -14.453125 3.859375 -15.765625 C 4.097656 -17.085938 4.363281 -18.71875 4.65625 -20.65625 Z M 28.75 1.9375 C 29.039062 -1.40625 29.242188 -4.742188 29.359375 -8.078125 C 29.472656 -11.421875 29.59375 -14.765625 29.71875 -18.109375 C 29.769531 -19.160156 29.707031 -20.226562 29.53125 -21.3125 C 29.351562 -22.394531 28.945312 -23.347656 28.3125 -24.171875 C 27.488281 -24.640625 26.648438 -24.914062 25.796875 -25 C 24.953125 -25.09375 24.117188 -25.171875 23.296875 -25.234375 C 19.773438 -25.347656 16.316406 -25.421875 12.921875 -25.453125 C 9.523438 -25.484375 6.210938 -25.554688 2.984375 -25.671875 C 2.640625 -29.359375 2.523438 -33.078125 2.640625 -36.828125 C 2.753906 -40.578125 3.046875 -44.300781 3.515625 -48 C 8.085938 -48.695312 12.757812 -48.957031 17.53125 -48.78125 C 22.3125 -48.613281 27.191406 -48.320312 32.171875 -47.90625 C 34.753906 -47.726562 37.1875 -47.023438 39.46875 -45.796875 C 41.75 -44.566406 43.695312 -42.984375 45.3125 -41.046875 C 46.925781 -39.117188 48.113281 -36.894531 48.875 -34.375 C 49.632812 -31.851562 49.8125 -29.242188 49.40625 -26.546875 C 48.988281 -21.921875 48.351562 -17.347656 47.5 -12.828125 C 46.65625 -8.316406 45.5625 -3.863281 44.21875 0.53125 C 41.582031 1 38.988281 1.347656 36.4375 1.578125 C 33.882812 1.816406 31.320312 1.9375 28.75 1.9375 Z M 28.75 1.9375 "/></g></g><g style="fill:#078074;fill-opacity:1;"><g transform="translate(103.844367, 173.324277)"><path style="stroke:none" d="M 7.640625 -26.015625 C 7.054688 -25.898438 6.484375 -25.898438 5.921875 -26.015625 C 5.367188 -26.140625 4.769531 -26.171875 4.125 -26.109375 C 4.007812 -29.796875 3.976562 -33.484375 4.03125 -37.171875 C 4.09375 -40.867188 4.390625 -44.59375 4.921875 -48.34375 C 10.140625 -48.875 15.441406 -49.066406 20.828125 -48.921875 C 26.222656 -48.773438 31.765625 -48.410156 37.453125 -47.828125 C 39.910156 -47.703125 42.335938 -47.113281 44.734375 -46.0625 C 47.140625 -45.007812 49.234375 -43.601562 51.015625 -41.84375 C 52.804688 -40.082031 54.15625 -38.03125 55.0625 -35.6875 C 55.976562 -33.34375 56.203125 -30.820312 55.734375 -28.125 C 55.203125 -23.144531 54.484375 -18.265625 53.578125 -13.484375 C 52.671875 -8.710938 51.394531 -4.039062 49.75 0.53125 C 47.113281 0.882812 44.503906 1.175781 41.921875 1.40625 C 39.347656 1.644531 36.800781 1.820312 34.28125 1.9375 C 34.695312 -1.519531 35.050781 -5.003906 35.34375 -8.515625 C 35.632812 -12.035156 35.867188 -15.554688 36.046875 -19.078125 C 36.160156 -20.773438 35.953125 -22.328125 35.421875 -23.734375 C 35.078125 -24.378906 34.566406 -24.832031 33.890625 -25.09375 C 33.210938 -25.363281 32.523438 -25.46875 31.828125 -25.40625 C 31.003906 -25.34375 30.222656 -25.328125 29.484375 -25.359375 C 28.753906 -25.390625 27.976562 -25.4375 27.15625 -25.5 C 27.28125 -16.238281 27.28125 -7.035156 27.15625 2.109375 C 25.34375 2.109375 23.394531 2.0625 21.3125 1.96875 C 19.238281 1.882812 17.144531 1.785156 15.03125 1.671875 C 12.925781 1.554688 10.859375 1.378906 8.828125 1.140625 C 6.804688 0.910156 4.976562 0.648438 3.34375 0.359375 C 2.695312 -2.867188 2.359375 -5.859375 2.328125 -8.609375 C 2.296875 -11.367188 2.34375 -14.332031 2.46875 -17.5 C 3.457031 -17.4375 4.445312 -17.359375 5.4375 -17.265625 C 6.4375 -17.179688 7.4375 -17.140625 8.4375 -17.140625 C 8.257812 -18.609375 8.113281 -20.070312 8 -21.53125 C 7.882812 -23 7.765625 -24.492188 7.640625 -26.015625 Z M 7.640625 -26.015625 "/></g></g><g style="fill:#078074;fill-opacity:1;"><g transform="translate(158.786154, 173.324277)"><path style="stroke:none" d="M 3.609375 -47.125 C 6.765625 -48.289062 10 -48.695312 13.3125 -48.34375 C 16.625 -48 19.773438 -47.207031 22.765625 -45.96875 C 23.117188 -38.125 23.160156 -30.316406 22.890625 -22.546875 C 22.628906 -14.785156 22.003906 -7.066406 21.015625 0.609375 C 18.367188 1.492188 15.671875 1.960938 12.921875 2.015625 C 10.171875 2.078125 7.535156 1.640625 5.015625 0.703125 C 4.191406 -7.210938 3.632812 -15.125 3.34375 -23.03125 C 3.050781 -30.945312 3.140625 -38.976562 3.609375 -47.125 Z M 3.609375 -47.125 "/></g></g><g style="fill:#078074;fill-opacity:1;"><g transform="translate(181.905578, 173.324277)"><path style="stroke:none" d="M 3.875 -47.125 C 7.09375 -47.882812 10.3125 -48.054688 13.53125 -47.640625 C 16.757812 -47.234375 19.984375 -46.675781 23.203125 -45.96875 C 23.554688 -40.9375 23.613281 -35.898438 23.375 -30.859375 C 23.144531 -25.816406 22.5625 -20.773438 21.625 -15.734375 C 15.757812 -14.566406 10.132812 -14.742188 4.75 -16.265625 C 3.925781 -21.242188 3.425781 -26.3125 3.25 -31.46875 C 3.070312 -36.625 3.28125 -41.84375 3.875 -47.125 Z M 3.875 -47.125 "/></g></g><g style="fill:#078074;fill-opacity:1;"><g transform="translate(205.464547, 173.324277)"><path style="stroke:none" d="M 27.859375 -47.828125 C 30.671875 -47.703125 33.523438 -47.535156 36.421875 -47.328125 C 39.328125 -47.128906 42.273438 -46.882812 45.265625 -46.59375 C 45.566406 -41.257812 45.613281 -36.015625 45.40625 -30.859375 C 45.195312 -25.703125 44.945312 -20.484375 44.65625 -15.203125 L 46.421875 -15.296875 C 47.234375 -15.296875 47.859375 -15.5 48.296875 -15.90625 C 48.742188 -16.320312 49.066406 -16.835938 49.265625 -17.453125 C 49.472656 -18.066406 49.601562 -18.722656 49.65625 -19.421875 C 49.71875 -20.128906 49.78125 -20.742188 49.84375 -21.265625 C 50.3125 -25.429688 50.644531 -29.59375 50.84375 -33.75 C 51.050781 -37.914062 51.097656 -42.078125 50.984375 -46.234375 C 54.148438 -45.890625 57.328125 -45.566406 60.515625 -45.265625 C 63.710938 -44.972656 66.953125 -44.625 70.234375 -44.21875 C 70.523438 -39.9375 70.40625 -35.640625 69.875 -31.328125 C 69.351562 -27.023438 68.679688 -22.765625 67.859375 -18.546875 C 67.390625 -16.140625 66.640625 -13.78125 65.609375 -11.46875 C 64.585938 -9.15625 63.285156 -7.046875 61.703125 -5.140625 C 60.128906 -3.234375 58.269531 -1.679688 56.125 -0.484375 C 53.988281 0.710938 51.570312 1.398438 48.875 1.578125 C 44.125 1.867188 39.460938 2 34.890625 1.96875 C 30.328125 1.945312 25.847656 1.878906 21.453125 1.765625 C 19.046875 1.816406 16.785156 1.375 14.671875 0.4375 C 12.566406 -0.5 10.722656 -1.785156 9.140625 -3.421875 C 7.554688 -5.066406 6.265625 -6.957031 5.265625 -9.09375 C 4.273438 -11.238281 3.691406 -13.453125 3.515625 -15.734375 C 2.515625 -20.953125 1.820312 -26.226562 1.4375 -31.5625 C 1.0625 -36.894531 1.316406 -42.253906 2.203125 -47.640625 C 5.484375 -48.054688 8.765625 -48.265625 12.046875 -48.265625 C 15.328125 -48.265625 18.695312 -48.203125 22.15625 -48.078125 C 22.15625 -43.628906 22.242188 -39.222656 22.421875 -34.859375 C 22.597656 -30.492188 22.832031 -26.113281 23.125 -21.71875 C 23.0625 -21.007812 23.085938 -20.273438 23.203125 -19.515625 C 23.328125 -18.753906 23.5625 -18.050781 23.90625 -17.40625 C 24.257812 -16.757812 24.710938 -16.257812 25.265625 -15.90625 C 25.828125 -15.5625 26.519531 -15.445312 27.34375 -15.5625 L 28.3125 -15.5625 C 28.1875 -20.894531 28.078125 -26.253906 27.984375 -31.640625 C 27.898438 -37.035156 27.859375 -42.429688 27.859375 -47.828125 Z M 27.859375 -47.828125 "/></g></g><g style="fill:#078074;fill-opacity:1;"><g transform="translate(274.031929, 173.324277)"><path style="stroke:none" d="M 21.625 2.015625 C 21.382812 0.316406 21.132812 -1.363281 20.875 -3.03125 C 20.613281 -4.695312 20.335938 -6.382812 20.046875 -8.09375 C 19.804688 -7.5 19.613281 -6.921875 19.46875 -6.359375 C 19.320312 -5.804688 19.132812 -5.269531 18.90625 -4.75 C 18.601562 -3.863281 18.234375 -2.96875 17.796875 -2.0625 C 17.359375 -1.15625 16.816406 -0.335938 16.171875 0.390625 C 15.523438 1.128906 14.773438 1.6875 13.921875 2.0625 C 13.078125 2.445312 12.128906 2.550781 11.078125 2.375 C 10.367188 2.3125 9.660156 2.207031 8.953125 2.0625 C 8.253906 1.914062 7.554688 1.753906 6.859375 1.578125 C 6.328125 -1.234375 5.828125 -4.070312 5.359375 -6.9375 C 4.890625 -9.8125 4.507812 -12.6875 4.21875 -15.5625 C 6.269531 -15.96875 8.304688 -16.535156 10.328125 -17.265625 C 12.347656 -18.003906 14.414062 -18.722656 16.53125 -19.421875 C 17.175781 -19.597656 17.6875 -19.976562 18.0625 -20.5625 C 18.445312 -21.15625 18.648438 -21.785156 18.671875 -22.453125 C 18.703125 -23.128906 18.554688 -23.742188 18.234375 -24.296875 C 17.910156 -24.859375 17.398438 -25.195312 16.703125 -25.3125 C 14.765625 -25.4375 12.8125 -25.484375 10.84375 -25.453125 C 8.882812 -25.421875 6.96875 -25.4375 5.09375 -25.5 C 4.75 -32.757812 4.925781 -40.171875 5.625 -47.734375 C 8.4375 -48.378906 11.289062 -48.6875 14.1875 -48.65625 C 17.09375 -48.625 20.039062 -48.492188 23.03125 -48.265625 C 25.195312 -48.203125 27.203125 -47.65625 29.046875 -46.625 C 30.898438 -45.601562 32.484375 -44.269531 33.796875 -42.625 C 35.117188 -40.988281 36.101562 -39.113281 36.75 -37 C 37.394531 -34.894531 37.597656 -32.757812 37.359375 -30.59375 C 37.242188 -25.257812 36.878906 -20.015625 36.265625 -14.859375 C 35.648438 -9.703125 34.84375 -4.570312 33.84375 0.53125 C 31.789062 1.050781 29.738281 1.414062 27.6875 1.625 C 25.632812 1.832031 23.613281 1.960938 21.625 2.015625 Z M 21.625 2.015625 "/></g></g><g style="fill:#078074;fill-opacity:1;"><g transform="translate(312.183466, 173.324277)"><path style="stroke:none" d="M 22.859375 2.015625 C 22.972656 -1.316406 23.070312 -4.65625 23.15625 -8 C 23.25 -11.34375 23.265625 -14.679688 23.203125 -18.015625 C 23.203125 -19.191406 23.082031 -20.347656 22.84375 -21.484375 C 22.613281 -22.628906 22.085938 -23.671875 21.265625 -24.609375 C 20.628906 -25.078125 19.882812 -25.328125 19.03125 -25.359375 C 18.175781 -25.390625 17.367188 -25.4375 16.609375 -25.5 C 14.210938 -25.550781 11.851562 -25.5625 9.53125 -25.53125 C 7.21875 -25.507812 4.945312 -25.554688 2.71875 -25.671875 C 2.601562 -29.359375 2.5625 -33.019531 2.59375 -36.65625 C 2.625 -40.289062 2.875 -44.015625 3.34375 -47.828125 C 6.738281 -48.460938 10.164062 -48.765625 13.625 -48.734375 C 17.082031 -48.710938 20.570312 -48.582031 24.09375 -48.34375 C 26.78125 -48.050781 29.328125 -47.242188 31.734375 -45.921875 C 34.140625 -44.609375 36.207031 -42.925781 37.9375 -40.875 C 39.664062 -38.820312 40.96875 -36.488281 41.84375 -33.875 C 42.71875 -31.269531 43.007812 -28.535156 42.71875 -25.671875 C 42.3125 -21.210938 41.785156 -16.800781 41.140625 -12.4375 C 40.492188 -8.070312 39.585938 -3.75 38.421875 0.53125 C 35.773438 1.050781 33.160156 1.414062 30.578125 1.625 C 28.003906 1.832031 25.429688 1.960938 22.859375 2.015625 Z M 22.859375 2.015625 "/></g></g><g style="fill:#1b1b1b;fill-opacity:1;"><g transform="translate(48.075042, 244.408319)"><path style="stroke:none" d="M 0.921875 6.84375 C 1.734375 5.96875 2.414062 5.007812 2.96875 3.96875 C 3.519531 2.925781 3.796875 1.953125 3.796875 1.046875 C 3.796875 0.429688 3.691406 -0.101562 3.484375 -0.5625 C 3.285156 -1.03125 2.910156 -1.410156 2.359375 -1.703125 C 2.359375 -2.429688 2.640625 -3.097656 3.203125 -3.703125 C 3.773438 -4.316406 4.4375 -4.625 5.1875 -4.625 C 6.03125 -4.625 6.734375 -4.335938 7.296875 -3.765625 C 7.867188 -3.203125 8.15625 -2.515625 8.15625 -1.703125 C 8.15625 -0.535156 7.921875 0.660156 7.453125 1.890625 C 6.992188 3.128906 6.34375 4.300781 5.5 5.40625 C 4.65625 6.507812 3.648438 7.453125 2.484375 8.234375 Z M 0.921875 6.84375 "/></g></g><g style="fill:#1b1b1b;fill-opacity:1;"><g transform="translate(58.756171, 244.408319)"><path style="stroke:none" d="M 14.5625 -21.71875 C 17.238281 -21.71875 19.222656 -21.097656 20.515625 -19.859375 C 21.804688 -18.628906 22.453125 -16.585938 22.453125 -13.734375 L 22.453125 0 L 19.1875 0 L 19.1875 -12.734375 C 19.1875 -14.796875 18.859375 -16.320312 18.203125 -17.3125 C 17.546875 -18.300781 16.1875 -18.796875 14.125 -18.796875 L 8.640625 -18.796875 L 8.640625 0 L 1.78125 0 L 1.78125 -2.875 L 5.359375 -2.875 L 5.359375 -18.796875 L 2 -18.796875 L 2 -21.71875 Z M 14.5625 -21.71875 "/></g></g><g style="fill:#1b1b1b;fill-opacity:1;"><g transform="translate(84.260085, 244.408319)"><path style="stroke:none" d="M 8.671875 -21.71875 L 8.671875 0 L 5.40625 0 L 5.40625 -18.796875 L 1 -18.796875 L 1 -21.71875 Z M 8.671875 -21.71875 "/></g></g><g style="fill:#1b1b1b;fill-opacity:1;"><g transform="translate(96.161909, 244.408319)"><path style="stroke:none" d="M 5.625 -8.71875 L 5.625 -18.75 L 1 -18.75 L 1 -21.671875 L 8.890625 -21.671875 L 8.890625 -8.71875 Z M 5.625 -8.71875 "/></g></g><g style="fill:#1b1b1b;fill-opacity:1;"><g transform="translate(108.281716, 244.408319)"><path style="stroke:none" d="M 16.75 -2.921875 L 19.890625 -2.921875 L 19.890625 0 L 1.75 0 L 1.75 -2.921875 L 13.46875 -2.921875 L 13.46875 -12.734375 C 13.46875 -14.796875 13.140625 -16.320312 12.484375 -17.3125 C 11.835938 -18.300781 10.484375 -18.796875 8.421875 -18.796875 L 2.21875 -18.796875 L 2.21875 -21.71875 L 8.859375 -21.71875 C 11.523438 -21.71875 13.503906 -21.097656 14.796875 -19.859375 C 16.097656 -18.628906 16.75 -16.585938 16.75 -13.734375 Z M 16.75 -2.921875 "/></g></g><g style="fill:#1b1b1b;fill-opacity:1;"><g transform="translate(129.208008, 244.408319)"><path style="stroke:none" d="M 5.625 -8.71875 L 5.625 -18.75 L 1 -18.75 L 1 -21.671875 L 8.890625 -21.671875 L 8.890625 -8.71875 Z M 5.625 -8.71875 "/></g></g><g style="fill:#1b1b1b;fill-opacity:1;"><g transform="translate(141.327815, 244.408319)"><path style="stroke:none" d="M 12.78125 -21.5 C 15.914062 -21.5 18.160156 -20.898438 19.515625 -19.703125 C 20.867188 -18.515625 21.546875 -16.539062 21.546875 -13.78125 C 21.546875 -10.519531 20.34375 -7.644531 17.9375 -5.15625 C 15.539062 -2.675781 12.09375 -0.851562 7.59375 0.3125 L 4.625 0 L 1.921875 -22.84375 L 5.28125 -23.46875 L 5.5 -21.5 Z M 7.453125 -2.921875 C 10.941406 -3.765625 13.609375 -5.09375 15.453125 -6.90625 C 17.304688 -8.726562 18.234375 -10.859375 18.234375 -13.296875 C 18.234375 -15.210938 17.796875 -16.585938 16.921875 -17.421875 C 16.046875 -18.253906 14.617188 -18.671875 12.640625 -18.671875 L 5.796875 -18.671875 Z M 7.453125 -2.921875 "/></g></g><g style="fill:#1b1b1b;fill-opacity:1;"><g transform="translate(164.782703, 244.408319)"><path style="stroke:none" d="M 17.40625 -21.71875 L 17.625 -21.453125 L 9.859375 0 L 6.5 0 L 13.390625 -18.796875 L 1.3125 -18.796875 L 1.359375 -28.390625 L 4.625 -28.875 L 4.578125 -21.71875 Z M 17.40625 -21.71875 "/></g></g><g style="fill:#1b1b1b;fill-opacity:1;"><g transform="translate(183.311186, 244.408319)"><path style="stroke:none" d="M 8.671875 -21.71875 L 8.671875 0 L 5.40625 0 L 5.40625 -18.796875 L 1 -18.796875 L 1 -21.71875 Z M 8.671875 -21.71875 "/></g></g><g style="fill:#1b1b1b;fill-opacity:1;"><g transform="translate(195.21301, 244.408319)"><path style="stroke:none" d="M 11.46875 -21.71875 C 13.707031 -21.71875 15.4375 -21.394531 16.65625 -20.75 C 17.875 -20.113281 18.722656 -19.082031 19.203125 -17.65625 C 19.679688 -16.238281 19.921875 -14.363281 19.921875 -12.03125 C 19.921875 -10.289062 19.832031 -8.328125 19.65625 -6.140625 C 19.488281 -3.960938 19.273438 -1.914062 19.015625 0 L 1.96875 0 L 1.96875 -2.921875 L 16.265625 -2.921875 C 16.410156 -4.285156 16.507812 -5.722656 16.5625 -7.234375 C 16.625 -8.742188 16.65625 -10.171875 16.65625 -11.515625 C 16.65625 -13.253906 16.53125 -14.65625 16.28125 -15.71875 C 16.039062 -16.78125 15.523438 -17.554688 14.734375 -18.046875 C 13.953125 -18.546875 12.734375 -18.796875 11.078125 -18.796875 L 6.1875 -18.796875 C 5.78125 -17.628906 5.519531 -16.832031 5.40625 -16.40625 C 5.289062 -15.988281 5.234375 -15.578125 5.234375 -15.171875 C 5.234375 -14.421875 5.523438 -13.722656 6.109375 -13.078125 C 6.691406 -12.441406 7.722656 -11.863281 9.203125 -11.34375 L 8.421875 -8.546875 C 6.210938 -9.210938 4.625 -10.078125 3.65625 -11.140625 C 2.695312 -12.203125 2.21875 -13.460938 2.21875 -14.921875 C 2.21875 -15.898438 2.425781 -17 2.84375 -18.21875 C 3.269531 -19.445312 3.703125 -20.613281 4.140625 -21.71875 Z M 11.46875 -21.71875 "/></g></g><g style="fill:#1b1b1b;fill-opacity:1;"><g transform="translate(217.926751, 244.408319)"><path style="stroke:none" d="M 14.390625 -22.015625 C 16.484375 -22.015625 18.035156 -21.59375 19.046875 -20.75 C 20.066406 -19.914062 20.742188 -18.71875 21.078125 -17.15625 C 21.421875 -15.601562 21.59375 -13.738281 21.59375 -11.5625 L 21.59375 0 L 10.59375 0 L 10.953125 -2.921875 L 18.3125 -2.921875 L 18.3125 -11.6875 C 18.3125 -14.445312 17.96875 -16.367188 17.28125 -17.453125 C 16.601562 -18.546875 15.453125 -19.09375 13.828125 -19.09375 C 12.921875 -19.09375 12.003906 -18.882812 11.078125 -18.46875 C 10.148438 -18.050781 9.191406 -17.503906 8.203125 -16.828125 L 5.96875 0 L 2.65625 0 L 5.0625 -16.796875 L 3.09375 -21.15625 L 5.96875 -22.375 L 7.375 -19.5 C 8.332031 -20.132812 9.410156 -20.710938 10.609375 -21.234375 C 11.816406 -21.753906 13.078125 -22.015625 14.390625 -22.015625 Z M 14.390625 -22.015625 "/></g></g><g style="fill:#1b1b1b;fill-opacity:1;"><g transform="translate(242.51516, 244.408319)"><path style="stroke:none" d="M 5.625 -8.71875 L 5.625 -18.75 L 1 -18.75 L 1 -21.671875 L 8.890625 -21.671875 L 8.890625 -8.71875 Z M 5.625 -8.71875 "/></g></g><g style="fill:#1b1b1b;fill-opacity:1;"><g transform="translate(254.634945, 244.408319)"><path style="stroke:none" d="M 18.84375 0.34375 L 7.984375 -13.046875 C 7.253906 -11.179688 6.710938 -9.207031 6.359375 -7.125 C 6.015625 -5.050781 5.882812 -2.675781 5.96875 0 L 2.53125 0 C 2.53125 -2.96875 2.832031 -5.703125 3.4375 -8.203125 C 4.050781 -10.703125 4.957031 -13.007812 6.15625 -15.125 L 1.78125 -19.921875 L 4.3125 -22.109375 L 14.078125 -10.078125 C 15.421875 -11.703125 16.359375 -13.035156 16.890625 -14.078125 C 17.429688 -15.128906 17.703125 -15.929688 17.703125 -16.484375 C 17.703125 -17.117188 17.484375 -17.609375 17.046875 -17.953125 C 16.609375 -18.304688 15.796875 -18.804688 14.609375 -19.453125 L 15.921875 -22.234375 C 17.898438 -21.421875 19.25 -20.613281 19.96875 -19.8125 C 20.695312 -19.019531 21.0625 -18.242188 21.0625 -17.484375 C 21.0625 -16.203125 20.660156 -14.832031 19.859375 -13.375 C 19.066406 -11.925781 17.695312 -10.203125 15.75 -8.203125 L 21.15625 -2.1875 Z M 18.84375 0.34375 "/></g></g><g style="fill:#1b1b1b;fill-opacity:1;"><g transform="translate(277.697469, 244.408319)"><path style="stroke:none" d=""/></g></g><g style="fill:#1b1b1b;fill-opacity:1;"><g transform="translate(287.463071, 244.408319)"><path style="stroke:none" d="M 14.5625 -21.71875 C 17.238281 -21.71875 19.222656 -21.097656 20.515625 -19.859375 C 21.804688 -18.628906 22.453125 -16.585938 22.453125 -13.734375 L 22.453125 0 L 19.1875 0 L 19.1875 -12.734375 C 19.1875 -14.796875 18.859375 -16.320312 18.203125 -17.3125 C 17.546875 -18.300781 16.1875 -18.796875 14.125 -18.796875 L 8.640625 -18.796875 L 8.640625 0 L 1.78125 0 L 1.78125 -2.875 L 5.359375 -2.875 L 5.359375 -18.796875 L 2 -18.796875 L 2 -21.71875 Z M 14.5625 -21.71875 "/></g></g><g style="fill:#1b1b1b;fill-opacity:1;"><g transform="translate(312.966985, 244.408319)"><path style="stroke:none" d="M 8.671875 -21.71875 L 8.671875 0 L 5.40625 0 L 5.40625 -18.796875 L 1 -18.796875 L 1 -21.71875 Z M 8.671875 -21.71875 "/></g></g><g style="fill:#1b1b1b;fill-opacity:1;"><g transform="translate(324.86882, 244.408319)"><path style="stroke:none" d="M 16.75 -2.921875 L 19.890625 -2.921875 L 19.890625 0 L 1.75 0 L 1.75 -2.921875 L 13.46875 -2.921875 L 13.46875 -12.734375 C 13.46875 -14.796875 13.140625 -16.320312 12.484375 -17.3125 C 11.835938 -18.300781 10.484375 -18.796875 8.421875 -18.796875 L 2.21875 -18.796875 L 2.21875 -21.71875 L 8.859375 -21.71875 C 11.523438 -21.71875 13.503906 -21.097656 14.796875 -19.859375 C 16.097656 -18.628906 16.75 -16.585938 16.75 -13.734375 Z M 16.75 -2.921875 "/></g></g><g style="fill:#1b1b1b;fill-opacity:1;"><g transform="translate(345.795112, 244.408319)"><path style="stroke:none" d="M 8.671875 -21.71875 L 8.671875 0 L 5.40625 0 L 5.40625 -18.796875 L 1 -18.796875 L 1 -21.71875 Z M 8.671875 -21.71875 "/></g></g><g style="fill:#1b1b1b;fill-opacity:1;"><g transform="translate(357.696924, 244.408319)"><path style="stroke:none" d="M 1.703125 0.34375 L 1.703125 -3.015625 C 4.203125 -3.441406 6.773438 -4.734375 9.421875 -6.890625 L 9.109375 -13.390625 C 9.054688 -14.835938 8.894531 -15.960938 8.625 -16.765625 C 8.363281 -17.566406 7.953125 -18.117188 7.390625 -18.421875 C 6.828125 -18.734375 6.035156 -18.890625 5.015625 -18.890625 C 4.253906 -18.890625 3.367188 -18.816406 2.359375 -18.671875 L 2.359375 -21.59375 C 2.941406 -21.707031 3.519531 -21.773438 4.09375 -21.796875 C 4.675781 -21.828125 5.21875 -21.84375 5.71875 -21.84375 C 7.375 -21.84375 8.664062 -21.625 9.59375 -21.1875 C 10.519531 -20.757812 11.1875 -19.984375 11.59375 -18.859375 C 12 -17.742188 12.25 -16.164062 12.34375 -14.125 L 12.734375 -5.578125 L 13.78125 0 L 10.515625 0 L 9.8125 -3.875 C 8.476562 -2.75 7.117188 -1.835938 5.734375 -1.140625 C 4.347656 -0.441406 3.003906 0.0507812 1.703125 0.34375 Z M 1.703125 0.34375 "/></g></g><g style="fill:#1b1b1b;fill-opacity:1;"><g transform="translate(373.609626, 244.408319)"><path style="stroke:none" d="M 14.5625 -21.71875 C 17.238281 -21.71875 19.222656 -21.097656 20.515625 -19.859375 C 21.804688 -18.628906 22.453125 -16.585938 22.453125 -13.734375 L 22.453125 0 L 19.1875 0 L 19.1875 -12.734375 C 19.1875 -14.796875 18.859375 -16.320312 18.203125 -17.3125 C 17.546875 -18.300781 16.1875 -18.796875 14.125 -18.796875 L 8.640625 -18.796875 L 8.640625 0 L 1.78125 0 L 1.78125 -2.875 L 5.359375 -2.875 L 5.359375 -18.796875 L 2 -18.796875 L 2 -21.71875 Z M 14.5625 -21.71875 "/></g></g><g style="fill:#1b1b1b;fill-opacity:1;"><g transform="translate(55.239658, 284.867325)"><path style="stroke:none" d="M 17.21875 0 L 17.21875 -12.734375 C 17.21875 -14.796875 16.890625 -16.320312 16.234375 -17.3125 C 15.585938 -18.300781 14.234375 -18.796875 12.171875 -18.796875 L 2.875 -18.796875 L 2.875 -21.71875 L 12.609375 -21.71875 C 15.273438 -21.71875 17.253906 -21.097656 18.546875 -19.859375 C 19.847656 -18.628906 20.5 -16.585938 20.5 -13.734375 L 20.5 0 Z M 3.3125 0 L 3.3125 -11.734375 L 6.578125 -11.734375 L 6.578125 0 Z M 3.3125 0 "/></g></g><g style="fill:#1b1b1b;fill-opacity:1;"><g transform="translate(78.781741, 284.867325)"><path style="stroke:none" d="M 21.40625 -21.71875 L 21.71875 -21.375 L 16.171875 0 L 12.859375 0 L 17.703125 -18.796875 L 2.359375 -18.796875 L 2.359375 -21.71875 Z M 3.4375 7.28125 L 3.4375 -11.859375 L 6.71875 -11.859375 L 6.71875 7.28125 Z M 3.4375 7.28125 "/></g></g><g style="fill:#1b1b1b;fill-opacity:1;"><g transform="translate(101.669873, 284.867325)"><path style="stroke:none" d="M 8.671875 -21.71875 L 8.671875 0 L 5.40625 0 L 5.40625 -18.796875 L 1 -18.796875 L 1 -21.71875 Z M 8.671875 -21.71875 "/></g></g><g style="fill:#1b1b1b;fill-opacity:1;"><g transform="translate(113.571697, 284.867325)"><path style="stroke:none" d="M 14.390625 -22.015625 C 16.484375 -22.015625 18.035156 -21.59375 19.046875 -20.75 C 20.066406 -19.914062 20.742188 -18.71875 21.078125 -17.15625 C 21.421875 -15.601562 21.59375 -13.738281 21.59375 -11.5625 L 21.59375 0 L 10.59375 0 L 10.953125 -2.921875 L 18.3125 -2.921875 L 18.3125 -11.6875 C 18.3125 -14.445312 17.96875 -16.367188 17.28125 -17.453125 C 16.601562 -18.546875 15.453125 -19.09375 13.828125 -19.09375 C 12.921875 -19.09375 12.003906 -18.882812 11.078125 -18.46875 C 10.148438 -18.050781 9.191406 -17.503906 8.203125 -16.828125 L 5.96875 0 L 2.65625 0 L 5.0625 -16.796875 L 3.09375 -21.15625 L 5.96875 -22.375 L 7.375 -19.5 C 8.332031 -20.132812 9.410156 -20.710938 10.609375 -21.234375 C 11.816406 -21.753906 13.078125 -22.015625 14.390625 -22.015625 Z M 14.390625 -22.015625 "/></g></g><g style="fill:#1b1b1b;fill-opacity:1;"><g transform="translate(138.160095, 284.867325)"><path style="stroke:none" d="M 19.921875 -21.765625 C 19.953125 -21.117188 19.972656 -20.488281 19.984375 -19.875 C 20.003906 -19.269531 20.015625 -18.675781 20.015625 -18.09375 C 20.015625 -14.863281 19.726562 -12.144531 19.15625 -9.9375 C 18.59375 -7.726562 17.617188 -5.894531 16.234375 -4.4375 C 14.859375 -2.988281 12.972656 -1.820312 10.578125 -0.9375 C 8.179688 -0.0507812 5.148438 0.664062 1.484375 1.21875 L 1.140625 -1.609375 C 2.410156 -1.785156 3.582031 -1.972656 4.65625 -2.171875 C 5.738281 -2.378906 6.726562 -2.613281 7.625 -2.875 L 2.609375 -21.1875 L 5.890625 -22.015625 L 10.515625 -3.875 C 12.140625 -4.601562 13.410156 -5.507812 14.328125 -6.59375 C 15.242188 -7.6875 15.890625 -9.066406 16.265625 -10.734375 C 16.640625 -12.410156 16.828125 -14.472656 16.828125 -16.921875 C 16.828125 -17.648438 16.8125 -18.421875 16.78125 -19.234375 C 16.757812 -20.046875 16.71875 -20.890625 16.65625 -21.765625 Z M 19.921875 -21.765625 "/></g></g><g style="fill:#1b1b1b;fill-opacity:1;"><g transform="translate(160.132701, 284.867325)"><path style="stroke:none" d=""/></g></g><g style="fill:#1b1b1b;fill-opacity:1;"><g transform="translate(169.898303, 284.867325)"><path style="stroke:none" d="M 17.40625 -21.71875 L 17.625 -21.453125 L 9.859375 0 L 6.5 0 L 13.390625 -18.796875 L 1.3125 -18.796875 L 1.359375 -28.390625 L 4.625 -28.875 L 4.578125 -21.71875 Z M 17.40625 -21.71875 "/></g></g><g style="fill:#1b1b1b;fill-opacity:1;"><g transform="translate(188.426786, 284.867325)"><path style="stroke:none" d="M 8.671875 -21.71875 L 8.671875 0 L 5.40625 0 L 5.40625 -18.796875 L 1 -18.796875 L 1 -21.71875 Z M 8.671875 -21.71875 "/></g></g><g style="fill:#1b1b1b;fill-opacity:1;"><g transform="translate(200.32861, 284.867325)"><path style="stroke:none" d="M 1.65625 0 L 1.65625 -2.921875 L 13.21875 -2.921875 C 13.332031 -4.253906 13.410156 -5.660156 13.453125 -7.140625 C 13.492188 -8.628906 13.515625 -10.015625 13.515625 -11.296875 C 13.515625 -13.242188 13.382812 -14.757812 13.125 -15.84375 C 12.863281 -16.9375 12.332031 -17.703125 11.53125 -18.140625 C 10.726562 -18.578125 9.53125 -18.796875 7.9375 -18.796875 L 2.265625 -18.796875 L 2.265625 -21.71875 L 8.328125 -21.71875 C 10.566406 -21.71875 12.296875 -21.390625 13.515625 -20.734375 C 14.734375 -20.078125 15.582031 -19.019531 16.0625 -17.5625 C 16.550781 -16.113281 16.796875 -14.195312 16.796875 -11.8125 C 16.796875 -10.101562 16.710938 -8.175781 16.546875 -6.03125 C 16.390625 -3.894531 16.195312 -1.882812 15.96875 0 Z M 1.65625 0 "/></g></g><g style="fill:#1b1b1b;fill-opacity:1;"><g transform="translate(219.903407, 284.867325)"><path style="stroke:none" d="M 12.78125 -21.5 C 15.914062 -21.5 18.160156 -20.898438 19.515625 -19.703125 C 20.867188 -18.515625 21.546875 -16.539062 21.546875 -13.78125 C 21.546875 -10.519531 20.34375 -7.644531 17.9375 -5.15625 C 15.539062 -2.675781 12.09375 -0.851562 7.59375 0.3125 L 4.625 0 L 1.921875 -22.84375 L 5.28125 -23.46875 L 5.5 -21.5 Z M 7.453125 -2.921875 C 10.941406 -3.765625 13.609375 -5.09375 15.453125 -6.90625 C 17.304688 -8.726562 18.234375 -10.859375 18.234375 -13.296875 C 18.234375 -15.210938 17.796875 -16.585938 16.921875 -17.421875 C 16.046875 -18.253906 14.617188 -18.671875 12.640625 -18.671875 L 5.796875 -18.671875 Z M 7.453125 -2.921875 "/></g></g><g style="fill:#1b1b1b;fill-opacity:1;"><g transform="translate(243.358295, 284.867325)"><path style="stroke:none" d="M 14.5625 -21.71875 C 17.238281 -21.71875 19.222656 -21.097656 20.515625 -19.859375 C 21.804688 -18.628906 22.453125 -16.585938 22.453125 -13.734375 L 22.453125 0 L 19.1875 0 L 19.1875 -12.734375 C 19.1875 -14.796875 18.859375 -16.320312 18.203125 -17.3125 C 17.546875 -18.300781 16.1875 -18.796875 14.125 -18.796875 L 8.640625 -18.796875 L 8.640625 0 L 1.78125 0 L 1.78125 -2.875 L 5.359375 -2.875 L 5.359375 -18.796875 L 2 -18.796875 L 2 -21.71875 Z M 14.5625 -21.71875 "/></g></g><g style="fill:#1b1b1b;fill-opacity:1;"><g transform="translate(268.862197, 284.867325)"><path style="stroke:none" d=""/></g></g><g style="fill:#1b1b1b;fill-opacity:1;"><g transform="translate(278.6278, 284.867325)"><path style="stroke:none" d="M 14.5625 -21.71875 C 17.238281 -21.71875 19.222656 -21.097656 20.515625 -19.859375 C 21.804688 -18.628906 22.453125 -16.585938 22.453125 -13.734375 L 22.453125 0 L 19.1875 0 L 19.1875 -12.734375 C 19.1875 -14.796875 18.859375 -16.320312 18.203125 -17.3125 C 17.546875 -18.300781 16.1875 -18.796875 14.125 -18.796875 L 8.640625 -18.796875 L 8.640625 0 L 1.78125 0 L 1.78125 -2.875 L 5.359375 -2.875 L 5.359375 -18.796875 L 2 -18.796875 L 2 -21.71875 Z M 14.5625 -21.71875 "/></g></g><g style="fill:#1b1b1b;fill-opacity:1;"><g transform="translate(304.131713, 284.867325)"><path style="stroke:none" d="M 24.421875 -21.71875 C 24.453125 -21.394531 24.472656 -20.90625 24.484375 -20.25 C 24.503906 -19.601562 24.519531 -18.957031 24.53125 -18.3125 C 24.539062 -17.675781 24.546875 -17.226562 24.546875 -16.96875 C 24.546875 -13.507812 23.816406 -10.46875 22.359375 -7.84375 C 20.910156 -5.226562 18.832031 -3.207031 16.125 -1.78125 C 13.425781 -0.363281 10.1875 0.285156 6.40625 0.171875 L 4.96875 0 L 2.3125 -21.71875 L 5.625 -21.71875 L 6.671875 -12.03125 C 8.648438 -12.175781 10.007812 -12.859375 10.75 -14.078125 C 11.488281 -15.304688 11.859375 -16.921875 11.859375 -18.921875 C 11.859375 -19.734375 11.816406 -20.664062 11.734375 -21.71875 L 14.953125 -21.71875 C 15.015625 -21.21875 15.054688 -20.726562 15.078125 -20.25 C 15.109375 -19.769531 15.125 -19.328125 15.125 -18.921875 C 15.125 -16.078125 14.476562 -13.867188 13.1875 -12.296875 C 11.894531 -10.722656 9.8125 -9.804688 6.9375 -9.546875 L 7.671875 -2.703125 C 10.640625 -2.734375 13.125 -3.375 15.125 -4.625 C 17.132812 -5.875 18.644531 -7.65625 19.65625 -9.96875 C 20.675781 -12.28125 21.1875 -15.003906 21.1875 -18.140625 C 21.1875 -19.273438 21.113281 -20.46875 20.96875 -21.71875 Z M 24.421875 -21.71875 "/></g></g><g style="fill:#1b1b1b;fill-opacity:1;"><g transform="translate(330.594768, 284.867325)"><path style="stroke:none" d="M 8.671875 -21.71875 L 8.671875 0 L 5.40625 0 L 5.40625 -18.796875 L 1 -18.796875 L 1 -21.71875 Z M 8.671875 -21.71875 "/></g></g><g style="fill:#1b1b1b;fill-opacity:1;"><g transform="translate(342.496603, 284.867325)"><path style="stroke:none" d="M 13 -21.71875 C 15.664062 -21.71875 17.644531 -21.097656 18.9375 -19.859375 C 20.238281 -18.628906 20.890625 -16.585938 20.890625 -13.734375 L 20.890625 0 L 17.625 0 L 17.625 -12.734375 C 17.625 -14.796875 17.296875 -16.320312 16.640625 -17.3125 C 15.984375 -18.300781 14.625 -18.796875 12.5625 -18.796875 L 6.5 -18.796875 L 6.5 0 L 3.234375 0 L 3.234375 -23.109375 L 6.5 -23.546875 L 6.5 -21.71875 Z M 13 -21.71875 "/></g></g><g style="fill:#1b1b1b;fill-opacity:1;"><g transform="translate(366.431039, 284.867325)"><path style="stroke:none" d="M 14.5625 -21.71875 C 17.238281 -21.71875 19.222656 -21.097656 20.515625 -19.859375 C 21.804688 -18.628906 22.453125 -16.585938 22.453125 -13.734375 L 22.453125 0 L 19.1875 0 L 19.1875 -12.734375 C 19.1875 -14.796875 18.859375 -16.320312 18.203125 -17.3125 C 17.546875 -18.300781 16.1875 -18.796875 14.125 -18.796875 L 8.640625 -18.796875 L 8.640625 0 L 1.78125 0 L 1.78125 -2.875 L 5.359375 -2.875 L 5.359375 -18.796875 L 2 -18.796875 L 2 -21.71875 Z M 14.5625 -21.71875 "/></g></g><g style="fill:#1b1b1b;fill-opacity:1;"><g transform="translate(31.896123, 365.785336)"><path style="stroke:none" d="M 17.21875 0 L 17.21875 -12.734375 C 17.21875 -14.796875 16.890625 -16.320312 16.234375 -17.3125 C 15.585938 -18.300781 14.234375 -18.796875 12.171875 -18.796875 L 2.875 -18.796875 L 2.875 -21.71875 L 12.609375 -21.71875 C 15.273438 -21.71875 17.253906 -21.097656 18.546875 -19.859375 C 19.847656 -18.628906 20.5 -16.585938 20.5 -13.734375 L 20.5 0 Z M 3.3125 0 L 3.3125 -11.734375 L 6.578125 -11.734375 L 6.578125 0 Z M 3.3125 0 "/></g></g><g style="fill:#1b1b1b;fill-opacity:1;"><g transform="translate(55.438206, 365.785336)"><path style="stroke:none" d="M 13.46875 -22.109375 C 15.851562 -22.109375 17.765625 -21.507812 19.203125 -20.3125 C 20.648438 -19.125 21.375 -17.148438 21.375 -14.390625 C 21.375 -11.109375 20.1875 -8.164062 17.8125 -5.5625 C 15.445312 -2.957031 12.097656 -1 7.765625 0.3125 L 4.796875 0 L 2 -21.71875 L 5.40625 -21.765625 L 7.625 -3.015625 C 10.945312 -3.992188 13.515625 -5.441406 15.328125 -7.359375 C 17.140625 -9.285156 18.046875 -11.46875 18.046875 -13.90625 C 18.046875 -15.96875 17.601562 -17.378906 16.71875 -18.140625 C 15.832031 -18.898438 14.707031 -19.28125 13.34375 -19.28125 C 12.820312 -19.28125 12.273438 -19.253906 11.703125 -19.203125 C 11.140625 -19.160156 10.4375 -19.023438 9.59375 -18.796875 L 9.59375 -21.625 C 10.875 -21.945312 12.164062 -22.109375 13.46875 -22.109375 Z M 13.46875 -22.109375 "/></g></g><g style="fill:#1b1b1b;fill-opacity:1;"><g transform="translate(78.718702, 365.785336)"><path style="stroke:none" d="M 5.625 -8.71875 L 5.625 -18.75 L 1 -18.75 L 1 -21.671875 L 8.890625 -21.671875 L 8.890625 -8.71875 Z M 5.625 -8.71875 "/></g></g><g style="fill:#1b1b1b;fill-opacity:1;"><g transform="translate(90.838509, 365.785336)"><path style="stroke:none" d="M 17.40625 -21.71875 L 17.625 -21.453125 L 9.859375 0 L 6.5 0 L 13.390625 -18.796875 L 1.3125 -18.796875 L 1.359375 -28.390625 L 4.625 -28.875 L 4.578125 -21.71875 Z M 17.40625 -21.71875 "/></g></g><g style="fill:#1b1b1b;fill-opacity:1;"><g transform="translate(109.366992, 365.785336)"><path style="stroke:none" d="M 24.421875 -21.71875 C 24.453125 -21.394531 24.472656 -20.90625 24.484375 -20.25 C 24.503906 -19.601562 24.519531 -18.957031 24.53125 -18.3125 C 24.539062 -17.675781 24.546875 -17.226562 24.546875 -16.96875 C 24.546875 -13.507812 23.816406 -10.46875 22.359375 -7.84375 C 20.910156 -5.226562 18.832031 -3.207031 16.125 -1.78125 C 13.425781 -0.363281 10.1875 0.285156 6.40625 0.171875 L 4.96875 0 L 2.3125 -21.71875 L 5.625 -21.71875 L 6.671875 -12.03125 C 8.648438 -12.175781 10.007812 -12.859375 10.75 -14.078125 C 11.488281 -15.304688 11.859375 -16.921875 11.859375 -18.921875 C 11.859375 -19.734375 11.816406 -20.664062 11.734375 -21.71875 L 14.953125 -21.71875 C 15.015625 -21.21875 15.054688 -20.726562 15.078125 -20.25 C 15.109375 -19.769531 15.125 -19.328125 15.125 -18.921875 C 15.125 -16.078125 14.476562 -13.867188 13.1875 -12.296875 C 11.894531 -10.722656 9.8125 -9.804688 6.9375 -9.546875 L 7.671875 -2.703125 C 10.640625 -2.734375 13.125 -3.375 15.125 -4.625 C 17.132812 -5.875 18.644531 -7.65625 19.65625 -9.96875 C 20.675781 -12.28125 21.1875 -15.003906 21.1875 -18.140625 C 21.1875 -19.273438 21.113281 -20.46875 20.96875 -21.71875 Z M 24.421875 -21.71875 "/></g></g><g style="fill:#1b1b1b;fill-opacity:1;"><g transform="translate(135.830036, 365.785336)"><path style="stroke:none" d="M 8.671875 -21.71875 L 8.671875 0 L 5.40625 0 L 5.40625 -18.796875 L 1 -18.796875 L 1 -21.71875 Z M 8.671875 -21.71875 "/></g></g><g style="fill:#1b1b1b;fill-opacity:1;"><g transform="translate(147.731859, 365.785336)"><path style="stroke:none" d=""/></g></g><g style="fill:#1b1b1b;fill-opacity:1;"><g transform="translate(157.497462, 365.785336)"><path style="stroke:none" d="M 14.5625 -21.71875 C 17.238281 -21.71875 19.222656 -21.097656 20.515625 -19.859375 C 21.804688 -18.628906 22.453125 -16.585938 22.453125 -13.734375 L 22.453125 0 L 19.1875 0 L 19.1875 -12.734375 C 19.1875 -14.796875 18.859375 -16.320312 18.203125 -17.3125 C 17.546875 -18.300781 16.1875 -18.796875 14.125 -18.796875 L 8.640625 -18.796875 L 8.640625 0 L 1.78125 0 L 1.78125 -2.875 L 5.359375 -2.875 L 5.359375 -18.796875 L 2 -18.796875 L 2 -21.71875 Z M 14.5625 -21.71875 "/></g></g><g style="fill:#1b1b1b;fill-opacity:1;"><g transform="translate(183.001375, 365.785336)"><path style="stroke:none" d="M 8.671875 -21.71875 L 8.671875 0 L 5.40625 0 L 5.40625 -18.796875 L 1 -18.796875 L 1 -21.71875 Z M 8.671875 -21.71875 "/></g></g><g style="fill:#1b1b1b;fill-opacity:1;"><g transform="translate(194.903199, 365.785336)"><path style="stroke:none" d="M 18.84375 0.34375 L 7.984375 -13.046875 C 7.253906 -11.179688 6.710938 -9.207031 6.359375 -7.125 C 6.015625 -5.050781 5.882812 -2.675781 5.96875 0 L 2.53125 0 C 2.53125 -2.96875 2.832031 -5.703125 3.4375 -8.203125 C 4.050781 -10.703125 4.957031 -13.007812 6.15625 -15.125 L 1.78125 -19.921875 L 4.3125 -22.109375 L 14.078125 -10.078125 C 15.421875 -11.703125 16.359375 -13.035156 16.890625 -14.078125 C 17.429688 -15.128906 17.703125 -15.929688 17.703125 -16.484375 C 17.703125 -17.117188 17.484375 -17.609375 17.046875 -17.953125 C 16.609375 -18.304688 15.796875 -18.804688 14.609375 -19.453125 L 15.921875 -22.234375 C 17.898438 -21.421875 19.25 -20.613281 19.96875 -19.8125 C 20.695312 -19.019531 21.0625 -18.242188 21.0625 -17.484375 C 21.0625 -16.203125 20.660156 -14.832031 19.859375 -13.375 C 19.066406 -11.925781 17.695312 -10.203125 15.75 -8.203125 L 21.15625 -2.1875 Z M 18.84375 0.34375 "/></g></g><g style="fill:#1b1b1b;fill-opacity:1;"><g transform="translate(217.965712, 365.785336)"><path style="stroke:none" d="M 13.46875 -22.109375 C 15.851562 -22.109375 17.765625 -21.507812 19.203125 -20.3125 C 20.648438 -19.125 21.375 -17.148438 21.375 -14.390625 C 21.375 -11.109375 20.1875 -8.164062 17.8125 -5.5625 C 15.445312 -2.957031 12.097656 -1 7.765625 0.3125 L 4.796875 0 L 2 -21.71875 L 5.40625 -21.765625 L 7.625 -3.015625 C 10.945312 -3.992188 13.515625 -5.441406 15.328125 -7.359375 C 17.140625 -9.285156 18.046875 -11.46875 18.046875 -13.90625 C 18.046875 -15.96875 17.601562 -17.378906 16.71875 -18.140625 C 15.832031 -18.898438 14.707031 -19.28125 13.34375 -19.28125 C 12.820312 -19.28125 12.273438 -19.253906 11.703125 -19.203125 C 11.140625 -19.160156 10.4375 -19.023438 9.59375 -18.796875 L 9.59375 -21.625 C 10.875 -21.945312 12.164062 -22.109375 13.46875 -22.109375 Z M 13.46875 -22.109375 "/></g></g><g style="fill:#1b1b1b;fill-opacity:1;"><g transform="translate(241.246197, 365.785336)"><path style="stroke:none" d="M 16.75 -2.921875 L 19.890625 -2.921875 L 19.890625 0 L 1.75 0 L 1.75 -2.921875 L 13.46875 -2.921875 L 13.46875 -12.734375 C 13.46875 -14.796875 13.140625 -16.320312 12.484375 -17.3125 C 11.835938 -18.300781 10.484375 -18.796875 8.421875 -18.796875 L 2.21875 -18.796875 L 2.21875 -21.71875 L 8.859375 -21.71875 C 11.523438 -21.71875 13.503906 -21.097656 14.796875 -19.859375 C 16.097656 -18.628906 16.75 -16.585938 16.75 -13.734375 Z M 16.75 -2.921875 "/></g></g><g style="fill:#1b1b1b;fill-opacity:1;"><g transform="translate(262.172489, 365.785336)"><path style="stroke:none" d="M 14.5625 -21.71875 C 17.238281 -21.71875 19.222656 -21.097656 20.515625 -19.859375 C 21.804688 -18.628906 22.453125 -16.585938 22.453125 -13.734375 L 22.453125 0 L 19.1875 0 L 19.1875 -12.734375 C 19.1875 -14.796875 18.859375 -16.320312 18.203125 -17.3125 C 17.546875 -18.300781 16.1875 -18.796875 14.125 -18.796875 L 8.640625 -18.796875 L 8.640625 0 L 1.78125 0 L 1.78125 -2.875 L 5.359375 -2.875 L 5.359375 -18.796875 L 2 -18.796875 L 2 -21.71875 Z M 14.5625 -21.71875 "/></g></g><g style="fill:#1b1b1b;fill-opacity:1;"><g transform="translate(287.676402, 365.785336)"><path style="stroke:none" d="M 17.21875 0 L 17.21875 -12.734375 C 17.21875 -14.796875 16.890625 -16.320312 16.234375 -17.3125 C 15.585938 -18.300781 14.234375 -18.796875 12.171875 -18.796875 L 2.875 -18.796875 L 2.875 -21.71875 L 12.609375 -21.71875 C 15.273438 -21.71875 17.253906 -21.097656 18.546875 -19.859375 C 19.847656 -18.628906 20.5 -16.585938 20.5 -13.734375 L 20.5 0 Z M 3.3125 0 L 3.3125 -11.734375 L 6.578125 -11.734375 L 6.578125 0 Z M 3.3125 0 "/></g></g><g style="fill:#1b1b1b;fill-opacity:1;"><g transform="translate(311.218497, 365.785336)"><path style="stroke:none" d="M 16.75 -2.921875 L 19.890625 -2.921875 L 19.890625 0 L 1.75 0 L 1.75 -2.921875 L 13.46875 -2.921875 L 13.46875 -12.734375 C 13.46875 -14.796875 13.140625 -16.320312 12.484375 -17.3125 C 11.835938 -18.300781 10.484375 -18.796875 8.421875 -18.796875 L 2.21875 -18.796875 L 2.21875 -21.71875 L 8.859375 -21.71875 C 11.523438 -21.71875 13.503906 -21.097656 14.796875 -19.859375 C 16.097656 -18.628906 16.75 -16.585938 16.75 -13.734375 Z M 16.75 -2.921875 "/></g></g><g style="fill:#1b1b1b;fill-opacity:1;"><g transform="translate(332.144789, 365.785336)"><path style="stroke:none" d=""/></g></g><g style="fill:#1b1b1b;fill-opacity:1;"><g transform="translate(341.910391, 365.785336)"><path style="stroke:none" d="M 5.625 -8.71875 L 5.625 -18.75 L 1 -18.75 L 1 -21.671875 L 8.890625 -21.671875 L 8.890625 -8.71875 Z M 5.625 -8.71875 "/></g></g><g style="fill:#1b1b1b;fill-opacity:1;"><g transform="translate(354.030199, 365.785336)"><path style="stroke:none" d="M 24.421875 -21.71875 C 24.453125 -21.394531 24.472656 -20.90625 24.484375 -20.25 C 24.503906 -19.601562 24.519531 -18.957031 24.53125 -18.3125 C 24.539062 -17.675781 24.546875 -17.226562 24.546875 -16.96875 C 24.546875 -13.507812 23.816406 -10.46875 22.359375 -7.84375 C 20.910156 -5.226562 18.832031 -3.207031 16.125 -1.78125 C 13.425781 -0.363281 10.1875 0.285156 6.40625 0.171875 L 4.96875 0 L 2.3125 -21.71875 L 5.625 -21.71875 L 6.671875 -12.03125 C 8.648438 -12.175781 10.007812 -12.859375 10.75 -14.078125 C 11.488281 -15.304688 11.859375 -16.921875 11.859375 -18.921875 C 11.859375 -19.734375 11.816406 -20.664062 11.734375 -21.71875 L 14.953125 -21.71875 C 15.015625 -21.21875 15.054688 -20.726562 15.078125 -20.25 C 15.109375 -19.769531 15.125 -19.328125 15.125 -18.921875 C 15.125 -16.078125 14.476562 -13.867188 13.1875 -12.296875 C 11.894531 -10.722656 9.8125 -9.804688 6.9375 -9.546875 L 7.671875 -2.703125 C 10.640625 -2.734375 13.125 -3.375 15.125 -4.625 C 17.132812 -5.875 18.644531 -7.65625 19.65625 -9.96875 C 20.675781 -12.28125 21.1875 -15.003906 21.1875 -18.140625 C 21.1875 -19.273438 21.113281 -20.46875 20.96875 -21.71875 Z M 24.421875 -21.71875 "/></g></g><g style="fill:#1b1b1b;fill-opacity:1;"><g transform="translate(380.493231, 365.785336)"><path style="stroke:none" d="M 8.671875 -21.71875 L 8.671875 0 L 5.40625 0 L 5.40625 -18.796875 L 1 -18.796875 L 1 -21.71875 Z M 8.671875 -21.71875 "/></g></g><g style="fill:#1b1b1b;fill-opacity:1;"><g transform="translate(392.395066, 365.785336)"><path style="stroke:none" d="M 21.40625 -21.71875 L 21.71875 -21.375 L 16.171875 0 L 12.859375 0 L 17.703125 -18.796875 L 2.359375 -18.796875 L 2.359375 -21.71875 Z M 3.4375 7.28125 L 3.4375 -11.859375 L 6.71875 -11.859375 L 6.71875 7.28125 Z M 3.4375 7.28125 "/></g></g><g style="fill:#1b1b1b;fill-opacity:1;"><g transform="translate(170.985661, 406.244341)"><path style="stroke:none" d="M 14.5625 -21.71875 C 17.238281 -21.71875 19.222656 -21.097656 20.515625 -19.859375 C 21.804688 -18.628906 22.453125 -16.585938 22.453125 -13.734375 L 22.453125 0 L 19.1875 0 L 19.1875 -12.734375 C 19.1875 -14.796875 18.859375 -16.320312 18.203125 -17.3125 C 17.546875 -18.300781 16.1875 -18.796875 14.125 -18.796875 L 8.640625 -18.796875 L 8.640625 0 L 1.78125 0 L 1.78125 -2.875 L 5.359375 -2.875 L 5.359375 -18.796875 L 2 -18.796875 L 2 -21.71875 Z M 14.5625 -21.71875 "/></g></g><g style="fill:#1b1b1b;fill-opacity:1;"><g transform="translate(196.489575, 406.244341)"><path style="stroke:none" d="M 5.625 -8.71875 L 5.625 -18.75 L 1 -18.75 L 1 -21.671875 L 8.890625 -21.671875 L 8.890625 -8.71875 Z M 5.625 -8.71875 "/></g></g><g style="fill:#1b1b1b;fill-opacity:1;"><g transform="translate(208.609382, 406.244341)"><path style="stroke:none" d="M 14.390625 -22.015625 C 16.484375 -22.015625 18.035156 -21.59375 19.046875 -20.75 C 20.066406 -19.914062 20.742188 -18.71875 21.078125 -17.15625 C 21.421875 -15.601562 21.59375 -13.738281 21.59375 -11.5625 L 21.59375 0 L 10.59375 0 L 10.953125 -2.921875 L 18.3125 -2.921875 L 18.3125 -11.6875 C 18.3125 -14.445312 17.96875 -16.367188 17.28125 -17.453125 C 16.601562 -18.546875 15.453125 -19.09375 13.828125 -19.09375 C 12.921875 -19.09375 12.003906 -18.882812 11.078125 -18.46875 C 10.148438 -18.050781 9.191406 -17.503906 8.203125 -16.828125 L 5.96875 0 L 2.65625 0 L 5.0625 -16.796875 L 3.09375 -21.15625 L 5.96875 -22.375 L 7.375 -19.5 C 8.332031 -20.132812 9.410156 -20.710938 10.609375 -21.234375 C 11.816406 -21.753906 13.078125 -22.015625 14.390625 -22.015625 Z M 14.390625 -22.015625 "/></g></g><g style="fill:#1b1b1b;fill-opacity:1;"><g transform="translate(233.19778, 406.244341)"><path style="stroke:none" d="M 19.234375 -17.484375 C 19.234375 -16.609375 19.035156 -15.742188 18.640625 -14.890625 C 18.242188 -14.035156 17.617188 -13.082031 16.765625 -12.03125 C 15.910156 -10.988281 14.785156 -9.738281 13.390625 -8.28125 C 14.171875 -7.269531 15.023438 -6.269531 15.953125 -5.28125 C 16.890625 -4.289062 17.796875 -3.285156 18.671875 -2.265625 L 17.96875 0 L 2.265625 0 L 2.265625 -3.046875 L 10.6875 -3.046875 C 11.351562 -3.023438 12.019531 -3 12.6875 -2.96875 C 13.351562 -2.9375 14.007812 -2.90625 14.65625 -2.875 C 13.601562 -4.09375 12.53125 -5.304688 11.4375 -6.515625 C 10.351562 -7.722656 9.421875 -8.953125 8.640625 -10.203125 L 2.046875 -20.796875 L 4.84375 -22.109375 L 12.078125 -10.15625 C 13.535156 -11.789062 14.546875 -13.113281 15.109375 -14.125 C 15.679688 -15.144531 15.96875 -15.929688 15.96875 -16.484375 C 15.96875 -16.972656 15.75 -17.457031 15.3125 -17.9375 C 14.875 -18.425781 14.054688 -18.988281 12.859375 -19.625 L 14.171875 -22.28125 C 16.117188 -21.46875 17.445312 -20.65625 18.15625 -19.84375 C 18.875 -19.03125 19.234375 -18.242188 19.234375 -17.484375 Z M 19.234375 -17.484375 "/></g></g><g style="fill:#1b1b1b;fill-opacity:1;"><g transform="translate(254.211267, 406.244341)"><path style="stroke:none" d="M 19.921875 -21.765625 C 19.953125 -21.117188 19.972656 -20.488281 19.984375 -19.875 C 20.003906 -19.269531 20.015625 -18.675781 20.015625 -18.09375 C 20.015625 -14.863281 19.726562 -12.144531 19.15625 -9.9375 C 18.59375 -7.726562 17.617188 -5.894531 16.234375 -4.4375 C 14.859375 -2.988281 12.972656 -1.820312 10.578125 -0.9375 C 8.179688 -0.0507812 5.148438 0.664062 1.484375 1.21875 L 1.140625 -1.609375 C 2.410156 -1.785156 3.582031 -1.972656 4.65625 -2.171875 C 5.738281 -2.378906 6.726562 -2.613281 7.625 -2.875 L 2.609375 -21.1875 L 5.890625 -22.015625 L 10.515625 -3.875 C 12.140625 -4.601562 13.410156 -5.507812 14.328125 -6.59375 C 15.242188 -7.6875 15.890625 -9.066406 16.265625 -10.734375 C 16.640625 -12.410156 16.828125 -14.472656 16.828125 -16.921875 C 16.828125 -17.648438 16.8125 -18.421875 16.78125 -19.234375 C 16.757812 -20.046875 16.71875 -20.890625 16.65625 -21.765625 Z M 19.921875 -21.765625 "/></g></g></g></svg>