<svg xmlns="http://www.w3.org/2000/svg" xmlns:xlink="http://www.w3.org/1999/xlink" width="1227" zoomAndPan="magnify" viewBox="0 0 920.25 131.249995" height="175" preserveAspectRatio="xMidYMid meet" version="1.2"><defs><clipPath id="3eaaa123d9"><path d="M 2.242188 0 L 916.859375 0 L 916.859375 130.441406 L 2.242188 130.441406 Z M 2.242188 0 "/></clipPath><clipPath id="b8a26e4c84"><path d="M 60.410156 0 L 858.59375 0 C 874.019531 0 888.816406 6.128906 899.722656 17.035156 C 910.632812 27.945312 916.761719 42.742188 916.761719 58.167969 L 916.761719 72.273438 C 916.761719 87.699219 910.632812 102.496094 899.722656 113.40625 C 888.816406 124.3125 874.019531 130.441406 858.59375 130.441406 L 60.410156 130.441406 C 44.980469 130.441406 30.1875 124.3125 19.277344 113.40625 C 8.371094 102.496094 2.242188 87.699219 2.242188 72.273438 L 2.242188 58.167969 C 2.242188 42.742188 8.371094 27.945312 19.277344 17.035156 C 30.1875 6.128906 44.980469 0 60.410156 0 Z M 60.410156 0 "/></clipPath><clipPath id="ce541c366c"><path d="M 2.261719 0 L 916.515625 0 L 916.515625 130.503906 L 2.261719 130.503906 Z M 2.261719 0 "/></clipPath><clipPath id="40d02df967"><path d="M 60.410156 0 L 858.347656 0 C 873.769531 0 888.5625 6.125 899.464844 17.03125 C 910.371094 27.9375 916.496094 42.726562 916.496094 58.148438 L 916.496094 72.25 C 916.496094 87.671875 910.371094 102.464844 899.464844 113.371094 C 888.5625 124.273438 873.769531 130.402344 858.347656 130.402344 L 60.410156 130.402344 C 44.988281 130.402344 30.199219 124.273438 19.292969 113.371094 C 8.386719 102.464844 2.261719 87.671875 2.261719 72.25 L 2.261719 58.148438 C 2.261719 42.726562 8.386719 27.9375 19.292969 17.03125 C 30.199219 6.125 44.988281 0 60.410156 0 Z M 60.410156 0 "/></clipPath></defs><g id="b8c2e02996"><g clip-rule="nonzero" clip-path="url(#3eaaa123d9)"><g clip-rule="nonzero" clip-path="url(#b8a26e4c84)"><path style=" stroke:none;fill-rule:nonzero;fill:#f5f5f5;fill-opacity:1;" d="M 2.242188 0 L 916.859375 0 L 916.859375 130.441406 L 2.242188 130.441406 Z M 2.242188 0 "/></g></g><g clip-rule="nonzero" clip-path="url(#ce541c366c)"><g clip-rule="nonzero" clip-path="url(#40d02df967)"><path style="fill:none;stroke-width:12;stroke-linecap:butt;stroke-linejoin:miter;stroke:#285256;stroke-opacity:1;stroke-miterlimit:4;" d="M 77.995623 0.00000133367 L 1148.264623 0.00000133367 C 1168.949896 0.00000133367 1188.79162 8.215429 1203.414871 22.843919 C 1218.043362 37.47241 1226.25879 57.308895 1226.25879 77.994168 L 1226.25879 96.908513 C 1226.25879 117.593785 1218.043362 137.43551 1203.414871 152.064 C 1188.79162 166.687251 1168.949896 174.907918 1148.264623 174.907918 L 77.995623 174.907918 C 57.310351 174.907918 37.473866 166.687251 22.845375 152.064 C 8.216885 137.43551 0.00145712 117.593785 0.00145712 96.908513 L 0.00145712 77.994168 C 0.00145712 57.308895 8.216885 37.47241 22.845375 22.843919 C 37.473866 8.215429 57.310351 0.00000133367 77.995623 0.00000133367 Z M 77.995623 0.00000133367 " transform="matrix(0.745549,0,0,0.745549,2.260632,-0.000000994318)"/></g></g><g style="fill:#078074;fill-opacity:1;"><g transform="translate(137.759151, 84.236021)"><path style="stroke:none" d="M 18.609375 1.640625 C 18.703125 -1.078125 18.785156 -3.796875 18.859375 -6.515625 C 18.929688 -9.234375 18.945312 -11.953125 18.90625 -14.671875 C 18.90625 -15.628906 18.804688 -16.570312 18.609375 -17.5 C 18.421875 -18.4375 17.992188 -19.285156 17.328125 -20.046875 C 16.796875 -20.429688 16.1875 -20.632812 15.5 -20.65625 C 14.8125 -20.675781 14.15625 -20.710938 13.53125 -20.765625 C 11.570312 -20.804688 9.648438 -20.816406 7.765625 -20.796875 C 5.878906 -20.773438 4.03125 -20.8125 2.21875 -20.90625 C 2.125 -23.914062 2.085938 -26.898438 2.109375 -29.859375 C 2.128906 -32.816406 2.332031 -35.847656 2.71875 -38.953125 C 5.488281 -39.472656 8.28125 -39.71875 11.09375 -39.6875 C 13.914062 -39.664062 16.753906 -39.5625 19.609375 -39.375 C 21.804688 -39.132812 23.882812 -38.476562 25.84375 -37.40625 C 27.800781 -36.332031 29.484375 -34.957031 30.890625 -33.28125 C 32.296875 -31.613281 33.359375 -29.71875 34.078125 -27.59375 C 34.796875 -25.46875 35.035156 -23.238281 34.796875 -20.90625 C 34.460938 -17.28125 34.03125 -13.6875 33.5 -10.125 C 32.976562 -6.570312 32.238281 -3.054688 31.28125 0.421875 C 29.132812 0.859375 27.007812 1.160156 24.90625 1.328125 C 22.8125 1.492188 20.710938 1.597656 18.609375 1.640625 Z M 18.609375 1.640625 "/></g></g><g style="fill:#078074;fill-opacity:1;"><g transform="translate(172.98186, 84.236021)"><path style="stroke:none" d="M 2.9375 -38.375 C 5.507812 -39.332031 8.144531 -39.664062 10.84375 -39.375 C 13.539062 -39.09375 16.109375 -38.445312 18.546875 -37.4375 C 18.828125 -31.039062 18.859375 -24.679688 18.640625 -18.359375 C 18.429688 -12.035156 17.921875 -5.75 17.109375 0.5 C 14.960938 1.21875 12.765625 1.597656 10.515625 1.640625 C 8.273438 1.691406 6.128906 1.335938 4.078125 0.578125 C 3.410156 -5.867188 2.957031 -12.3125 2.71875 -18.75 C 2.476562 -25.195312 2.550781 -31.738281 2.9375 -38.375 Z M 2.9375 -38.375 "/></g></g><g style="fill:#078074;fill-opacity:1;"><g transform="translate(191.810257, 84.236021)"><path style="stroke:none" d="M 9.875 1.359375 C 9.632812 0.398438 9.421875 -0.53125 9.234375 -1.4375 C 9.046875 -2.34375 8.832031 -3.25 8.59375 -4.15625 C 8.113281 -6.300781 7.882812 -8.492188 7.90625 -10.734375 C 7.9375 -12.984375 8.453125 -15.15625 9.453125 -17.25 C 9.878906 -18.351562 10.40625 -19.5 11.03125 -20.6875 C 9.59375 -20.6875 8.144531 -20.695312 6.6875 -20.71875 C 5.238281 -20.75 3.820312 -20.765625 2.4375 -20.765625 C 2.289062 -23.765625 2.238281 -26.742188 2.28125 -29.703125 C 2.332031 -32.671875 2.550781 -35.679688 2.9375 -38.734375 C 7.28125 -39.546875 11.679688 -39.75 16.140625 -39.34375 C 20.609375 -38.9375 25.132812 -38.253906 29.71875 -37.296875 C 29.8125 -35.054688 29.890625 -32.875 29.953125 -30.75 C 30.023438 -28.625 30.015625 -26.488281 29.921875 -24.34375 C 29.253906 -23.625 28.597656 -22.894531 27.953125 -22.15625 C 27.304688 -21.414062 26.648438 -20.710938 25.984375 -20.046875 C 24.359375 -18.378906 23.25 -16.445312 22.65625 -14.25 C 22.0625 -12.050781 21.957031 -9.851562 22.34375 -7.65625 C 22.4375 -6.175781 22.53125 -4.707031 22.625 -3.25 C 22.71875 -1.800781 22.738281 -0.3125 22.6875 1.21875 C 20.5 1.457031 18.34375 1.585938 16.21875 1.609375 C 14.09375 1.628906 11.976562 1.546875 9.875 1.359375 Z M 9.875 1.359375 "/></g></g><g style="fill:#078074;fill-opacity:1;"><g transform="translate(221.520468, 84.236021)"><path style="stroke:none" d="M 21.84375 -13.390625 C 22.21875 -13.335938 22.617188 -13.332031 23.046875 -13.375 C 23.484375 -13.425781 23.914062 -13.429688 24.34375 -13.390625 C 25.007812 -13.484375 25.484375 -13.863281 25.765625 -14.53125 C 26.054688 -15.195312 26.25 -15.84375 26.34375 -16.46875 C 26.539062 -20.1875 26.722656 -23.921875 26.890625 -27.671875 C 27.054688 -31.421875 27.085938 -35.226562 26.984375 -39.09375 C 29.710938 -38.800781 32.445312 -38.488281 35.1875 -38.15625 C 37.9375 -37.820312 40.71875 -37.460938 43.53125 -37.078125 C 43.625 -32.453125 43.300781 -27.882812 42.5625 -23.375 C 41.820312 -18.863281 40.90625 -14.390625 39.8125 -9.953125 C 39.375 -8.472656 38.75 -7.0625 37.9375 -5.71875 C 37.132812 -4.382812 36.171875 -3.191406 35.046875 -2.140625 C 33.921875 -1.097656 32.664062 -0.242188 31.28125 0.421875 C 29.894531 1.097656 28.441406 1.484375 26.921875 1.578125 C 23.148438 1.722656 19.472656 1.722656 15.890625 1.578125 C 12.316406 1.429688 8.8125 1.097656 5.375 0.578125 C 4.707031 -1.859375 4.15625 -4.316406 3.71875 -6.796875 C 3.289062 -9.285156 2.9375 -11.742188 2.65625 -14.171875 C 3.75 -14.078125 4.84375 -14.003906 5.9375 -13.953125 C 7.039062 -13.910156 8.140625 -13.84375 9.234375 -13.75 C 8.515625 -15.84375 7.757812 -17.925781 6.96875 -20 C 6.1875 -22.082031 5.445312 -24.1875 4.75 -26.3125 C 4.0625 -28.4375 3.46875 -30.570312 2.96875 -32.71875 C 2.46875 -34.863281 2.125 -37.0625 1.9375 -39.3125 C 4.695312 -39.59375 7.472656 -39.769531 10.265625 -39.84375 C 13.066406 -39.914062 15.894531 -39.832031 18.75 -39.59375 C 19.132812 -37.914062 19.515625 -36.21875 19.890625 -34.5 C 20.273438 -32.789062 20.734375 -31.078125 21.265625 -29.359375 C 21.503906 -28.492188 21.632812 -27.582031 21.65625 -26.625 C 21.675781 -25.675781 21.6875 -24.75 21.6875 -23.84375 C 21.644531 -22.070312 21.671875 -20.316406 21.765625 -18.578125 C 21.859375 -16.835938 21.882812 -15.109375 21.84375 -13.390625 Z M 21.84375 -13.390625 "/></g></g><g style="fill:#078074;fill-opacity:1;"><g transform="translate(263.759089, 84.236021)"><path style="stroke:none" d="M 13.3125 1.28125 C 13.070312 -1.4375 12.90625 -3.941406 12.8125 -6.234375 C 12.71875 -8.523438 12.597656 -11.003906 12.453125 -13.671875 C 13.171875 -13.722656 13.9375 -13.75 14.75 -13.75 C 15.5625 -13.75 16.335938 -13.816406 17.078125 -13.953125 C 17.816406 -14.097656 18.484375 -14.375 19.078125 -14.78125 C 19.671875 -15.1875 20.085938 -15.820312 20.328125 -16.6875 C 20.421875 -17.351562 20.347656 -18.03125 20.109375 -18.71875 C 19.878906 -19.414062 19.359375 -19.8125 18.546875 -19.90625 C 15.679688 -20 12.898438 -20.09375 10.203125 -20.1875 C 7.503906 -20.28125 4.84375 -20.445312 2.21875 -20.6875 C 1.976562 -23.507812 1.757812 -26.003906 1.5625 -28.171875 C 1.375 -30.335938 1.234375 -32.457031 1.140625 -34.53125 C 1.046875 -36.613281 1.019531 -38.753906 1.0625 -40.953125 C 1.113281 -43.148438 1.257812 -45.703125 1.5 -48.609375 C 4.269531 -49.367188 7.0625 -49.710938 9.875 -49.640625 C 12.695312 -49.578125 15.539062 -49.472656 18.40625 -49.328125 C 18.40625 -47.898438 18.414062 -46.8125 18.4375 -46.0625 C 18.457031 -45.320312 18.46875 -44.640625 18.46875 -44.015625 C 18.46875 -43.398438 18.46875 -42.734375 18.46875 -42.015625 C 18.46875 -41.304688 18.46875 -40.257812 18.46875 -38.875 C 20.28125 -38.726562 22.117188 -38.59375 23.984375 -38.46875 C 25.847656 -38.351562 27.734375 -38.203125 29.640625 -38.015625 C 30.929688 -38.015625 32.125 -37.710938 33.21875 -37.109375 C 34.3125 -36.515625 35.226562 -35.738281 35.96875 -34.78125 C 36.707031 -33.832031 37.234375 -32.75 37.546875 -31.53125 C 37.859375 -30.320312 37.894531 -29.070312 37.65625 -27.78125 C 37.46875 -25.820312 37.265625 -23.875 37.046875 -21.9375 C 36.835938 -20.007812 36.613281 -18.066406 36.375 -16.109375 C 35.9375 -13.335938 34.976562 -10.816406 33.5 -8.546875 C 32.019531 -6.285156 30.226562 -4.390625 28.125 -2.859375 C 26.03125 -1.335938 23.691406 -0.207031 21.109375 0.53125 C 18.535156 1.269531 15.9375 1.519531 13.3125 1.28125 Z M 13.3125 1.28125 "/></g></g><g style="fill:#078074;fill-opacity:1;"><g transform="translate(300.914749, 84.236021)"><path style="stroke:none" d=""/></g></g><g style="fill:#078074;fill-opacity:1;"><g transform="translate(314.087476, 84.236021)"><path style="stroke:none" d="M 5.875 0.578125 C 4.34375 -5.910156 3.242188 -12.460938 2.578125 -19.078125 C 1.910156 -25.691406 2.050781 -32.410156 3 -39.234375 C 7.207031 -39.804688 11.429688 -40.019531 15.671875 -39.875 C 19.921875 -39.726562 24.289062 -39.421875 28.78125 -38.953125 C 30.976562 -38.710938 33.113281 -38.148438 35.1875 -37.265625 C 37.257812 -36.378906 38.988281 -35.078125 40.375 -33.359375 C 41.425781 -31.972656 42.082031 -30.410156 42.34375 -28.671875 C 42.601562 -26.929688 42.6875 -25.15625 42.59375 -23.34375 C 41.925781 -15.132812 40.425781 -7.210938 38.09375 0.421875 C 32.363281 1.285156 26.8125 1.726562 21.4375 1.75 C 16.070312 1.78125 10.882812 1.390625 5.875 0.578125 Z M 26.984375 -11.953125 C 27.085938 -13.097656 27.125 -14.253906 27.09375 -15.421875 C 27.070312 -16.597656 27.109375 -17.78125 27.203125 -18.96875 C 27.441406 -19.925781 27.203125 -20.691406 26.484375 -21.265625 C 25.773438 -21.835938 25.015625 -22.050781 24.203125 -21.90625 C 23.191406 -21.90625 22.171875 -21.925781 21.140625 -21.96875 C 20.117188 -22.019531 19.132812 -22.070312 18.1875 -22.125 C 18.1875 -20.445312 18.1875 -18.773438 18.1875 -17.109375 C 18.1875 -15.441406 18.234375 -13.769531 18.328125 -12.09375 C 19.710938 -12.050781 21.117188 -12.03125 22.546875 -12.03125 C 23.984375 -12.03125 25.460938 -12.003906 26.984375 -11.953125 Z M 26.984375 -11.953125 "/></g></g><g style="fill:#078074;fill-opacity:1;"><g transform="translate(356.326097, 84.236021)"><path style="stroke:none" d="M 3.15625 -38.375 C 5.78125 -39 8.40625 -39.140625 11.03125 -38.796875 C 13.65625 -38.460938 16.28125 -38.007812 18.90625 -37.4375 C 19.1875 -33.332031 19.226562 -29.226562 19.03125 -25.125 C 18.84375 -21.019531 18.367188 -16.914062 17.609375 -12.8125 C 12.835938 -11.863281 8.253906 -12.007812 3.859375 -13.25 C 3.191406 -17.300781 2.785156 -21.425781 2.640625 -25.625 C 2.503906 -29.832031 2.675781 -34.082031 3.15625 -38.375 Z M 3.15625 -38.375 "/></g></g><g style="fill:#078074;fill-opacity:1;"><g transform="translate(375.512457, 84.236021)"><path style="stroke:none" d="M 13.3125 1.28125 C 13.070312 -1.4375 12.90625 -3.941406 12.8125 -6.234375 C 12.71875 -8.523438 12.597656 -11.003906 12.453125 -13.671875 C 13.171875 -13.722656 13.9375 -13.75 14.75 -13.75 C 15.5625 -13.75 16.335938 -13.816406 17.078125 -13.953125 C 17.816406 -14.097656 18.484375 -14.375 19.078125 -14.78125 C 19.671875 -15.1875 20.085938 -15.820312 20.328125 -16.6875 C 20.421875 -17.351562 20.347656 -18.03125 20.109375 -18.71875 C 19.878906 -19.414062 19.359375 -19.8125 18.546875 -19.90625 C 15.679688 -20 12.898438 -20.09375 10.203125 -20.1875 C 7.503906 -20.28125 4.84375 -20.445312 2.21875 -20.6875 C 1.976562 -23.507812 1.757812 -26.003906 1.5625 -28.171875 C 1.375 -30.335938 1.234375 -32.457031 1.140625 -34.53125 C 1.046875 -36.613281 1.019531 -38.753906 1.0625 -40.953125 C 1.113281 -43.148438 1.257812 -45.703125 1.5 -48.609375 C 4.269531 -49.367188 7.0625 -49.710938 9.875 -49.640625 C 12.695312 -49.578125 15.539062 -49.472656 18.40625 -49.328125 C 18.40625 -47.898438 18.414062 -46.8125 18.4375 -46.0625 C 18.457031 -45.320312 18.46875 -44.640625 18.46875 -44.015625 C 18.46875 -43.398438 18.46875 -42.734375 18.46875 -42.015625 C 18.46875 -41.304688 18.46875 -40.257812 18.46875 -38.875 C 20.28125 -38.726562 22.117188 -38.59375 23.984375 -38.46875 C 25.847656 -38.351562 27.734375 -38.203125 29.640625 -38.015625 C 30.929688 -38.015625 32.125 -37.710938 33.21875 -37.109375 C 34.3125 -36.515625 35.226562 -35.738281 35.96875 -34.78125 C 36.707031 -33.832031 37.234375 -32.75 37.546875 -31.53125 C 37.859375 -30.320312 37.894531 -29.070312 37.65625 -27.78125 C 37.46875 -25.820312 37.265625 -23.875 37.046875 -21.9375 C 36.835938 -20.007812 36.613281 -18.066406 36.375 -16.109375 C 35.9375 -13.335938 34.976562 -10.816406 33.5 -8.546875 C 32.019531 -6.285156 30.226562 -4.390625 28.125 -2.859375 C 26.03125 -1.335938 23.691406 -0.207031 21.109375 0.53125 C 18.535156 1.269531 15.9375 1.519531 13.3125 1.28125 Z M 13.3125 1.28125 "/></g></g><g style="fill:#078074;fill-opacity:1;"><g transform="translate(412.668117, 84.236021)"><path style="stroke:none" d="M 2.9375 -38.375 C 5.507812 -39.332031 8.144531 -39.664062 10.84375 -39.375 C 13.539062 -39.09375 16.109375 -38.445312 18.546875 -37.4375 C 18.828125 -31.039062 18.859375 -24.679688 18.640625 -18.359375 C 18.429688 -12.035156 17.921875 -5.75 17.109375 0.5 C 14.960938 1.21875 12.765625 1.597656 10.515625 1.640625 C 8.273438 1.691406 6.128906 1.335938 4.078125 0.578125 C 3.410156 -5.867188 2.957031 -12.3125 2.71875 -18.75 C 2.476562 -25.195312 2.550781 -31.738281 2.9375 -38.375 Z M 2.9375 -38.375 "/></g></g><g style="fill:#078074;fill-opacity:1;"><g transform="translate(431.496514, 84.236021)"><path style="stroke:none" d="M 3.578125 -39.015625 C 6.492188 -39.492188 9.476562 -39.71875 12.53125 -39.6875 C 15.582031 -39.664062 18.6875 -39.46875 21.84375 -39.09375 C 24.269531 -38.800781 26.390625 -37.953125 28.203125 -36.546875 C 30.015625 -35.140625 31.484375 -33.394531 32.609375 -31.3125 C 33.734375 -29.238281 34.484375 -26.972656 34.859375 -24.515625 C 35.242188 -22.054688 35.222656 -19.660156 34.796875 -17.328125 C 34.554688 -15.273438 34.101562 -13.160156 33.4375 -10.984375 C 32.769531 -8.816406 31.847656 -6.828125 30.671875 -5.015625 C 29.503906 -3.203125 28.070312 -1.6875 26.375 -0.46875 C 24.6875 0.75 22.71875 1.429688 20.46875 1.578125 C 17.894531 1.671875 15.390625 1.632812 12.953125 1.46875 C 10.523438 1.300781 8.140625 0.976562 5.796875 0.5 C 5.367188 -1.9375 4.960938 -4.367188 4.578125 -6.796875 C 4.203125 -9.234375 3.894531 -11.671875 3.65625 -14.109375 C 5.414062 -13.867188 7.191406 -13.722656 8.984375 -13.671875 C 10.773438 -13.628906 12.578125 -13.554688 14.390625 -13.453125 C 15.054688 -13.359375 15.722656 -13.382812 16.390625 -13.53125 C 17.054688 -13.675781 17.726562 -13.867188 18.40625 -14.109375 C 18.738281 -14.484375 18.960938 -14.894531 19.078125 -15.34375 C 19.203125 -15.800781 19.238281 -16.269531 19.1875 -16.75 C 19.238281 -17.375 19.144531 -17.945312 18.90625 -18.46875 C 18.664062 -19 18.328125 -19.441406 17.890625 -19.796875 C 17.460938 -20.148438 16.972656 -20.410156 16.421875 -20.578125 C 15.878906 -20.742188 15.320312 -20.78125 14.75 -20.6875 C 12.738281 -20.644531 10.765625 -20.671875 8.828125 -20.765625 C 6.898438 -20.859375 4.984375 -20.859375 3.078125 -20.765625 C 2.929688 -23.816406 2.867188 -26.832031 2.890625 -29.8125 C 2.921875 -32.800781 3.148438 -35.867188 3.578125 -39.015625 Z M 3.578125 -39.015625 "/></g></g><g style="fill:#078074;fill-opacity:1;"><g transform="translate(466.57604, 84.236021)"><path style="stroke:none" d="M 3.15625 -38.375 C 5.78125 -39 8.40625 -39.140625 11.03125 -38.796875 C 13.65625 -38.460938 16.28125 -38.007812 18.90625 -37.4375 C 19.1875 -33.332031 19.226562 -29.226562 19.03125 -25.125 C 18.84375 -21.019531 18.367188 -16.914062 17.609375 -12.8125 C 12.835938 -11.863281 8.253906 -12.007812 3.859375 -13.25 C 3.191406 -17.300781 2.785156 -21.425781 2.640625 -25.625 C 2.503906 -29.832031 2.675781 -34.082031 3.15625 -38.375 Z M 3.15625 -38.375 "/></g></g><g style="fill:#078074;fill-opacity:1;"><g transform="translate(485.7624, 84.236021)"><path style="stroke:none" d="M 22.6875 -38.953125 C 24.976562 -38.847656 27.304688 -38.710938 29.671875 -38.546875 C 32.035156 -38.378906 34.4375 -38.175781 36.875 -37.9375 C 37.113281 -33.59375 37.148438 -29.320312 36.984375 -25.125 C 36.816406 -20.925781 36.613281 -16.679688 36.375 -12.390625 L 37.796875 -12.453125 C 38.460938 -12.453125 38.972656 -12.617188 39.328125 -12.953125 C 39.691406 -13.285156 39.957031 -13.703125 40.125 -14.203125 C 40.289062 -14.710938 40.394531 -15.253906 40.4375 -15.828125 C 40.488281 -16.398438 40.539062 -16.898438 40.59375 -17.328125 C 40.976562 -20.710938 41.253906 -24.097656 41.421875 -27.484375 C 41.585938 -30.878906 41.625 -34.269531 41.53125 -37.65625 C 44.101562 -37.375 46.6875 -37.113281 49.28125 -36.875 C 51.882812 -36.632812 54.523438 -36.347656 57.203125 -36.015625 C 57.441406 -32.523438 57.34375 -29.023438 56.90625 -25.515625 C 56.476562 -22.015625 55.929688 -18.546875 55.265625 -15.109375 C 54.890625 -13.148438 54.28125 -11.226562 53.4375 -9.34375 C 52.601562 -7.457031 51.539062 -5.738281 50.25 -4.1875 C 48.96875 -2.632812 47.453125 -1.367188 45.703125 -0.390625 C 43.960938 0.585938 42 1.144531 39.8125 1.28125 C 35.9375 1.519531 32.140625 1.628906 28.421875 1.609375 C 24.703125 1.585938 21.050781 1.53125 17.46875 1.4375 C 15.507812 1.476562 13.671875 1.117188 11.953125 0.359375 C 10.234375 -0.398438 8.726562 -1.445312 7.4375 -2.78125 C 6.15625 -4.125 5.109375 -5.664062 4.296875 -7.40625 C 3.484375 -9.144531 3.003906 -10.945312 2.859375 -12.8125 C 2.046875 -17.0625 1.484375 -21.359375 1.171875 -25.703125 C 0.867188 -30.046875 1.078125 -34.410156 1.796875 -38.796875 C 4.460938 -39.140625 7.128906 -39.3125 9.796875 -39.3125 C 12.472656 -39.3125 15.222656 -39.257812 18.046875 -39.15625 C 18.046875 -35.53125 18.113281 -31.9375 18.25 -28.375 C 18.394531 -24.820312 18.585938 -21.257812 18.828125 -17.6875 C 18.773438 -17.113281 18.796875 -16.515625 18.890625 -15.890625 C 18.992188 -15.273438 19.1875 -14.703125 19.46875 -14.171875 C 19.757812 -13.648438 20.128906 -13.242188 20.578125 -12.953125 C 21.035156 -12.671875 21.597656 -12.578125 22.265625 -12.671875 L 23.046875 -12.671875 C 22.953125 -17.015625 22.867188 -21.378906 22.796875 -25.765625 C 22.722656 -30.160156 22.6875 -34.554688 22.6875 -38.953125 Z M 22.6875 -38.953125 "/></g></g><g style="fill:#078074;fill-opacity:1;"><g transform="translate(541.603263, 84.236021)"><path style="stroke:none" d=""/></g></g><g style="fill:#078074;fill-opacity:1;"><g transform="translate(554.776036, 84.236021)"><path style="stroke:none" d="M 5.875 0.578125 C 4.34375 -5.910156 3.242188 -12.460938 2.578125 -19.078125 C 1.910156 -25.691406 2.050781 -32.410156 3 -39.234375 C 7.207031 -39.804688 11.429688 -40.019531 15.671875 -39.875 C 19.921875 -39.726562 24.289062 -39.421875 28.78125 -38.953125 C 30.976562 -38.710938 33.113281 -38.148438 35.1875 -37.265625 C 37.257812 -36.378906 38.988281 -35.078125 40.375 -33.359375 C 41.425781 -31.972656 42.082031 -30.410156 42.34375 -28.671875 C 42.601562 -26.929688 42.6875 -25.15625 42.59375 -23.34375 C 41.925781 -15.132812 40.425781 -7.210938 38.09375 0.421875 C 32.363281 1.285156 26.8125 1.726562 21.4375 1.75 C 16.070312 1.78125 10.882812 1.390625 5.875 0.578125 Z M 26.984375 -11.953125 C 27.085938 -13.097656 27.125 -14.253906 27.09375 -15.421875 C 27.070312 -16.597656 27.109375 -17.78125 27.203125 -18.96875 C 27.441406 -19.925781 27.203125 -20.691406 26.484375 -21.265625 C 25.773438 -21.835938 25.015625 -22.050781 24.203125 -21.90625 C 23.191406 -21.90625 22.171875 -21.925781 21.140625 -21.96875 C 20.117188 -22.019531 19.132812 -22.070312 18.1875 -22.125 C 18.1875 -20.445312 18.1875 -18.773438 18.1875 -17.109375 C 18.1875 -15.441406 18.234375 -13.769531 18.328125 -12.09375 C 19.710938 -12.050781 21.117188 -12.03125 22.546875 -12.03125 C 23.984375 -12.03125 25.460938 -12.003906 26.984375 -11.953125 Z M 26.984375 -11.953125 "/></g></g><g style="fill:#078074;fill-opacity:1;"><g transform="translate(597.014634, 84.236021)"><path style="stroke:none" d="M 3.15625 -38.375 C 5.78125 -39 8.40625 -39.140625 11.03125 -38.796875 C 13.65625 -38.460938 16.28125 -38.007812 18.90625 -37.4375 C 19.1875 -33.332031 19.226562 -29.226562 19.03125 -25.125 C 18.84375 -21.019531 18.367188 -16.914062 17.609375 -12.8125 C 12.835938 -11.863281 8.253906 -12.007812 3.859375 -13.25 C 3.191406 -17.300781 2.785156 -21.425781 2.640625 -25.625 C 2.503906 -29.832031 2.675781 -34.082031 3.15625 -38.375 Z M 3.15625 -38.375 "/></g></g><g style="fill:#078074;fill-opacity:1;"><g transform="translate(616.200971, 84.236021)"><path style="stroke:none" d="M 18.609375 1.640625 C 18.703125 -1.078125 18.785156 -3.796875 18.859375 -6.515625 C 18.929688 -9.234375 18.945312 -11.953125 18.90625 -14.671875 C 18.90625 -15.628906 18.804688 -16.570312 18.609375 -17.5 C 18.421875 -18.4375 17.992188 -19.285156 17.328125 -20.046875 C 16.796875 -20.429688 16.1875 -20.632812 15.5 -20.65625 C 14.8125 -20.675781 14.15625 -20.710938 13.53125 -20.765625 C 11.570312 -20.804688 9.648438 -20.816406 7.765625 -20.796875 C 5.878906 -20.773438 4.03125 -20.8125 2.21875 -20.90625 C 2.125 -23.914062 2.085938 -26.898438 2.109375 -29.859375 C 2.128906 -32.816406 2.332031 -35.847656 2.71875 -38.953125 C 5.488281 -39.472656 8.28125 -39.71875 11.09375 -39.6875 C 13.914062 -39.664062 16.753906 -39.5625 19.609375 -39.375 C 21.804688 -39.132812 23.882812 -38.476562 25.84375 -37.40625 C 27.800781 -36.332031 29.484375 -34.957031 30.890625 -33.28125 C 32.296875 -31.613281 33.359375 -29.71875 34.078125 -27.59375 C 34.796875 -25.46875 35.035156 -23.238281 34.796875 -20.90625 C 34.460938 -17.28125 34.03125 -13.6875 33.5 -10.125 C 32.976562 -6.570312 32.238281 -3.054688 31.28125 0.421875 C 29.132812 0.859375 27.007812 1.160156 24.90625 1.328125 C 22.8125 1.492188 20.710938 1.597656 18.609375 1.640625 Z M 18.609375 1.640625 "/></g></g><g style="fill:#078074;fill-opacity:1;"><g transform="translate(651.423692, 84.236021)"><path style="stroke:none" d="M 6.234375 -21.1875 C 5.753906 -21.09375 5.285156 -21.09375 4.828125 -21.1875 C 4.378906 -21.28125 3.890625 -21.304688 3.359375 -21.265625 C 3.265625 -24.273438 3.238281 -27.28125 3.28125 -30.28125 C 3.332031 -33.289062 3.578125 -36.320312 4.015625 -39.375 C 8.253906 -39.800781 12.566406 -39.953125 16.953125 -39.828125 C 21.347656 -39.710938 25.863281 -39.421875 30.5 -38.953125 C 32.5 -38.847656 34.476562 -38.363281 36.4375 -37.5 C 38.394531 -36.644531 40.101562 -35.503906 41.5625 -34.078125 C 43.019531 -32.648438 44.117188 -30.976562 44.859375 -29.0625 C 45.597656 -27.15625 45.773438 -25.101562 45.390625 -22.90625 C 44.960938 -18.851562 44.378906 -14.878906 43.640625 -10.984375 C 42.898438 -7.097656 41.859375 -3.296875 40.515625 0.421875 C 38.367188 0.710938 36.242188 0.953125 34.140625 1.140625 C 32.046875 1.335938 29.972656 1.484375 27.921875 1.578125 C 28.253906 -1.242188 28.539062 -4.082031 28.78125 -6.9375 C 29.019531 -9.800781 29.210938 -12.664062 29.359375 -15.53125 C 29.453125 -16.914062 29.285156 -18.179688 28.859375 -19.328125 C 28.566406 -19.859375 28.144531 -20.226562 27.59375 -20.4375 C 27.050781 -20.65625 26.492188 -20.738281 25.921875 -20.6875 C 25.253906 -20.644531 24.617188 -20.632812 24.015625 -20.65625 C 23.421875 -20.675781 22.789062 -20.710938 22.125 -20.765625 C 22.21875 -13.222656 22.21875 -5.726562 22.125 1.71875 C 20.644531 1.71875 19.054688 1.679688 17.359375 1.609375 C 15.660156 1.535156 13.953125 1.453125 12.234375 1.359375 C 10.523438 1.265625 8.84375 1.117188 7.1875 0.921875 C 5.539062 0.734375 4.050781 0.519531 2.71875 0.28125 C 2.195312 -2.34375 1.921875 -4.773438 1.890625 -7.015625 C 1.867188 -9.253906 1.90625 -11.664062 2 -14.25 C 2.8125 -14.195312 3.625 -14.132812 4.4375 -14.0625 C 5.25 -13.988281 6.0625 -13.953125 6.875 -13.953125 C 6.726562 -15.148438 6.609375 -16.34375 6.515625 -17.53125 C 6.421875 -18.726562 6.328125 -19.945312 6.234375 -21.1875 Z M 6.234375 -21.1875 "/></g></g><g style="fill:#078074;fill-opacity:1;"><g transform="translate(696.168006, 84.236021)"><path style="stroke:none" d="M 45.890625 -26.5625 C 45.742188 -24.695312 45.226562 -22.90625 44.34375 -21.1875 C 43.46875 -19.46875 42.359375 -17.914062 41.015625 -16.53125 C 40.210938 -15.769531 39.414062 -15.007812 38.625 -14.25 C 37.832031 -13.488281 37.03125 -12.703125 36.21875 -11.890625 C 36.789062 -10.878906 37.4375 -9.859375 38.15625 -8.828125 C 38.875 -7.804688 39.578125 -6.78125 40.265625 -5.75 C 40.960938 -4.726562 41.609375 -3.679688 42.203125 -2.609375 C 42.796875 -1.535156 43.285156 -0.472656 43.671875 0.578125 C 38.234375 1.335938 32.957031 1.765625 27.84375 1.859375 C 26.601562 -0.285156 25.113281 -2.429688 23.375 -4.578125 C 21.632812 -6.722656 20.070312 -8.773438 18.6875 -10.734375 C 18.445312 -10.253906 18.328125 -9.679688 18.328125 -9.015625 C 18.421875 -7.203125 18.488281 -5.410156 18.53125 -3.640625 C 18.582031 -1.878906 18.65625 -0.09375 18.75 1.71875 C 16.46875 1.625 14.191406 1.492188 11.921875 1.328125 C 9.648438 1.160156 7.414062 0.882812 5.21875 0.5 C 4.695312 -1.125 4.28125 -2.757812 3.96875 -4.40625 C 3.664062 -6.050781 3.320312 -7.6875 2.9375 -9.3125 C 2.644531 -10.3125 2.546875 -11.320312 2.640625 -12.34375 C 2.742188 -13.375 2.960938 -14.378906 3.296875 -15.359375 C 3.628906 -16.335938 4.066406 -17.265625 4.609375 -18.140625 C 5.160156 -19.023438 5.75 -19.875 6.375 -20.6875 C 6.894531 -21.40625 7.414062 -22.132812 7.9375 -22.875 C 8.46875 -23.613281 9.019531 -24.34375 9.59375 -25.0625 C 8.164062 -27.445312 6.734375 -29.769531 5.296875 -32.03125 C 3.867188 -34.300781 2.75 -36.75 1.9375 -39.375 C 4.9375 -39.664062 7.941406 -39.832031 10.953125 -39.875 C 13.960938 -39.925781 17.039062 -39.851562 20.1875 -39.65625 C 20.90625 -38.175781 21.609375 -36.789062 22.296875 -35.5 C 22.992188 -34.21875 23.6875 -32.941406 24.375 -31.671875 C 25.070312 -30.410156 25.789062 -29.125 26.53125 -27.8125 C 27.269531 -26.5 28.046875 -25.101562 28.859375 -23.625 C 29.285156 -25.007812 29.546875 -26.320312 29.640625 -27.5625 C 29.734375 -28.800781 29.734375 -30.03125 29.640625 -31.25 C 29.546875 -32.46875 29.414062 -33.707031 29.25 -34.96875 C 29.082031 -36.238281 28.925781 -37.566406 28.78125 -38.953125 C 31.457031 -38.660156 34.140625 -38.359375 36.828125 -38.046875 C 39.523438 -37.742188 42.285156 -37.398438 45.109375 -37.015625 C 45.203125 -35.296875 45.398438 -33.578125 45.703125 -31.859375 C 46.015625 -30.140625 46.078125 -28.375 45.890625 -26.5625 Z M 45.890625 -26.5625 "/></g></g><g style="fill:#078074;fill-opacity:1;"><g transform="translate(741.485052, 84.236021)"><path style="stroke:none" d="M 13.3125 1.28125 C 13.070312 -1.4375 12.90625 -3.941406 12.8125 -6.234375 C 12.71875 -8.523438 12.597656 -11.003906 12.453125 -13.671875 C 13.171875 -13.722656 13.9375 -13.75 14.75 -13.75 C 15.5625 -13.75 16.335938 -13.816406 17.078125 -13.953125 C 17.816406 -14.097656 18.484375 -14.375 19.078125 -14.78125 C 19.671875 -15.1875 20.085938 -15.820312 20.328125 -16.6875 C 20.421875 -17.351562 20.347656 -18.03125 20.109375 -18.71875 C 19.878906 -19.414062 19.359375 -19.8125 18.546875 -19.90625 C 15.679688 -20 12.898438 -20.09375 10.203125 -20.1875 C 7.503906 -20.28125 4.84375 -20.445312 2.21875 -20.6875 C 1.976562 -23.507812 1.757812 -26.003906 1.5625 -28.171875 C 1.375 -30.335938 1.234375 -32.457031 1.140625 -34.53125 C 1.046875 -36.613281 1.019531 -38.753906 1.0625 -40.953125 C 1.113281 -43.148438 1.257812 -45.703125 1.5 -48.609375 C 4.269531 -49.367188 7.0625 -49.710938 9.875 -49.640625 C 12.695312 -49.578125 15.539062 -49.472656 18.40625 -49.328125 C 18.40625 -47.898438 18.414062 -46.8125 18.4375 -46.0625 C 18.457031 -45.320312 18.46875 -44.640625 18.46875 -44.015625 C 18.46875 -43.398438 18.46875 -42.734375 18.46875 -42.015625 C 18.46875 -41.304688 18.46875 -40.257812 18.46875 -38.875 C 20.28125 -38.726562 22.117188 -38.59375 23.984375 -38.46875 C 25.847656 -38.351562 27.734375 -38.203125 29.640625 -38.015625 C 30.929688 -38.015625 32.125 -37.710938 33.21875 -37.109375 C 34.3125 -36.515625 35.226562 -35.738281 35.96875 -34.78125 C 36.707031 -33.832031 37.234375 -32.75 37.546875 -31.53125 C 37.859375 -30.320312 37.894531 -29.070312 37.65625 -27.78125 C 37.46875 -25.820312 37.265625 -23.875 37.046875 -21.9375 C 36.835938 -20.007812 36.613281 -18.066406 36.375 -16.109375 C 35.9375 -13.335938 34.976562 -10.816406 33.5 -8.546875 C 32.019531 -6.285156 30.226562 -4.390625 28.125 -2.859375 C 26.03125 -1.335938 23.691406 -0.207031 21.109375 0.53125 C 18.535156 1.269531 15.9375 1.519531 13.3125 1.28125 Z M 13.3125 1.28125 "/></g></g></g></svg>