<svg xmlns="http://www.w3.org/2000/svg" xmlns:xlink="http://www.w3.org/1999/xlink" width="1361" zoomAndPan="magnify" viewBox="0 0 1020.75 309.749993" height="413" preserveAspectRatio="xMidYMid meet" version="1.2"><defs/><g id="072484c0a3"><g style="fill:#078074;fill-opacity:1;"><g transform="translate(78.076527, 146.737748)"><path style="stroke:none" d="M 31.421875 -23.625 C 35.578125 -23.363281 39.796875 -23.191406 44.078125 -23.109375 C 48.367188 -23.023438 52.71875 -23.023438 57.125 -23.109375 C 56.78125 -18.691406 56.328125 -14.40625 55.765625 -10.25 C 55.203125 -6.101562 54.578125 -1.90625 53.890625 2.34375 C 50.253906 2.769531 46.640625 3.023438 43.046875 3.109375 C 39.453125 3.203125 35.878906 3.203125 32.328125 3.109375 C 32.160156 -1.390625 32.007812 -5.84375 31.875 -10.25 C 31.75 -14.664062 31.597656 -19.125 31.421875 -23.625 Z M 5.453125 -44.53125 C 5.191406 -46.875 5.015625 -49.253906 4.921875 -51.671875 C 4.835938 -54.097656 4.96875 -56.5 5.3125 -58.875 C 5.664062 -61.257812 6.273438 -63.597656 7.140625 -65.890625 C 8.003906 -68.191406 9.257812 -70.378906 10.90625 -72.453125 C 12.894531 -74.785156 15.144531 -76.625 17.65625 -77.96875 C 20.164062 -79.3125 22.785156 -80.265625 25.515625 -80.828125 C 28.242188 -81.390625 31.035156 -81.671875 33.890625 -81.671875 C 36.742188 -81.671875 39.554688 -81.539062 42.328125 -81.28125 C 46.046875 -81.195312 49.851562 -80.460938 53.75 -79.078125 C 57.644531 -77.691406 61.085938 -75.722656 64.078125 -73.171875 C 67.066406 -70.617188 69.378906 -67.546875 71.015625 -63.953125 C 72.660156 -60.359375 73.140625 -56.351562 72.453125 -51.9375 C 72.015625 -47.09375 70.390625 -42.59375 67.578125 -38.4375 C 64.765625 -34.28125 61.410156 -30.726562 57.515625 -27.78125 C 53.015625 -27.695312 48.644531 -27.675781 44.40625 -27.71875 C 40.164062 -27.757812 35.925781 -27.828125 31.6875 -27.921875 C 31.507812 -28.691406 31.375 -29.445312 31.28125 -30.1875 C 31.195312 -30.925781 31.070312 -31.679688 30.90625 -32.453125 C 30.726562 -33.410156 30.832031 -34.300781 31.21875 -35.125 C 31.613281 -35.945312 32.09375 -36.703125 32.65625 -37.390625 C 33.21875 -38.085938 33.84375 -38.738281 34.53125 -39.34375 C 35.226562 -39.945312 35.835938 -40.597656 36.359375 -41.296875 C 37.566406 -42.929688 38.625 -44.785156 39.53125 -46.859375 C 40.445312 -48.941406 40.472656 -50.976562 39.609375 -52.96875 C 38.910156 -53.84375 38.0625 -54.382812 37.0625 -54.59375 C 36.070312 -54.8125 35.078125 -54.722656 34.078125 -54.328125 C 33.085938 -53.941406 32.265625 -53.316406 31.609375 -52.453125 C 30.960938 -51.585938 30.726562 -50.550781 30.90625 -49.34375 C 30.8125 -48.476562 30.785156 -47.632812 30.828125 -46.8125 C 30.878906 -45.988281 30.90625 -45.144531 30.90625 -44.28125 C 26.488281 -44.445312 22.179688 -44.53125 17.984375 -44.53125 C 13.785156 -44.53125 9.609375 -44.53125 5.453125 -44.53125 Z M 5.453125 -44.53125 "/></g></g><g style="fill:#078074;fill-opacity:1;"><g transform="translate(148.45195, 146.737748)"><path style="stroke:none" d="M 5.71875 -69.59375 C 10.476562 -70.71875 15.238281 -70.976562 20 -70.375 C 24.757812 -69.769531 29.519531 -68.945312 34.28125 -67.90625 C 34.800781 -60.457031 34.882812 -53.007812 34.53125 -45.5625 C 34.1875 -38.125 33.320312 -30.679688 31.9375 -23.234375 C 23.28125 -21.503906 14.972656 -21.765625 7.015625 -24.015625 C 5.796875 -31.378906 5.054688 -38.867188 4.796875 -46.484375 C 4.546875 -54.097656 4.851562 -61.800781 5.71875 -69.59375 Z M 5.71875 -69.59375 "/></g></g><g style="fill:#078074;fill-opacity:1;"><g transform="translate(183.249996, 146.737748)"><path style="stroke:none" d="M 41.15625 -70.640625 C 45.3125 -70.460938 49.53125 -70.222656 53.8125 -69.921875 C 58.101562 -69.617188 62.457031 -69.25 66.875 -68.8125 C 67.300781 -60.9375 67.363281 -53.191406 67.0625 -45.578125 C 66.757812 -37.960938 66.390625 -30.257812 65.953125 -22.46875 L 68.5625 -22.59375 C 69.769531 -22.59375 70.695312 -22.894531 71.34375 -23.5 C 72 -24.101562 72.476562 -24.859375 72.78125 -25.765625 C 73.082031 -26.679688 73.273438 -27.65625 73.359375 -28.6875 C 73.441406 -29.726562 73.53125 -30.640625 73.625 -31.421875 C 74.3125 -37.566406 74.804688 -43.710938 75.109375 -49.859375 C 75.410156 -56.003906 75.476562 -62.148438 75.3125 -68.296875 C 79.988281 -67.773438 84.679688 -67.296875 89.390625 -66.859375 C 94.109375 -66.429688 98.894531 -65.914062 103.75 -65.3125 C 104.175781 -58.988281 104 -52.644531 103.21875 -46.28125 C 102.445312 -39.925781 101.453125 -33.628906 100.234375 -27.390625 C 99.546875 -23.847656 98.441406 -20.363281 96.921875 -16.9375 C 95.410156 -13.519531 93.484375 -10.40625 91.140625 -7.59375 C 88.804688 -4.78125 86.0625 -2.484375 82.90625 -0.703125 C 79.75 1.066406 76.175781 2.082031 72.1875 2.34375 C 65.175781 2.769531 58.296875 2.960938 51.546875 2.921875 C 44.796875 2.878906 38.175781 2.769531 31.6875 2.59375 C 28.132812 2.6875 24.800781 2.039062 21.6875 0.65625 C 18.570312 -0.726562 15.84375 -2.632812 13.5 -5.0625 C 11.164062 -7.488281 9.257812 -10.28125 7.78125 -13.4375 C 6.3125 -16.59375 5.445312 -19.859375 5.1875 -23.234375 C 3.71875 -30.941406 2.703125 -38.734375 2.140625 -46.609375 C 1.578125 -54.484375 1.945312 -62.40625 3.25 -70.375 C 8.09375 -70.976562 12.9375 -71.28125 17.78125 -71.28125 C 22.632812 -71.28125 27.613281 -71.195312 32.71875 -71.03125 C 32.71875 -64.445312 32.847656 -57.929688 33.109375 -51.484375 C 33.367188 -45.035156 33.71875 -38.566406 34.15625 -32.078125 C 34.0625 -31.035156 34.097656 -29.953125 34.265625 -28.828125 C 34.441406 -27.703125 34.789062 -26.660156 35.3125 -25.703125 C 35.832031 -24.753906 36.503906 -24.019531 37.328125 -23.5 C 38.148438 -22.976562 39.164062 -22.804688 40.375 -22.984375 L 41.8125 -22.984375 C 41.632812 -30.859375 41.476562 -38.773438 41.34375 -46.734375 C 41.21875 -54.703125 41.15625 -62.671875 41.15625 -70.640625 Z M 41.15625 -70.640625 "/></g></g><g style="fill:#078074;fill-opacity:1;"><g transform="translate(284.528408, 146.737748)"><path style="stroke:none" d="M 34.53125 -28.046875 C 29.425781 -28.222656 24.445312 -28.394531 19.59375 -28.5625 C 14.75 -28.738281 9.945312 -28.910156 5.1875 -29.078125 C 4.5 -36.097656 4.085938 -43.066406 3.953125 -49.984375 C 3.828125 -56.910156 4.285156 -63.96875 5.328125 -71.15625 C 12.679688 -72.101562 20.035156 -72.445312 27.390625 -72.1875 C 34.753906 -71.925781 42.332031 -71.410156 50.125 -70.640625 C 54.625 -70.117188 58.671875 -68.601562 62.265625 -66.09375 C 65.859375 -63.582031 68.78125 -60.484375 71.03125 -56.796875 C 73.28125 -53.117188 74.816406 -49.03125 75.640625 -44.53125 C 76.460938 -40.03125 76.394531 -35.570312 75.4375 -31.15625 C 75.007812 -27.257812 74.035156 -23.34375 72.515625 -19.40625 C 71.003906 -15.46875 69.015625 -11.894531 66.546875 -8.6875 C 64.078125 -5.488281 61.15625 -2.828125 57.78125 -0.703125 C 54.40625 1.410156 50.640625 2.597656 46.484375 2.859375 C 43.367188 3.023438 40.144531 3.109375 36.8125 3.109375 C 33.476562 3.109375 30.144531 3.019531 26.8125 2.84375 C 23.476562 2.675781 20.226562 2.441406 17.0625 2.140625 C 13.90625 1.835938 10.898438 1.46875 8.046875 1.03125 C 7.617188 -3.375 7.273438 -7.828125 7.015625 -12.328125 C 6.753906 -16.835938 6.320312 -21.296875 5.71875 -25.703125 C 11.25 -25.191406 16.867188 -24.867188 22.578125 -24.734375 C 28.296875 -24.609375 34.144531 -24.457031 40.125 -24.28125 C 40.988281 -24.28125 41.894531 -24.28125 42.84375 -24.28125 C 43.800781 -24.28125 44.710938 -24.5 45.578125 -24.9375 C 46.441406 -25.363281 46.894531 -26.03125 46.9375 -26.9375 C 46.976562 -27.851562 47.085938 -28.695312 47.265625 -29.46875 C 47.179688 -29.90625 47.242188 -30.382812 47.453125 -30.90625 C 47.671875 -31.425781 47.691406 -31.941406 47.515625 -32.453125 C 47.609375 -33.328125 47.523438 -34.195312 47.265625 -35.0625 C 47.003906 -35.925781 46.523438 -36.703125 45.828125 -37.390625 C 45.054688 -37.648438 44.257812 -37.757812 43.4375 -37.71875 C 42.613281 -37.675781 41.769531 -37.695312 40.90625 -37.78125 C 39.945312 -37.695312 38.925781 -37.675781 37.84375 -37.71875 C 36.757812 -37.757812 35.742188 -37.828125 34.796875 -37.921875 L 34.40625 -37.78125 C 34.320312 -36.132812 34.320312 -34.53125 34.40625 -32.96875 C 34.488281 -31.414062 34.53125 -29.773438 34.53125 -28.046875 Z M 34.53125 -28.046875 "/></g></g><g style="fill:#078074;fill-opacity:1;"><g transform="translate(359.57822, 146.737748)"><path style="stroke:none" d="M 6.234375 -37.53125 C 6.054688 -42.800781 6.007812 -48.207031 6.09375 -53.75 C 6.1875 -59.289062 6.492188 -64.789062 7.015625 -70.25 C 10.992188 -71.195312 15.015625 -71.648438 19.078125 -71.609375 C 23.148438 -71.566406 27.265625 -71.328125 31.421875 -70.890625 C 33.671875 -70.460938 35.722656 -69.578125 37.578125 -68.234375 C 39.441406 -66.890625 41.023438 -65.285156 42.328125 -63.421875 C 43.628906 -61.566406 44.625 -59.488281 45.3125 -57.1875 C 46.007812 -54.894531 46.359375 -52.582031 46.359375 -50.25 C 46.097656 -41.59375 45.578125 -33 44.796875 -24.46875 C 44.015625 -15.945312 42.890625 -7.488281 41.421875 0.90625 C 35.617188 2.289062 29.835938 2.984375 24.078125 2.984375 C 18.328125 2.984375 12.722656 2.160156 7.265625 0.515625 C 6.578125 -3.804688 5.953125 -8.128906 5.390625 -12.453125 C 4.828125 -16.785156 4.457031 -21.160156 4.28125 -25.578125 C 6.269531 -25.316406 8.257812 -25.097656 10.25 -24.921875 C 12.25 -24.753906 14.242188 -24.628906 16.234375 -24.546875 L 16.875 -25.1875 C 16.875 -26.050781 16.851562 -26.851562 16.8125 -27.59375 C 16.769531 -28.332031 16.789062 -29.085938 16.875 -29.859375 C 17.132812 -32.460938 16.441406 -34.710938 14.796875 -36.609375 C 14.109375 -37.046875 13.351562 -37.285156 12.53125 -37.328125 C 11.707031 -37.367188 10.90625 -37.390625 10.125 -37.390625 C 9.4375 -37.566406 8.785156 -37.585938 8.171875 -37.453125 C 7.566406 -37.328125 6.921875 -37.351562 6.234375 -37.53125 Z M 6.234375 -37.53125 "/></g></g><g style="fill:#078074;fill-opacity:1;"><g transform="translate(407.62042, 146.737748)"><path style="stroke:none" d=""/></g></g><g style="fill:#078074;fill-opacity:1;"><g transform="translate(431.511506, 146.737748)"><path style="stroke:none" d="M 80.5 -67.515625 C 80.675781 -64.398438 80.828125 -61.285156 80.953125 -58.171875 C 81.085938 -55.054688 80.984375 -51.851562 80.640625 -48.5625 C 80.640625 -45.351562 80.160156 -42.171875 79.203125 -39.015625 C 78.253906 -35.859375 76.910156 -32.894531 75.171875 -30.125 C 73.441406 -27.351562 71.363281 -24.84375 68.9375 -22.59375 C 66.519531 -20.34375 63.882812 -18.484375 61.03125 -17.015625 C 60.769531 -16.835938 60.679688 -16.597656 60.765625 -16.296875 C 60.847656 -15.992188 60.847656 -15.753906 60.765625 -15.578125 C 63.535156 -9.867188 66.328125 -4.140625 69.140625 1.609375 C 71.953125 7.367188 74.222656 13.410156 75.953125 19.734375 C 71.628906 20.597656 67.21875 21.3125 62.71875 21.875 C 58.21875 22.4375 53.929688 22.9375 49.859375 23.375 C 45.785156 14.539062 41.300781 6.144531 36.40625 -1.8125 C 31.519531 -9.78125 26.609375 -17.613281 21.671875 -25.3125 C 16.742188 -33.019531 12.007812 -40.679688 7.46875 -48.296875 C 2.925781 -55.921875 -1.035156 -63.800781 -4.421875 -71.9375 C 1.035156 -72.882812 6.6875 -73.378906 12.53125 -73.421875 C 18.375 -73.460938 24.148438 -73.359375 29.859375 -73.109375 C 31.503906 -69.816406 33.082031 -66.738281 34.59375 -63.875 C 36.113281 -61.019531 37.648438 -58.1875 39.203125 -55.375 C 40.765625 -52.5625 42.320312 -49.703125 43.875 -46.796875 C 45.4375 -43.898438 47.085938 -40.8125 48.828125 -37.53125 C 49.171875 -38.65625 49.425781 -39.601562 49.59375 -40.375 C 49.769531 -41.15625 49.921875 -41.867188 50.046875 -42.515625 C 50.179688 -43.171875 50.269531 -43.882812 50.3125 -44.65625 C 50.351562 -45.4375 50.375 -46.390625 50.375 -47.515625 C 50.46875 -51.671875 50.46875 -55.71875 50.375 -59.65625 C 50.289062 -63.601562 50.207031 -67.609375 50.125 -71.671875 C 54.882812 -71.148438 59.859375 -70.519531 65.046875 -69.78125 C 70.242188 -69.050781 75.394531 -68.296875 80.5 -67.515625 Z M 80.5 -67.515625 "/></g></g><g style="fill:#078074;fill-opacity:1;"><g transform="translate(509.288098, 146.737748)"><path style="stroke:none" d="M 48.4375 2.859375 C 49.039062 -2.859375 49.515625 -8.570312 49.859375 -14.28125 C 50.203125 -20 50.460938 -25.753906 50.640625 -31.546875 C 50.898438 -32.410156 50.878906 -33.210938 50.578125 -33.953125 C 50.273438 -34.691406 49.84375 -35.316406 49.28125 -35.828125 C 48.71875 -36.347656 48.066406 -36.71875 47.328125 -36.9375 C 46.585938 -37.15625 45.832031 -37.175781 45.0625 -37 C 43.238281 -37.09375 41.394531 -37.203125 39.53125 -37.328125 C 37.675781 -37.460938 35.882812 -37.53125 34.15625 -37.53125 C 34.320312 -30.6875 34.46875 -23.890625 34.59375 -17.140625 C 34.726562 -10.390625 34.882812 -3.640625 35.0625 3.109375 C 30.90625 2.941406 26.789062 2.726562 22.71875 2.46875 C 18.65625 2.207031 14.628906 1.726562 10.640625 1.03125 C 7.617188 -10.644531 5.546875 -22.519531 4.421875 -34.59375 C 3.296875 -46.675781 3.597656 -58.90625 5.328125 -71.28125 C 13.285156 -72.238281 21.375 -72.519531 29.59375 -72.125 C 37.820312 -71.738281 46.265625 -71.113281 54.921875 -70.25 C 58.816406 -69.8125 62.601562 -68.789062 66.28125 -67.1875 C 69.957031 -65.59375 73.097656 -63.363281 75.703125 -60.5 C 77.691406 -57.988281 78.945312 -55.132812 79.46875 -51.9375 C 79.988281 -48.738281 80.070312 -45.492188 79.71875 -42.203125 C 79.195312 -34.835938 78.222656 -27.5625 76.796875 -20.375 C 75.367188 -13.195312 73.53125 -6.144531 71.28125 0.78125 C 67.382812 1.382812 63.53125 1.859375 59.71875 2.203125 C 55.914062 2.554688 52.15625 2.773438 48.4375 2.859375 Z M 48.4375 2.859375 "/></g></g><g style="fill:#078074;fill-opacity:1;"><g transform="translate(587.973533, 146.737748)"><path style="stroke:none" d="M 24.15625 2.34375 C 23.71875 -2.59375 23.410156 -7.140625 23.234375 -11.296875 C 23.066406 -15.453125 22.851562 -19.953125 22.59375 -24.796875 C 23.894531 -24.890625 25.28125 -24.9375 26.75 -24.9375 C 28.21875 -24.9375 29.625 -25.0625 30.96875 -25.3125 C 32.3125 -25.570312 33.519531 -26.070312 34.59375 -26.8125 C 35.675781 -27.550781 36.4375 -28.695312 36.875 -30.25 C 37.050781 -31.46875 36.921875 -32.703125 36.484375 -33.953125 C 36.054688 -35.210938 35.101562 -35.925781 33.625 -36.09375 C 28.4375 -36.269531 23.394531 -36.441406 18.5 -36.609375 C 13.613281 -36.785156 8.789062 -37.09375 4.03125 -37.53125 C 3.59375 -42.632812 3.203125 -47.15625 2.859375 -51.09375 C 2.515625 -55.03125 2.253906 -58.878906 2.078125 -62.640625 C 1.898438 -66.410156 1.851562 -70.285156 1.9375 -74.265625 C 2.03125 -78.253906 2.296875 -82.882812 2.734375 -88.15625 C 7.742188 -89.539062 12.800781 -90.171875 17.90625 -90.046875 C 23.019531 -89.921875 28.175781 -89.726562 33.375 -89.46875 C 33.375 -86.863281 33.394531 -84.890625 33.4375 -83.546875 C 33.476562 -82.210938 33.5 -80.984375 33.5 -79.859375 C 33.5 -78.734375 33.5 -77.519531 33.5 -76.21875 C 33.5 -74.914062 33.5 -73.007812 33.5 -70.5 C 36.789062 -70.238281 40.125 -70 43.5 -69.78125 C 46.875 -69.570312 50.289062 -69.296875 53.75 -68.953125 C 56.09375 -68.953125 58.257812 -68.410156 60.25 -67.328125 C 62.238281 -66.242188 63.90625 -64.832031 65.25 -63.09375 C 66.59375 -61.363281 67.546875 -59.394531 68.109375 -57.1875 C 68.671875 -54.988281 68.734375 -52.71875 68.296875 -50.375 C 67.953125 -46.832031 67.582031 -43.304688 67.1875 -39.796875 C 66.800781 -36.285156 66.390625 -32.757812 65.953125 -29.21875 C 65.179688 -24.195312 63.453125 -19.628906 60.765625 -15.515625 C 58.078125 -11.398438 54.828125 -7.957031 51.015625 -5.1875 C 47.210938 -2.414062 42.972656 -0.363281 38.296875 0.96875 C 33.628906 2.3125 28.914062 2.769531 24.15625 2.34375 Z M 24.15625 2.34375 "/></g></g><g style="fill:#078074;fill-opacity:1;"><g transform="translate(655.362559, 146.737748)"><path style="stroke:none" d=""/></g></g><g style="fill:#078074;fill-opacity:1;"><g transform="translate(679.253645, 146.737748)"><path style="stroke:none" d="M 10.640625 1.03125 C 7.867188 -10.738281 5.878906 -22.617188 4.671875 -34.609375 C 3.460938 -46.597656 3.722656 -58.78125 5.453125 -71.15625 C 13.066406 -72.195312 20.722656 -72.585938 28.421875 -72.328125 C 36.128906 -72.066406 44.054688 -71.503906 52.203125 -70.640625 C 56.179688 -70.203125 60.050781 -69.179688 63.8125 -67.578125 C 67.582031 -65.984375 70.722656 -63.625 73.234375 -60.5 C 75.140625 -57.988281 76.328125 -55.15625 76.796875 -52 C 77.273438 -48.84375 77.425781 -45.617188 77.25 -42.328125 C 76.039062 -27.441406 73.316406 -13.070312 69.078125 0.78125 C 58.691406 2.332031 48.628906 3.128906 38.890625 3.171875 C 29.148438 3.222656 19.734375 2.507812 10.640625 1.03125 Z M 48.953125 -21.6875 C 49.117188 -23.757812 49.179688 -25.851562 49.140625 -27.96875 C 49.097656 -30.09375 49.164062 -32.238281 49.34375 -34.40625 C 49.769531 -36.132812 49.332031 -37.519531 48.03125 -38.5625 C 46.738281 -39.601562 45.359375 -39.992188 43.890625 -39.734375 C 42.066406 -39.734375 40.222656 -39.773438 38.359375 -39.859375 C 36.503906 -39.941406 34.710938 -40.03125 32.984375 -40.125 C 32.984375 -37.09375 32.984375 -34.0625 32.984375 -31.03125 C 32.984375 -28 33.066406 -24.96875 33.234375 -21.9375 C 35.742188 -21.851562 38.296875 -21.8125 40.890625 -21.8125 C 43.492188 -21.8125 46.179688 -21.769531 48.953125 -21.6875 Z M 48.953125 -21.6875 "/></g></g><g style="fill:#078074;fill-opacity:1;"><g transform="translate(755.861594, 146.737748)"><path style="stroke:none" d="M 5.71875 -69.59375 C 10.476562 -70.71875 15.238281 -70.976562 20 -70.375 C 24.757812 -69.769531 29.519531 -68.945312 34.28125 -67.90625 C 34.800781 -60.457031 34.882812 -53.007812 34.53125 -45.5625 C 34.1875 -38.125 33.320312 -30.679688 31.9375 -23.234375 C 23.28125 -21.503906 14.972656 -21.765625 7.015625 -24.015625 C 5.796875 -31.378906 5.054688 -38.867188 4.796875 -46.484375 C 4.546875 -54.097656 4.851562 -61.800781 5.71875 -69.59375 Z M 5.71875 -69.59375 "/></g></g><g style="fill:#078074;fill-opacity:1;"><g transform="translate(790.659662, 146.737748)"><path style="stroke:none" d="M 5.328125 -69.59375 C 9.992188 -71.320312 14.769531 -71.925781 19.65625 -71.40625 C 24.550781 -70.894531 29.207031 -69.726562 33.625 -67.90625 C 34.144531 -56.3125 34.207031 -44.773438 33.8125 -33.296875 C 33.425781 -21.828125 32.5 -10.425781 31.03125 0.90625 C 27.132812 2.207031 23.148438 2.898438 19.078125 2.984375 C 15.015625 3.066406 11.125 2.414062 7.40625 1.03125 C 6.1875 -10.644531 5.359375 -22.328125 4.921875 -34.015625 C 4.492188 -45.703125 4.628906 -57.5625 5.328125 -69.59375 Z M 5.328125 -69.59375 "/></g></g><g style="fill:#078074;fill-opacity:1;"><g transform="translate(824.808505, 146.737748)"><path style="stroke:none" d="M 5.328125 -69.59375 C 9.992188 -71.320312 14.769531 -71.925781 19.65625 -71.40625 C 24.550781 -70.894531 29.207031 -69.726562 33.625 -67.90625 C 34.144531 -56.3125 34.207031 -44.773438 33.8125 -33.296875 C 33.425781 -21.828125 32.5 -10.425781 31.03125 0.90625 C 27.132812 2.207031 23.148438 2.898438 19.078125 2.984375 C 15.015625 3.066406 11.125 2.414062 7.40625 1.03125 C 6.1875 -10.644531 5.359375 -22.328125 4.921875 -34.015625 C 4.492188 -45.703125 4.628906 -57.5625 5.328125 -69.59375 Z M 5.328125 -69.59375 "/></g></g><g style="fill:#078074;fill-opacity:1;"><g transform="translate(858.957302, 146.737748)"><path style="stroke:none" d="M 48.4375 2.859375 C 49.039062 -2.859375 49.515625 -8.570312 49.859375 -14.28125 C 50.203125 -20 50.460938 -25.753906 50.640625 -31.546875 C 50.898438 -32.410156 50.878906 -33.210938 50.578125 -33.953125 C 50.273438 -34.691406 49.84375 -35.316406 49.28125 -35.828125 C 48.71875 -36.347656 48.066406 -36.71875 47.328125 -36.9375 C 46.585938 -37.15625 45.832031 -37.175781 45.0625 -37 C 43.238281 -37.09375 41.394531 -37.203125 39.53125 -37.328125 C 37.675781 -37.460938 35.882812 -37.53125 34.15625 -37.53125 C 34.320312 -30.6875 34.46875 -23.890625 34.59375 -17.140625 C 34.726562 -10.390625 34.882812 -3.640625 35.0625 3.109375 C 30.90625 2.941406 26.789062 2.726562 22.71875 2.46875 C 18.65625 2.207031 14.628906 1.726562 10.640625 1.03125 C 7.617188 -10.644531 5.546875 -22.519531 4.421875 -34.59375 C 3.296875 -46.675781 3.597656 -58.90625 5.328125 -71.28125 C 13.285156 -72.238281 21.375 -72.519531 29.59375 -72.125 C 37.820312 -71.738281 46.265625 -71.113281 54.921875 -70.25 C 58.816406 -69.8125 62.601562 -68.789062 66.28125 -67.1875 C 69.957031 -65.59375 73.097656 -63.363281 75.703125 -60.5 C 77.691406 -57.988281 78.945312 -55.132812 79.46875 -51.9375 C 79.988281 -48.738281 80.070312 -45.492188 79.71875 -42.203125 C 79.195312 -34.835938 78.222656 -27.5625 76.796875 -20.375 C 75.367188 -13.195312 73.53125 -6.144531 71.28125 0.78125 C 67.382812 1.382812 63.53125 1.859375 59.71875 2.203125 C 55.914062 2.554688 52.15625 2.773438 48.4375 2.859375 Z M 48.4375 2.859375 "/></g></g><g style="fill:#078074;fill-opacity:1;"><g transform="translate(166.147391, 257.359114)"><path style="stroke:none" d="M 5.984375 -47.125 C 7.503906 -47.945312 9.082031 -48.472656 10.71875 -48.703125 C 12.363281 -48.941406 14.003906 -48.972656 15.640625 -48.796875 C 17.285156 -48.617188 18.898438 -48.265625 20.484375 -47.734375 C 22.066406 -47.210938 23.5625 -46.597656 24.96875 -45.890625 C 25.4375 -35.753906 25.453125 -25.71875 25.015625 -15.78125 C 24.578125 -5.84375 23.859375 4.046875 22.859375 13.890625 C 20.453125 14.941406 17.929688 15.484375 15.296875 15.515625 C 12.660156 15.546875 10.171875 15.0625 7.828125 14.0625 C 7.003906 3.925781 6.375 -6.207031 5.9375 -16.34375 C 5.5 -26.488281 5.515625 -36.75 5.984375 -47.125 Z M 5.984375 -47.125 "/></g></g><g style="fill:#078074;fill-opacity:1;"><g transform="translate(193.931613, 257.359114)"><path style="stroke:none" d="M 3.609375 -47.125 C 6.773438 -48.300781 10.007812 -48.710938 13.3125 -48.359375 C 16.625 -48.003906 19.773438 -47.210938 22.765625 -45.984375 C 23.117188 -38.128906 23.164062 -30.316406 22.90625 -22.546875 C 22.644531 -14.785156 22.015625 -7.066406 21.015625 0.609375 C 18.378906 1.492188 15.679688 1.960938 12.921875 2.015625 C 10.171875 2.078125 7.535156 1.640625 5.015625 0.703125 C 4.191406 -7.210938 3.632812 -15.125 3.34375 -23.03125 C 3.050781 -30.945312 3.140625 -38.976562 3.609375 -47.125 Z M 3.609375 -47.125 "/></g></g><g style="fill:#078074;fill-opacity:1;"><g transform="translate(217.055797, 257.359114)"><path style="stroke:none" d="M 4.390625 -47.921875 C 7.972656 -48.503906 11.640625 -48.78125 15.390625 -48.75 C 19.140625 -48.71875 22.945312 -48.46875 26.8125 -48 C 29.800781 -47.65625 32.410156 -46.617188 34.640625 -44.890625 C 36.867188 -43.160156 38.671875 -41.019531 40.046875 -38.46875 C 41.421875 -35.914062 42.34375 -33.128906 42.8125 -30.109375 C 43.28125 -27.085938 43.253906 -24.144531 42.734375 -21.28125 C 42.441406 -18.757812 41.882812 -16.164062 41.0625 -13.5 C 40.238281 -10.832031 39.109375 -8.382812 37.671875 -6.15625 C 36.234375 -3.925781 34.472656 -2.0625 32.390625 -0.5625 C 30.316406 0.925781 27.898438 1.757812 25.140625 1.9375 C 21.972656 2.050781 18.894531 2.003906 15.90625 1.796875 C 12.925781 1.597656 10 1.203125 7.125 0.609375 C 6.59375 -2.378906 6.09375 -5.367188 5.625 -8.359375 C 5.15625 -11.347656 4.773438 -14.335938 4.484375 -17.328125 C 6.648438 -17.023438 8.832031 -16.84375 11.03125 -16.78125 C 13.226562 -16.726562 15.441406 -16.644531 17.671875 -16.53125 C 18.492188 -16.414062 19.3125 -16.441406 20.125 -16.609375 C 20.945312 -16.785156 21.769531 -17.023438 22.59375 -17.328125 C 23.007812 -17.796875 23.289062 -18.304688 23.4375 -18.859375 C 23.582031 -19.410156 23.625 -19.984375 23.5625 -20.578125 C 23.625 -21.335938 23.503906 -22.039062 23.203125 -22.6875 C 22.910156 -23.332031 22.5 -23.875 21.96875 -24.3125 C 21.445312 -24.75 20.847656 -25.066406 20.171875 -25.265625 C 19.503906 -25.472656 18.816406 -25.519531 18.109375 -25.40625 C 15.648438 -25.351562 13.234375 -25.382812 10.859375 -25.5 C 8.484375 -25.613281 6.125 -25.613281 3.78125 -25.5 C 3.601562 -29.25 3.53125 -32.953125 3.5625 -36.609375 C 3.59375 -40.273438 3.867188 -44.046875 4.390625 -47.921875 Z M 4.390625 -47.921875 "/></g></g><g style="fill:#078074;fill-opacity:1;"><g transform="translate(260.138995, 257.359114)"><path style="stroke:none" d="M 4.21875 -25.40625 C 4.101562 -28.976562 4.070312 -32.640625 4.125 -36.390625 C 4.1875 -40.148438 4.394531 -43.875 4.75 -47.5625 C 7.445312 -48.207031 10.171875 -48.515625 12.921875 -48.484375 C 15.679688 -48.453125 18.46875 -48.289062 21.28125 -48 C 22.800781 -47.707031 24.191406 -47.109375 25.453125 -46.203125 C 26.710938 -45.296875 27.78125 -44.210938 28.65625 -42.953125 C 29.539062 -41.691406 30.21875 -40.285156 30.6875 -38.734375 C 31.15625 -37.179688 31.390625 -35.613281 31.390625 -34.03125 C 31.210938 -28.164062 30.859375 -22.34375 30.328125 -16.5625 C 29.804688 -10.789062 29.046875 -5.066406 28.046875 0.609375 C 24.117188 1.546875 20.207031 2.015625 16.3125 2.015625 C 12.414062 2.015625 8.617188 1.460938 4.921875 0.359375 C 4.453125 -2.578125 4.023438 -5.507812 3.640625 -8.4375 C 3.265625 -11.375 3.019531 -14.335938 2.90625 -17.328125 C 4.25 -17.148438 5.59375 -17 6.9375 -16.875 C 8.289062 -16.757812 9.640625 -16.675781 10.984375 -16.625 L 11.4375 -17.0625 C 11.4375 -17.644531 11.421875 -18.1875 11.390625 -18.6875 C 11.359375 -19.1875 11.375 -19.695312 11.4375 -20.21875 C 11.601562 -21.976562 11.128906 -23.503906 10.015625 -24.796875 C 9.546875 -25.085938 9.035156 -25.25 8.484375 -25.28125 C 7.929688 -25.3125 7.390625 -25.328125 6.859375 -25.328125 C 6.390625 -25.441406 5.945312 -25.453125 5.53125 -25.359375 C 5.125 -25.273438 4.6875 -25.289062 4.21875 -25.40625 Z M 4.21875 -25.40625 "/></g></g><g style="fill:#078074;fill-opacity:1;"><g transform="translate(292.671177, 257.359114)"><path style="stroke:none" d="M 4.65625 -20.65625 C 6.007812 -20.601562 7.253906 -20.546875 8.390625 -20.484375 C 9.535156 -20.421875 10.679688 -20.359375 11.828125 -20.296875 C 12.972656 -20.242188 14.128906 -20.203125 15.296875 -20.171875 C 16.472656 -20.148438 17.765625 -20.140625 19.171875 -20.140625 C 19.929688 -20.140625 20.570312 -19.859375 21.09375 -19.296875 C 21.625 -18.742188 21.859375 -18.085938 21.796875 -17.328125 C 21.742188 -14.160156 21.773438 -10.945312 21.890625 -7.6875 C 22.003906 -4.4375 22.035156 -1.203125 21.984375 2.015625 C 20.628906 2.015625 19.101562 1.984375 17.40625 1.921875 C 15.707031 1.867188 13.976562 1.796875 12.21875 1.703125 C 10.457031 1.617188 8.753906 1.503906 7.109375 1.359375 C 5.472656 1.210938 4.007812 1.050781 2.71875 0.875 C 2.71875 -2.164062 2.757812 -4.640625 2.84375 -6.546875 C 2.9375 -8.453125 3.070312 -10.132812 3.25 -11.59375 C 3.425781 -13.0625 3.628906 -14.457031 3.859375 -15.78125 C 4.097656 -17.101562 4.363281 -18.726562 4.65625 -20.65625 Z M 28.75 1.9375 C 29.039062 -1.40625 29.242188 -4.742188 29.359375 -8.078125 C 29.484375 -11.421875 29.601562 -14.765625 29.71875 -18.109375 C 29.78125 -19.160156 29.722656 -20.226562 29.546875 -21.3125 C 29.367188 -22.40625 28.957031 -23.359375 28.3125 -24.171875 C 27.488281 -24.640625 26.648438 -24.914062 25.796875 -25 C 24.953125 -25.09375 24.117188 -25.171875 23.296875 -25.234375 C 19.785156 -25.347656 16.328125 -25.421875 12.921875 -25.453125 C 9.523438 -25.484375 6.210938 -25.554688 2.984375 -25.671875 C 2.640625 -29.367188 2.523438 -33.09375 2.640625 -36.84375 C 2.753906 -40.59375 3.046875 -44.3125 3.515625 -48 C 8.085938 -48.707031 12.757812 -48.972656 17.53125 -48.796875 C 22.3125 -48.617188 27.191406 -48.328125 32.171875 -47.921875 C 34.753906 -47.742188 37.1875 -47.035156 39.46875 -45.796875 C 41.757812 -44.566406 43.707031 -42.984375 45.3125 -41.046875 C 46.925781 -39.117188 48.113281 -36.894531 48.875 -34.375 C 49.644531 -31.851562 49.820312 -29.242188 49.40625 -26.546875 C 49 -21.921875 48.367188 -17.347656 47.515625 -12.828125 C 46.671875 -8.316406 45.570312 -3.863281 44.21875 0.53125 C 41.582031 1 38.988281 1.347656 36.4375 1.578125 C 33.894531 1.816406 31.332031 1.9375 28.75 1.9375 Z M 28.75 1.9375 "/></g></g><g style="fill:#078074;fill-opacity:1;"><g transform="translate(341.909132, 257.359114)"><path style="stroke:none" d=""/></g></g><g style="fill:#078074;fill-opacity:1;"><g transform="translate(358.087221, 257.359114)"><path style="stroke:none" d="M 7.203125 0.703125 C 5.328125 -7.265625 3.976562 -15.304688 3.15625 -23.421875 C 2.34375 -31.546875 2.519531 -39.800781 3.6875 -48.1875 C 8.851562 -48.882812 14.039062 -49.144531 19.25 -48.96875 C 24.46875 -48.789062 29.832031 -48.410156 35.34375 -47.828125 C 38.039062 -47.535156 40.660156 -46.847656 43.203125 -45.765625 C 45.753906 -44.679688 47.882812 -43.082031 49.59375 -40.96875 C 50.875 -39.269531 51.675781 -37.347656 52 -35.203125 C 52.320312 -33.066406 52.425781 -30.882812 52.3125 -28.65625 C 51.488281 -18.582031 49.644531 -8.851562 46.78125 0.53125 C 39.738281 1.582031 32.921875 2.125 26.328125 2.15625 C 19.734375 2.1875 13.359375 1.703125 7.203125 0.703125 Z M 33.140625 -14.6875 C 33.265625 -16.09375 33.3125 -17.507812 33.28125 -18.9375 C 33.25 -20.375 33.289062 -21.828125 33.40625 -23.296875 C 33.695312 -24.472656 33.40625 -25.410156 32.53125 -26.109375 C 31.65625 -26.816406 30.71875 -27.082031 29.71875 -26.90625 C 28.488281 -26.90625 27.242188 -26.929688 25.984375 -26.984375 C 24.722656 -27.046875 23.503906 -27.109375 22.328125 -27.171875 C 22.328125 -25.117188 22.328125 -23.066406 22.328125 -21.015625 C 22.328125 -18.960938 22.390625 -16.910156 22.515625 -14.859375 C 24.210938 -14.796875 25.9375 -14.765625 27.6875 -14.765625 C 29.445312 -14.765625 31.265625 -14.738281 33.140625 -14.6875 Z M 33.140625 -14.6875 "/></g></g><g style="fill:#078074;fill-opacity:1;"><g transform="translate(409.962936, 257.359114)"><path style="stroke:none" d="M 3.609375 -47.125 C 6.773438 -48.300781 10.007812 -48.710938 13.3125 -48.359375 C 16.625 -48.003906 19.773438 -47.210938 22.765625 -45.984375 C 23.117188 -38.128906 23.164062 -30.316406 22.90625 -22.546875 C 22.644531 -14.785156 22.015625 -7.066406 21.015625 0.609375 C 18.378906 1.492188 15.679688 1.960938 12.921875 2.015625 C 10.171875 2.078125 7.535156 1.640625 5.015625 0.703125 C 4.191406 -7.210938 3.632812 -15.125 3.34375 -23.03125 C 3.050781 -30.945312 3.140625 -38.976562 3.609375 -47.125 Z M 3.609375 -47.125 "/></g></g><g style="fill:#078074;fill-opacity:1;"><g transform="translate(433.087131, 257.359114)"><path style="stroke:none" d="M 23.734375 -21.28125 C 23.796875 -15.769531 23.867188 -10.316406 23.953125 -4.921875 C 24.046875 0.472656 24.148438 5.894531 24.265625 11.34375 C 18.867188 11.40625 13.59375 10.992188 8.4375 10.109375 C 7.207031 4.835938 6.222656 -0.429688 5.484375 -5.703125 C 4.753906 -10.984375 4.21875 -16.289062 3.875 -21.625 C 7.03125 -21.6875 10.265625 -21.671875 13.578125 -21.578125 C 16.890625 -21.492188 20.273438 -21.394531 23.734375 -21.28125 Z M 26.90625 2.8125 C 26.84375 -0.46875 26.851562 -3.691406 26.9375 -6.859375 C 27.03125 -10.023438 27.078125 -13.28125 27.078125 -16.625 C 27.835938 -16.675781 28.628906 -16.757812 29.453125 -16.875 C 30.273438 -17 31.097656 -17.207031 31.921875 -17.5 C 32.617188 -17.90625 33.054688 -18.472656 33.234375 -19.203125 C 33.410156 -19.941406 33.554688 -20.632812 33.671875 -21.28125 C 33.671875 -21.6875 33.640625 -22.125 33.578125 -22.59375 C 33.523438 -23.0625 33.425781 -23.5 33.28125 -23.90625 C 33.132812 -24.320312 32.910156 -24.675781 32.609375 -24.96875 C 32.316406 -25.257812 31.910156 -25.40625 31.390625 -25.40625 C 26.410156 -25.644531 21.546875 -25.773438 16.796875 -25.796875 C 12.046875 -25.828125 7.382812 -25.84375 2.8125 -25.84375 C 2.582031 -29.539062 2.492188 -33.25 2.546875 -36.96875 C 2.609375 -40.6875 2.84375 -44.484375 3.25 -48.359375 C 9.757812 -49.296875 16.367188 -49.515625 23.078125 -49.015625 C 29.785156 -48.515625 36.71875 -47.828125 43.875 -46.953125 C 45.394531 -46.710938 46.769531 -46.179688 48 -45.359375 C 49.238281 -44.546875 50.28125 -43.550781 51.125 -42.375 C 51.976562 -41.207031 52.609375 -39.890625 53.015625 -38.421875 C 53.421875 -36.953125 53.597656 -35.457031 53.546875 -33.9375 C 53.429688 -31.476562 53.296875 -29.078125 53.140625 -26.734375 C 52.992188 -24.390625 52.773438 -21.984375 52.484375 -19.515625 C 52.484375 -16.234375 51.707031 -13.171875 50.15625 -10.328125 C 48.601562 -7.484375 46.609375 -5.035156 44.171875 -2.984375 C 41.742188 -0.929688 39.019531 0.617188 36 1.671875 C 32.976562 2.722656 29.945312 3.101562 26.90625 2.8125 Z M 26.90625 2.8125 "/></g></g><g style="fill:#078074;fill-opacity:1;"><g transform="translate(485.842096, 257.359114)"><path style="stroke:none" d="M 27.4375 -20.921875 C 27.082031 -17.054688 26.710938 -13.203125 26.328125 -9.359375 C 25.953125 -5.523438 25.617188 -1.703125 25.328125 2.109375 C 22.335938 1.992188 19.375 1.847656 16.4375 1.671875 C 13.507812 1.492188 10.609375 1.203125 7.734375 0.796875 C 7.210938 -3.429688 6.960938 -7.640625 6.984375 -11.828125 C 7.015625 -16.015625 7.175781 -20.25 7.46875 -24.53125 C 6.300781 -28.34375 5.234375 -32.195312 4.265625 -36.09375 C 3.296875 -39.988281 2.753906 -43.988281 2.640625 -48.09375 C 5.921875 -48.382812 9.21875 -48.554688 12.53125 -48.609375 C 15.84375 -48.671875 19.253906 -48.644531 22.765625 -48.53125 C 23.066406 -46.476562 23.4375 -44.457031 23.875 -42.46875 C 24.3125 -40.476562 24.765625 -38.457031 25.234375 -36.40625 C 25.585938 -37.863281 26.144531 -39.335938 26.90625 -40.828125 C 27.664062 -42.328125 28.613281 -43.675781 29.75 -44.875 C 30.894531 -46.082031 32.203125 -47.007812 33.671875 -47.65625 C 35.140625 -48.300781 36.691406 -48.503906 38.328125 -48.265625 C 38.972656 -48.148438 39.632812 -48.0625 40.3125 -48 C 40.988281 -47.945312 41.675781 -47.832031 42.375 -47.65625 C 44.664062 -47.300781 46.835938 -46.519531 48.890625 -45.3125 C 50.941406 -44.113281 52.695312 -42.632812 54.15625 -40.875 C 55.625 -39.125 56.738281 -37.148438 57.5 -34.953125 C 58.257812 -32.753906 58.523438 -30.421875 58.296875 -27.953125 C 57.410156 -18.109375 55.328125 -8.613281 52.046875 0.53125 C 48.234375 1 44.523438 1.378906 40.921875 1.671875 C 37.316406 1.960938 33.726562 2.109375 30.15625 2.109375 C 30.6875 -4.097656 31.125 -10.28125 31.46875 -16.4375 C 32.644531 -16.5 33.800781 -16.5 34.9375 -16.4375 C 36.082031 -16.382812 37.242188 -16.359375 38.421875 -16.359375 C 38.535156 -17.234375 38.578125 -18.066406 38.546875 -18.859375 C 38.523438 -19.648438 38.570312 -20.457031 38.6875 -21.28125 C 38.863281 -22.039062 38.800781 -22.753906 38.5 -23.421875 C 38.207031 -24.097656 37.796875 -24.671875 37.265625 -25.140625 C 36.742188 -25.609375 36.128906 -25.972656 35.421875 -26.234375 C 34.722656 -26.503906 34.023438 -26.609375 33.328125 -26.546875 C 32.554688 -26.722656 31.816406 -26.664062 31.109375 -26.375 C 30.410156 -26.082031 29.785156 -25.671875 29.234375 -25.140625 C 28.679688 -24.617188 28.242188 -23.972656 27.921875 -23.203125 C 27.597656 -22.441406 27.4375 -21.679688 27.4375 -20.921875 Z M 27.4375 -20.921875 "/></g></g><g style="fill:#078074;fill-opacity:1;"><g transform="translate(543.169176, 257.359114)"><path style="stroke:none" d="M 16.359375 1.578125 C 16.054688 -1.753906 15.847656 -4.828125 15.734375 -7.640625 C 15.617188 -10.460938 15.472656 -13.515625 15.296875 -16.796875 C 16.179688 -16.847656 17.117188 -16.875 18.109375 -16.875 C 19.109375 -16.875 20.0625 -16.960938 20.96875 -17.140625 C 21.875 -17.316406 22.691406 -17.65625 23.421875 -18.15625 C 24.160156 -18.65625 24.675781 -19.429688 24.96875 -20.484375 C 25.082031 -21.304688 24.992188 -22.140625 24.703125 -22.984375 C 24.410156 -23.835938 23.765625 -24.320312 22.765625 -24.4375 C 19.253906 -24.5625 15.84375 -24.679688 12.53125 -24.796875 C 9.21875 -24.910156 5.945312 -25.113281 2.71875 -25.40625 C 2.425781 -28.863281 2.160156 -31.925781 1.921875 -34.59375 C 1.691406 -37.257812 1.519531 -39.867188 1.40625 -42.421875 C 1.289062 -44.972656 1.257812 -47.59375 1.3125 -50.28125 C 1.375 -52.976562 1.550781 -56.117188 1.84375 -59.703125 C 5.25 -60.640625 8.679688 -61.0625 12.140625 -60.96875 C 15.597656 -60.882812 19.082031 -60.753906 22.59375 -60.578125 C 22.59375 -58.816406 22.609375 -57.484375 22.640625 -56.578125 C 22.671875 -55.671875 22.6875 -54.832031 22.6875 -54.0625 C 22.6875 -53.300781 22.6875 -52.484375 22.6875 -51.609375 C 22.6875 -50.734375 22.6875 -49.441406 22.6875 -47.734375 C 24.914062 -47.566406 27.171875 -47.40625 29.453125 -47.25 C 31.734375 -47.101562 34.050781 -46.914062 36.40625 -46.6875 C 37.988281 -46.6875 39.453125 -46.316406 40.796875 -45.578125 C 42.140625 -44.847656 43.265625 -43.894531 44.171875 -42.71875 C 45.085938 -41.550781 45.734375 -40.21875 46.109375 -38.71875 C 46.492188 -37.226562 46.539062 -35.691406 46.25 -34.109375 C 46.007812 -31.710938 45.757812 -29.328125 45.5 -26.953125 C 45.238281 -24.578125 44.960938 -22.1875 44.671875 -19.78125 C 44.140625 -16.382812 42.960938 -13.289062 41.140625 -10.5 C 39.328125 -7.71875 37.128906 -5.390625 34.546875 -3.515625 C 31.972656 -1.640625 29.101562 -0.25 25.9375 0.65625 C 22.769531 1.5625 19.578125 1.867188 16.359375 1.578125 Z M 16.359375 1.578125 "/></g></g><g style="fill:#078074;fill-opacity:1;"><g transform="translate(588.802211, 257.359114)"><path style="stroke:none" d=""/></g></g><g style="fill:#078074;fill-opacity:1;"><g transform="translate(604.980299, 257.359114)"><path style="stroke:none" d="M 7.203125 0.703125 C 5.328125 -7.265625 3.976562 -15.304688 3.15625 -23.421875 C 2.34375 -31.546875 2.519531 -39.800781 3.6875 -48.1875 C 8.851562 -48.882812 14.039062 -49.144531 19.25 -48.96875 C 24.46875 -48.789062 29.832031 -48.410156 35.34375 -47.828125 C 38.039062 -47.535156 40.660156 -46.847656 43.203125 -45.765625 C 45.753906 -44.679688 47.882812 -43.082031 49.59375 -40.96875 C 50.875 -39.269531 51.675781 -37.347656 52 -35.203125 C 52.320312 -33.066406 52.425781 -30.882812 52.3125 -28.65625 C 51.488281 -18.582031 49.644531 -8.851562 46.78125 0.53125 C 39.738281 1.582031 32.921875 2.125 26.328125 2.15625 C 19.734375 2.1875 13.359375 1.703125 7.203125 0.703125 Z M 33.140625 -14.6875 C 33.265625 -16.09375 33.3125 -17.507812 33.28125 -18.9375 C 33.25 -20.375 33.289062 -21.828125 33.40625 -23.296875 C 33.695312 -24.472656 33.40625 -25.410156 32.53125 -26.109375 C 31.65625 -26.816406 30.71875 -27.082031 29.71875 -26.90625 C 28.488281 -26.90625 27.242188 -26.929688 25.984375 -26.984375 C 24.722656 -27.046875 23.503906 -27.109375 22.328125 -27.171875 C 22.328125 -25.117188 22.328125 -23.066406 22.328125 -21.015625 C 22.328125 -18.960938 22.390625 -16.910156 22.515625 -14.859375 C 24.210938 -14.796875 25.9375 -14.765625 27.6875 -14.765625 C 29.445312 -14.765625 31.265625 -14.738281 33.140625 -14.6875 Z M 33.140625 -14.6875 "/></g></g><g style="fill:#078074;fill-opacity:1;"><g transform="translate(656.856014, 257.359114)"><path style="stroke:none" d="M 7.65625 -26.03125 C 7.0625 -25.90625 6.484375 -25.898438 5.921875 -26.015625 C 5.367188 -26.140625 4.769531 -26.171875 4.125 -26.109375 C 4.007812 -29.804688 3.976562 -33.5 4.03125 -37.1875 C 4.09375 -40.882812 4.390625 -44.609375 4.921875 -48.359375 C 10.140625 -48.878906 15.441406 -49.066406 20.828125 -48.921875 C 26.222656 -48.773438 31.765625 -48.410156 37.453125 -47.828125 C 39.910156 -47.710938 42.34375 -47.125 44.75 -46.0625 C 47.15625 -45.007812 49.25 -43.601562 51.03125 -41.84375 C 52.820312 -40.09375 54.171875 -38.039062 55.078125 -35.6875 C 55.992188 -33.34375 56.21875 -30.828125 55.75 -28.140625 C 55.21875 -23.148438 54.492188 -18.265625 53.578125 -13.484375 C 52.671875 -8.710938 51.398438 -4.039062 49.765625 0.53125 C 47.128906 0.882812 44.519531 1.175781 41.9375 1.40625 C 39.351562 1.644531 36.804688 1.820312 34.296875 1.9375 C 34.703125 -1.519531 35.050781 -5.003906 35.34375 -8.515625 C 35.632812 -12.035156 35.867188 -15.554688 36.046875 -19.078125 C 36.160156 -20.773438 35.957031 -22.328125 35.4375 -23.734375 C 35.082031 -24.378906 34.566406 -24.832031 33.890625 -25.09375 C 33.210938 -25.363281 32.523438 -25.46875 31.828125 -25.40625 C 31.003906 -25.351562 30.226562 -25.335938 29.5 -25.359375 C 28.769531 -25.390625 27.992188 -25.4375 27.171875 -25.5 C 27.285156 -16.238281 27.285156 -7.035156 27.171875 2.109375 C 25.347656 2.109375 23.394531 2.0625 21.3125 1.96875 C 19.238281 1.882812 17.144531 1.785156 15.03125 1.671875 C 12.925781 1.554688 10.859375 1.378906 8.828125 1.140625 C 6.804688 0.910156 4.976562 0.648438 3.34375 0.359375 C 2.695312 -2.867188 2.359375 -5.859375 2.328125 -8.609375 C 2.296875 -11.367188 2.34375 -14.332031 2.46875 -17.5 C 3.457031 -17.4375 4.453125 -17.359375 5.453125 -17.265625 C 6.453125 -17.179688 7.445312 -17.140625 8.4375 -17.140625 C 8.257812 -18.609375 8.113281 -20.070312 8 -21.53125 C 7.882812 -23 7.769531 -24.5 7.65625 -26.03125 Z M 7.65625 -26.03125 "/></g></g><g style="fill:#078074;fill-opacity:1;"><g transform="translate(711.809125, 257.359114)"><path style="stroke:none" d="M 26.8125 -16.4375 C 27.28125 -16.382812 27.78125 -16.382812 28.3125 -16.4375 C 28.84375 -16.5 29.367188 -16.5 29.890625 -16.4375 C 30.710938 -16.5625 31.296875 -17.03125 31.640625 -17.84375 C 31.992188 -18.664062 32.234375 -19.457031 32.359375 -20.21875 C 32.585938 -24.789062 32.804688 -29.378906 33.015625 -33.984375 C 33.222656 -38.585938 33.265625 -43.257812 33.140625 -48 C 36.484375 -47.65625 39.835938 -47.273438 43.203125 -46.859375 C 46.578125 -46.453125 49.992188 -46.015625 53.453125 -45.546875 C 53.566406 -39.859375 53.171875 -34.242188 52.265625 -28.703125 C 51.359375 -23.160156 50.234375 -17.664062 48.890625 -12.21875 C 48.359375 -10.40625 47.59375 -8.675781 46.59375 -7.03125 C 45.601562 -5.394531 44.414062 -3.929688 43.03125 -2.640625 C 41.65625 -1.347656 40.117188 -0.289062 38.421875 0.53125 C 36.722656 1.351562 34.9375 1.820312 33.0625 1.9375 C 28.425781 2.113281 23.910156 2.113281 19.515625 1.9375 C 15.117188 1.757812 10.8125 1.347656 6.59375 0.703125 C 5.769531 -2.285156 5.09375 -5.300781 4.5625 -8.34375 C 4.039062 -11.394531 3.601562 -14.414062 3.25 -17.40625 C 4.601562 -17.289062 5.953125 -17.203125 7.296875 -17.140625 C 8.640625 -17.085938 9.988281 -17 11.34375 -16.875 C 10.457031 -19.457031 9.53125 -22.023438 8.5625 -24.578125 C 7.601562 -27.128906 6.695312 -29.707031 5.84375 -32.3125 C 5 -34.914062 4.265625 -37.535156 3.640625 -40.171875 C 3.023438 -42.816406 2.601562 -45.515625 2.375 -48.265625 C 5.769531 -48.617188 9.179688 -48.835938 12.609375 -48.921875 C 16.046875 -49.015625 19.519531 -48.914062 23.03125 -48.625 C 23.5 -46.570312 23.96875 -44.488281 24.4375 -42.375 C 24.90625 -40.269531 25.460938 -38.160156 26.109375 -36.046875 C 26.398438 -34.992188 26.5625 -33.878906 26.59375 -32.703125 C 26.625 -31.535156 26.640625 -30.394531 26.640625 -29.28125 C 26.578125 -27.113281 26.601562 -24.957031 26.71875 -22.8125 C 26.84375 -20.675781 26.875 -18.550781 26.8125 -16.4375 Z M 26.8125 -16.4375 "/></g></g><g style="fill:#078074;fill-opacity:1;"><g transform="translate(763.68484, 257.359114)"><path style="stroke:none" d="M 21.625 2.015625 C 21.394531 0.316406 21.144531 -1.363281 20.875 -3.03125 C 20.613281 -4.707031 20.335938 -6.394531 20.046875 -8.09375 C 19.804688 -7.5 19.613281 -6.925781 19.46875 -6.375 C 19.320312 -5.820312 19.132812 -5.28125 18.90625 -4.75 C 18.613281 -3.863281 18.242188 -2.96875 17.796875 -2.0625 C 17.359375 -1.15625 16.816406 -0.335938 16.171875 0.390625 C 15.523438 1.128906 14.773438 1.6875 13.921875 2.0625 C 13.078125 2.445312 12.128906 2.550781 11.078125 2.375 C 10.367188 2.3125 9.660156 2.207031 8.953125 2.0625 C 8.253906 1.914062 7.554688 1.753906 6.859375 1.578125 C 6.328125 -1.234375 5.828125 -4.070312 5.359375 -6.9375 C 4.890625 -9.8125 4.507812 -12.6875 4.21875 -15.5625 C 6.269531 -15.96875 8.304688 -16.535156 10.328125 -17.265625 C 12.347656 -18.003906 14.414062 -18.726562 16.53125 -19.4375 C 17.175781 -19.601562 17.6875 -19.976562 18.0625 -20.5625 C 18.445312 -21.15625 18.65625 -21.785156 18.6875 -22.453125 C 18.71875 -23.128906 18.570312 -23.742188 18.25 -24.296875 C 17.925781 -24.859375 17.410156 -25.203125 16.703125 -25.328125 C 14.765625 -25.441406 12.8125 -25.484375 10.84375 -25.453125 C 8.882812 -25.421875 6.96875 -25.4375 5.09375 -25.5 C 4.75 -32.769531 4.925781 -40.179688 5.625 -47.734375 C 8.4375 -48.378906 11.289062 -48.6875 14.1875 -48.65625 C 17.09375 -48.632812 20.039062 -48.503906 23.03125 -48.265625 C 25.195312 -48.210938 27.203125 -47.671875 29.046875 -46.640625 C 30.898438 -45.617188 32.484375 -44.285156 33.796875 -42.640625 C 35.117188 -41.003906 36.101562 -39.128906 36.75 -37.015625 C 37.394531 -34.898438 37.597656 -32.757812 37.359375 -30.59375 C 37.242188 -25.257812 36.878906 -20.015625 36.265625 -14.859375 C 35.648438 -9.703125 34.84375 -4.570312 33.84375 0.53125 C 31.789062 1.050781 29.738281 1.414062 27.6875 1.625 C 25.644531 1.832031 23.625 1.960938 21.625 2.015625 Z M 21.625 2.015625 "/></g></g><g style="fill:#078074;fill-opacity:1;"><g transform="translate(801.844209, 257.359114)"><path style="stroke:none" d="M 4.65625 -20.65625 C 6.007812 -20.601562 7.253906 -20.546875 8.390625 -20.484375 C 9.535156 -20.421875 10.679688 -20.359375 11.828125 -20.296875 C 12.972656 -20.242188 14.128906 -20.203125 15.296875 -20.171875 C 16.472656 -20.148438 17.765625 -20.140625 19.171875 -20.140625 C 19.929688 -20.140625 20.570312 -19.859375 21.09375 -19.296875 C 21.625 -18.742188 21.859375 -18.085938 21.796875 -17.328125 C 21.742188 -14.160156 21.773438 -10.945312 21.890625 -7.6875 C 22.003906 -4.4375 22.035156 -1.203125 21.984375 2.015625 C 20.628906 2.015625 19.101562 1.984375 17.40625 1.921875 C 15.707031 1.867188 13.976562 1.796875 12.21875 1.703125 C 10.457031 1.617188 8.753906 1.503906 7.109375 1.359375 C 5.472656 1.210938 4.007812 1.050781 2.71875 0.875 C 2.71875 -2.164062 2.757812 -4.640625 2.84375 -6.546875 C 2.9375 -8.453125 3.070312 -10.132812 3.25 -11.59375 C 3.425781 -13.0625 3.628906 -14.457031 3.859375 -15.78125 C 4.097656 -17.101562 4.363281 -18.726562 4.65625 -20.65625 Z M 28.75 1.9375 C 29.039062 -1.40625 29.242188 -4.742188 29.359375 -8.078125 C 29.484375 -11.421875 29.601562 -14.765625 29.71875 -18.109375 C 29.78125 -19.160156 29.722656 -20.226562 29.546875 -21.3125 C 29.367188 -22.40625 28.957031 -23.359375 28.3125 -24.171875 C 27.488281 -24.640625 26.648438 -24.914062 25.796875 -25 C 24.953125 -25.09375 24.117188 -25.171875 23.296875 -25.234375 C 19.785156 -25.347656 16.328125 -25.421875 12.921875 -25.453125 C 9.523438 -25.484375 6.210938 -25.554688 2.984375 -25.671875 C 2.640625 -29.367188 2.523438 -33.09375 2.640625 -36.84375 C 2.753906 -40.59375 3.046875 -44.3125 3.515625 -48 C 8.085938 -48.707031 12.757812 -48.972656 17.53125 -48.796875 C 22.3125 -48.617188 27.191406 -48.328125 32.171875 -47.921875 C 34.753906 -47.742188 37.1875 -47.035156 39.46875 -45.796875 C 41.757812 -44.566406 43.707031 -42.984375 45.3125 -41.046875 C 46.925781 -39.117188 48.113281 -36.894531 48.875 -34.375 C 49.644531 -31.851562 49.820312 -29.242188 49.40625 -26.546875 C 49 -21.921875 48.367188 -17.347656 47.515625 -12.828125 C 46.671875 -8.316406 45.570312 -3.863281 44.21875 0.53125 C 41.582031 1 38.988281 1.347656 36.4375 1.578125 C 33.894531 1.816406 31.332031 1.9375 28.75 1.9375 Z M 28.75 1.9375 "/></g></g></g></svg>