<svg xmlns="http://www.w3.org/2000/svg" xmlns:xlink="http://www.w3.org/1999/xlink" width="184" zoomAndPan="magnify" viewBox="0 0 138 126.749998" height="169" preserveAspectRatio="xMidYMid meet" version="1.2"><defs><clipPath id="5f889d49d2"><path d="M 2 0 L 136 0 L 136 125.753906 L 2 125.753906 Z M 2 0 "/></clipPath><clipPath id="a0e9aa5727"><path d="M 49.441406 25.863281 L 96.285156 25.863281 L 96.285156 63.027344 L 49.441406 63.027344 Z M 49.441406 25.863281 "/></clipPath></defs><g id="fbb97d024d"><g clip-rule="nonzero" clip-path="url(#5f889d49d2)"><path style=" stroke:none;fill-rule:nonzero;fill:#1b1b1b;fill-opacity:1;" d="M 129.214844 69.828125 L 119.84375 69.828125 C 118.355469 69.828125 117.148438 71.113281 117.148438 72.699219 L 117.148438 122.757812 C 117.148438 124.335938 115.945312 125.621094 114.453125 125.621094 L 82.988281 125.621094 L 82.988281 98.800781 C 82.988281 97.257812 81.738281 96.015625 80.195312 96.015625 L 57.90625 96.015625 C 56.035156 96.015625 54.519531 97.53125 54.519531 99.402344 L 54.519531 125.621094 L 23.046875 125.621094 C 21.554688 125.621094 20.351562 124.335938 20.351562 122.757812 L 20.351562 72.699219 C 20.351562 71.113281 19.152344 69.828125 17.664062 69.828125 L 8.285156 69.828125 C 2.910156 69.828125 0.164062 63.78125 3.894531 60.152344 L 25.464844 39.308594 L 25.464844 11.472656 C 25.464844 9.15625 27.34375 7.285156 29.660156 7.285156 L 48.605469 7.285156 C 50.921875 7.285156 52.800781 9.15625 52.800781 11.472656 L 52.800781 12.90625 L 63.609375 2.464844 C 65.992188 0.183594 69.929688 0.15625 72.339844 2.417969 L 133.542969 60.109375 C 137.363281 63.71875 134.640625 69.828125 129.214844 69.828125 Z M 129.214844 69.828125 "/></g><g clip-rule="nonzero" clip-path="url(#a0e9aa5727)"><path style=" stroke:none;fill-rule:nonzero;fill:#1b1b1b;fill-opacity:1;" d="M 49.441406 25.863281 L 96.328125 25.863281 L 96.328125 63.027344 L 49.441406 63.027344 Z M 49.441406 25.863281 "/></g></g></svg>