<svg xmlns="http://www.w3.org/2000/svg" xmlns:xlink="http://www.w3.org/1999/xlink" width="1321" zoomAndPan="magnify" viewBox="0 0 990.75 184.499994" height="246" preserveAspectRatio="xMidYMid meet" version="1.2"><defs><clipPath id="9cde6e3449"><path d="M 739.296875 43.597656 L 757.75 43.597656 L 757.75 58.117188 L 739.296875 58.117188 Z M 739.296875 43.597656 "/></clipPath></defs><g id="e0f9967105"><g style="fill:#078074;fill-opacity:1;"><g transform="translate(18.770624, 80.781075)"><path style="stroke:none" d="M 6.25 -21.25 C 5.769531 -21.15625 5.300781 -21.15625 4.84375 -21.25 C 4.394531 -21.351562 3.90625 -21.378906 3.375 -21.328125 C 3.28125 -24.347656 3.253906 -27.363281 3.296875 -30.375 C 3.347656 -33.394531 3.585938 -36.4375 4.015625 -39.5 C 8.273438 -39.925781 12.609375 -40.078125 17.015625 -39.953125 C 21.421875 -39.835938 25.945312 -39.539062 30.59375 -39.0625 C 32.601562 -38.96875 34.585938 -38.488281 36.546875 -37.625 C 38.515625 -36.769531 40.226562 -35.625 41.6875 -34.1875 C 43.144531 -32.75 44.242188 -31.070312 44.984375 -29.15625 C 45.734375 -27.238281 45.914062 -25.179688 45.53125 -22.984375 C 45.09375 -18.910156 44.503906 -14.921875 43.765625 -11.015625 C 43.023438 -7.117188 41.984375 -3.300781 40.640625 0.4375 C 38.492188 0.71875 36.363281 0.953125 34.25 1.140625 C 32.144531 1.335938 30.0625 1.484375 28 1.578125 C 28.34375 -1.242188 28.632812 -4.09375 28.875 -6.96875 C 29.113281 -9.84375 29.300781 -12.710938 29.4375 -15.578125 C 29.539062 -16.972656 29.375 -18.242188 28.9375 -19.390625 C 28.65625 -19.910156 28.238281 -20.28125 27.6875 -20.5 C 27.132812 -20.71875 26.570312 -20.800781 26 -20.75 C 25.320312 -20.707031 24.6875 -20.695312 24.09375 -20.71875 C 23.5 -20.738281 22.863281 -20.773438 22.1875 -20.828125 C 22.28125 -13.265625 22.28125 -5.75 22.1875 1.71875 C 20.707031 1.71875 19.113281 1.679688 17.40625 1.609375 C 15.707031 1.546875 13.992188 1.460938 12.265625 1.359375 C 10.546875 1.265625 8.859375 1.117188 7.203125 0.921875 C 5.554688 0.734375 4.066406 0.519531 2.734375 0.28125 C 2.203125 -2.34375 1.921875 -4.78125 1.890625 -7.03125 C 1.867188 -9.28125 1.910156 -11.703125 2.015625 -14.296875 C 2.828125 -14.242188 3.640625 -14.179688 4.453125 -14.109375 C 5.265625 -14.035156 6.078125 -14 6.890625 -14 C 6.742188 -15.195312 6.625 -16.394531 6.53125 -17.59375 C 6.4375 -18.789062 6.34375 -20.007812 6.25 -21.25 Z M 6.25 -21.25 "/></g></g><g style="fill:#078074;fill-opacity:1;"><g transform="translate(63.648988, 80.781075)"><path style="stroke:none" d="M 2.9375 -38.484375 C 5.53125 -39.441406 8.175781 -39.773438 10.875 -39.484375 C 13.582031 -39.203125 16.15625 -38.5625 18.59375 -37.5625 C 18.882812 -31.144531 18.921875 -24.765625 18.703125 -18.421875 C 18.492188 -12.078125 17.976562 -5.769531 17.15625 0.5 C 15.007812 1.21875 12.8125 1.597656 10.5625 1.640625 C 8.3125 1.691406 6.15625 1.335938 4.09375 0.578125 C 3.425781 -5.890625 2.972656 -12.351562 2.734375 -18.8125 C 2.492188 -25.28125 2.5625 -31.835938 2.9375 -38.484375 Z M 2.9375 -38.484375 "/></g></g><g style="fill:#078074;fill-opacity:1;"><g transform="translate(82.533798, 80.781075)"><path style="stroke:none" d="M 46.03125 -26.640625 C 45.882812 -24.773438 45.367188 -22.976562 44.484375 -21.25 C 43.597656 -19.53125 42.488281 -17.976562 41.15625 -16.59375 C 40.332031 -15.820312 39.523438 -15.050781 38.734375 -14.28125 C 37.953125 -13.519531 37.15625 -12.734375 36.34375 -11.921875 C 36.914062 -10.910156 37.5625 -9.890625 38.28125 -8.859375 C 39 -7.835938 39.703125 -6.8125 40.390625 -5.78125 C 41.085938 -4.75 41.734375 -3.691406 42.328125 -2.609375 C 42.929688 -1.535156 43.425781 -0.472656 43.8125 0.578125 C 38.351562 1.335938 33.0625 1.765625 27.9375 1.859375 C 26.6875 -0.285156 25.1875 -2.4375 23.4375 -4.59375 C 21.695312 -6.75 20.132812 -8.804688 18.75 -10.765625 C 18.507812 -10.285156 18.390625 -9.710938 18.390625 -9.046875 C 18.484375 -7.222656 18.550781 -5.425781 18.59375 -3.65625 C 18.644531 -1.882812 18.71875 -0.09375 18.8125 1.71875 C 16.519531 1.625 14.234375 1.492188 11.953125 1.328125 C 9.679688 1.160156 7.445312 0.882812 5.25 0.5 C 4.71875 -1.125 4.296875 -2.757812 3.984375 -4.40625 C 3.671875 -6.0625 3.320312 -7.703125 2.9375 -9.328125 C 2.65625 -10.335938 2.5625 -11.359375 2.65625 -12.390625 C 2.75 -13.421875 2.960938 -14.425781 3.296875 -15.40625 C 3.640625 -16.382812 4.082031 -17.316406 4.625 -18.203125 C 5.175781 -19.085938 5.765625 -19.9375 6.390625 -20.75 C 6.921875 -21.46875 7.445312 -22.195312 7.96875 -22.9375 C 8.5 -23.6875 9.050781 -24.421875 9.625 -25.140625 C 8.1875 -27.523438 6.75 -29.851562 5.3125 -32.125 C 3.875 -34.40625 2.75 -36.863281 1.9375 -39.5 C 4.957031 -39.78125 7.972656 -39.945312 10.984375 -40 C 14.003906 -40.050781 17.09375 -39.976562 20.25 -39.78125 C 20.96875 -38.300781 21.671875 -36.914062 22.359375 -35.625 C 23.054688 -34.332031 23.753906 -33.050781 24.453125 -31.78125 C 25.148438 -30.507812 25.867188 -29.210938 26.609375 -27.890625 C 27.347656 -26.578125 28.125 -25.179688 28.9375 -23.703125 C 29.375 -25.085938 29.640625 -26.398438 29.734375 -27.640625 C 29.828125 -28.890625 29.828125 -30.125 29.734375 -31.34375 C 29.640625 -32.5625 29.503906 -33.804688 29.328125 -35.078125 C 29.160156 -36.347656 29.007812 -37.675781 28.875 -39.0625 C 31.550781 -38.78125 34.238281 -38.484375 36.9375 -38.171875 C 39.644531 -37.859375 42.410156 -37.507812 45.234375 -37.125 C 45.335938 -35.40625 45.539062 -33.679688 45.84375 -31.953125 C 46.15625 -30.234375 46.21875 -28.460938 46.03125 -26.640625 Z M 46.03125 -26.640625 "/></g></g><g style="fill:#078074;fill-opacity:1;"><g transform="translate(127.986598, 80.781075)"><path style="stroke:none" d="M 18.671875 1.65625 C 18.765625 -1.070312 18.847656 -3.800781 18.921875 -6.53125 C 18.992188 -9.257812 19.003906 -11.988281 18.953125 -14.71875 C 18.953125 -15.675781 18.859375 -16.617188 18.671875 -17.546875 C 18.484375 -18.484375 18.050781 -19.335938 17.375 -20.109375 C 16.851562 -20.492188 16.242188 -20.695312 15.546875 -20.71875 C 14.847656 -20.738281 14.191406 -20.773438 13.578125 -20.828125 C 11.609375 -20.867188 9.675781 -20.878906 7.78125 -20.859375 C 5.894531 -20.835938 4.039062 -20.875 2.21875 -20.96875 C 2.125 -23.988281 2.085938 -26.976562 2.109375 -29.9375 C 2.140625 -32.90625 2.347656 -35.945312 2.734375 -39.0625 C 5.503906 -39.59375 8.300781 -39.84375 11.125 -39.8125 C 13.957031 -39.789062 16.804688 -39.6875 19.671875 -39.5 C 21.878906 -39.257812 23.960938 -38.597656 25.921875 -37.515625 C 27.890625 -36.441406 29.578125 -35.066406 30.984375 -33.390625 C 32.398438 -31.710938 33.46875 -29.804688 34.1875 -27.671875 C 34.90625 -25.546875 35.144531 -23.3125 34.90625 -20.96875 C 34.5625 -17.332031 34.125 -13.726562 33.59375 -10.15625 C 33.070312 -6.59375 32.332031 -3.0625 31.375 0.4375 C 29.226562 0.863281 27.097656 1.160156 24.984375 1.328125 C 22.878906 1.492188 20.773438 1.601562 18.671875 1.65625 Z M 18.671875 1.65625 "/></g></g><g style="fill:#078074;fill-opacity:1;"><g transform="translate(163.314839, 80.781075)"><path style="stroke:none" d="M 13.359375 1.296875 C 13.117188 -1.429688 12.945312 -3.941406 12.84375 -6.234375 C 12.75 -8.535156 12.632812 -11.03125 12.5 -13.71875 C 13.21875 -13.757812 13.984375 -13.78125 14.796875 -13.78125 C 15.609375 -13.78125 16.382812 -13.851562 17.125 -14 C 17.863281 -14.144531 18.53125 -14.421875 19.125 -14.828125 C 19.726562 -15.234375 20.148438 -15.867188 20.390625 -16.734375 C 20.484375 -17.398438 20.410156 -18.078125 20.171875 -18.765625 C 19.929688 -19.460938 19.40625 -19.863281 18.59375 -19.96875 C 15.726562 -20.0625 12.941406 -20.15625 10.234375 -20.25 C 7.523438 -20.34375 4.851562 -20.507812 2.21875 -20.75 C 1.976562 -23.570312 1.765625 -26.070312 1.578125 -28.25 C 1.390625 -30.4375 1.242188 -32.566406 1.140625 -34.640625 C 1.046875 -36.722656 1.023438 -38.863281 1.078125 -41.0625 C 1.128906 -43.269531 1.273438 -45.835938 1.515625 -48.765625 C 4.285156 -49.523438 7.082031 -49.867188 9.90625 -49.796875 C 12.726562 -49.722656 15.578125 -49.617188 18.453125 -49.484375 C 18.453125 -48.046875 18.460938 -46.953125 18.484375 -46.203125 C 18.515625 -45.460938 18.53125 -44.78125 18.53125 -44.15625 C 18.53125 -43.539062 18.53125 -42.875 18.53125 -42.15625 C 18.53125 -41.4375 18.53125 -40.382812 18.53125 -39 C 20.34375 -38.851562 22.179688 -38.71875 24.046875 -38.59375 C 25.921875 -38.476562 27.816406 -38.320312 29.734375 -38.125 C 31.023438 -38.125 32.21875 -37.828125 33.3125 -37.234375 C 34.414062 -36.640625 35.335938 -35.863281 36.078125 -34.90625 C 36.828125 -33.945312 37.351562 -32.851562 37.65625 -31.625 C 37.96875 -30.40625 38.003906 -29.148438 37.765625 -27.859375 C 37.578125 -25.898438 37.375 -23.953125 37.15625 -22.015625 C 36.945312 -20.078125 36.722656 -18.125 36.484375 -16.15625 C 36.046875 -13.382812 35.082031 -10.859375 33.59375 -8.578125 C 32.113281 -6.304688 30.320312 -4.40625 28.21875 -2.875 C 26.113281 -1.34375 23.769531 -0.207031 21.1875 0.53125 C 18.601562 1.28125 15.992188 1.535156 13.359375 1.296875 Z M 13.359375 1.296875 "/></g></g><g style="fill:#078074;fill-opacity:1;"><g transform="translate(200.581823, 80.781075)"><path style="stroke:none" d=""/></g></g><g style="fill:#078074;fill-opacity:1;"><g transform="translate(213.794017, 80.781075)"><path style="stroke:none" d="M 3.15625 -38.484375 C 5.789062 -39.109375 8.425781 -39.253906 11.0625 -38.921875 C 13.695312 -38.585938 16.328125 -38.132812 18.953125 -37.5625 C 19.242188 -33.4375 19.289062 -29.316406 19.09375 -25.203125 C 18.90625 -21.085938 18.429688 -16.972656 17.671875 -12.859375 C 12.878906 -11.898438 8.28125 -12.039062 3.875 -13.28125 C 3.207031 -17.351562 2.800781 -21.492188 2.65625 -25.703125 C 2.507812 -29.921875 2.675781 -34.179688 3.15625 -38.484375 Z M 3.15625 -38.484375 "/></g></g><g style="fill:#078074;fill-opacity:1;"><g transform="translate(233.037862, 80.781075)"><path style="stroke:none" d="M 13.640625 1.578125 C 13.492188 -0.191406 13.382812 -1.925781 13.3125 -3.625 C 13.25 -5.320312 13.164062 -7.035156 13.0625 -8.765625 C 13.019531 -9.910156 13.007812 -11.046875 13.03125 -12.171875 C 13.050781 -13.296875 13.253906 -14.410156 13.640625 -15.515625 C 14.078125 -16.273438 14.617188 -16.96875 15.265625 -17.59375 C 15.910156 -18.21875 16.519531 -18.863281 17.09375 -19.53125 L 17.09375 -19.671875 L 17.015625 -20.25 L 16.515625 -20.6875 C 13.929688 -20.78125 11.429688 -20.828125 9.015625 -20.828125 C 6.597656 -20.828125 4.191406 -20.847656 1.796875 -20.890625 C 1.609375 -23.910156 1.535156 -26.914062 1.578125 -29.90625 C 1.628906 -32.894531 1.84375 -35.945312 2.21875 -39.0625 C 4.851562 -39.5 7.507812 -39.726562 10.1875 -39.75 C 12.875 -39.769531 15.59375 -39.671875 18.34375 -39.453125 C 21.101562 -39.242188 23.894531 -38.9375 26.71875 -38.53125 C 29.539062 -38.125 32.410156 -37.679688 35.328125 -37.203125 C 35.566406 -34.804688 35.675781 -32.398438 35.65625 -29.984375 C 35.632812 -27.566406 35.550781 -25.132812 35.40625 -22.6875 L 34.96875 -22.546875 C 33.582031 -22.117188 32.457031 -21.445312 31.59375 -20.53125 C 30.738281 -19.625 30.054688 -18.582031 29.546875 -17.40625 C 29.046875 -16.238281 28.675781 -15.007812 28.4375 -13.71875 C 28.195312 -12.425781 28.050781 -11.203125 28 -10.046875 C 27.8125 -8.140625 27.632812 -6.238281 27.46875 -4.34375 C 27.300781 -2.457031 27.023438 -0.578125 26.640625 1.296875 C 24.441406 1.441406 22.265625 1.5625 20.109375 1.65625 C 17.953125 1.75 15.796875 1.722656 13.640625 1.578125 Z M 13.640625 1.578125 "/></g></g><g style="fill:#078074;fill-opacity:1;"><g transform="translate(267.576256, 80.781075)"><path style="stroke:none" d="M 3.59375 -39.140625 C 6.507812 -39.617188 9.5 -39.84375 12.5625 -39.8125 C 15.625 -39.789062 18.738281 -39.585938 21.90625 -39.203125 C 24.34375 -38.921875 26.46875 -38.070312 28.28125 -36.65625 C 30.101562 -35.25 31.578125 -33.503906 32.703125 -31.421875 C 33.828125 -29.335938 34.582031 -27.0625 34.96875 -24.59375 C 35.351562 -22.125 35.332031 -19.71875 34.90625 -17.375 C 34.664062 -15.320312 34.207031 -13.203125 33.53125 -11.015625 C 32.863281 -8.835938 31.941406 -6.835938 30.765625 -5.015625 C 29.597656 -3.203125 28.160156 -1.6875 26.453125 -0.46875 C 24.753906 0.75 22.78125 1.429688 20.53125 1.578125 C 17.945312 1.671875 15.429688 1.632812 12.984375 1.46875 C 10.546875 1.300781 8.15625 0.976562 5.8125 0.5 C 5.382812 -1.9375 4.976562 -4.375 4.59375 -6.8125 C 4.207031 -9.257812 3.894531 -11.703125 3.65625 -14.140625 C 5.425781 -13.898438 7.207031 -13.753906 9 -13.703125 C 10.800781 -13.660156 12.613281 -13.59375 14.4375 -13.5 C 15.101562 -13.40625 15.769531 -13.425781 16.4375 -13.5625 C 17.113281 -13.707031 17.785156 -13.898438 18.453125 -14.140625 C 18.785156 -14.523438 19.007812 -14.945312 19.125 -15.40625 C 19.25 -15.863281 19.289062 -16.328125 19.25 -16.796875 C 19.289062 -17.421875 19.191406 -17.992188 18.953125 -18.515625 C 18.710938 -19.046875 18.378906 -19.488281 17.953125 -19.84375 C 17.523438 -20.207031 17.035156 -20.472656 16.484375 -20.640625 C 15.929688 -20.804688 15.367188 -20.84375 14.796875 -20.75 C 12.785156 -20.707031 10.804688 -20.734375 8.859375 -20.828125 C 6.921875 -20.921875 5 -20.921875 3.09375 -20.828125 C 2.945312 -23.890625 2.882812 -26.914062 2.90625 -29.90625 C 2.925781 -32.894531 3.15625 -35.972656 3.59375 -39.140625 Z M 3.59375 -39.140625 "/></g></g><g style="fill:#078074;fill-opacity:1;"><g transform="translate(302.760886, 80.781075)"><path style="stroke:none" d=""/></g></g><g style="fill:#078074;fill-opacity:1;"><g transform="translate(315.97308, 80.781075)"><path style="stroke:none" d="M 5.890625 0.578125 C 4.359375 -5.929688 3.253906 -12.5 2.578125 -19.125 C 1.910156 -25.757812 2.054688 -32.503906 3.015625 -39.359375 C 7.222656 -39.929688 11.457031 -40.144531 15.71875 -40 C 19.988281 -39.851562 24.375 -39.539062 28.875 -39.0625 C 31.070312 -38.820312 33.210938 -38.257812 35.296875 -37.375 C 37.378906 -36.488281 39.113281 -35.1875 40.5 -33.46875 C 41.550781 -32.070312 42.207031 -30.5 42.46875 -28.75 C 42.738281 -27.007812 42.828125 -25.226562 42.734375 -23.40625 C 42.054688 -15.175781 40.546875 -7.226562 38.203125 0.4375 C 32.460938 1.289062 26.894531 1.726562 21.5 1.75 C 16.113281 1.78125 10.910156 1.390625 5.890625 0.578125 Z M 27.078125 -12 C 27.171875 -13.144531 27.203125 -14.300781 27.171875 -15.46875 C 27.148438 -16.644531 27.1875 -17.832031 27.28125 -19.03125 C 27.519531 -19.988281 27.28125 -20.753906 26.5625 -21.328125 C 25.851562 -21.898438 25.085938 -22.113281 24.265625 -21.96875 C 23.265625 -21.96875 22.25 -21.992188 21.21875 -22.046875 C 20.1875 -22.097656 19.191406 -22.144531 18.234375 -22.1875 C 18.234375 -20.507812 18.234375 -18.832031 18.234375 -17.15625 C 18.234375 -15.488281 18.285156 -13.816406 18.390625 -12.140625 C 19.773438 -12.085938 21.1875 -12.0625 22.625 -12.0625 C 24.0625 -12.0625 25.546875 -12.039062 27.078125 -12 Z M 27.078125 -12 "/></g></g><g style="fill:#078074;fill-opacity:1;"><g transform="translate(358.338232, 80.781075)"><path style="stroke:none" d="M 3.15625 -38.484375 C 5.789062 -39.109375 8.425781 -39.253906 11.0625 -38.921875 C 13.695312 -38.585938 16.328125 -38.132812 18.953125 -37.5625 C 19.242188 -33.4375 19.289062 -29.316406 19.09375 -25.203125 C 18.90625 -21.085938 18.429688 -16.972656 17.671875 -12.859375 C 12.878906 -11.898438 8.28125 -12.039062 3.875 -13.28125 C 3.207031 -17.351562 2.800781 -21.492188 2.65625 -25.703125 C 2.507812 -29.921875 2.675781 -34.179688 3.15625 -38.484375 Z M 3.15625 -38.484375 "/></g></g><g style="fill:#078074;fill-opacity:1;"><g transform="translate(377.582099, 80.781075)"><path style="stroke:none" d="M 2.65625 -14.140625 C 4.90625 -13.898438 7.332031 -13.753906 9.9375 -13.703125 C 12.550781 -13.660156 15.007812 -13.59375 17.3125 -13.5 L 17.3125 -16.65625 C 17.351562 -17.332031 17.3125 -17.96875 17.1875 -18.5625 C 17.070312 -19.164062 16.773438 -19.703125 16.296875 -20.171875 C 15.296875 -20.609375 14.21875 -20.828125 13.0625 -20.828125 C 11.34375 -20.828125 9.632812 -20.828125 7.9375 -20.828125 C 6.238281 -20.828125 4.570312 -20.847656 2.9375 -20.890625 C 2.75 -23.960938 2.8125 -27.003906 3.125 -30.015625 C 3.4375 -33.035156 3.757812 -36.097656 4.09375 -39.203125 C 6.394531 -39.585938 8.597656 -39.816406 10.703125 -39.890625 C 12.804688 -39.960938 15.054688 -39.925781 17.453125 -39.78125 C 19.742188 -39.832031 21.894531 -39.351562 23.90625 -38.34375 C 25.914062 -37.34375 27.640625 -36.003906 29.078125 -34.328125 C 30.515625 -32.648438 31.582031 -30.707031 32.28125 -28.5 C 32.976562 -26.300781 33.132812 -24.03125 32.75 -21.6875 C 32.695312 -20.300781 32.609375 -18.945312 32.484375 -17.625 C 32.367188 -16.3125 32.21875 -14.984375 32.03125 -13.640625 C 32.75 -13.546875 33.429688 -13.546875 34.078125 -13.640625 C 34.722656 -13.734375 35.378906 -13.804688 36.046875 -13.859375 C 35.617188 -11.421875 35.1875 -9.023438 34.75 -6.671875 C 34.320312 -4.328125 33.773438 -2.007812 33.109375 0.28125 C 28.316406 1.238281 23.488281 1.726562 18.625 1.75 C 13.769531 1.78125 9.238281 1.390625 5.03125 0.578125 C 4.457031 -1.867188 3.988281 -4.320312 3.625 -6.78125 C 3.269531 -9.25 2.945312 -11.703125 2.65625 -14.140625 Z M 2.65625 -14.140625 "/></g></g><g style="fill:#078074;fill-opacity:1;"><g transform="translate(413.053929, 80.781075)"><path style="stroke:none" d="M 3.953125 -14 C 5.765625 -13.90625 7.59375 -13.8125 9.4375 -13.71875 C 11.28125 -13.625 13.140625 -13.578125 15.015625 -13.578125 C 12.566406 -16.585938 10.171875 -19.5625 7.828125 -22.5 C 5.484375 -25.445312 3.234375 -28.457031 1.078125 -31.53125 C 1.078125 -32.820312 1.085938 -34.125 1.109375 -35.4375 C 1.140625 -36.757812 1.222656 -38.066406 1.359375 -39.359375 C 3.660156 -39.597656 5.957031 -39.765625 8.25 -39.859375 C 10.550781 -39.953125 12.875 -39.925781 15.21875 -39.78125 C 16.613281 -36.90625 18.097656 -34.09375 19.671875 -31.34375 C 21.253906 -28.59375 22.835938 -25.804688 24.421875 -22.984375 C 24.515625 -25.710938 24.546875 -28.425781 24.515625 -31.125 C 24.492188 -33.832031 24.4375 -36.523438 24.34375 -39.203125 C 26.976562 -38.960938 29.632812 -38.675781 32.3125 -38.34375 C 35 -38.007812 37.726562 -37.601562 40.5 -37.125 C 40.644531 -35.78125 40.726562 -34.390625 40.75 -32.953125 C 40.78125 -31.523438 40.722656 -30.09375 40.578125 -28.65625 C 40.671875 -27.125 40.460938 -25.675781 39.953125 -24.3125 C 39.453125 -22.945312 38.769531 -21.648438 37.90625 -20.421875 C 37.050781 -19.203125 36.046875 -18.078125 34.890625 -17.046875 C 33.742188 -16.023438 32.597656 -15.082031 31.453125 -14.21875 C 32.554688 -12.832031 33.5625 -11.382812 34.46875 -9.875 C 35.375 -8.363281 36.332031 -6.867188 37.34375 -5.390625 C 37.15625 -4.378906 36.925781 -3.367188 36.65625 -2.359375 C 36.394531 -1.359375 36.117188 -0.378906 35.828125 0.578125 C 30.609375 1.390625 25.546875 1.796875 20.640625 1.796875 C 15.734375 1.796875 10.984375 1.484375 6.390625 0.859375 C 5.859375 -1.578125 5.390625 -4.039062 4.984375 -6.53125 C 4.578125 -9.019531 4.234375 -11.507812 3.953125 -14 Z M 3.953125 -14 "/></g></g><g style="fill:#078074;fill-opacity:1;"><g transform="translate(452.690513, 80.781075)"><path style="stroke:none" d="M 22.40625 -17.09375 C 22.113281 -13.9375 21.8125 -10.785156 21.5 -7.640625 C 21.195312 -4.503906 20.925781 -1.382812 20.6875 1.71875 C 18.238281 1.625 15.816406 1.503906 13.421875 1.359375 C 11.035156 1.222656 8.664062 0.984375 6.3125 0.640625 C 5.882812 -2.804688 5.679688 -6.238281 5.703125 -9.65625 C 5.734375 -13.082031 5.867188 -16.539062 6.109375 -20.03125 C 5.148438 -23.144531 4.273438 -26.289062 3.484375 -29.46875 C 2.691406 -32.65625 2.25 -35.925781 2.15625 -39.28125 C 4.832031 -39.519531 7.523438 -39.660156 10.234375 -39.703125 C 12.941406 -39.753906 15.726562 -39.734375 18.59375 -39.640625 C 18.832031 -37.960938 19.128906 -36.3125 19.484375 -34.6875 C 19.847656 -33.0625 20.222656 -31.410156 20.609375 -29.734375 C 20.898438 -30.929688 21.351562 -32.140625 21.96875 -33.359375 C 22.59375 -34.578125 23.367188 -35.675781 24.296875 -36.65625 C 25.234375 -37.632812 26.300781 -38.390625 27.5 -38.921875 C 28.695312 -39.453125 29.96875 -39.617188 31.3125 -39.421875 C 31.832031 -39.328125 32.367188 -39.253906 32.921875 -39.203125 C 33.472656 -39.160156 34.035156 -39.066406 34.609375 -38.921875 C 36.484375 -38.628906 38.253906 -37.992188 39.921875 -37.015625 C 41.597656 -36.035156 43.035156 -34.828125 44.234375 -33.390625 C 45.429688 -31.953125 46.34375 -30.335938 46.96875 -28.546875 C 47.59375 -26.753906 47.804688 -24.851562 47.609375 -22.84375 C 46.890625 -14.789062 45.191406 -7.03125 42.515625 0.4375 C 39.398438 0.8125 36.367188 1.117188 33.421875 1.359375 C 30.484375 1.597656 27.550781 1.71875 24.625 1.71875 C 25.0625 -3.351562 25.421875 -8.398438 25.703125 -13.421875 C 26.660156 -13.472656 27.609375 -13.472656 28.546875 -13.421875 C 29.484375 -13.378906 30.425781 -13.359375 31.375 -13.359375 C 31.476562 -14.078125 31.515625 -14.757812 31.484375 -15.40625 C 31.460938 -16.050781 31.5 -16.707031 31.59375 -17.375 C 31.738281 -18 31.691406 -18.585938 31.453125 -19.140625 C 31.210938 -19.691406 30.875 -20.15625 30.4375 -20.53125 C 30.007812 -20.914062 29.507812 -21.21875 28.9375 -21.4375 C 28.363281 -21.65625 27.789062 -21.738281 27.21875 -21.6875 C 26.59375 -21.832031 25.992188 -21.785156 25.421875 -21.546875 C 24.847656 -21.304688 24.332031 -20.96875 23.875 -20.53125 C 23.425781 -20.101562 23.066406 -19.578125 22.796875 -18.953125 C 22.535156 -18.335938 22.40625 -17.71875 22.40625 -17.09375 Z M 22.40625 -17.09375 "/></g></g><g style="fill:#078074;fill-opacity:1;"><g transform="translate(499.507619, 80.781075)"><path style="stroke:none" d="M 3.8125 -16.875 C 4.90625 -16.820312 5.921875 -16.769531 6.859375 -16.71875 C 7.796875 -16.675781 8.726562 -16.628906 9.65625 -16.578125 C 10.59375 -16.535156 11.539062 -16.5 12.5 -16.46875 C 13.457031 -16.445312 14.507812 -16.4375 15.65625 -16.4375 C 16.28125 -16.4375 16.804688 -16.207031 17.234375 -15.75 C 17.660156 -15.300781 17.851562 -14.765625 17.8125 -14.140625 C 17.757812 -11.554688 17.78125 -8.9375 17.875 -6.28125 C 17.976562 -3.625 18.003906 -0.976562 17.953125 1.65625 C 16.847656 1.65625 15.601562 1.628906 14.21875 1.578125 C 12.832031 1.535156 11.421875 1.476562 9.984375 1.40625 C 8.546875 1.332031 7.15625 1.234375 5.8125 1.109375 C 4.476562 0.992188 3.28125 0.863281 2.21875 0.71875 C 2.21875 -1.769531 2.253906 -3.789062 2.328125 -5.34375 C 2.398438 -6.90625 2.507812 -8.285156 2.65625 -9.484375 C 2.800781 -10.679688 2.96875 -11.816406 3.15625 -12.890625 C 3.351562 -13.960938 3.570312 -15.289062 3.8125 -16.875 Z M 23.484375 1.578125 C 23.722656 -1.148438 23.890625 -3.878906 23.984375 -6.609375 C 24.078125 -9.335938 24.171875 -12.066406 24.265625 -14.796875 C 24.316406 -15.660156 24.269531 -16.535156 24.125 -17.421875 C 23.976562 -18.304688 23.644531 -19.082031 23.125 -19.75 C 22.457031 -20.132812 21.773438 -20.359375 21.078125 -20.421875 C 20.378906 -20.492188 19.695312 -20.554688 19.03125 -20.609375 C 16.15625 -20.703125 13.328125 -20.757812 10.546875 -20.78125 C 7.773438 -20.8125 5.070312 -20.875 2.4375 -20.96875 C 2.15625 -23.988281 2.0625 -27.03125 2.15625 -30.09375 C 2.25 -33.15625 2.488281 -36.191406 2.875 -39.203125 C 6.601562 -39.785156 10.414062 -40.003906 14.3125 -39.859375 C 18.21875 -39.710938 22.207031 -39.472656 26.28125 -39.140625 C 28.382812 -38.992188 30.367188 -38.414062 32.234375 -37.40625 C 34.109375 -36.40625 35.703125 -35.113281 37.015625 -33.53125 C 38.335938 -31.957031 39.304688 -30.140625 39.921875 -28.078125 C 40.546875 -26.015625 40.691406 -23.882812 40.359375 -21.6875 C 40.023438 -17.90625 39.507812 -14.171875 38.8125 -10.484375 C 38.113281 -6.796875 37.21875 -3.15625 36.125 0.4375 C 33.96875 0.8125 31.847656 1.09375 29.765625 1.28125 C 27.679688 1.476562 25.585938 1.578125 23.484375 1.578125 Z M 23.484375 1.578125 "/></g></g><g style="fill:#078074;fill-opacity:1;"><g transform="translate(539.718605, 80.781075)"><path style="stroke:none" d="M 22.40625 -17.09375 C 22.113281 -13.9375 21.8125 -10.785156 21.5 -7.640625 C 21.195312 -4.503906 20.925781 -1.382812 20.6875 1.71875 C 18.238281 1.625 15.816406 1.503906 13.421875 1.359375 C 11.035156 1.222656 8.664062 0.984375 6.3125 0.640625 C 5.882812 -2.804688 5.679688 -6.238281 5.703125 -9.65625 C 5.734375 -13.082031 5.867188 -16.539062 6.109375 -20.03125 C 5.148438 -23.144531 4.273438 -26.289062 3.484375 -29.46875 C 2.691406 -32.65625 2.25 -35.925781 2.15625 -39.28125 C 4.832031 -39.519531 7.523438 -39.660156 10.234375 -39.703125 C 12.941406 -39.753906 15.726562 -39.734375 18.59375 -39.640625 C 18.832031 -37.960938 19.128906 -36.3125 19.484375 -34.6875 C 19.847656 -33.0625 20.222656 -31.410156 20.609375 -29.734375 C 20.898438 -30.929688 21.351562 -32.140625 21.96875 -33.359375 C 22.59375 -34.578125 23.367188 -35.675781 24.296875 -36.65625 C 25.234375 -37.632812 26.300781 -38.390625 27.5 -38.921875 C 28.695312 -39.453125 29.96875 -39.617188 31.3125 -39.421875 C 31.832031 -39.328125 32.367188 -39.253906 32.921875 -39.203125 C 33.472656 -39.160156 34.035156 -39.066406 34.609375 -38.921875 C 36.484375 -38.628906 38.253906 -37.992188 39.921875 -37.015625 C 41.597656 -36.035156 43.035156 -34.828125 44.234375 -33.390625 C 45.429688 -31.953125 46.34375 -30.335938 46.96875 -28.546875 C 47.59375 -26.753906 47.804688 -24.851562 47.609375 -22.84375 C 46.890625 -14.789062 45.191406 -7.03125 42.515625 0.4375 C 39.398438 0.8125 36.367188 1.117188 33.421875 1.359375 C 30.484375 1.597656 27.550781 1.71875 24.625 1.71875 C 25.0625 -3.351562 25.421875 -8.398438 25.703125 -13.421875 C 26.660156 -13.472656 27.609375 -13.472656 28.546875 -13.421875 C 29.484375 -13.378906 30.425781 -13.359375 31.375 -13.359375 C 31.476562 -14.078125 31.515625 -14.757812 31.484375 -15.40625 C 31.460938 -16.050781 31.5 -16.707031 31.59375 -17.375 C 31.738281 -18 31.691406 -18.585938 31.453125 -19.140625 C 31.210938 -19.691406 30.875 -20.15625 30.4375 -20.53125 C 30.007812 -20.914062 29.507812 -21.21875 28.9375 -21.4375 C 28.363281 -21.65625 27.789062 -21.738281 27.21875 -21.6875 C 26.59375 -21.832031 25.992188 -21.785156 25.421875 -21.546875 C 24.847656 -21.304688 24.332031 -20.96875 23.875 -20.53125 C 23.425781 -20.101562 23.066406 -19.578125 22.796875 -18.953125 C 22.535156 -18.335938 22.40625 -17.71875 22.40625 -17.09375 Z M 22.40625 -17.09375 "/></g></g><g style="fill:#078074;fill-opacity:1;"><g transform="translate(586.535711, 80.781075)"><path style="stroke:none" d=""/></g></g><g style="fill:#078074;fill-opacity:1;"><g transform="translate(599.747906, 80.781075)"><path style="stroke:none" d="M 13.640625 1.578125 C 13.492188 -0.191406 13.382812 -1.925781 13.3125 -3.625 C 13.25 -5.320312 13.164062 -7.035156 13.0625 -8.765625 C 13.019531 -9.910156 13.007812 -11.046875 13.03125 -12.171875 C 13.050781 -13.296875 13.253906 -14.410156 13.640625 -15.515625 C 14.078125 -16.273438 14.617188 -16.96875 15.265625 -17.59375 C 15.910156 -18.21875 16.519531 -18.863281 17.09375 -19.53125 L 17.09375 -19.671875 L 17.015625 -20.25 L 16.515625 -20.6875 C 13.929688 -20.78125 11.429688 -20.828125 9.015625 -20.828125 C 6.597656 -20.828125 4.191406 -20.847656 1.796875 -20.890625 C 1.609375 -23.910156 1.535156 -26.914062 1.578125 -29.90625 C 1.628906 -32.894531 1.84375 -35.945312 2.21875 -39.0625 C 4.851562 -39.5 7.507812 -39.726562 10.1875 -39.75 C 12.875 -39.769531 15.59375 -39.671875 18.34375 -39.453125 C 21.101562 -39.242188 23.894531 -38.9375 26.71875 -38.53125 C 29.539062 -38.125 32.410156 -37.679688 35.328125 -37.203125 C 35.566406 -34.804688 35.675781 -32.398438 35.65625 -29.984375 C 35.632812 -27.566406 35.550781 -25.132812 35.40625 -22.6875 L 34.96875 -22.546875 C 33.582031 -22.117188 32.457031 -21.445312 31.59375 -20.53125 C 30.738281 -19.625 30.054688 -18.582031 29.546875 -17.40625 C 29.046875 -16.238281 28.675781 -15.007812 28.4375 -13.71875 C 28.195312 -12.425781 28.050781 -11.203125 28 -10.046875 C 27.8125 -8.140625 27.632812 -6.238281 27.46875 -4.34375 C 27.300781 -2.457031 27.023438 -0.578125 26.640625 1.296875 C 24.441406 1.441406 22.265625 1.5625 20.109375 1.65625 C 17.953125 1.75 15.796875 1.722656 13.640625 1.578125 Z M 13.640625 1.578125 "/></g></g><g style="fill:#078074;fill-opacity:1;"><g transform="translate(634.286322, 80.781075)"><path style="stroke:none" d="M 26.78125 1.578125 C 27.113281 -1.578125 27.375 -4.734375 27.5625 -7.890625 C 27.757812 -11.054688 27.90625 -14.242188 28 -17.453125 C 28.144531 -17.929688 28.132812 -18.375 27.96875 -18.78125 C 27.800781 -19.1875 27.5625 -19.53125 27.25 -19.8125 C 26.9375 -20.101562 26.578125 -20.304688 26.171875 -20.421875 C 25.765625 -20.546875 25.347656 -20.5625 24.921875 -20.46875 C 23.910156 -20.507812 22.890625 -20.566406 21.859375 -20.640625 C 20.835938 -20.710938 19.847656 -20.75 18.890625 -20.75 C 18.984375 -16.96875 19.066406 -13.207031 19.140625 -9.46875 C 19.210938 -5.738281 19.296875 -2.007812 19.390625 1.71875 C 17.085938 1.625 14.8125 1.503906 12.5625 1.359375 C 10.3125 1.222656 8.085938 0.960938 5.890625 0.578125 C 4.210938 -5.890625 3.0625 -12.460938 2.4375 -19.140625 C 1.820312 -25.816406 1.988281 -32.578125 2.9375 -39.421875 C 7.34375 -39.953125 11.820312 -40.109375 16.375 -39.890625 C 20.925781 -39.671875 25.59375 -39.320312 30.375 -38.84375 C 32.53125 -38.601562 34.625 -38.039062 36.65625 -37.15625 C 38.695312 -36.269531 40.429688 -35.039062 41.859375 -33.46875 C 42.960938 -32.070312 43.65625 -30.488281 43.9375 -28.71875 C 44.226562 -26.945312 44.28125 -25.15625 44.09375 -23.34375 C 43.800781 -19.269531 43.257812 -15.242188 42.46875 -11.265625 C 41.6875 -7.296875 40.671875 -3.394531 39.421875 0.4375 C 37.265625 0.769531 35.132812 1.03125 33.03125 1.21875 C 30.925781 1.414062 28.84375 1.535156 26.78125 1.578125 Z M 26.78125 1.578125 "/></g></g><g style="fill:#078074;fill-opacity:1;"><g transform="translate(677.800367, 80.781075)"><path style="stroke:none" d="M 46.03125 -26.640625 C 45.882812 -24.773438 45.367188 -22.976562 44.484375 -21.25 C 43.597656 -19.53125 42.488281 -17.976562 41.15625 -16.59375 C 40.332031 -15.820312 39.523438 -15.050781 38.734375 -14.28125 C 37.953125 -13.519531 37.15625 -12.734375 36.34375 -11.921875 C 36.914062 -10.910156 37.5625 -9.890625 38.28125 -8.859375 C 39 -7.835938 39.703125 -6.8125 40.390625 -5.78125 C 41.085938 -4.75 41.734375 -3.691406 42.328125 -2.609375 C 42.929688 -1.535156 43.425781 -0.472656 43.8125 0.578125 C 38.351562 1.335938 33.0625 1.765625 27.9375 1.859375 C 26.6875 -0.285156 25.1875 -2.4375 23.4375 -4.59375 C 21.695312 -6.75 20.132812 -8.804688 18.75 -10.765625 C 18.507812 -10.285156 18.390625 -9.710938 18.390625 -9.046875 C 18.484375 -7.222656 18.550781 -5.425781 18.59375 -3.65625 C 18.644531 -1.882812 18.71875 -0.09375 18.8125 1.71875 C 16.519531 1.625 14.234375 1.492188 11.953125 1.328125 C 9.679688 1.160156 7.445312 0.882812 5.25 0.5 C 4.71875 -1.125 4.296875 -2.757812 3.984375 -4.40625 C 3.671875 -6.0625 3.320312 -7.703125 2.9375 -9.328125 C 2.65625 -10.335938 2.5625 -11.359375 2.65625 -12.390625 C 2.75 -13.421875 2.960938 -14.425781 3.296875 -15.40625 C 3.640625 -16.382812 4.082031 -17.316406 4.625 -18.203125 C 5.175781 -19.085938 5.765625 -19.9375 6.390625 -20.75 C 6.921875 -21.46875 7.445312 -22.195312 7.96875 -22.9375 C 8.5 -23.6875 9.050781 -24.421875 9.625 -25.140625 C 8.1875 -27.523438 6.75 -29.851562 5.3125 -32.125 C 3.875 -34.40625 2.75 -36.863281 1.9375 -39.5 C 4.957031 -39.78125 7.972656 -39.945312 10.984375 -40 C 14.003906 -40.050781 17.09375 -39.976562 20.25 -39.78125 C 20.96875 -38.300781 21.671875 -36.914062 22.359375 -35.625 C 23.054688 -34.332031 23.753906 -33.050781 24.453125 -31.78125 C 25.148438 -30.507812 25.867188 -29.210938 26.609375 -27.890625 C 27.347656 -26.578125 28.125 -25.179688 28.9375 -23.703125 C 29.375 -25.085938 29.640625 -26.398438 29.734375 -27.640625 C 29.828125 -28.890625 29.828125 -30.125 29.734375 -31.34375 C 29.640625 -32.5625 29.503906 -33.804688 29.328125 -35.078125 C 29.160156 -36.347656 29.007812 -37.675781 28.875 -39.0625 C 31.550781 -38.78125 34.238281 -38.484375 36.9375 -38.171875 C 39.644531 -37.859375 42.410156 -37.507812 45.234375 -37.125 C 45.335938 -35.40625 45.539062 -33.679688 45.84375 -31.953125 C 46.15625 -30.234375 46.21875 -28.460938 46.03125 -26.640625 Z M 46.03125 -26.640625 "/></g></g><g style="fill:#078074;fill-opacity:1;"><g transform="translate(723.253144, 80.781075)"><path style="stroke:none" d=""/></g></g><g style="fill:#078074;fill-opacity:1;"><g transform="translate(736.465338, 80.781075)"><path style="stroke:none" d="M 13.359375 1.296875 C 13.117188 -1.429688 12.945312 -3.941406 12.84375 -6.234375 C 12.75 -8.535156 12.632812 -11.03125 12.5 -13.71875 C 13.21875 -13.757812 13.984375 -13.78125 14.796875 -13.78125 C 15.609375 -13.78125 16.382812 -13.851562 17.125 -14 C 17.863281 -14.144531 18.53125 -14.421875 19.125 -14.828125 C 19.726562 -15.234375 20.148438 -15.867188 20.390625 -16.734375 C 20.484375 -17.398438 20.410156 -18.078125 20.171875 -18.765625 C 19.929688 -19.460938 19.40625 -19.863281 18.59375 -19.96875 C 15.726562 -20.0625 12.941406 -20.15625 10.234375 -20.25 C 7.523438 -20.34375 4.851562 -20.507812 2.21875 -20.75 C 1.976562 -23.570312 1.765625 -26.070312 1.578125 -28.25 C 1.390625 -30.4375 1.242188 -32.566406 1.140625 -34.640625 C 1.046875 -36.722656 1.023438 -38.863281 1.078125 -41.0625 C 1.128906 -43.269531 1.273438 -45.835938 1.515625 -48.765625 C 4.285156 -49.523438 7.082031 -49.867188 9.90625 -49.796875 C 12.726562 -49.722656 15.578125 -49.617188 18.453125 -49.484375 C 18.453125 -48.046875 18.460938 -46.953125 18.484375 -46.203125 C 18.515625 -45.460938 18.53125 -44.78125 18.53125 -44.15625 C 18.53125 -43.539062 18.53125 -42.875 18.53125 -42.15625 C 18.53125 -41.4375 18.53125 -40.382812 18.53125 -39 C 20.34375 -38.851562 22.179688 -38.71875 24.046875 -38.59375 C 25.921875 -38.476562 27.816406 -38.320312 29.734375 -38.125 C 31.023438 -38.125 32.21875 -37.828125 33.3125 -37.234375 C 34.414062 -36.640625 35.335938 -35.863281 36.078125 -34.90625 C 36.828125 -33.945312 37.351562 -32.851562 37.65625 -31.625 C 37.96875 -30.40625 38.003906 -29.148438 37.765625 -27.859375 C 37.578125 -25.898438 37.375 -23.953125 37.15625 -22.015625 C 36.945312 -20.078125 36.722656 -18.125 36.484375 -16.15625 C 36.046875 -13.382812 35.082031 -10.859375 33.59375 -8.578125 C 32.113281 -6.304688 30.320312 -4.40625 28.21875 -2.875 C 26.113281 -1.34375 23.769531 -0.207031 21.1875 0.53125 C 18.601562 1.28125 15.992188 1.535156 13.359375 1.296875 Z M 13.359375 1.296875 "/></g></g><g style="fill:#078074;fill-opacity:1;"><g transform="translate(773.732322, 80.781075)"><path style="stroke:none" d="M 21.90625 -13.421875 C 22.289062 -13.378906 22.695312 -13.378906 23.125 -13.421875 C 23.550781 -13.472656 23.984375 -13.472656 24.421875 -13.421875 C 25.085938 -13.523438 25.5625 -13.910156 25.84375 -14.578125 C 26.132812 -15.242188 26.328125 -15.890625 26.421875 -16.515625 C 26.617188 -20.253906 26.800781 -24 26.96875 -27.75 C 27.132812 -31.507812 27.171875 -35.328125 27.078125 -39.203125 C 29.804688 -38.921875 32.546875 -38.609375 35.296875 -38.265625 C 38.046875 -37.929688 40.832031 -37.578125 43.65625 -37.203125 C 43.757812 -32.554688 43.4375 -27.96875 42.6875 -23.4375 C 41.945312 -18.914062 41.023438 -14.429688 39.921875 -9.984375 C 39.492188 -8.492188 38.875 -7.078125 38.0625 -5.734375 C 37.25 -4.398438 36.28125 -3.207031 35.15625 -2.15625 C 34.03125 -1.101562 32.769531 -0.242188 31.375 0.421875 C 29.988281 1.097656 28.53125 1.484375 27 1.578125 C 23.21875 1.722656 19.53125 1.722656 15.9375 1.578125 C 12.351562 1.429688 8.835938 1.097656 5.390625 0.578125 C 4.710938 -1.867188 4.160156 -4.335938 3.734375 -6.828125 C 3.304688 -9.316406 2.945312 -11.78125 2.65625 -14.21875 C 3.757812 -14.125 4.859375 -14.050781 5.953125 -14 C 7.054688 -13.957031 8.160156 -13.882812 9.265625 -13.78125 C 8.546875 -15.894531 7.789062 -17.992188 7 -20.078125 C 6.207031 -22.160156 5.460938 -24.265625 4.765625 -26.390625 C 4.078125 -28.523438 3.476562 -30.664062 2.96875 -32.8125 C 2.46875 -34.96875 2.125 -37.171875 1.9375 -39.421875 C 4.71875 -39.710938 7.503906 -39.894531 10.296875 -39.96875 C 13.097656 -40.039062 15.9375 -39.957031 18.8125 -39.71875 C 19.195312 -38.039062 19.578125 -36.335938 19.953125 -34.609375 C 20.335938 -32.890625 20.796875 -31.164062 21.328125 -29.4375 C 21.566406 -28.582031 21.695312 -27.675781 21.71875 -26.71875 C 21.75 -25.757812 21.765625 -24.820312 21.765625 -23.90625 C 21.710938 -22.132812 21.734375 -20.375 21.828125 -18.625 C 21.921875 -16.882812 21.945312 -15.148438 21.90625 -13.421875 Z M 21.90625 -13.421875 "/></g></g><g style="fill:#078074;fill-opacity:1;"><g transform="translate(816.09752, 80.781075)"><path style="stroke:none" d=""/></g></g><g style="fill:#078074;fill-opacity:1;"><g transform="translate(829.309668, 80.781075)"><path style="stroke:none" d="M 2.9375 -38.484375 C 5.53125 -39.441406 8.175781 -39.773438 10.875 -39.484375 C 13.582031 -39.203125 16.15625 -38.5625 18.59375 -37.5625 C 18.882812 -31.144531 18.921875 -24.765625 18.703125 -18.421875 C 18.492188 -12.078125 17.976562 -5.769531 17.15625 0.5 C 15.007812 1.21875 12.8125 1.597656 10.5625 1.640625 C 8.3125 1.691406 6.15625 1.335938 4.09375 0.578125 C 3.425781 -5.890625 2.972656 -12.351562 2.734375 -18.8125 C 2.492188 -25.28125 2.5625 -31.835938 2.9375 -38.484375 Z M 2.9375 -38.484375 "/></g></g><g style="fill:#078074;fill-opacity:1;"><g transform="translate(848.194524, 80.781075)"><path style="stroke:none" d="M 3.953125 -14 C 5.765625 -13.90625 7.59375 -13.8125 9.4375 -13.71875 C 11.28125 -13.625 13.140625 -13.578125 15.015625 -13.578125 C 12.566406 -16.585938 10.171875 -19.5625 7.828125 -22.5 C 5.484375 -25.445312 3.234375 -28.457031 1.078125 -31.53125 C 1.078125 -32.820312 1.085938 -34.125 1.109375 -35.4375 C 1.140625 -36.757812 1.222656 -38.066406 1.359375 -39.359375 C 3.660156 -39.597656 5.957031 -39.765625 8.25 -39.859375 C 10.550781 -39.953125 12.875 -39.925781 15.21875 -39.78125 C 16.613281 -36.90625 18.097656 -34.09375 19.671875 -31.34375 C 21.253906 -28.59375 22.835938 -25.804688 24.421875 -22.984375 C 24.515625 -25.710938 24.546875 -28.425781 24.515625 -31.125 C 24.492188 -33.832031 24.4375 -36.523438 24.34375 -39.203125 C 26.976562 -38.960938 29.632812 -38.675781 32.3125 -38.34375 C 35 -38.007812 37.726562 -37.601562 40.5 -37.125 C 40.644531 -35.78125 40.726562 -34.390625 40.75 -32.953125 C 40.78125 -31.523438 40.722656 -30.09375 40.578125 -28.65625 C 40.671875 -27.125 40.460938 -25.675781 39.953125 -24.3125 C 39.453125 -22.945312 38.769531 -21.648438 37.90625 -20.421875 C 37.050781 -19.203125 36.046875 -18.078125 34.890625 -17.046875 C 33.742188 -16.023438 32.597656 -15.082031 31.453125 -14.21875 C 32.554688 -12.832031 33.5625 -11.382812 34.46875 -9.875 C 35.375 -8.363281 36.332031 -6.867188 37.34375 -5.390625 C 37.15625 -4.378906 36.925781 -3.367188 36.65625 -2.359375 C 36.394531 -1.359375 36.117188 -0.378906 35.828125 0.578125 C 30.609375 1.390625 25.546875 1.796875 20.640625 1.796875 C 15.734375 1.796875 10.984375 1.484375 6.390625 0.859375 C 5.859375 -1.578125 5.390625 -4.039062 4.984375 -6.53125 C 4.578125 -9.019531 4.234375 -11.507812 3.953125 -14 Z M 3.953125 -14 "/></g></g><g style="fill:#078074;fill-opacity:1;"><g transform="translate(887.831062, 80.781075)"><path style="stroke:none" d="M 26.78125 1.578125 C 27.113281 -1.578125 27.375 -4.734375 27.5625 -7.890625 C 27.757812 -11.054688 27.90625 -14.242188 28 -17.453125 C 28.144531 -17.929688 28.132812 -18.375 27.96875 -18.78125 C 27.800781 -19.1875 27.5625 -19.53125 27.25 -19.8125 C 26.9375 -20.101562 26.578125 -20.304688 26.171875 -20.421875 C 25.765625 -20.546875 25.347656 -20.5625 24.921875 -20.46875 C 23.910156 -20.507812 22.890625 -20.566406 21.859375 -20.640625 C 20.835938 -20.710938 19.847656 -20.75 18.890625 -20.75 C 18.984375 -16.96875 19.066406 -13.207031 19.140625 -9.46875 C 19.210938 -5.738281 19.296875 -2.007812 19.390625 1.71875 C 17.085938 1.625 14.8125 1.503906 12.5625 1.359375 C 10.3125 1.222656 8.085938 0.960938 5.890625 0.578125 C 4.210938 -5.890625 3.0625 -12.460938 2.4375 -19.140625 C 1.820312 -25.816406 1.988281 -32.578125 2.9375 -39.421875 C 7.34375 -39.953125 11.820312 -40.109375 16.375 -39.890625 C 20.925781 -39.671875 25.59375 -39.320312 30.375 -38.84375 C 32.53125 -38.601562 34.625 -38.039062 36.65625 -37.15625 C 38.695312 -36.269531 40.429688 -35.039062 41.859375 -33.46875 C 42.960938 -32.070312 43.65625 -30.488281 43.9375 -28.71875 C 44.226562 -26.945312 44.28125 -25.15625 44.09375 -23.34375 C 43.800781 -19.269531 43.257812 -15.242188 42.46875 -11.265625 C 41.6875 -7.296875 40.671875 -3.394531 39.421875 0.4375 C 37.265625 0.769531 35.132812 1.03125 33.03125 1.21875 C 30.925781 1.414062 28.84375 1.535156 26.78125 1.578125 Z M 26.78125 1.578125 "/></g></g><g style="fill:#078074;fill-opacity:1;"><g transform="translate(931.345153, 80.781075)"><path style="stroke:none" d="M 13.359375 1.296875 C 13.117188 -1.429688 12.945312 -3.941406 12.84375 -6.234375 C 12.75 -8.535156 12.632812 -11.03125 12.5 -13.71875 C 13.21875 -13.757812 13.984375 -13.78125 14.796875 -13.78125 C 15.609375 -13.78125 16.382812 -13.851562 17.125 -14 C 17.863281 -14.144531 18.53125 -14.421875 19.125 -14.828125 C 19.726562 -15.234375 20.148438 -15.867188 20.390625 -16.734375 C 20.484375 -17.398438 20.410156 -18.078125 20.171875 -18.765625 C 19.929688 -19.460938 19.40625 -19.863281 18.59375 -19.96875 C 15.726562 -20.0625 12.941406 -20.15625 10.234375 -20.25 C 7.523438 -20.34375 4.851562 -20.507812 2.21875 -20.75 C 1.976562 -23.570312 1.765625 -26.070312 1.578125 -28.25 C 1.390625 -30.4375 1.242188 -32.566406 1.140625 -34.640625 C 1.046875 -36.722656 1.023438 -38.863281 1.078125 -41.0625 C 1.128906 -43.269531 1.273438 -45.835938 1.515625 -48.765625 C 4.285156 -49.523438 7.082031 -49.867188 9.90625 -49.796875 C 12.726562 -49.722656 15.578125 -49.617188 18.453125 -49.484375 C 18.453125 -48.046875 18.460938 -46.953125 18.484375 -46.203125 C 18.515625 -45.460938 18.53125 -44.78125 18.53125 -44.15625 C 18.53125 -43.539062 18.53125 -42.875 18.53125 -42.15625 C 18.53125 -41.4375 18.53125 -40.382812 18.53125 -39 C 20.34375 -38.851562 22.179688 -38.71875 24.046875 -38.59375 C 25.921875 -38.476562 27.816406 -38.320312 29.734375 -38.125 C 31.023438 -38.125 32.21875 -37.828125 33.3125 -37.234375 C 34.414062 -36.640625 35.335938 -35.863281 36.078125 -34.90625 C 36.828125 -33.945312 37.351562 -32.851562 37.65625 -31.625 C 37.96875 -30.40625 38.003906 -29.148438 37.765625 -27.859375 C 37.578125 -25.898438 37.375 -23.953125 37.15625 -22.015625 C 36.945312 -20.078125 36.722656 -18.125 36.484375 -16.15625 C 36.046875 -13.382812 35.082031 -10.859375 33.59375 -8.578125 C 32.113281 -6.304688 30.320312 -4.40625 28.21875 -2.875 C 26.113281 -1.34375 23.769531 -0.207031 21.1875 0.53125 C 18.601562 1.28125 15.992188 1.535156 13.359375 1.296875 Z M 13.359375 1.296875 "/></g></g><g style="fill:#078074;fill-opacity:1;"><g transform="translate(194.976686, 141.366882)"><path style="stroke:none" d="M 5.890625 0.578125 C 4.359375 -5.929688 3.253906 -12.5 2.578125 -19.125 C 1.910156 -25.757812 2.054688 -32.503906 3.015625 -39.359375 C 7.222656 -39.929688 11.457031 -40.144531 15.71875 -40 C 19.988281 -39.851562 24.375 -39.539062 28.875 -39.0625 C 31.070312 -38.820312 33.210938 -38.257812 35.296875 -37.375 C 37.378906 -36.488281 39.113281 -35.1875 40.5 -33.46875 C 41.550781 -32.070312 42.207031 -30.5 42.46875 -28.75 C 42.738281 -27.007812 42.828125 -25.226562 42.734375 -23.40625 C 42.054688 -15.175781 40.546875 -7.226562 38.203125 0.4375 C 32.460938 1.289062 26.894531 1.726562 21.5 1.75 C 16.113281 1.78125 10.910156 1.390625 5.890625 0.578125 Z M 27.078125 -12 C 27.171875 -13.144531 27.203125 -14.300781 27.171875 -15.46875 C 27.148438 -16.644531 27.1875 -17.832031 27.28125 -19.03125 C 27.519531 -19.988281 27.28125 -20.753906 26.5625 -21.328125 C 25.851562 -21.898438 25.085938 -22.113281 24.265625 -21.96875 C 23.265625 -21.96875 22.25 -21.992188 21.21875 -22.046875 C 20.1875 -22.097656 19.191406 -22.144531 18.234375 -22.1875 C 18.234375 -20.507812 18.234375 -18.832031 18.234375 -17.15625 C 18.234375 -15.488281 18.285156 -13.816406 18.390625 -12.140625 C 19.773438 -12.085938 21.1875 -12.0625 22.625 -12.0625 C 24.0625 -12.0625 25.546875 -12.039062 27.078125 -12 Z M 27.078125 -12 "/></g></g><g style="fill:#078074;fill-opacity:1;"><g transform="translate(237.34186, 141.366882)"><path style="stroke:none" d="M 3.15625 -38.484375 C 5.789062 -39.109375 8.425781 -39.253906 11.0625 -38.921875 C 13.695312 -38.585938 16.328125 -38.132812 18.953125 -37.5625 C 19.242188 -33.4375 19.289062 -29.316406 19.09375 -25.203125 C 18.90625 -21.085938 18.429688 -16.972656 17.671875 -12.859375 C 12.878906 -11.898438 8.28125 -12.039062 3.875 -13.28125 C 3.207031 -17.351562 2.800781 -21.492188 2.65625 -25.703125 C 2.507812 -29.921875 2.675781 -34.179688 3.15625 -38.484375 Z M 3.15625 -38.484375 "/></g></g><g style="fill:#078074;fill-opacity:1;"><g transform="translate(256.585705, 141.366882)"><path style="stroke:none" d="M 3.453125 -20.75 C 3.347656 -23.675781 3.320312 -26.671875 3.375 -29.734375 C 3.425781 -32.796875 3.59375 -35.832031 3.875 -38.84375 C 6.082031 -39.375 8.3125 -39.625 10.5625 -39.59375 C 12.8125 -39.570312 15.082031 -39.441406 17.375 -39.203125 C 18.625 -38.960938 19.757812 -38.472656 20.78125 -37.734375 C 21.8125 -36.992188 22.6875 -36.109375 23.40625 -35.078125 C 24.125 -34.046875 24.675781 -32.894531 25.0625 -31.625 C 25.445312 -30.363281 25.640625 -29.085938 25.640625 -27.796875 C 25.492188 -23.003906 25.203125 -18.25 24.765625 -13.53125 C 24.335938 -8.820312 23.71875 -4.144531 22.90625 0.5 C 19.695312 1.269531 16.5 1.65625 13.3125 1.65625 C 10.132812 1.65625 7.035156 1.195312 4.015625 0.28125 C 3.640625 -2.101562 3.296875 -4.492188 2.984375 -6.890625 C 2.671875 -9.285156 2.46875 -11.703125 2.375 -14.140625 C 3.46875 -14.003906 4.566406 -13.882812 5.671875 -13.78125 C 6.773438 -13.6875 7.875 -13.617188 8.96875 -13.578125 L 9.328125 -13.9375 C 9.328125 -14.414062 9.316406 -14.859375 9.296875 -15.265625 C 9.273438 -15.671875 9.285156 -16.085938 9.328125 -16.515625 C 9.472656 -17.953125 9.09375 -19.195312 8.1875 -20.25 C 7.800781 -20.488281 7.378906 -20.617188 6.921875 -20.640625 C 6.472656 -20.671875 6.03125 -20.6875 5.59375 -20.6875 C 5.21875 -20.78125 4.859375 -20.789062 4.515625 -20.71875 C 4.179688 -20.644531 3.828125 -20.65625 3.453125 -20.75 Z M 3.453125 -20.75 "/></g></g><g style="fill:#078074;fill-opacity:1;"><g transform="translate(283.153695, 141.366882)"><path style="stroke:none" d="M 2.9375 -38.484375 C 5.53125 -39.441406 8.175781 -39.773438 10.875 -39.484375 C 13.582031 -39.203125 16.15625 -38.5625 18.59375 -37.5625 C 18.882812 -31.144531 18.921875 -24.765625 18.703125 -18.421875 C 18.492188 -12.078125 17.976562 -5.769531 17.15625 0.5 C 15.007812 1.21875 12.8125 1.597656 10.5625 1.640625 C 8.3125 1.691406 6.15625 1.335938 4.09375 0.578125 C 3.425781 -5.890625 2.972656 -12.351562 2.734375 -18.8125 C 2.492188 -25.28125 2.5625 -31.835938 2.9375 -38.484375 Z M 2.9375 -38.484375 "/></g></g><g style="fill:#078074;fill-opacity:1;"><g transform="translate(302.038505, 141.366882)"><path style="stroke:none" d="M 22.765625 -39.0625 C 25.066406 -38.96875 27.398438 -38.835938 29.765625 -38.671875 C 32.140625 -38.503906 34.546875 -38.300781 36.984375 -38.0625 C 37.222656 -33.707031 37.257812 -29.421875 37.09375 -25.203125 C 36.925781 -20.992188 36.722656 -16.734375 36.484375 -12.421875 L 37.921875 -12.5 C 38.585938 -12.5 39.097656 -12.664062 39.453125 -13 C 39.816406 -13.332031 40.082031 -13.75 40.25 -14.25 C 40.414062 -14.757812 40.519531 -15.300781 40.5625 -15.875 C 40.613281 -16.445312 40.664062 -16.945312 40.71875 -17.375 C 41.101562 -20.78125 41.378906 -24.179688 41.546875 -27.578125 C 41.710938 -30.972656 41.75 -34.367188 41.65625 -37.765625 C 44.238281 -37.484375 46.832031 -37.222656 49.4375 -36.984375 C 52.050781 -36.742188 54.695312 -36.457031 57.375 -36.125 C 57.613281 -32.625 57.515625 -29.113281 57.078125 -25.59375 C 56.648438 -22.082031 56.101562 -18.601562 55.4375 -15.15625 C 55.050781 -13.1875 54.4375 -11.253906 53.59375 -9.359375 C 52.757812 -7.472656 51.695312 -5.75 50.40625 -4.1875 C 49.113281 -2.632812 47.59375 -1.367188 45.84375 -0.390625 C 44.101562 0.585938 42.128906 1.148438 39.921875 1.296875 C 36.046875 1.535156 32.238281 1.640625 28.5 1.609375 C 24.769531 1.585938 21.109375 1.53125 17.515625 1.4375 C 15.554688 1.488281 13.710938 1.128906 11.984375 0.359375 C 10.265625 -0.410156 8.757812 -1.460938 7.46875 -2.796875 C 6.175781 -4.140625 5.125 -5.679688 4.3125 -7.421875 C 3.5 -9.171875 3.019531 -10.984375 2.875 -12.859375 C 2.0625 -17.117188 1.5 -21.425781 1.1875 -25.78125 C 0.875 -30.132812 1.078125 -34.515625 1.796875 -38.921875 C 4.472656 -39.253906 7.148438 -39.421875 9.828125 -39.421875 C 12.515625 -39.421875 15.269531 -39.375 18.09375 -39.28125 C 18.09375 -35.644531 18.164062 -32.039062 18.3125 -28.46875 C 18.457031 -24.90625 18.648438 -21.328125 18.890625 -17.734375 C 18.835938 -17.160156 18.859375 -16.5625 18.953125 -15.9375 C 19.054688 -15.320312 19.25 -14.75 19.53125 -14.21875 C 19.820312 -13.6875 20.191406 -13.273438 20.640625 -12.984375 C 21.097656 -12.703125 21.660156 -12.609375 22.328125 -12.703125 L 23.125 -12.703125 C 23.03125 -17.066406 22.945312 -21.445312 22.875 -25.84375 C 22.800781 -30.25 22.765625 -34.65625 22.765625 -39.0625 Z M 22.765625 -39.0625 "/></g></g><g style="fill:#078074;fill-opacity:1;"><g transform="translate(358.046697, 141.366882)"><path style="stroke:none" d=""/></g></g><g style="fill:#078074;fill-opacity:1;"><g transform="translate(371.258892, 141.366882)"><path style="stroke:none" d="M 6.25 -21.25 C 5.769531 -21.15625 5.300781 -21.15625 4.84375 -21.25 C 4.394531 -21.351562 3.90625 -21.378906 3.375 -21.328125 C 3.28125 -24.347656 3.253906 -27.363281 3.296875 -30.375 C 3.347656 -33.394531 3.585938 -36.4375 4.015625 -39.5 C 8.273438 -39.925781 12.609375 -40.078125 17.015625 -39.953125 C 21.421875 -39.835938 25.945312 -39.539062 30.59375 -39.0625 C 32.601562 -38.96875 34.585938 -38.488281 36.546875 -37.625 C 38.515625 -36.769531 40.226562 -35.625 41.6875 -34.1875 C 43.144531 -32.75 44.242188 -31.070312 44.984375 -29.15625 C 45.734375 -27.238281 45.914062 -25.179688 45.53125 -22.984375 C 45.09375 -18.910156 44.503906 -14.921875 43.765625 -11.015625 C 43.023438 -7.117188 41.984375 -3.300781 40.640625 0.4375 C 38.492188 0.71875 36.363281 0.953125 34.25 1.140625 C 32.144531 1.335938 30.0625 1.484375 28 1.578125 C 28.34375 -1.242188 28.632812 -4.09375 28.875 -6.96875 C 29.113281 -9.84375 29.300781 -12.710938 29.4375 -15.578125 C 29.539062 -16.972656 29.375 -18.242188 28.9375 -19.390625 C 28.65625 -19.910156 28.238281 -20.28125 27.6875 -20.5 C 27.132812 -20.71875 26.570312 -20.800781 26 -20.75 C 25.320312 -20.707031 24.6875 -20.695312 24.09375 -20.71875 C 23.5 -20.738281 22.863281 -20.773438 22.1875 -20.828125 C 22.28125 -13.265625 22.28125 -5.75 22.1875 1.71875 C 20.707031 1.71875 19.113281 1.679688 17.40625 1.609375 C 15.707031 1.546875 13.992188 1.460938 12.265625 1.359375 C 10.546875 1.265625 8.859375 1.117188 7.203125 0.921875 C 5.554688 0.734375 4.066406 0.519531 2.734375 0.28125 C 2.203125 -2.34375 1.921875 -4.78125 1.890625 -7.03125 C 1.867188 -9.28125 1.910156 -11.703125 2.015625 -14.296875 C 2.828125 -14.242188 3.640625 -14.179688 4.453125 -14.109375 C 5.265625 -14.035156 6.078125 -14 6.890625 -14 C 6.742188 -15.195312 6.625 -16.394531 6.53125 -17.59375 C 6.4375 -18.789062 6.34375 -20.007812 6.25 -21.25 Z M 6.25 -21.25 "/></g></g><g style="fill:#078074;fill-opacity:1;"><g transform="translate(416.137267, 141.366882)"><path style="stroke:none" d="M 2.9375 -38.484375 C 5.53125 -39.441406 8.175781 -39.773438 10.875 -39.484375 C 13.582031 -39.203125 16.15625 -38.5625 18.59375 -37.5625 C 18.882812 -31.144531 18.921875 -24.765625 18.703125 -18.421875 C 18.492188 -12.078125 17.976562 -5.769531 17.15625 0.5 C 15.007812 1.21875 12.8125 1.597656 10.5625 1.640625 C 8.3125 1.691406 6.15625 1.335938 4.09375 0.578125 C 3.425781 -5.890625 2.972656 -12.351562 2.734375 -18.8125 C 2.492188 -25.28125 2.5625 -31.835938 2.9375 -38.484375 Z M 2.9375 -38.484375 "/></g></g><g style="fill:#078074;fill-opacity:1;"><g transform="translate(435.022077, 141.366882)"><path style="stroke:none" d="M 13.640625 1.578125 C 13.492188 -0.191406 13.382812 -1.925781 13.3125 -3.625 C 13.25 -5.320312 13.164062 -7.035156 13.0625 -8.765625 C 13.019531 -9.910156 13.007812 -11.046875 13.03125 -12.171875 C 13.050781 -13.296875 13.253906 -14.410156 13.640625 -15.515625 C 14.078125 -16.273438 14.617188 -16.96875 15.265625 -17.59375 C 15.910156 -18.21875 16.519531 -18.863281 17.09375 -19.53125 L 17.09375 -19.671875 L 17.015625 -20.25 L 16.515625 -20.6875 C 13.929688 -20.78125 11.429688 -20.828125 9.015625 -20.828125 C 6.597656 -20.828125 4.191406 -20.847656 1.796875 -20.890625 C 1.609375 -23.910156 1.535156 -26.914062 1.578125 -29.90625 C 1.628906 -32.894531 1.84375 -35.945312 2.21875 -39.0625 C 4.851562 -39.5 7.507812 -39.726562 10.1875 -39.75 C 12.875 -39.769531 15.59375 -39.671875 18.34375 -39.453125 C 21.101562 -39.242188 23.894531 -38.9375 26.71875 -38.53125 C 29.539062 -38.125 32.410156 -37.679688 35.328125 -37.203125 C 35.566406 -34.804688 35.675781 -32.398438 35.65625 -29.984375 C 35.632812 -27.566406 35.550781 -25.132812 35.40625 -22.6875 L 34.96875 -22.546875 C 33.582031 -22.117188 32.457031 -21.445312 31.59375 -20.53125 C 30.738281 -19.625 30.054688 -18.582031 29.546875 -17.40625 C 29.046875 -16.238281 28.675781 -15.007812 28.4375 -13.71875 C 28.195312 -12.425781 28.050781 -11.203125 28 -10.046875 C 27.8125 -8.140625 27.632812 -6.238281 27.46875 -4.34375 C 27.300781 -2.457031 27.023438 -0.578125 26.640625 1.296875 C 24.441406 1.441406 22.265625 1.5625 20.109375 1.65625 C 17.953125 1.75 15.796875 1.722656 13.640625 1.578125 Z M 13.640625 1.578125 "/></g></g><g style="fill:#078074;fill-opacity:1;"><g transform="translate(469.560447, 141.366882)"><path style="stroke:none" d="M 13.640625 1.578125 C 13.492188 -0.191406 13.382812 -1.925781 13.3125 -3.625 C 13.25 -5.320312 13.164062 -7.035156 13.0625 -8.765625 C 13.019531 -9.910156 13.007812 -11.046875 13.03125 -12.171875 C 13.050781 -13.296875 13.253906 -14.410156 13.640625 -15.515625 C 14.078125 -16.273438 14.617188 -16.96875 15.265625 -17.59375 C 15.910156 -18.21875 16.519531 -18.863281 17.09375 -19.53125 L 17.09375 -19.671875 L 17.015625 -20.25 L 16.515625 -20.6875 C 13.929688 -20.78125 11.429688 -20.828125 9.015625 -20.828125 C 6.597656 -20.828125 4.191406 -20.847656 1.796875 -20.890625 C 1.609375 -23.910156 1.535156 -26.914062 1.578125 -29.90625 C 1.628906 -32.894531 1.84375 -35.945312 2.21875 -39.0625 C 4.851562 -39.5 7.507812 -39.726562 10.1875 -39.75 C 12.875 -39.769531 15.59375 -39.671875 18.34375 -39.453125 C 21.101562 -39.242188 23.894531 -38.9375 26.71875 -38.53125 C 29.539062 -38.125 32.410156 -37.679688 35.328125 -37.203125 C 35.566406 -34.804688 35.675781 -32.398438 35.65625 -29.984375 C 35.632812 -27.566406 35.550781 -25.132812 35.40625 -22.6875 L 34.96875 -22.546875 C 33.582031 -22.117188 32.457031 -21.445312 31.59375 -20.53125 C 30.738281 -19.625 30.054688 -18.582031 29.546875 -17.40625 C 29.046875 -16.238281 28.675781 -15.007812 28.4375 -13.71875 C 28.195312 -12.425781 28.050781 -11.203125 28 -10.046875 C 27.8125 -8.140625 27.632812 -6.238281 27.46875 -4.34375 C 27.300781 -2.457031 27.023438 -0.578125 26.640625 1.296875 C 24.441406 1.441406 22.265625 1.5625 20.109375 1.65625 C 17.953125 1.75 15.796875 1.722656 13.640625 1.578125 Z M 13.640625 1.578125 "/></g></g><g style="fill:#078074;fill-opacity:1;"><g transform="translate(504.098818, 141.366882)"><path style="stroke:none" d="M 2.9375 -38.484375 C 5.53125 -39.441406 8.175781 -39.773438 10.875 -39.484375 C 13.582031 -39.203125 16.15625 -38.5625 18.59375 -37.5625 C 18.882812 -31.144531 18.921875 -24.765625 18.703125 -18.421875 C 18.492188 -12.078125 17.976562 -5.769531 17.15625 0.5 C 15.007812 1.21875 12.8125 1.597656 10.5625 1.640625 C 8.3125 1.691406 6.15625 1.335938 4.09375 0.578125 C 3.425781 -5.890625 2.972656 -12.351562 2.734375 -18.8125 C 2.492188 -25.28125 2.5625 -31.835938 2.9375 -38.484375 Z M 2.9375 -38.484375 "/></g></g><g style="fill:#078074;fill-opacity:1;"><g transform="translate(522.983627, 141.366882)"><path style="stroke:none" d="M 22.40625 -17.09375 C 22.113281 -13.9375 21.8125 -10.785156 21.5 -7.640625 C 21.195312 -4.503906 20.925781 -1.382812 20.6875 1.71875 C 18.238281 1.625 15.816406 1.503906 13.421875 1.359375 C 11.035156 1.222656 8.664062 0.984375 6.3125 0.640625 C 5.882812 -2.804688 5.679688 -6.238281 5.703125 -9.65625 C 5.734375 -13.082031 5.867188 -16.539062 6.109375 -20.03125 C 5.148438 -23.144531 4.273438 -26.289062 3.484375 -29.46875 C 2.691406 -32.65625 2.25 -35.925781 2.15625 -39.28125 C 4.832031 -39.519531 7.523438 -39.660156 10.234375 -39.703125 C 12.941406 -39.753906 15.726562 -39.734375 18.59375 -39.640625 C 18.832031 -37.960938 19.128906 -36.3125 19.484375 -34.6875 C 19.847656 -33.0625 20.222656 -31.410156 20.609375 -29.734375 C 20.898438 -30.929688 21.351562 -32.140625 21.96875 -33.359375 C 22.59375 -34.578125 23.367188 -35.675781 24.296875 -36.65625 C 25.234375 -37.632812 26.300781 -38.390625 27.5 -38.921875 C 28.695312 -39.453125 29.96875 -39.617188 31.3125 -39.421875 C 31.832031 -39.328125 32.367188 -39.253906 32.921875 -39.203125 C 33.472656 -39.160156 34.035156 -39.066406 34.609375 -38.921875 C 36.484375 -38.628906 38.253906 -37.992188 39.921875 -37.015625 C 41.597656 -36.035156 43.035156 -34.828125 44.234375 -33.390625 C 45.429688 -31.953125 46.34375 -30.335938 46.96875 -28.546875 C 47.59375 -26.753906 47.804688 -24.851562 47.609375 -22.84375 C 46.890625 -14.789062 45.191406 -7.03125 42.515625 0.4375 C 39.398438 0.8125 36.367188 1.117188 33.421875 1.359375 C 30.484375 1.597656 27.550781 1.71875 24.625 1.71875 C 25.0625 -3.351562 25.421875 -8.398438 25.703125 -13.421875 C 26.660156 -13.472656 27.609375 -13.472656 28.546875 -13.421875 C 29.484375 -13.378906 30.425781 -13.359375 31.375 -13.359375 C 31.476562 -14.078125 31.515625 -14.757812 31.484375 -15.40625 C 31.460938 -16.050781 31.5 -16.707031 31.59375 -17.375 C 31.738281 -18 31.691406 -18.585938 31.453125 -19.140625 C 31.210938 -19.691406 30.875 -20.15625 30.4375 -20.53125 C 30.007812 -20.914062 29.507812 -21.21875 28.9375 -21.4375 C 28.363281 -21.65625 27.789062 -21.738281 27.21875 -21.6875 C 26.59375 -21.832031 25.992188 -21.785156 25.421875 -21.546875 C 24.847656 -21.304688 24.332031 -20.96875 23.875 -20.53125 C 23.425781 -20.101562 23.066406 -19.578125 22.796875 -18.953125 C 22.535156 -18.335938 22.40625 -17.71875 22.40625 -17.09375 Z M 22.40625 -17.09375 "/></g></g><g style="fill:#078074;fill-opacity:1;"><g transform="translate(569.800733, 141.366882)"><path style="stroke:none" d="M 6.25 -21.25 C 5.769531 -21.15625 5.300781 -21.15625 4.84375 -21.25 C 4.394531 -21.351562 3.90625 -21.378906 3.375 -21.328125 C 3.28125 -24.347656 3.253906 -27.363281 3.296875 -30.375 C 3.347656 -33.394531 3.585938 -36.4375 4.015625 -39.5 C 8.273438 -39.925781 12.609375 -40.078125 17.015625 -39.953125 C 21.421875 -39.835938 25.945312 -39.539062 30.59375 -39.0625 C 32.601562 -38.96875 34.585938 -38.488281 36.546875 -37.625 C 38.515625 -36.769531 40.226562 -35.625 41.6875 -34.1875 C 43.144531 -32.75 44.242188 -31.070312 44.984375 -29.15625 C 45.734375 -27.238281 45.914062 -25.179688 45.53125 -22.984375 C 45.09375 -18.910156 44.503906 -14.921875 43.765625 -11.015625 C 43.023438 -7.117188 41.984375 -3.300781 40.640625 0.4375 C 38.492188 0.71875 36.363281 0.953125 34.25 1.140625 C 32.144531 1.335938 30.0625 1.484375 28 1.578125 C 28.34375 -1.242188 28.632812 -4.09375 28.875 -6.96875 C 29.113281 -9.84375 29.300781 -12.710938 29.4375 -15.578125 C 29.539062 -16.972656 29.375 -18.242188 28.9375 -19.390625 C 28.65625 -19.910156 28.238281 -20.28125 27.6875 -20.5 C 27.132812 -20.71875 26.570312 -20.800781 26 -20.75 C 25.320312 -20.707031 24.6875 -20.695312 24.09375 -20.71875 C 23.5 -20.738281 22.863281 -20.773438 22.1875 -20.828125 C 22.28125 -13.265625 22.28125 -5.75 22.1875 1.71875 C 20.707031 1.71875 19.113281 1.679688 17.40625 1.609375 C 15.707031 1.546875 13.992188 1.460938 12.265625 1.359375 C 10.546875 1.265625 8.859375 1.117188 7.203125 0.921875 C 5.554688 0.734375 4.066406 0.519531 2.734375 0.28125 C 2.203125 -2.34375 1.921875 -4.78125 1.890625 -7.03125 C 1.867188 -9.28125 1.910156 -11.703125 2.015625 -14.296875 C 2.828125 -14.242188 3.640625 -14.179688 4.453125 -14.109375 C 5.265625 -14.035156 6.078125 -14 6.890625 -14 C 6.742188 -15.195312 6.625 -16.394531 6.53125 -17.59375 C 6.4375 -18.789062 6.34375 -20.007812 6.25 -21.25 Z M 6.25 -21.25 "/></g></g><g style="fill:#078074;fill-opacity:1;"><g transform="translate(614.679109, 141.366882)"><path style="stroke:none" d="M 3.8125 -16.875 C 4.90625 -16.820312 5.921875 -16.769531 6.859375 -16.71875 C 7.796875 -16.675781 8.726562 -16.628906 9.65625 -16.578125 C 10.59375 -16.535156 11.539062 -16.5 12.5 -16.46875 C 13.457031 -16.445312 14.507812 -16.4375 15.65625 -16.4375 C 16.28125 -16.4375 16.804688 -16.207031 17.234375 -15.75 C 17.660156 -15.300781 17.851562 -14.765625 17.8125 -14.140625 C 17.757812 -11.554688 17.78125 -8.9375 17.875 -6.28125 C 17.976562 -3.625 18.003906 -0.976562 17.953125 1.65625 C 16.847656 1.65625 15.601562 1.628906 14.21875 1.578125 C 12.832031 1.535156 11.421875 1.476562 9.984375 1.40625 C 8.546875 1.332031 7.15625 1.234375 5.8125 1.109375 C 4.476562 0.992188 3.28125 0.863281 2.21875 0.71875 C 2.21875 -1.769531 2.253906 -3.789062 2.328125 -5.34375 C 2.398438 -6.90625 2.507812 -8.285156 2.65625 -9.484375 C 2.800781 -10.679688 2.96875 -11.816406 3.15625 -12.890625 C 3.351562 -13.960938 3.570312 -15.289062 3.8125 -16.875 Z M 23.484375 1.578125 C 23.722656 -1.148438 23.890625 -3.878906 23.984375 -6.609375 C 24.078125 -9.335938 24.171875 -12.066406 24.265625 -14.796875 C 24.316406 -15.660156 24.269531 -16.535156 24.125 -17.421875 C 23.976562 -18.304688 23.644531 -19.082031 23.125 -19.75 C 22.457031 -20.132812 21.773438 -20.359375 21.078125 -20.421875 C 20.378906 -20.492188 19.695312 -20.554688 19.03125 -20.609375 C 16.15625 -20.703125 13.328125 -20.757812 10.546875 -20.78125 C 7.773438 -20.8125 5.070312 -20.875 2.4375 -20.96875 C 2.15625 -23.988281 2.0625 -27.03125 2.15625 -30.09375 C 2.25 -33.15625 2.488281 -36.191406 2.875 -39.203125 C 6.601562 -39.785156 10.414062 -40.003906 14.3125 -39.859375 C 18.21875 -39.710938 22.207031 -39.472656 26.28125 -39.140625 C 28.382812 -38.992188 30.367188 -38.414062 32.234375 -37.40625 C 34.109375 -36.40625 35.703125 -35.113281 37.015625 -33.53125 C 38.335938 -31.957031 39.304688 -30.140625 39.921875 -28.078125 C 40.546875 -26.015625 40.691406 -23.882812 40.359375 -21.6875 C 40.023438 -17.90625 39.507812 -14.171875 38.8125 -10.484375 C 38.113281 -6.796875 37.21875 -3.15625 36.125 0.4375 C 33.96875 0.8125 31.847656 1.09375 29.765625 1.28125 C 27.679688 1.476562 25.585938 1.578125 23.484375 1.578125 Z M 23.484375 1.578125 "/></g></g><g style="fill:#078074;fill-opacity:1;"><g transform="translate(654.890095, 141.366882)"><path style="stroke:none" d=""/></g></g><g style="fill:#078074;fill-opacity:1;"><g transform="translate(668.102335, 141.366882)"><path style="stroke:none" d="M 3.15625 -38.484375 C 5.789062 -39.109375 8.425781 -39.253906 11.0625 -38.921875 C 13.695312 -38.585938 16.328125 -38.132812 18.953125 -37.5625 C 19.242188 -33.4375 19.289062 -29.316406 19.09375 -25.203125 C 18.90625 -21.085938 18.429688 -16.972656 17.671875 -12.859375 C 12.878906 -11.898438 8.28125 -12.039062 3.875 -13.28125 C 3.207031 -17.351562 2.800781 -21.492188 2.65625 -25.703125 C 2.507812 -29.921875 2.675781 -34.179688 3.15625 -38.484375 Z M 3.15625 -38.484375 "/></g></g><g style="fill:#078074;fill-opacity:1;"><g transform="translate(687.346157, 141.366882)"><path style="stroke:none" d="M 3.59375 -39.140625 C 6.507812 -39.617188 9.5 -39.84375 12.5625 -39.8125 C 15.625 -39.789062 18.738281 -39.585938 21.90625 -39.203125 C 24.34375 -38.921875 26.46875 -38.070312 28.28125 -36.65625 C 30.101562 -35.25 31.578125 -33.503906 32.703125 -31.421875 C 33.828125 -29.335938 34.582031 -27.0625 34.96875 -24.59375 C 35.351562 -22.125 35.332031 -19.71875 34.90625 -17.375 C 34.664062 -15.320312 34.207031 -13.203125 33.53125 -11.015625 C 32.863281 -8.835938 31.941406 -6.835938 30.765625 -5.015625 C 29.597656 -3.203125 28.160156 -1.6875 26.453125 -0.46875 C 24.753906 0.75 22.78125 1.429688 20.53125 1.578125 C 17.945312 1.671875 15.429688 1.632812 12.984375 1.46875 C 10.546875 1.300781 8.15625 0.976562 5.8125 0.5 C 5.382812 -1.9375 4.976562 -4.375 4.59375 -6.8125 C 4.207031 -9.257812 3.894531 -11.703125 3.65625 -14.140625 C 5.425781 -13.898438 7.207031 -13.753906 9 -13.703125 C 10.800781 -13.660156 12.613281 -13.59375 14.4375 -13.5 C 15.101562 -13.40625 15.769531 -13.425781 16.4375 -13.5625 C 17.113281 -13.707031 17.785156 -13.898438 18.453125 -14.140625 C 18.785156 -14.523438 19.007812 -14.945312 19.125 -15.40625 C 19.25 -15.863281 19.289062 -16.328125 19.25 -16.796875 C 19.289062 -17.421875 19.191406 -17.992188 18.953125 -18.515625 C 18.710938 -19.046875 18.378906 -19.488281 17.953125 -19.84375 C 17.523438 -20.207031 17.035156 -20.472656 16.484375 -20.640625 C 15.929688 -20.804688 15.367188 -20.84375 14.796875 -20.75 C 12.785156 -20.707031 10.804688 -20.734375 8.859375 -20.828125 C 6.921875 -20.921875 5 -20.921875 3.09375 -20.828125 C 2.945312 -23.890625 2.882812 -26.914062 2.90625 -29.90625 C 2.925781 -32.894531 3.15625 -35.972656 3.59375 -39.140625 Z M 3.59375 -39.140625 "/></g></g><g style="fill:#078074;fill-opacity:1;"><g transform="translate(722.530787, 141.366882)"><path style="stroke:none" d="M 18.671875 1.65625 C 18.765625 -1.070312 18.847656 -3.800781 18.921875 -6.53125 C 18.992188 -9.257812 19.003906 -11.988281 18.953125 -14.71875 C 18.953125 -15.675781 18.859375 -16.617188 18.671875 -17.546875 C 18.484375 -18.484375 18.050781 -19.335938 17.375 -20.109375 C 16.851562 -20.492188 16.242188 -20.695312 15.546875 -20.71875 C 14.847656 -20.738281 14.191406 -20.773438 13.578125 -20.828125 C 11.609375 -20.867188 9.675781 -20.878906 7.78125 -20.859375 C 5.894531 -20.835938 4.039062 -20.875 2.21875 -20.96875 C 2.125 -23.988281 2.085938 -26.976562 2.109375 -29.9375 C 2.140625 -32.90625 2.347656 -35.945312 2.734375 -39.0625 C 5.503906 -39.59375 8.300781 -39.84375 11.125 -39.8125 C 13.957031 -39.789062 16.804688 -39.6875 19.671875 -39.5 C 21.878906 -39.257812 23.960938 -38.597656 25.921875 -37.515625 C 27.890625 -36.441406 29.578125 -35.066406 30.984375 -33.390625 C 32.398438 -31.710938 33.46875 -29.804688 34.1875 -27.671875 C 34.90625 -25.546875 35.144531 -23.3125 34.90625 -20.96875 C 34.5625 -17.332031 34.125 -13.726562 33.59375 -10.15625 C 33.070312 -6.59375 32.332031 -3.0625 31.375 0.4375 C 29.226562 0.863281 27.097656 1.160156 24.984375 1.328125 C 22.878906 1.492188 20.773438 1.601562 18.671875 1.65625 Z M 18.671875 1.65625 "/></g></g><g style="fill:#078074;fill-opacity:1;"><g transform="translate(757.85904, 141.366882)"><path style="stroke:none" d="M 13.640625 1.578125 C 13.492188 -0.191406 13.382812 -1.925781 13.3125 -3.625 C 13.25 -5.320312 13.164062 -7.035156 13.0625 -8.765625 C 13.019531 -9.910156 13.007812 -11.046875 13.03125 -12.171875 C 13.050781 -13.296875 13.253906 -14.410156 13.640625 -15.515625 C 14.078125 -16.273438 14.617188 -16.96875 15.265625 -17.59375 C 15.910156 -18.21875 16.519531 -18.863281 17.09375 -19.53125 L 17.09375 -19.671875 L 17.015625 -20.25 L 16.515625 -20.6875 C 13.929688 -20.78125 11.429688 -20.828125 9.015625 -20.828125 C 6.597656 -20.828125 4.191406 -20.847656 1.796875 -20.890625 C 1.609375 -23.910156 1.535156 -26.914062 1.578125 -29.90625 C 1.628906 -32.894531 1.84375 -35.945312 2.21875 -39.0625 C 4.851562 -39.5 7.507812 -39.726562 10.1875 -39.75 C 12.875 -39.769531 15.59375 -39.671875 18.34375 -39.453125 C 21.101562 -39.242188 23.894531 -38.9375 26.71875 -38.53125 C 29.539062 -38.125 32.410156 -37.679688 35.328125 -37.203125 C 35.566406 -34.804688 35.675781 -32.398438 35.65625 -29.984375 C 35.632812 -27.566406 35.550781 -25.132812 35.40625 -22.6875 L 34.96875 -22.546875 C 33.582031 -22.117188 32.457031 -21.445312 31.59375 -20.53125 C 30.738281 -19.625 30.054688 -18.582031 29.546875 -17.40625 C 29.046875 -16.238281 28.675781 -15.007812 28.4375 -13.71875 C 28.195312 -12.425781 28.050781 -11.203125 28 -10.046875 C 27.8125 -8.140625 27.632812 -6.238281 27.46875 -4.34375 C 27.300781 -2.457031 27.023438 -0.578125 26.640625 1.296875 C 24.441406 1.441406 22.265625 1.5625 20.109375 1.65625 C 17.953125 1.75 15.796875 1.722656 13.640625 1.578125 Z M 13.640625 1.578125 "/></g></g><g clip-rule="nonzero" clip-path="url(#9cde6e3449)"><path style=" stroke:none;fill-rule:nonzero;fill:#078074;fill-opacity:1;" d="M 739.296875 43.597656 L 757.730469 43.597656 L 757.730469 58.117188 L 739.296875 58.117188 Z M 739.296875 43.597656 "/></g></g></svg>